<svg width="110" height="21" viewBox="0 0 110 21" fill="none" xmlns="http://www.w3.org/2000/svg">
<path fill-rule="evenodd" clip-rule="evenodd" d="M32.8699 0.366882L29.0219 2.71587V3.99794H34.0203V0.366882H32.8699ZM103.449 5.24871C102.3 5.24871 100.918 5.37265 100.127 5.44364C99.8098 5.47212 99.5864 5.49206 99.5122 5.49206V20.6881H102.702V15.5017C103.167 15.583 103.638 15.6237 104.109 15.6234C107.039 15.6234 109.28 13.5795 109.28 10.4669C109.28 6.92756 106.811 5.24871 103.449 5.24871ZM103.737 12.7874C103.385 12.7961 103.034 12.7363 102.703 12.6111V8.30284C102.869 8.27287 103.421 8.27287 103.737 8.27287C105.145 8.27287 106.093 9.00472 106.093 10.5301C106.093 11.9957 105.116 12.7874 103.737 12.7874ZM95.9552 15.3571H92.8809V17.639H96.8433V20.6899H89.7484V5.43211H96.6159V8.47944H92.8809V12.4208H95.9552V15.3571ZM81.2757 12.9094V5.43211H78.1449V20.6899H81.2757V15.7521H81.8501L85.5271 20.6899H86.8551V17.1506C86.6039 16.787 86.3208 16.3846 86.035 15.9782L86.0347 15.9778L86.0344 15.9775L86.0339 15.9767L86.0336 15.9762L86.0329 15.9753L86.0317 15.9736C85.5992 15.3586 85.1602 14.7346 84.8149 14.2214C85.1901 13.0646 85.6997 11.3839 86.0201 10.2235L87.3697 5.43211H84.0895L81.9647 12.9076L81.2757 12.9094ZM41.0054 13.0613C41.0054 15.5039 42.8729 16.6325 44.0217 16.6325V9.49204C42.8696 9.49204 41.0054 10.6189 41.0054 13.0613ZM32.4967 20.6917V16.3887L31.9871 16.387L28.5973 20.6899H26.9024V5.43211H30.0565V7.75287C30.0565 9.33443 29.9702 12.0157 29.9104 13.8743V13.8746V13.8748L29.8905 14.4965H30.4067L32.4967 11.6043V5.43211H35.6508V20.6917H32.4967ZM2.56753 11.262C2.56753 14.3129 2.18738 17.3338 0.527344 17.9739V21.2399C4.40518 20.8132 5.61203 17.212 5.61203 11.8405V8.12649H7.68043V20.6985H10.8345V5.43186H2.56753V11.262ZM50.1062 13.0697C50.1062 10.6272 48.2387 9.49863 47.0899 9.49863V16.632C48.2387 16.632 50.1062 15.5122 50.1062 13.0697ZM47.0909 19.2959C50.5371 19.2959 53.2961 16.7318 53.2961 13.0707C53.2961 9.40972 50.5388 6.84559 47.0909 6.84559V4.76289H44.0199V6.83676C40.5736 6.83676 37.8146 9.4009 37.8146 13.062C37.8146 16.7229 40.5719 19.2871 44.0199 19.2871V21.1176H47.0909V19.2959ZM56.3044 5.43186C56.9436 6.65397 57.7985 8.30284 58.3795 9.53024L58.9837 9.52143C59.5038 8.41637 60.2595 6.95993 60.8672 5.78848L61.0522 5.43186H62.43V9.61313L60.6205 12.7874L62.684 16.4802V20.6915H61.3045L58.9804 16.0534H58.3778L56.0538 20.6915H54.6743V16.4802L56.7344 12.7874L54.9249 9.61313V5.43186H56.3044ZM72.5739 5.43211H67.6602L63.8106 20.6899H67.0277L67.6602 18.0024H72.5739L73.2064 20.6881H76.4235L72.5739 5.43211ZM68.3487 15.1967H71.8813L70.3889 8.75819H69.8146L68.3487 15.1967ZM21.3243 5.43186H16.4122L12.5625 20.6897H15.7797L16.4122 18.0021H21.3243L21.9567 20.6879H25.1738L21.3243 5.43186ZM17.0998 15.1967H20.634L19.14 8.75819H18.5656L17.0998 15.1967Z" fill="url(#paint0_linear)"/>
<defs>
<linearGradient id="paint0_linear" x1="-50.7836" y1="13.8349" x2="217.307" y2="-230.921" gradientUnits="userSpaceOnUse">
<stop stop-color="#ED5E42"/>
</linearGradient>
</defs>
</svg>
