<svg width="98" height="33" viewBox="0 0 98 33" fill="none" xmlns="http://www.w3.org/2000/svg">
<g style="mix-blend-mode:luminosity">
<path d="M23.0682 0L17.4482 31.1247L47.7552 32.5586V6.55246L23.0682 0Z" fill="#FFE043"/>
<path d="M14.1632 10.954L15.8785 23.89H13.2401L12.2597 16.5087L9.54052 23.8931H7.1777L4.50036 16.5087L3.45455 23.89H0.672852L2.36686 10.954H5.0442L8.286 19.3748L11.5277 10.954H14.1632Z" fill="black"/>
<path d="M29.308 22.1301C28.8598 22.8335 28.2278 23.3849 27.4882 23.7172C26.5401 24.1574 25.5107 24.3691 24.4751 24.337C23.6216 24.3333 22.7764 24.1592 21.9844 23.8242C21.2035 23.5053 20.4867 23.0341 19.8715 22.4353C19.2581 21.8292 18.7611 21.1044 18.4075 20.3005C18.0267 19.4379 17.8338 18.4965 17.8431 17.5451C17.8338 16.5938 18.0267 15.6524 18.4075 14.7898C18.7679 13.977 19.2717 13.2438 19.8921 12.6294C20.5075 12.0309 21.2243 11.5597 22.005 11.2406C22.7968 10.9073 23.6415 10.7351 24.4942 10.7332C25.0285 10.7338 25.5612 10.793 26.0838 10.9098C26.5528 11.0079 27.0091 11.1639 27.4434 11.3746C27.8236 11.5652 28.1814 11.8018 28.5098 12.0795C28.8035 12.3209 29.0577 12.6113 29.2624 12.9393L28.426 15.3623C28.0266 14.8787 27.535 14.4892 26.9834 14.219C26.2817 13.8534 25.5067 13.6719 24.7242 13.6899C24.1635 13.6831 23.6055 13.7725 23.0721 13.9548C22.5906 14.1234 22.1435 14.3862 21.7544 14.7294C21.3767 15.058 21.0736 15.4717 20.8673 15.9398C20.661 16.4081 20.5569 16.919 20.5623 17.4351C20.556 17.9522 20.6598 18.4643 20.8661 18.9335C21.0724 19.4027 21.376 19.8171 21.7544 20.1463C22.1435 20.4895 22.5906 20.7523 23.0721 20.9209C23.6055 21.1032 24.1635 21.1927 24.7242 21.1858C25.5208 21.2111 26.3111 21.0295 27.0253 20.6568C27.5755 20.373 28.0606 19.9668 28.4474 19.4662L29.308 21.976V22.1301Z" fill="black"/>
<path d="M32.2789 20.8953C32.4507 20.7137 32.6559 20.5712 32.8819 20.4764C33.1079 20.3817 33.3499 20.3368 33.593 20.3445C33.8362 20.3373 34.0782 20.3824 34.3042 20.4771C34.5303 20.5719 34.7356 20.7142 34.9076 20.8955C35.0796 21.0768 35.2146 21.2932 35.3046 21.5315C35.3944 21.7697 35.4372 22.0248 35.4303 22.281C35.4372 22.5373 35.3944 22.7924 35.3046 23.0307C35.2146 23.2689 35.0796 23.4853 34.9076 23.6666C34.7356 23.8479 34.5303 23.9903 34.3042 24.085C34.0782 24.1798 33.8362 24.2249 33.593 24.2176C33.3499 24.2247 33.1079 24.1796 32.8819 24.0848C32.656 23.99 32.4507 23.8476 32.2787 23.6664C32.1068 23.4851 31.9717 23.2687 31.8817 23.0305C31.7918 22.7923 31.7489 22.5373 31.7557 22.281C31.7484 22.0246 31.791 21.7694 31.8811 21.531C31.971 21.2927 32.1065 21.0763 32.2789 20.8953Z" fill="black"/>
<path d="M44.1105 22.9016C43.834 23.3002 43.4675 23.6197 43.0441 23.8311C42.542 24.0863 41.9904 24.2144 41.4331 24.2052C40.9472 24.2471 40.4584 24.1779 40.0001 24.0024C39.5418 23.8269 39.1249 23.5491 38.7779 23.1882C38.1504 22.3849 37.8352 21.3607 37.8959 20.3221V15.5195H36.0586V14.6132L39.7605 9.67505H40.5762V12.5411H43.9855V15.5171H40.5549V19.7055C40.5311 19.9193 40.5547 20.1361 40.6236 20.3388C40.6926 20.5414 40.8052 20.7245 40.9525 20.8736C41.2217 21.0931 41.5536 21.2098 41.894 21.2044C42.2111 21.2138 42.5259 21.1459 42.8141 21.0061C43.097 20.8469 43.3469 20.6296 43.549 20.367L44.1134 22.8799L44.1105 22.9016Z" fill="black"/>
<path d="M51.5366 24.2245C50.7823 24.2275 50.0354 24.0694 49.3407 23.7598C48.6665 23.4614 48.0497 23.0356 47.521 22.5034C46.9918 21.9619 46.5652 21.3192 46.2643 20.6095C45.9509 19.8596 45.794 19.0475 45.8042 18.2283C45.7939 17.4092 45.9508 16.5974 46.2643 15.8479C46.5645 15.1375 46.9906 14.4939 47.5195 13.9516C48.0485 13.42 48.6652 12.9947 49.3392 12.6968C50.035 12.3912 50.7813 12.2339 51.5352 12.2339C52.289 12.2339 53.0353 12.3912 53.7311 12.6968C54.4052 12.9945 55.022 13.4198 55.5508 13.9516C56.0799 14.4938 56.5059 15.1374 56.806 15.8479C57.1205 16.5972 57.2784 17.409 57.2691 18.2283V18.2507C57.2815 19.07 57.1245 19.8823 56.809 20.6311C56.5091 21.3352 56.0829 21.9715 55.5537 22.5049C55.0251 23.0374 54.4084 23.4632 53.7341 23.7613C53.0388 24.0706 52.2913 24.2282 51.5366 24.2245ZM51.5763 15.253C51.1693 15.2466 50.765 15.3213 50.3843 15.473C50.0293 15.6135 49.7028 15.8238 49.4222 16.0927C49.1495 16.3539 48.9352 16.6756 48.7946 17.0346C48.642 17.4198 48.564 17.8333 48.5653 18.2507V18.2949C48.5646 18.7113 48.6425 19.1236 48.7946 19.5079C48.9347 19.8688 49.1491 20.1924 49.4222 20.4553C49.7026 20.7245 50.0291 20.9348 50.3843 21.075C50.7649 21.2269 51.1693 21.3016 51.5763 21.295C52.3564 21.3116 53.1128 21.0119 53.6892 20.4576C53.962 20.1896 54.1822 19.8677 54.3374 19.5103C54.5067 19.131 54.5926 18.7163 54.5888 18.2972C54.5928 17.8711 54.5069 17.4493 54.3374 17.0625C54.1834 16.6978 53.9632 16.3683 53.6892 16.0927C53.4132 15.8283 53.0944 15.6184 52.7478 15.473C52.3746 15.32 51.9767 15.2453 51.5763 15.253Z" fill="black"/>
<path d="M64.5014 24.2245C63.7837 24.2237 63.0729 24.074 62.4099 23.7838C61.7516 23.5007 61.1543 23.0809 60.6534 22.549C60.1442 22.0039 59.7398 21.36 59.4628 20.6528C59.1624 19.8842 59.0124 19.0595 59.0219 18.2282L59.0424 18.2949C59.0335 17.4637 59.1834 16.6391 59.4834 15.8703C59.7606 15.163 60.1649 14.5189 60.674 13.9733C61.1708 13.4467 61.7605 13.0275 62.4099 12.7394C63.0586 12.4497 63.7555 12.2999 64.4601 12.2986C65.1646 12.2756 65.8654 12.4188 66.5111 12.7177C66.9904 12.9245 67.3883 13.2981 67.6386 13.7765V7.88947H70.2959V23.938H67.7237V22.7481C67.4709 23.2331 67.0636 23.608 66.573 23.8063C65.9198 24.104 65.2128 24.2468 64.5014 24.2245ZM64.8148 15.2971C64.3875 15.287 63.962 15.3616 63.561 15.5171C63.1989 15.6561 62.8655 15.8664 62.5782 16.1368C62.3047 16.3998 62.0903 16.7236 61.9506 17.085C61.7983 17.4689 61.7201 17.881 61.7205 18.2972V18.3196C61.72 18.7358 61.7982 19.148 61.9506 19.532C62.0903 19.8932 62.3047 20.2171 62.5782 20.48C62.8657 20.7501 63.1991 20.9604 63.561 21.0998C63.962 21.255 64.3875 21.3296 64.8148 21.3198C65.433 21.329 66.0437 21.1776 66.5931 20.879C67.0448 20.6666 67.4096 20.2903 67.6205 19.8185V16.7976C67.409 16.3257 67.0442 15.9495 66.5918 15.7371C66.0425 15.439 65.4324 15.2879 64.8148 15.2971Z" fill="black"/>
<path d="M78.2216 24.2269C77.5039 24.2262 76.7931 24.0765 76.1299 23.7862C75.4723 23.5028 74.8747 23.083 74.3736 22.5514C73.8642 22.0054 73.46 21.3607 73.1829 20.6528C72.8863 19.8949 72.7367 19.0822 72.7424 18.2623C72.7361 17.4417 72.8863 16.6282 73.1829 15.8696C73.46 15.1625 73.8642 14.5186 74.3729 13.9733C74.8741 13.4414 75.4717 13.0216 76.1299 12.7386C76.7931 12.4483 77.5039 12.2985 78.2216 12.2978C78.933 12.2756 79.64 12.4187 80.2926 12.7169C80.7832 12.9149 81.1905 13.2899 81.4427 13.775V12.5844H84.0149V23.9372H81.4427V22.7466C81.1905 23.2317 80.7826 23.6068 80.2926 23.8055C79.64 24.1042 78.933 24.2481 78.2216 24.2269ZM78.5157 15.2987C78.0883 15.2886 77.6628 15.3635 77.2618 15.5195C76.9001 15.6585 76.566 15.8688 76.2788 16.1391C76.0054 16.4021 75.7908 16.726 75.6512 17.0873C75.4986 17.4712 75.4203 17.8833 75.421 18.2995V18.3212C75.4203 18.7377 75.4986 19.1501 75.6512 19.5343C75.7908 19.8954 76.0054 20.2193 76.2788 20.4824C76.5666 20.7524 76.9001 20.9627 77.2618 21.1021C77.6628 21.2574 78.0883 21.3321 78.5157 21.3221C79.1339 21.3312 79.7445 21.1795 80.2933 20.8805C80.7456 20.6651 81.1092 20.2858 81.3182 19.8116V16.7906C81.106 16.3221 80.7425 15.9487 80.2926 15.7371C79.7433 15.438 79.1326 15.2864 78.5144 15.2956L78.5157 15.2987Z" fill="black"/>
<path d="M88.8048 12.5411L91.6279 19.5955L94.4504 12.5411H97.4037L90.9584 28.5895H88.0508L90.247 23.1882L85.9385 12.5411H88.8048Z" fill="black"/>
</g>
</svg>
