<svg width="114" height="32" viewBox="0 0 114 32" fill="none" xmlns="http://www.w3.org/2000/svg">
<g style="mix-blend-mode:luminosity">
<path fill-rule="evenodd" clip-rule="evenodd" d="M33.8115 0C33.3427 0.979879 32.9424 1.84326 32.5186 2.69554C30.5684 6.61002 28.6357 10.5321 26.6448 14.4254C26.155 15.3814 26.1399 16.1821 26.6343 17.1525C28.8856 21.5638 31.0708 26.0081 33.2757 30.4417C33.444 30.7799 33.5878 31.1321 33.7994 31.5993L0 31.5986V0H33.8111H33.8115ZM28.2316 3.44098H3.43513V28.1114H28.186C27.9471 27.5891 27.7694 27.1701 27.5664 26.7636C25.9702 23.5372 24.3974 20.2983 22.7539 17.0963C22.2781 16.1684 22.2819 15.3868 22.7612 14.4762C23.789 12.5245 24.743 10.5336 25.7211 8.55511C26.539 6.89919 27.3474 5.24137 28.2312 3.44067V3.44098H28.2316Z" fill="#AE485C"/>
<path fill-rule="evenodd" clip-rule="evenodd" d="M16.2315 24.131L12.2636 18.6882L11.4898 18.6878V24.1307L7.1123 24.131V7.0047H13.9582C15.8454 7.0047 17.3662 7.46392 18.5191 8.38309C19.6725 9.30321 20.2725 10.7224 20.3213 12.641C20.3213 15.674 19.2 17.543 16.9582 18.253L21.6274 24.1316L16.233 24.1319L16.2319 24.131H16.2315ZM11.4898 14.9624H14.0295C14.8834 14.9624 15.4882 14.6371 15.8428 13.9835C16.1968 13.3308 16.1968 12.6767 15.8428 12.024C15.4889 11.3714 14.8834 11.0451 14.0287 11.0451L11.4892 11.0448V14.964L11.4898 14.9619V14.9624Z" fill="#AE485C"/>
<path fill-rule="evenodd" clip-rule="evenodd" d="M47.8042 22.1511L44.9104 18.1802L44.3457 18.1798V22.1507L41.1533 22.1511V9.6607H46.1465C47.5225 9.6607 48.6314 9.99568 49.4727 10.6655C50.3141 11.3363 50.7513 12.3718 50.786 13.7716C50.786 15.9827 49.9681 17.3472 48.3327 17.8646L51.7392 22.1517H47.8042V22.1511ZM44.3443 15.464H46.1976C46.8211 15.464 47.2622 15.2251 47.5201 14.7503C47.7796 14.2739 47.7796 13.7971 47.5201 13.3207C47.2607 12.8443 46.8203 12.6068 46.1976 12.6068L44.3452 12.6065V15.464H44.3443ZM55.39 9.66016V17.97C55.39 18.3475 55.5142 18.6661 55.7617 18.9318C56.0078 19.196 56.3044 19.3565 56.6527 19.4168C56.9987 19.4756 57.3502 19.4756 57.7024 19.4168C58.0564 19.3571 58.3551 19.1966 58.6026 18.9318C58.8487 18.6661 58.9739 18.3466 58.9739 17.97L58.9742 9.66016H62.1666V17.97C62.1666 18.6055 62.0525 19.185 61.823 19.7078C61.5951 20.2315 61.286 20.6638 60.8967 21.0053C60.5092 21.3465 60.0631 21.6384 59.5637 21.8782C59.0636 22.1204 58.5414 22.2633 57.9934 22.3106C57.4468 22.3579 56.8965 22.3579 56.3436 22.3106C55.7899 22.2633 55.2648 22.1186 54.7647 21.8782C54.2645 21.6375 53.8234 21.3465 53.442 21.0053C53.0591 20.6656 52.7565 20.2315 52.5329 19.7078C52.3089 19.1856 52.1981 18.6055 52.1981 17.97L52.1983 9.66016H55.3908H55.39ZM63.244 20.0695L65.2373 18.198C65.4733 18.4928 65.769 18.7407 66.1283 18.9396C66.4876 19.1383 66.8439 19.2697 67.1961 19.3271C67.5501 19.3859 67.885 19.4002 68.2009 19.3705C68.5186 19.3413 68.7828 19.2447 68.995 19.0795C69.2058 18.9161 69.3175 18.7021 69.33 18.4441C69.3419 18.1139 69.135 17.845 68.7119 17.6325C68.2895 17.4202 67.784 17.2731 67.1943 17.192C66.1012 17.0143 65.1861 16.5889 64.4515 15.912C63.7171 15.2358 63.3492 14.3392 63.3492 13.2211C63.3492 12.0573 63.7926 11.1429 64.6803 10.4768C65.5689 9.81228 66.6306 9.4812 67.8651 9.4812C69.6185 9.4812 71.0418 10.1457 72.1364 11.4739L70.0715 13.0625C69.6491 12.6157 69.1546 12.3131 68.5894 12.1533C68.0247 11.9946 67.5334 12.0062 67.115 12.1887C66.6983 12.3711 66.4828 12.6984 66.47 13.1686C66.5063 13.7079 67.0597 14.0963 68.1293 14.3323C68.6357 14.425 69.0768 14.5258 69.4518 14.6311C69.8293 14.738 70.2225 14.8985 70.6338 15.1169C71.0452 15.3348 71.3776 15.5872 71.6324 15.8752C71.8841 16.1637 72.0886 16.5403 72.2402 17.0051C72.3926 17.469 72.4565 17.996 72.4345 18.5832C72.3991 19.3481 72.1254 20.0246 71.6136 20.6118C71.1025 21.2015 70.4846 21.6342 69.7619 21.9094C69.0384 22.1861 68.2821 22.3261 67.4948 22.3261C66.7298 22.3261 65.9693 22.1297 65.2177 21.7418C64.4661 21.3534 63.8101 20.7958 63.2455 20.0667L63.2444 20.0699L63.244 20.0695ZM82.6694 13.4699C82.6569 13.812 82.5437 14.1832 82.325 14.5826C82.1071 14.9821 81.7932 15.2878 81.3814 15.5003C82.1457 15.8879 82.6569 16.4062 82.9146 17.0535C83.174 17.7008 83.2505 18.3243 83.1444 18.9235C82.8032 21.0764 81.3216 22.1522 78.6982 22.1522L73.5992 22.1517V9.6607H78.6102C79.8329 9.6607 80.8247 10.0052 81.5826 10.6923C82.3422 11.3794 82.7047 12.3058 82.6694 13.4711V13.47V13.4699ZM76.776 14.5472H78.6112C79.0941 14.5472 79.4383 14.3609 79.6452 13.9912C79.8496 13.62 79.8529 13.2506 79.6525 12.8793C79.4543 12.5075 79.1069 12.3233 78.6123 12.3233H76.7771V14.5472H76.7761H76.776ZM76.776 19.3815H78.6112C79.2112 19.3815 79.6317 19.1675 79.8739 18.7366C80.1147 18.3089 80.1129 17.8809 79.8666 17.458C79.6172 17.0333 79.1997 16.8226 78.6123 16.8226L76.7778 16.8229V19.3818L76.7767 19.3815H76.776ZM90.3094 9.66016L94.7734 22.1519L91.3859 22.1517L90.5736 19.6462L87.2397 19.6465L86.4628 22.1525H83.0736L87.4332 9.66163H90.3094V9.6606V9.66016ZM87.945 16.8392H89.8165L88.9516 13.1882L88.8627 13.1884L87.9458 16.8401L87.945 16.8392ZM94.6147 20.0695L96.608 18.198C96.844 18.4928 97.1396 18.7407 97.4989 18.9396C97.8592 19.1383 98.2146 19.2697 98.5683 19.3271C98.9205 19.3859 99.2563 19.4002 99.5725 19.3705C99.8903 19.3413 100.154 19.2447 100.367 19.0795C100.577 18.9161 100.689 18.7021 100.702 18.4441C100.714 18.1139 100.507 17.845 100.083 17.6325C99.6611 17.4202 99.1555 17.2731 98.5659 17.192C97.4728 17.0143 96.5578 16.5889 95.8231 15.912C95.0878 15.2358 94.7198 14.3392 94.7198 13.2211C94.7198 12.0573 95.1633 11.1429 96.0511 10.4768C96.9396 9.81228 98.0013 9.4812 99.2358 9.4812C100.989 9.4812 102.412 10.1457 103.507 11.4739L101.442 13.0625C101.019 12.6157 100.524 12.3131 99.9591 12.1533C99.3946 11.9946 98.9032 12.0062 98.4848 12.1887C98.0681 12.3711 97.8526 12.6984 97.8399 13.1686C97.8761 13.7079 98.4295 14.0963 99.4991 14.3323C100.006 14.425 100.447 14.5258 100.822 14.6311C101.199 14.738 101.592 14.8985 102.004 15.1169C102.415 15.3348 102.747 15.5872 103.002 15.8752C103.254 16.1637 103.458 16.5403 103.61 17.0051C103.762 17.469 103.826 17.996 103.804 18.5832C103.769 19.3481 103.495 20.0246 102.983 20.6118C102.472 21.2015 101.853 21.6342 101.131 21.9094C100.407 22.1861 99.651 22.3261 98.8637 22.3261C98.0987 22.3261 97.3382 22.1297 96.5866 21.7418C95.8356 21.3534 95.1805 20.7958 94.6153 20.0667L94.6147 20.0699V20.0695ZM108.166 12.6229V14.5651H113.23V17.2992H108.166V19.1693H113.673V22.1519L104.972 22.1517V9.6607H113.672V12.6253L108.165 12.6242L108.166 12.6233L108.166 12.6229Z" fill="black"/>
</g>
</svg>
