<svg width="86" height="19" viewBox="0 0 86 19" fill="none" xmlns="http://www.w3.org/2000/svg">
<path d="M31.5392 18.7336C34.8552 18.7336 37.3516 17.3896 39.1923 15.0499L36.7322 13.2239C36.1245 14.003 35.3392 14.6342 34.438 15.0677C33.5368 15.5011 32.5445 15.7251 31.5392 15.7219C27.9404 15.7219 25.3327 12.8696 25.3327 9.3698C25.3327 5.86997 27.8979 2.8571 31.6418 2.8571C33.3061 2.8571 34.4823 3.23933 35.5084 3.85774V6.93514H38.6042V2.44808L38.011 1.99399C36.3092 0.691447 33.7103 0 31.538 0C26.2273 0 21.9078 4.20225 21.9078 9.36862C21.9078 14.5301 26.2261 18.7336 31.5392 18.7336ZM83.254 15.5781L83.1439 11.2651V0.739992H76.6871V3.7529H79.883V10.8938C79.883 13.97 77.4679 16.1478 75.0316 16.1478C72.5953 16.1478 71.3239 14.5044 71.3239 11.4294V0.738766H65.2926V3.75167H68.063V11.9516C68.063 16.1246 70.468 19 74.7576 19C77.2227 19 79.0997 17.6694 80.2196 15.6182H80.2696L80.7114 18.4863H85.6729V15.5817H83.2578V15.5757L83.254 15.5781ZM21.1945 0.4419H15.8138L11.1339 13.6621H11.0613L6.40641 0.4419H0.672852V3.456H3.89751L9.44712 18.5242H12.3952V18.5205L18.1826 3.45722H21.192V0.443126L21.1945 0.4419ZM40.9293 18.5252H44.1177V15.4247H40.9306L40.9293 18.5252ZM53.2423 4.23373H53.2073L53.0071 0.739992H47.3161V3.48631H50.3443V15.5793H47.3161V18.4851H61.3809V15.6365H53.5502V8.3386C53.9043 5.69698 55.9402 3.44125 58.7181 3.44125H58.7682L58.7119 6.14132H61.8076V0.690063H59.3601C56.5571 0.682759 54.4774 2.15819 53.2411 4.23496L53.2423 4.23373Z" fill="black"/>
</svg>
