<svg width="170" height="32" fill="none" xmlns="http://www.w3.org/2000/svg"><path fill-rule="evenodd" clip-rule="evenodd" d="M50.557 0l-6.015 3.601v1.966h7.813V0h-1.798zm110.328 7.484c-1.796 0-3.956.19-5.193.3-.496.043-.845.073-.961.073v23.297h4.986v-7.951c.727.125 1.463.187 2.2.187 4.579 0 8.083-3.134 8.083-7.906 0-5.426-3.861-8-9.115-8zm.45 11.558a4.35 4.35 0 01-1.617-.27v-6.605c.26-.046 1.124-.046 1.617-.046 2.2 0 3.682 1.121 3.682 3.46 0 2.247-1.526 3.46-3.682 3.46zm-12.164 3.94h-4.806v3.498h6.194v4.677h-11.091V7.765h10.735v4.672h-5.838v6.043h4.806v4.501zm-22.947-3.753V7.765h-4.894v23.392h4.894v-7.57h.898l5.748 7.57h2.076V25.73c-.393-.558-.836-1.175-1.282-1.798h-.001l-.001-.002h-.001l-.001-.002-.002-.003c-.676-.942-1.362-1.9-1.902-2.686.587-1.773 1.384-4.35 1.884-6.129l2.11-7.346h-5.128l-3.321 11.46-1.077.004zm-62.95.233c0 3.744 2.92 5.474 4.715 5.474V13.99c-1.8 0-4.715 1.727-4.715 5.472zm-13.3 11.698v-6.597l-.797-.003-5.299 6.597h-2.65V7.765h4.931v3.558c0 2.425-.135 6.536-.228 9.385l-.031.954h.807l3.267-4.434V7.765h4.93V31.16h-4.93zM3.189 16.703c0 4.677-.594 9.309-3.189 10.29V32c6.062-.654 7.948-6.175 7.948-14.41v-5.694h3.233V31.17h4.931V7.765H3.189v8.938zM77.5 19.474C77.5 15.73 74.581 14 72.785 14v10.936c1.796 0 4.716-1.717 4.716-5.462zm-4.713 9.546c5.387 0 9.7-3.931 9.7-9.544s-4.31-9.544-9.7-9.544V6.74h-4.8v3.18c-5.388 0-9.7 3.93-9.7 9.544 0 5.612 4.31 9.543 9.7 9.543v2.806h4.8V29.02zM87.189 7.765c1 1.874 2.336 4.401 3.244 6.283l.945-.013c.813-1.694 1.994-3.927 2.944-5.723l.289-.547h2.154v6.41l-2.829 4.867 3.226 5.661v6.456h-2.157l-3.632-7.11h-.942l-3.633 7.11H84.64v-6.456l3.22-5.661-2.828-4.867v-6.41h2.156zm25.433 0h-7.681l-6.018 23.392h5.029l.989-4.12h7.681l.988 4.117h5.029l-6.017-23.389zm-6.605 14.97h5.522l-2.333-9.87h-.898l-2.291 9.87zM32.509 7.765h-7.678l-6.018 23.392h5.03l.988-4.12h7.678l.989 4.117h5.029L32.509 7.765zm-6.603 14.97h5.524l-2.335-9.87h-.898l-2.291 9.87z" fill="#fff"/></svg>