<svg width="60" height="60" fill="none" xmlns="http://www.w3.org/2000/svg"><path d="M.1 59.4h59.5v-5c0-1.8-.7-3.4-1.9-4.7-.8-.8-1.9-1.4-3.1-1.7l-1.9-.5-.4-1.6.2-.1c1-.7 1.8-1.8 2.1-3.1v-.1l.1-.1.5-.5c1-.9 1.7-2.1 2.1-3.3.3-.8.4-1.7.4-2.6v-.7c0-1.4-.5-2.8-1.3-3.9-1.2-1.6-3.2-2.6-5.2-2.6h-3.9c-1.8 0-3.5.7-4.7 2l-.5.5-.1-.7c-.2-2.3-1.1-4.3-2.5-5.9l-.1-.1 2.5-2.5-1.8-1.8c-.3-.3-.5-.8-.5-1.2 0-.3.1-.6.2-.8.3-.7.9-1.2 1.7-1.2H44v-5.9h-2.5c-.7 0-1.4-.5-1.7-1.2-.1-.3-.2-.5-.2-.8 0-.5.2-.9.5-1.3l1.8-1.8-4.1-4.1L36 3.9c-.3.3-.8.5-1.2.5-.3 0-.6-.1-.8-.2-.7-.3-1.2-.9-1.2-1.7V0h-5.9v2.5c0 .7-.5 1.4-1.2 1.7-.3.1-.5.2-.8.2-.5 0-.9-.2-1.3-.5l-1.8-1.8-4.1 4.1L19.5 8c.3.3.5.8.5 1.2 0 .3-.1.6-.2.8-.3.7-.9 1.2-1.7 1.2h-2.5v2.3h-8c-1 0-1.9.4-2.5 1-.6.6-1 1.5-1 2.5v5.4c0 1 .2 1.9.5 2.8l.2 1.3-.1.1c-.5.6-.7 1.3-.7 2.1 0 1 .4 1.9 1 2.5.6.6 1.5 1 2.5 1h.9l.1.2c.5 1 1.1 1.8 2 2.4l.2.1-.4 1.9c-.2.9-.9 1.5-1.7 1.7l-1.8.4c-3.9.8-6.8 4.3-6.8 8.3v12.2h.1zm14.2-7.8l-.2-.1c-.6-.5-1.2-1-1.7-1.6l-.1-.2.6-2.2.1-.2h2.8l.6 2.4-.1.1c-.5.6-1.1 1.1-1.7 1.6l-.3.2zm-.2-8l.2-.1 1.9 1.1-.4 1.4h-3l-.4-1.3 1.7-1.1zm-.2-.9l.1-.2.2-.3.2.2.2.2-.1.2-.2.4-.3-.4-.1-.1zm7.2-10.4h.3v6.6l-.4-.1-.9-.2c-.9-.2-1.6-.8-1.7-1.7L18 35l.2-.1c.8-.6 1.5-1.5 2-2.4l.1-.2h.8zm-.4-1.3v-.3c0-.3.1-.6.1-.9v-3.2h.3c1.2 0 2.2 1 2.2 2.2 0 1.2-1 2.2-2.2 2.2h-.4zm-1.6 8.8l.1-.1.2.1c.2.1.4.1.5.2l.5.1v.3c-.1 1.5-.4 3-.9 4.4l-.1.3-3.9-2.4 3.6-2.9zm-.3 6.4l-.1.3-.9 1.5-.4.6-.5-1.9.4-1.3 1.5.8zm8.4 11.9H15v-5.3l.1-.1c3.8-2.9 6.2-7.3 6.6-12v-.4l.4.1c3 .9 5.1 3.6 5.1 6.8v10.9zm1.3-11.2c0-.6-.1-1.2-.3-1.8V45l.1-.1c.3-.4.5-.9.6-1.4l.3-1.6.1-.3.3.1c.7.2 1.4.4 2.1.4.7 0 1.5-.1 2.1-.4l.3-.1.4 1.9c.1.7.5 1.4 1 1.8l.2.2-1.5 3h-5l-.7-1.6zm-1.9-11.4v-3.8c0-1.4.9-2.6 2.2-3l.3-.1.1.3c.2 1.4 1.4 2.5 2.8 2.7l3 .4c1.1.1 2 1.1 2 2.2v1.3c0 2.8-2.3 5.1-5.1 5.1-3 .1-5.3-2.3-5.3-5.1zm4.5 22.6h-2.5v-8.2l2.5 5.1v3.1zm.6-4.7l-1.8-3.7h3.6l-1.6 3.1-.2.6zm12.9 4.7H32.4V55l4.5-8.9.2.1c.1 0 .2.1.3.1l2.3.5c2.8.6 4.9 3.1 4.9 6v5.3zm3.9 0H46v-5.4c0-1.2-.3-2.3-.8-3.3l-.2-.3.4-.1.5-.1 2.6 4.3v4.9zM47 48l.4-1.5.3.1c.5.1 1 .2 1.5.2s1-.1 1.5-.2l.3-.1.1.3.3 1v.1l-2.2 3.8L47 48zm5.4.9l1.8.4c.9.2 1.8.7 2.5 1.4 1 1 1.5 2.3 1.5 3.7V58h-8.4v-5l2.6-4.1zm.9-7.6c0 2.3-1.9 4.2-4.2 4.2-2.3 0-4.2-1.9-4.2-4.2v-2.4l.2-.1c1.4-.5 2.7-1.2 3.8-2.2l.2-.2.2.2c1.1 1 2.4 1.7 3.8 2.2l.2.1v2.4zm-11.2-5.8c0-1.1.4-2.2 1-3.1 1-1.3 2.5-2.1 4.1-2.1h3.9c1.6 0 3.1.8 4.1 2.1.7.9 1 2 1 3.1v.7c0 .7-.1 1.5-.3 2.1-.2.5-.4 1-.7 1.4l-.5 1v-1.6c0-.7-.4-1.3-1.1-1.6-1.4-.5-2.6-1.2-3.7-2.3l-.7-.7-.7.7c-1 1-2.3 1.8-3.7 2.3-.7.2-1.1.8-1.1 1.6v1.6l-.6-.9c-.3-.4-.5-.9-.7-1.4-.2-.7-.3-1.4-.3-2.1v-.8zm-.2 5l.4.6c.3.4.6.7.9 1.1l.6.5v.1c.3 1.3 1.1 2.3 2.1 3.1l.2.1-.4 1.6-1.5.4-.1-.1c-.9-1-2-1.7-3.3-2.2l-.3-.1.1-.3c.5-1.3.9-2.7 1.2-4l.1-.8zm-1.1-8.9v6.3c0 2.4-.5 4.8-1.5 7.1l-.1.2-1.5-.3c-.9-.2-1.6-.9-1.8-1.8l-.5-2.3.2-.1c1.6-1.2 2.6-3.1 2.6-5.2v-1.3c0-1.8-1.3-3.3-3.1-3.5l-3-.4c-1-.1-1.7-.9-1.7-1.9 0-1.1.9-1.9 1.9-1.9v-1.3c-1.3 0-2.4.8-2.9 1.9l-.1.1h-.1l-.5.1c-2 .5-3.4 2.3-3.4 4.4v3.8c0 2.1 1 4 2.6 5.2l.2.1-.5 2.4-.4-.6c-1-1.5-2.5-2.7-4.2-3.4h-.2v-7.3l.1-.1c1.1-.6 1.8-1.8 1.8-3.1 0-.6-.2-1.2-.5-1.7l-.1-.2.1-.2c1.7-2.5 4.5-4.1 7.5-4.1 5 .1 9.1 4.2 9.1 9.1zM16.9 13.4v-.8h1.2c1.3 0 2.4-.8 2.9-2.1.2-.4.3-.9.3-1.3 0-.8-.3-1.6-.9-2.2l-.8-.8L21.8 4l.2.2.6.6c.6.6 1.4.9 2.2.9.4 0 .9-.1 1.4-.3 1.2-.5 2-1.7 2-2.9V1.3h3.2v1.2c0 1.3.8 2.4 2.1 2.9.4.2.8.3 1.3.3.8 0 1.6-.3 2.2-.9l.8-.8 2.3 2.3-.3.1-.6.6c-.6.6-.9 1.4-.9 2.2 0 .4.1.9.3 1.4.5 1.2 1.7 2 2.9 2h1.2v3.2h-1.2c-1.3 0-2.4.8-2.9 2.1-.2.4-.3.9-.3 1.3 0 .8.3 1.6.9 2.2l.8.8-1.6 1.6-.2-.2c-1.8-1.4-4-2.3-6.5-2.3s-4.8.9-6.6 2.4l-.6.5.1-.7c0-.3.1-.6.1-.9 0-4.5-3.3-8.1-7.5-8.9H17v-.3h-.1zM7.6 31c-1.3 0-2.3-1-2.3-2.2 0-1.2 1-2.2 2.2-2.2h.3v3.1c0 .3 0 .6.1.9v.3h-.3v.1zm.2-6.1v.3h-.3c-.5 0-.9.1-1.4.3l-.3.1v-.4l-.1-.3c-.3-.8-.4-1.6-.4-2.4v-5.4c0-1.2 1-2.2 2.2-2.2h8.1c4.2 0 7.7 3.4 7.7 7.7 0 .8-.1 1.6-.4 2.4l-.2.6-.3-.1c-.4-.2-.9-.3-1.4-.3h-.4l-.1-.2c-.4-1-1.3-1.7-2.4-1.7h-1.9c-1.8 0-3.2-1.4-3.2-3.2v-2.6h-1.3v3.4l-1.7.7c-1.3.5-2.2 1.8-2.2 3.3zm1.4 4.8v-4.8c0-.9.6-1.7 1.4-2.1l1.7-.7.1.2c.8 1.3 2.2 2.2 3.9 2.2h1.9c.7 0 1.3.6 1.3 1.3v3.9c0 2.8-2.3 5.1-5.1 5.1-2.9 0-5.2-2.3-5.2-5.1zm1.6 9c.4-.4.6-.9.7-1.5l.3-1.5.3.1c.7.2 1.4.4 2.2.4.8 0 1.5-.1 2.2-.4l.3-.1.3 1.5c.1.6.4 1.1.7 1.5l.2.2-3.7 3-3.7-3 .2-.2zM8.5 40h.2c.2 0 .4-.1.5-.2l.2-.1 3.7 3L9.3 45l-.1-.3c-.5-1.4-.8-2.9-.9-4.4V40h.2zm3.2 6.7l-.5 1.8-.4-.6-.9-1.5-.1-.2 1.1-.7.3-.2.1.4.4 1zm-10.3.5c0-3.2 2.1-5.9 5.1-6.8l.4-.1v.4c.4 4.7 2.8 9.1 6.6 12l.1.1v5.3H1.4V47.2z" fill="#333"/><path fill-rule="evenodd" clip-rule="evenodd" d="M58.2 1.9h1.3v1.3h-1.3V1.9zm-3.9 0h1.3v1.3h-1.3V1.9zm-3.9 0h1.4v1.3h-1.3V1.9h-.1zm7.8 3.9h1.3v1.3h-1.3V5.8zm-3.9 0h1.3v1.3h-1.3V5.8zm-3.9 0h1.4v1.3h-1.3V5.8h-.1zm-3.8-3.9h1.3v1.3h-1.3V1.9zM.1 1.9h1.3v1.3H.1V1.9zm3.8 0h1.3v1.3H3.9V1.9zm3.9 0h1.3v1.3H7.8V1.9zM.1 5.8h1.3v1.3H.1V5.8zm3.8 0h1.3v1.3H3.9V5.8zm3.9 0h1.3v1.3H7.8V5.8zm3.9-3.9H13v1.3h-1.3V1.9zm24.4 12.3c0 3.5-2.8 6.3-6.3 6.3s-6.3-2.8-6.3-6.3 2.8-6.3 6.3-6.3 6.3 2.8 6.3 6.3zm-1.3 0c0-2.7-2.2-5-5-5-2.7 0-5 2.2-5 5s2.2 5 5 5c2.7 0 5-2.3 5-5z" fill="#333"/></svg>