<svg width="60" height="60" fill="none" xmlns="http://www.w3.org/2000/svg"><mask id="a" fill="#fff"><path d="M46.452 25.161c-2.362 0-4.616.6-6.593 1.699l-1.665-2.547c3.247-2.478 5.354-6.375 5.354-10.765C43.548 6.078 37.471 0 30 0c-7.47 0-13.548 6.077-13.548 13.548 0 4.332 2.02 8.267 5.342 10.783l-1.657 2.535a13.544 13.544 0 00-6.589-1.705C6.078 25.161 0 31.24 0 38.71s6.077 13.548 13.548 13.548c2.538 0 4.969-.693 7.1-2.009a7.733 7.733 0 002.067 2.35l1.479 1.11L25.5 53.5v-1c.043-.021.087-.039.13-.06l-1.754-1.388a5.806 5.806 0 01-2.184-3.385l-1.297-5.837a3.005 3.005 0 011.598-3.357l2.2-1.1v2.076a2.52 2.52 0 01-1.4 2.267l.866 1.73a4.45 4.45 0 002.47-3.997V26.13a.969.969 0 011.935 0v15.484H30v-9.677a.969.969 0 011.936 0v9.677h1.935V33.87a.969.969 0 011.935 0v7.742h1.936v-5.806a.969.969 0 011.936 0v17.268c.334.14.497.262.822.425l1.113.154v-2.292c1.538.586 3.184.896 4.839.896C53.922 52.258 60 46.181 60 38.71s-6.077-13.55-13.548-13.55zM30 1.935c6.404 0 11.613 5.21 11.613 11.613 0 2.275-.667 4.391-1.801 6.184a10.95 10.95 0 00-6.164-5.543 5.795 5.795 0 002.158-4.512A5.812 5.812 0 0030 3.871a5.812 5.812 0 00-5.806 5.806c0 1.82.843 3.447 2.158 4.511a10.951 10.951 0 00-6.175 5.565 11.595 11.595 0 01-1.79-6.205c0-6.403 5.21-11.613 11.613-11.613zm-3.87 7.742h7.741A3.875 3.875 0 0130 13.548a3.875 3.875 0 01-3.87-3.87zm.537-1.935C27.34 6.59 28.574 5.806 30 5.806c1.427 0 2.661.784 3.333 1.936h-6.666zM30 15.484c.653 0 1.293.078 1.913.216A1.93 1.93 0 0130 17.42a1.93 1.93 0 01-1.913-1.72A8.838 8.838 0 0130 15.484zm-6.584 9.902c.265.146.534.286.81.417-.012.108-.032.215-.032.326v4.203a13.5 13.5 0 00-2.438-2.407l1.66-2.54zm-9.868 24.937c-3.328 0-6.326-1.416-8.445-3.667a8.968 8.968 0 014.674-5.164 3.873 3.873 0 003.771 3.024c1.846 0 3.388-1.3 3.774-3.03.401.187.79.406 1.165.654.008.037.01.074.018.11l1.297 5.837c.026.115.06.228.092.342a11.507 11.507 0 01-6.346 1.894zm-3.87-15.484h7.741a3.875 3.875 0 01-3.87 3.87 3.875 3.875 0 01-3.872-3.87zm.537-1.936c.672-1.151 1.907-1.935 3.333-1.935 1.427 0 2.662.784 3.333 1.935h-6.665zm3.333 7.742a9.04 9.04 0 011.915.21 1.93 1.93 0 01-1.915 1.726 1.93 1.93 0 01-1.913-1.72 8.838 8.838 0 011.913-.216zm7.58-3.904a4.922 4.922 0 00-2.576 3.188 10.833 10.833 0 00-1.35-.583 5.8 5.8 0 002.153-4.507 5.812 5.812 0 00-5.807-5.807 5.812 5.812 0 00-5.806 5.807c0 1.82.843 3.446 2.158 4.51a10.947 10.947 0 00-6.164 5.544 11.523 11.523 0 01-1.8-6.183c0-6.404 5.209-11.613 11.612-11.613 4.64 0 8.796 2.734 10.646 6.976v1.135l-3.066 1.533zm5.969-13.515c-.79 0-1.507.32-2.03.833a11.612 11.612 0 01-3.521-2.537 8.969 8.969 0 014.683-5.192A3.873 3.873 0 0030 19.355a3.873 3.873 0 003.771-3.024 8.968 8.968 0 014.675 5.163c-2.12 2.252-5.118 3.667-8.446 3.667-.06 0-.12-.006-.18-.007a2.9 2.9 0 00-2.723-1.928zm6.662 7.955a2.898 2.898 0 00-2.791-2.149c-.34 0-.664.07-.968.178v-2.113c2.388 0 4.63-.626 6.58-1.716l1.662 2.542a13.615 13.615 0 00-2.935 3.085 2.863 2.863 0 00-.468-.04c-.383 0-.745.078-1.08.213zm4.95 1.722c-.382 0-.744.079-1.08.213a2.927 2.927 0 00-.612-1.14c2.181-3.06 5.64-4.88 9.435-4.88 6.403 0 11.613 5.21 11.613 11.614 0 2.274-.667 4.39-1.801 6.184A10.95 10.95 0 0050.1 39.35a5.796 5.796 0 002.158-4.511 5.812 5.812 0 00-5.806-5.807c-2.828 0-5.187 2.034-5.7 4.714a2.891 2.891 0 00-2.042-.843zm2.904 5.139c.327.493.727.933 1.185 1.304-.403.145-.8.308-1.185.5v-1.804zm4.839.668a3.875 3.875 0 01-3.871-3.871h7.742a3.875 3.875 0 01-3.871 3.87zm-3.333-5.807c.671-1.151 1.906-1.935 3.333-1.935 1.426 0 2.661.784 3.333 1.935h-6.666zm3.333 7.742a8.86 8.86 0 011.913.216 1.93 1.93 0 01-1.913 1.72 1.932 1.932 0 01-1.913-1.706 8.944 8.944 0 011.913-.23zm0 9.678a11.65 11.65 0 01-4.84-1.077v-7.151c.346-.224.7-.427 1.07-.6a3.874 3.874 0 003.77 3.021 3.874 3.874 0 003.771-3.024 8.969 8.969 0 014.674 5.164c-2.12 2.25-5.117 3.667-8.445 3.667z"/></mask><path d="M46.452 25.161c-2.362 0-4.616.6-6.593 1.699l-1.665-2.547c3.247-2.478 5.354-6.375 5.354-10.765C43.548 6.078 37.471 0 30 0c-7.47 0-13.548 6.077-13.548 13.548 0 4.332 2.02 8.267 5.342 10.783l-1.657 2.535a13.544 13.544 0 00-6.589-1.705C6.078 25.161 0 31.24 0 38.71s6.077 13.548 13.548 13.548c2.538 0 4.969-.693 7.1-2.009a7.733 7.733 0 002.067 2.35l1.479 1.11L25.5 53.5v-1c.043-.021.087-.039.13-.06l-1.754-1.388a5.806 5.806 0 01-2.184-3.385l-1.297-5.837a3.005 3.005 0 011.598-3.357l2.2-1.1v2.076a2.52 2.52 0 01-1.4 2.267l.866 1.73a4.45 4.45 0 002.47-3.997V26.13a.969.969 0 011.935 0v15.484H30v-9.677a.969.969 0 011.936 0v9.677h1.935V33.87a.969.969 0 011.935 0v7.742h1.936v-5.806a.969.969 0 011.936 0v17.268c.334.14.497.262.822.425l1.113.154v-2.292c1.538.586 3.184.896 4.839.896C53.922 52.258 60 46.181 60 38.71s-6.077-13.55-13.548-13.55zM30 1.935c6.404 0 11.613 5.21 11.613 11.613 0 2.275-.667 4.391-1.801 6.184a10.95 10.95 0 00-6.164-5.543 5.795 5.795 0 002.158-4.512A5.812 5.812 0 0030 3.871a5.812 5.812 0 00-5.806 5.806c0 1.82.843 3.447 2.158 4.511a10.951 10.951 0 00-6.175 5.565 11.595 11.595 0 01-1.79-6.205c0-6.403 5.21-11.613 11.613-11.613zm-3.87 7.742h7.741A3.875 3.875 0 0130 13.548a3.875 3.875 0 01-3.87-3.87zm.537-1.935C27.34 6.59 28.574 5.806 30 5.806c1.427 0 2.661.784 3.333 1.936h-6.666zM30 15.484c.653 0 1.293.078 1.913.216A1.93 1.93 0 0130 17.42a1.93 1.93 0 01-1.913-1.72A8.838 8.838 0 0130 15.484zm-6.584 9.902c.265.146.534.286.81.417-.012.108-.032.215-.032.326v4.203a13.5 13.5 0 00-2.438-2.407l1.66-2.54zm-9.868 24.937c-3.328 0-6.326-1.416-8.445-3.667a8.968 8.968 0 014.674-5.164 3.873 3.873 0 003.771 3.024c1.846 0 3.388-1.3 3.774-3.03.401.187.79.406 1.165.654.008.037.01.074.018.11l1.297 5.837c.026.115.06.228.092.342a11.507 11.507 0 01-6.346 1.894zm-3.87-15.484h7.741a3.875 3.875 0 01-3.87 3.87 3.875 3.875 0 01-3.872-3.87zm.537-1.936c.672-1.151 1.907-1.935 3.333-1.935 1.427 0 2.662.784 3.333 1.935h-6.665zm3.333 7.742a9.04 9.04 0 011.915.21 1.93 1.93 0 01-1.915 1.726 1.93 1.93 0 01-1.913-1.72 8.838 8.838 0 011.913-.216zm7.58-3.904a4.922 4.922 0 00-2.576 3.188 10.833 10.833 0 00-1.35-.583 5.8 5.8 0 002.153-4.507 5.812 5.812 0 00-5.807-5.807 5.812 5.812 0 00-5.806 5.807c0 1.82.843 3.446 2.158 4.51a10.947 10.947 0 00-6.164 5.544 11.523 11.523 0 01-1.8-6.183c0-6.404 5.209-11.613 11.612-11.613 4.64 0 8.796 2.734 10.646 6.976v1.135l-3.066 1.533zm5.969-13.515c-.79 0-1.507.32-2.03.833a11.612 11.612 0 01-3.521-2.537 8.969 8.969 0 014.683-5.192A3.873 3.873 0 0030 19.355a3.873 3.873 0 003.771-3.024 8.968 8.968 0 014.675 5.163c-2.12 2.252-5.118 3.667-8.446 3.667-.06 0-.12-.006-.18-.007a2.9 2.9 0 00-2.723-1.928zm6.662 7.955a2.898 2.898 0 00-2.791-2.149c-.34 0-.664.07-.968.178v-2.113c2.388 0 4.63-.626 6.58-1.716l1.662 2.542a13.615 13.615 0 00-2.935 3.085 2.863 2.863 0 00-.468-.04c-.383 0-.745.078-1.08.213zm4.95 1.722c-.382 0-.744.079-1.08.213a2.927 2.927 0 00-.612-1.14c2.181-3.06 5.64-4.88 9.435-4.88 6.403 0 11.613 5.21 11.613 11.614 0 2.274-.667 4.39-1.801 6.184A10.95 10.95 0 0050.1 39.35a5.796 5.796 0 002.158-4.511 5.812 5.812 0 00-5.806-5.807c-2.828 0-5.187 2.034-5.7 4.714a2.891 2.891 0 00-2.042-.843zm2.904 5.139c.327.493.727.933 1.185 1.304-.403.145-.8.308-1.185.5v-1.804zm4.839.668a3.875 3.875 0 01-3.871-3.871h7.742a3.875 3.875 0 01-3.871 3.87zm-3.333-5.807c.671-1.151 1.906-1.935 3.333-1.935 1.426 0 2.661.784 3.333 1.935h-6.666zm3.333 7.742a8.86 8.86 0 011.913.216 1.93 1.93 0 01-1.913 1.72 1.932 1.932 0 01-1.913-1.706 8.944 8.944 0 011.913-.23zm0 9.678a11.65 11.65 0 01-4.84-1.077v-7.151c.346-.224.7-.427 1.07-.6a3.874 3.874 0 003.77 3.021 3.874 3.874 0 003.771-3.024 8.969 8.969 0 014.674 5.164c-2.12 2.25-5.117 3.667-8.445 3.667z" fill="#333" stroke="#C8F5E1" stroke-width=".8" mask="url(#a)"/><path d="M25.361 52.604h0c4.655-2.329 10.43-2.329 15.085 0h0l.667.333V59.5h-16.42v-6.563l.668-.333z" stroke="#333"/></svg>