<svg width="90" height="60" fill="none" xmlns="http://www.w3.org/2000/svg"><mask id="a" fill="#fff"><path fill-rule="evenodd" clip-rule="evenodd" d="M85.5 57h3a1.5 1.5 0 110 3h-87a1.5 1.5 0 110-3h19.725l1.26-7.5H9A4.513 4.513 0 014.5 45V21A4.513 4.513 0 019 16.5h42c1.11.003 2.18.42 3 1.17V12A12.017 12.017 0 0166 0h3a12.017 12.017 0 0112 12v6l-.39 3a12.057 12.057 0 01-7.11 8.115V33H78a7.5 7.5 0 017.5 7.5V57zM59.636 5.636A9 9 0 0057 12v1.005a16.35 16.35 0 004.935-3.57 1.5 1.5 0 011.635-.315 1.48 1.48 0 01.93 1.38v2.73a12.15 12.15 0 007.71-4.995 1.5 1.5 0 011.77-.66 13.244 13.244 0 013.72 2.16A9.024 9.024 0 0069 3h-3a9 9 0 00-6.364 2.636zM61.5 13.8a14.448 14.448 0 01-4.5 2.4V18a9 9 0 009 9h3a9 9 0 009-9v-2.76a7.79 7.79 0 00-3.975-4.365c-3.769 4.936-10.406 5.577-10.888 5.623l-.017.002H63a1.466 1.466 0 01-1.02-.405A1.51 1.51 0 0161.5 15v-1.2zm8.612 24.36a4.481 4.481 0 001.633-2.205A1.5 1.5 0 0170.5 34.5v-4.605c-.497.065-.998.1-1.5.105h-3a12.397 12.397 0 01-1.5-.105V34.5a1.5 1.5 0 01-1.245 1.455 4.481 4.481 0 006.857 2.204zM61.5 29.114c-2.55-1.035-6-5.325-6-5.325V33h6v-3.885zM9 46.5h13.98l1.035-6.24A1.5 1.5 0 0125.5 39h9a1.5 1.5 0 011.485 1.74l-.96 5.76H51a1.5 1.5 0 001.5-1.5V21a1.5 1.5 0 00-1.5-1.5H9A1.5 1.5 0 007.5 21v24A1.5 1.5 0 009 46.5zM24.27 57h5.955l2.505-15h-5.955L24.27 57zm9 0H48v-7.5H34.515L33.27 57zm27.345 0H82.5v-.195L63.525 54.09 60.615 57zM76.5 52.92l6 .855V49.5h-6v3.42zm0-6.42h6v-6A4.513 4.513 0 0078 36h-3.15a7.5 7.5 0 01-14.7 0H55.5v9a4.513 4.513 0 01-4.5 4.5V57h5.385l5.55-5.565a1.55 1.55 0 011.275-.42l10.29 1.47V46.5a1.5 1.5 0 113 0z"/></mask><path fill-rule="evenodd" clip-rule="evenodd" d="M85.5 57h3a1.5 1.5 0 110 3h-87a1.5 1.5 0 110-3h19.725l1.26-7.5H9A4.513 4.513 0 014.5 45V21A4.513 4.513 0 019 16.5h42c1.11.003 2.18.42 3 1.17V12A12.017 12.017 0 0166 0h3a12.017 12.017 0 0112 12v6l-.39 3a12.057 12.057 0 01-7.11 8.115V33H78a7.5 7.5 0 017.5 7.5V57zM59.636 5.636A9 9 0 0057 12v1.005a16.35 16.35 0 004.935-3.57 1.5 1.5 0 011.635-.315 1.48 1.48 0 01.93 1.38v2.73a12.15 12.15 0 007.71-4.995 1.5 1.5 0 011.77-.66 13.244 13.244 0 013.72 2.16A9.024 9.024 0 0069 3h-3a9 9 0 00-6.364 2.636zM61.5 13.8a14.448 14.448 0 01-4.5 2.4V18a9 9 0 009 9h3a9 9 0 009-9v-2.76a7.79 7.79 0 00-3.975-4.365c-3.769 4.936-10.406 5.577-10.888 5.623l-.017.002H63a1.466 1.466 0 01-1.02-.405A1.51 1.51 0 0161.5 15v-1.2zm8.612 24.36a4.481 4.481 0 001.633-2.205A1.5 1.5 0 0170.5 34.5v-4.605c-.497.065-.998.1-1.5.105h-3a12.397 12.397 0 01-1.5-.105V34.5a1.5 1.5 0 01-1.245 1.455 4.481 4.481 0 006.857 2.204zM61.5 29.114c-2.55-1.035-6-5.325-6-5.325V33h6v-3.885zM9 46.5h13.98l1.035-6.24A1.5 1.5 0 0125.5 39h9a1.5 1.5 0 011.485 1.74l-.96 5.76H51a1.5 1.5 0 001.5-1.5V21a1.5 1.5 0 00-1.5-1.5H9A1.5 1.5 0 007.5 21v24A1.5 1.5 0 009 46.5zM24.27 57h5.955l2.505-15h-5.955L24.27 57zm9 0H48v-7.5H34.515L33.27 57zm27.345 0H82.5v-.195L63.525 54.09 60.615 57zM76.5 52.92l6 .855V49.5h-6v3.42zm0-6.42h6v-6A4.513 4.513 0 0078 36h-3.15a7.5 7.5 0 01-14.7 0H55.5v9a4.513 4.513 0 01-4.5 4.5V57h5.385l5.55-5.565a1.55 1.55 0 011.275-.42l10.29 1.47V46.5a1.5 1.5 0 113 0z" fill="#333" stroke="#C8F5E1" stroke-width="1.4" mask="url(#a)"/></svg>