<svg width="60" height="60" fill="none" xmlns="http://www.w3.org/2000/svg"><path d="M10.957 10.028h0c.553-.317.893-.89.893-1.493V6.063c0-1.046-.907-1.913-2.041-1.913H8.192c-1.135 0-2.042.867-2.042 1.913v2.472c0 .602.34 1.176.893 1.493h0l.982.563a1.963 1.963 0 001.95 0l.982-.563zm0 0l-.981.563.98-.563zM9.204 9.43h0l.981-.563-.074-.13.074.13h0a.385.385 0 00.196-.332V6.063a.561.561 0 00-.572-.549H8.192a.561.561 0 00-.573.549v2.472c0 .139.078.265.196.332h0l.982.563s0 0 0 0a.41.41 0 00.407 0zm39.681 1.08l.14.081a1.963 1.963 0 001.95 0l-2.09-.08zm0 0a.366.366 0 00-.008-.004l-.833-.478-.075.13.075-.13c-.554-.317-.894-.89-.894-1.493V6.063c0-1.046.907-1.913 2.041-1.913h1.618c1.134 0 2.041.867 2.041 1.913v2.472c0 .602-.34 1.176-.893 1.493h0l-.981.563-2.09-.08zm-.07-1.643a.385.385 0 01-.195-.332V6.063c0-.31.264-.549.572-.549h1.617a.56.56 0 01.572.549v2.472a.385.385 0 01-.195.332l-.035.02h0l-.947.543h0a.412.412 0 01-.407 0m-.982-.563h0l.075-.13-.075.13zm0 0l.982.563m0 0h0l.074-.13-.075.13zM7.043 51.028h0l.982.563a1.963 1.963 0 001.95 0l-2.932-.563zm0 0c-.553-.317-.893-.89-.893-1.493v-2.471c0-1.047.907-1.914 2.042-1.914h1.617c1.134 0 2.041.867 2.041 1.913v2.472c0 .602-.34 1.176-.893 1.493h0l-.981.563-2.933-.563zm3.338-1.493v-2.471L9.129 50.3l.075.13h0s0 0 0 0l.981-.562a.385.385 0 00.196-.333zm-2.566.333l.981.562-.98-.562h0z" fill="#333" stroke="#C8F5E1" stroke-width=".3"/><mask id="a" fill="#fff"><path fill-rule="evenodd" clip-rule="evenodd" d="M50.463 40.926a9.492 9.492 0 00-6.026 2.152l-3.88-3.992a14.07 14.07 0 001.454-2.038 13.922 13.922 0 00-1.553-16.243l3.964-3.895a9.494 9.494 0 006.041 2.164 9.481 9.481 0 004.543-1.154.819.819 0 00.29-.167 9.582 9.582 0 001.797-1.37.888.888 0 00.14-.136A9.506 9.506 0 0060 9.537C60 4.278 55.722 0 50.463 0c-5.258 0-9.537 4.278-9.537 9.537a9.49 9.49 0 002.246 6.137l-3.955 3.886a14.034 14.034 0 00-2.17-1.57 13.838 13.838 0 00-8.202-1.868 13.89 13.89 0 00-7.622 3.064h-.001l-.013.012c-.144.117-.285.237-.424.36l-3.943-3.9a9.491 9.491 0 002.232-6.12 9.481 9.481 0 00-1.154-4.546.807.807 0 00-.167-.288C16.093 1.892 13.033 0 9.537 0a9.528 9.528 0 00-4.904 1.355c-1.477.887-2.768 2.516-2.768 2.516A9.462 9.462 0 000 9.537c0 2.63 1.07 5.015 2.799 6.742a.86.86 0 00.129.123 9.585 9.585 0 001.778 1.352.898.898 0 00.287.166 9.48 9.48 0 004.544 1.154c2.298 0 4.41-.818 6.058-2.177l3.95 3.906a13.98 13.98 0 00-1.555 2.15 13.887 13.887 0 00-1.906 7.604v.008c.08 1.919.544 3.766 1.377 5.492l.005.01.002.003a13.83 13.83 0 002.172 3.236l-4.03 3.809a9.493 9.493 0 00-6.073-2.189C4.278 40.926 0 45.205 0 50.463c0 2.63 1.07 5.016 2.799 6.743a.843.843 0 00.129.123A9.5 9.5 0 009.538 60a9.556 9.556 0 006.725-2.78c.58-.575 1.054-1.253 1.513-1.954.459-.701 1.193-3.334 1.235-3.698.041-.364.063-.736.063-1.105a9.491 9.491 0 00-2.22-6.107l4.041-3.817a13.978 13.978 0 002.058 1.471 13.864 13.864 0 007.697 1.9 13.94 13.94 0 008.68-3.566l3.855 3.967a9.492 9.492 0 00-2.259 6.152 9.51 9.51 0 002.799 6.742.874.874 0 00.13.124A9.5 9.5 0 0050.463 60a9.502 9.502 0 006.63-2.691.883.883 0 00.14-.136A9.504 9.504 0 0060 50.463c0-5.258-4.278-9.537-9.537-9.537zM9.537 1.758c-1.413 0-2.609.272-3.999 1.104-1.023.613-2.26 2.054-2.26 2.054a7.713 7.713 0 00-1.52 4.62c0 1.728.567 3.325 1.522 4.617.117-.143.245-.28.385-.409.711-.653 1.666-1.014 2.686-1.014h6.393c1.02 0 1.974.36 2.687 1.015.135.125.26.256.372.394a7.732 7.732 0 001.513-4.602c0-4.29-3.49-7.78-7.779-7.78zm6.268 53.31c.18-.243.346-.498.498-.764.151-.266.927-2.64.961-2.937a7.93 7.93 0 00.052-.904c0-4.289-3.49-7.779-7.779-7.779-4.29 0-7.78 3.49-7.78 7.78A7.74 7.74 0 003.28 55.08c.117-.143.245-.28.385-.409.711-.654 1.666-1.015 2.686-1.015h6.393c1.02 0 1.974.361 2.687 1.016.136.125.261.258.374.397zm-9.454.347c-.579 0-1.11.196-1.498.552a1.92 1.92 0 00-.349.421 7.743 7.743 0 005.033 1.854c1.875 0 3.66-.681 5.048-1.863a1.938 1.938 0 00-.343-.413c-.387-.355-.92-.551-1.498-.551H6.351zm32.398-16.953a12.182 12.182 0 001.746-2.304 12.164 12.164 0 00-1.348-14.183c-1.002.923-1.69 2.19-1.736 3.28-.044 1.028.473 1.76 1.072 2.608v.001c.7.993 1.494 2.118 1.23 3.743-.227 1.395-1.093 2.136-1.789 2.732-.636.543-1.136.972-1.324 1.834-.228 1.047.1 2.391.808 3.483a11.99 11.99 0 001.285-1.137l.008-.008a.867.867 0 01.035-.038l.007-.005.006-.006zM45.78 15.04c-.142.13-.259.272-.35.422a7.743 7.743 0 005.033 1.854 7.743 7.743 0 005.047-1.866 1.944 1.944 0 00-.342-.41c-.387-.356-.92-.552-1.498-.552h-6.393c-.578 0-1.11.196-1.497.552zm12.462-5.503c0-4.29-3.49-7.78-7.779-7.78s-7.779 3.49-7.779 7.78c0 1.727.567 3.324 1.523 4.617.116-.144.244-.28.385-.41.711-.653 1.665-1.014 2.685-1.014h6.393c1.02 0 1.974.36 2.688 1.015.135.125.26.256.372.394a7.735 7.735 0 001.512-4.602zM4.853 15.04c-.141.13-.258.272-.349.422a7.743 7.743 0 005.033 1.854 7.741 7.741 0 005.046-1.866 1.954 1.954 0 00-.341-.41c-.387-.356-.92-.552-1.498-.552H6.351c-.579 0-1.11.196-1.498.552zm17.264 19c-.07.029-1.559.659-2.785 1.81a12.1 12.1 0 004.51 4.645 12.114 12.114 0 005.95 1.672 8.834 8.834 0 00-.1-1.395c-.121-.826-.304-2.069-1.172-2.761-.716-.57-1.635-.561-2.521-.552-.962.01-2.053.022-2.59-.95-.491-.887-.043-1.827.284-2.514a8.74 8.74 0 00.192-.42c-.416.021-1.155.21-1.768.465zm36.125 16.424c0-4.29-3.49-7.779-7.779-7.779s-7.779 3.49-7.779 7.779c0 1.728.567 3.325 1.523 4.617.116-.143.244-.28.385-.409.711-.654 1.665-1.015 2.685-1.015h6.393c1.02 0 1.974.361 2.688 1.016.135.124.26.256.372.394a7.74 7.74 0 001.512-4.603zM45.78 55.967a1.93 1.93 0 00-.35.421 7.743 7.743 0 005.033 1.854 7.744 7.744 0 005.047-1.866 1.957 1.957 0 00-.341-.41c-.388-.355-.92-.551-1.498-.551h-6.394c-.578 0-1.11.196-1.497.552zM25.368 20.439c-.896-.132-1.507-.359-2.018-.628 3.822-2.487 8.82-2.645 12.808-.304.616.362 1.197.776 1.737 1.235-1.158 1.101-2.167 2.726-2.24 4.438-.07 1.628.706 2.727 1.391 3.697.67.949 1.074 1.575.932 2.448-.118.725-.512 1.092-1.198 1.679-.706.604-1.584 1.355-1.898 2.794-.368 1.691.206 3.498 1.06 4.821a12.19 12.19 0 01-4.391 1.448c0-.715-.084-1.3-.12-1.552v-.003c-.142-.961-.404-2.751-1.816-3.877-1.204-.96-2.609-.945-3.635-.934-.346.004-.857.009-1.032-.06-.008-.178.211-.638.332-.89.313-.656.741-1.554.154-2.317-.694-.9-2.083-.584-2.539-.48a9.842 9.842 0 00-1.455.462c-.186.078-1.555.67-2.869 1.761-.33-.898-.55-1.828-.66-2.781.858-.041 1.86-.168 3.107-.327l.031-.004c3.373-.43 6.285-.802 6.722-2.688.173-.747-.127-1.403-.503-1.95 1.237.387 2.825.809 3.935-.075.623-.497 1.01-1.366 1.062-2.384.058-1.159-.319-2.253-1.008-2.926-.73-.711-1.588-.75-2.332-.694 0 0-2.66.223-3.557.091zm-5.862 3.403a12.12 12.12 0 012.342-2.876s1.995 1.254 3.433 1.22l3.683-.084a.97.97 0 00.093-.002c.607-.045.797.029.972.2.324.316.513.936.48 1.58-.024.492-.182.923-.401 1.097-.456.363-1.723-.04-2.564-.306h-.002c-1.1-.35-2.139-.679-2.685.185-.483.767.118 1.504.556 2.042.244.299.698.856.646 1.083-.003.014-.096.352-1.39.702-1.038.281-2.4.455-3.848.64l-.025.003c-1.209.154-2.175.276-2.96.314.058-2.035.63-4.024 1.67-5.798z"/></mask><path fill-rule="evenodd" clip-rule="evenodd" d="M50.463 40.926a9.492 9.492 0 00-6.026 2.152l-3.88-3.992a14.07 14.07 0 001.454-2.038 13.922 13.922 0 00-1.553-16.243l3.964-3.895a9.494 9.494 0 006.041 2.164 9.481 9.481 0 004.543-1.154.819.819 0 00.29-.167 9.582 9.582 0 001.797-1.37.888.888 0 00.14-.136A9.506 9.506 0 0060 9.537C60 4.278 55.722 0 50.463 0c-5.258 0-9.537 4.278-9.537 9.537a9.49 9.49 0 002.246 6.137l-3.955 3.886a14.034 14.034 0 00-2.17-1.57 13.838 13.838 0 00-8.202-1.868 13.89 13.89 0 00-7.622 3.064h-.001l-.013.012c-.144.117-.285.237-.424.36l-3.943-3.9a9.491 9.491 0 002.232-6.12 9.481 9.481 0 00-1.154-4.546.807.807 0 00-.167-.288C16.093 1.892 13.033 0 9.537 0a9.528 9.528 0 00-4.904 1.355c-1.477.887-2.768 2.516-2.768 2.516A9.462 9.462 0 000 9.537c0 2.63 1.07 5.015 2.799 6.742a.86.86 0 00.129.123 9.585 9.585 0 001.778 1.352.898.898 0 00.287.166 9.48 9.48 0 004.544 1.154c2.298 0 4.41-.818 6.058-2.177l3.95 3.906a13.98 13.98 0 00-1.555 2.15 13.887 13.887 0 00-1.906 7.604v.008c.08 1.919.544 3.766 1.377 5.492l.005.01.002.003a13.83 13.83 0 002.172 3.236l-4.03 3.809a9.493 9.493 0 00-6.073-2.189C4.278 40.926 0 45.205 0 50.463c0 2.63 1.07 5.016 2.799 6.743a.843.843 0 00.129.123A9.5 9.5 0 009.538 60a9.556 9.556 0 006.725-2.78c.58-.575 1.054-1.253 1.513-1.954.459-.701 1.193-3.334 1.235-3.698.041-.364.063-.736.063-1.105a9.491 9.491 0 00-2.22-6.107l4.041-3.817a13.978 13.978 0 002.058 1.471 13.864 13.864 0 007.697 1.9 13.94 13.94 0 008.68-3.566l3.855 3.967a9.492 9.492 0 00-2.259 6.152 9.51 9.51 0 002.799 6.742.874.874 0 00.13.124A9.5 9.5 0 0050.463 60a9.502 9.502 0 006.63-2.691.883.883 0 00.14-.136A9.504 9.504 0 0060 50.463c0-5.258-4.278-9.537-9.537-9.537zM9.537 1.758c-1.413 0-2.609.272-3.999 1.104-1.023.613-2.26 2.054-2.26 2.054a7.713 7.713 0 00-1.52 4.62c0 1.728.567 3.325 1.522 4.617.117-.143.245-.28.385-.409.711-.653 1.666-1.014 2.686-1.014h6.393c1.02 0 1.974.36 2.687 1.015.135.125.26.256.372.394a7.732 7.732 0 001.513-4.602c0-4.29-3.49-7.78-7.779-7.78zm6.268 53.31c.18-.243.346-.498.498-.764.151-.266.927-2.64.961-2.937a7.93 7.93 0 00.052-.904c0-4.289-3.49-7.779-7.779-7.779-4.29 0-7.78 3.49-7.78 7.78A7.74 7.74 0 003.28 55.08c.117-.143.245-.28.385-.409.711-.654 1.666-1.015 2.686-1.015h6.393c1.02 0 1.974.361 2.687 1.016.136.125.261.258.374.397zm-9.454.347c-.579 0-1.11.196-1.498.552a1.92 1.92 0 00-.349.421 7.743 7.743 0 005.033 1.854c1.875 0 3.66-.681 5.048-1.863a1.938 1.938 0 00-.343-.413c-.387-.355-.92-.551-1.498-.551H6.351zm32.398-16.953a12.182 12.182 0 001.746-2.304 12.164 12.164 0 00-1.348-14.183c-1.002.923-1.69 2.19-1.736 3.28-.044 1.028.473 1.76 1.072 2.608v.001c.7.993 1.494 2.118 1.23 3.743-.227 1.395-1.093 2.136-1.789 2.732-.636.543-1.136.972-1.324 1.834-.228 1.047.1 2.391.808 3.483a11.99 11.99 0 001.285-1.137l.008-.008a.867.867 0 01.035-.038l.007-.005.006-.006zM45.78 15.04c-.142.13-.259.272-.35.422a7.743 7.743 0 005.033 1.854 7.743 7.743 0 005.047-1.866 1.944 1.944 0 00-.342-.41c-.387-.356-.92-.552-1.498-.552h-6.393c-.578 0-1.11.196-1.497.552zm12.462-5.503c0-4.29-3.49-7.78-7.779-7.78s-7.779 3.49-7.779 7.78c0 1.727.567 3.324 1.523 4.617.116-.144.244-.28.385-.41.711-.653 1.665-1.014 2.685-1.014h6.393c1.02 0 1.974.36 2.688 1.015.135.125.26.256.372.394a7.735 7.735 0 001.512-4.602zM4.853 15.04c-.141.13-.258.272-.349.422a7.743 7.743 0 005.033 1.854 7.741 7.741 0 005.046-1.866 1.954 1.954 0 00-.341-.41c-.387-.356-.92-.552-1.498-.552H6.351c-.579 0-1.11.196-1.498.552zm17.264 19c-.07.029-1.559.659-2.785 1.81a12.1 12.1 0 004.51 4.645 12.114 12.114 0 005.95 1.672 8.834 8.834 0 00-.1-1.395c-.121-.826-.304-2.069-1.172-2.761-.716-.57-1.635-.561-2.521-.552-.962.01-2.053.022-2.59-.95-.491-.887-.043-1.827.284-2.514a8.74 8.74 0 00.192-.42c-.416.021-1.155.21-1.768.465zm36.125 16.424c0-4.29-3.49-7.779-7.779-7.779s-7.779 3.49-7.779 7.779c0 1.728.567 3.325 1.523 4.617.116-.143.244-.28.385-.409.711-.654 1.665-1.015 2.685-1.015h6.393c1.02 0 1.974.361 2.688 1.016.135.124.26.256.372.394a7.74 7.74 0 001.512-4.603zM45.78 55.967a1.93 1.93 0 00-.35.421 7.743 7.743 0 005.033 1.854 7.744 7.744 0 005.047-1.866 1.957 1.957 0 00-.341-.41c-.388-.355-.92-.551-1.498-.551h-6.394c-.578 0-1.11.196-1.497.552zM25.368 20.439c-.896-.132-1.507-.359-2.018-.628 3.822-2.487 8.82-2.645 12.808-.304.616.362 1.197.776 1.737 1.235-1.158 1.101-2.167 2.726-2.24 4.438-.07 1.628.706 2.727 1.391 3.697.67.949 1.074 1.575.932 2.448-.118.725-.512 1.092-1.198 1.679-.706.604-1.584 1.355-1.898 2.794-.368 1.691.206 3.498 1.06 4.821a12.19 12.19 0 01-4.391 1.448c0-.715-.084-1.3-.12-1.552v-.003c-.142-.961-.404-2.751-1.816-3.877-1.204-.96-2.609-.945-3.635-.934-.346.004-.857.009-1.032-.06-.008-.178.211-.638.332-.89.313-.656.741-1.554.154-2.317-.694-.9-2.083-.584-2.539-.48a9.842 9.842 0 00-1.455.462c-.186.078-1.555.67-2.869 1.761-.33-.898-.55-1.828-.66-2.781.858-.041 1.86-.168 3.107-.327l.031-.004c3.373-.43 6.285-.802 6.722-2.688.173-.747-.127-1.403-.503-1.95 1.237.387 2.825.809 3.935-.075.623-.497 1.01-1.366 1.062-2.384.058-1.159-.319-2.253-1.008-2.926-.73-.711-1.588-.75-2.332-.694 0 0-2.66.223-3.557.091zm-5.862 3.403a12.12 12.12 0 012.342-2.876s1.995 1.254 3.433 1.22l3.683-.084a.97.97 0 00.093-.002c.607-.045.797.029.972.2.324.316.513.936.48 1.58-.024.492-.182.923-.401 1.097-.456.363-1.723-.04-2.564-.306h-.002c-1.1-.35-2.139-.679-2.685.185-.483.767.118 1.504.556 2.042.244.299.698.856.646 1.083-.003.014-.096.352-1.39.702-1.038.281-2.4.455-3.848.64l-.025.003c-1.209.154-2.175.276-2.96.314.058-2.035.63-4.024 1.67-5.798z" fill="#333"/><path d="M28.964 22.102l-.003-.15.003.15zm9.872 16.483l.003-.003-.193-.23a.656.656 0 00-.01.01l.2.223zm.003-.003a.323.323 0 00.01-.009l-.2-.223-.003.003.193.23zm-.25-.17l-.008.008.225.199.007-.009-.224-.199zM25.285 22.336l2.38-.055.93-.021.273-.006.074-.002h.025l-.003-.15-.003-.15h-.026l-.073.002-.274.006-.93.021-2.38.055.007.3zm3.768-.387l-.092.003.007.3.092-.003-.007-.3zm15.384 21.128l-.215.209.192.197.213-.174-.19-.232zm-3.88-3.992l-.227-.195-.179.208.191.196.215-.209zm1.454-2.038l.258.152-.258-.152zm-1.553-16.243l-.21-.214-.203.199.188.213.225-.198zm3.964-3.895l.19-.232-.208-.17-.192.188.21.214zm10.584 1.01l-.096-.284-.024.008-.023.013.143.263zm.108-.045l-.134-.268h-.001l.135.268zm.181-.122l-.152-.258-.024.014-.02.017.196.227zm1.798-1.37l-.185-.237-.012.01-.012.011.209.215zm.14-.136l-.213-.212-.01.01-.008.01.23.192zm-14.061-.573l.21.214.198-.194-.179-.213-.23.193zm-3.955 3.886l-.198.225.21.184.198-.195-.21-.214zm-2.17-1.57l.152-.258-.152.259zm-8.202-1.868l-.025-.299.025.3zm-7.622 3.064l.167.25.011-.008.011-.01-.189-.232zm-.001 0l-.167-.249-.01.007-.01.008.187.235zm-.013.012l-.188-.234-.002.001.19.233zm-.424.36l-.21.213.198.197.21-.185-.198-.226zm-3.943-3.9l-.23-.193-.177.212.196.195.211-.214zM17.92 4.992l-.284.098.008.024.012.022.264-.144zm-.045-.106l-.268.133.001.004.267-.137zm-.122-.182l-.258.153.014.024.018.02.226-.197zM4.633 1.355l-.154-.257.154.257zm.905 1.507l-.154-.257.154.257zM15.803 14.14l-.232.19.244.299.23-.311-.242-.178zm-.372-.394l.204-.22h-.001l-.203.22zm-11.766 0l.203.22-.203-.22zm-.385.408l-.24.179.23.31.243-.3-.233-.189zm-.002-9.237l-.228-.195-.007.008-.006.009.241.178zM1.865 3.871l-.235-.187-.006.008.24.179zm.934 12.408l.228-.195-.008-.009-.008-.008-.212.212zm.129.123l.208-.216-.012-.012-.013-.01-.183.238zm1.778 1.352l.195-.227-.02-.018-.023-.013-.152.258zm.161.112l-.141.265h.001l.14-.265zm.126.054l.143-.264-.022-.012-.024-.008-.097.284zm10.602-1.023l.211-.213-.193-.19-.209.172.191.231zm3.95 3.906l.225.198.187-.213-.201-.199-.211.214zm-1.555 2.15l-.259-.153.26.152zm-1.906 7.604h.3v-.013l-.3.013zm0 .008h-.3v.013l.3-.013zm1.377 5.492l.281-.106-.005-.013-.005-.012-.27.13zm.005.01l-.28.105.008.023.012.021.26-.149zm.002.003l.27-.13-.005-.01-.005-.008-.26.148zm2.172 3.236l.206.218.213-.2-.196-.218-.223.2zm-4.03 3.809l-.192.231.204.17.193-.183-.206-.218zM2.798 57.205l.229-.193-.008-.01-.01-.008-.211.212zm.129.124l.208-.216-.012-.012-.013-.01-.183.238zm13.29-.064l-.202-.221-.008.007.21.214zm.045-.044l-.211-.213-.006.005-.005.006.222.202zm-.458-2.152l-.232.19.244.299.23-.312-.242-.178zm-.374-.397l.204-.22-.001-.002-.203.222zm-11.766 0l.203.22-.203-.22zm-.385.408l-.24.178.23.312.243-.301-.233-.189zm13.575-10.724l-.206-.218-.205.194.18.217.23-.193zm4.04-3.817l.197-.228-.206-.176-.197.186.206.218zm2.058 1.471l.152-.258-.152.258zm7.697 1.9l-.014-.3.014.3zm7.06-2.311l-.165-.25.166.25zm1.62-1.255l.214-.209-.2-.207-.215.194.2.222zm3.855 3.967l.228.193.176-.207-.19-.195-.215.209zm.54 12.894l.227-.195-.007-.009-.008-.008-.212.212zm.13.124l.208-.216-.012-.012-.013-.01-.183.238zm13.238-.02l-.185-.236-.012.01-.011.01.208.216zm.14-.136l-.214-.21-.01.01-.009.01.232.19zm-52.38-1.206l.203.22-.203-.22zm9.389 0l.203-.222-.203.221zm.343.412l.194.228.196-.166-.135-.22-.255.158zm-10.08.01l-.257-.156-.132.219.194.165.194-.229zm35.99-20.231l.258.152-.258-.152zm-1.746 2.304l.196.227.01-.009.01-.01-.216-.208zm-.013.011l-.196-.227-.008.007-.008.008.212.212zm-.043.046l.215.21.005-.005.005-.006-.225-.199zm-1.285 1.137l-.251.163.176.272.258-.197-.183-.238zm-.808-3.483l-.294-.065.294.065zm1.323-1.833l.195.228.001-.001-.196-.227zm1.79-2.733l-.296-.048.296.048zm-1.23-3.744l-.245.173.245-.173zm-1.072-2.608l-.3-.013.3.013zm1.736-3.28l.225-.198-.203-.23-.226.208.204.22zm6.284-6.513l-.257-.155-.132.218.194.165.195-.228zm.349-.422l.202.222h.001l-.203-.222zm9.388 0l.203-.22v-.001l-.203.22zm.342.41l.195.228.195-.167-.135-.219-.255.158zm1.22-1.311l-.233.19.245.3.23-.312-.242-.178zm-.372-.394l.203-.22-.203.22zm-11.766 0l.202.221-.202-.221zm-.385.409l-.241.178.23.312.245-.302-.234-.188zM4.504 15.462l-.256-.155-.132.218.194.165.194-.228zm.35-.422l.202.222-.203-.222zm9.388 0l.203-.22v-.001l-.203.22zm.341.41l.195.228.195-.167-.135-.219-.255.158zm4.923 8.392l.259.152-.259-.152zm2.342-2.876l.16-.254-.192-.121-.169.152.201.223zm1.502-1.155l-.164-.251-.428.278.452.238.14-.265zm12.808-.304l.152-.259-.152.259zm1.737 1.235l.207.218.242-.23-.255-.216-.194.228zm-2.24 4.438l.3.013-.3-.013zm1.391 3.697l-.245.173.245-.173zm.932 2.448l.296.048-.296-.048zm-1.198 1.679l-.195-.228.195.228zm-1.898 2.794l-.293-.063.293.063zm1.06 4.821l.146.262.279-.156-.174-.269-.252.163zm-4.391 1.448h-.3v.341l.338-.043-.038-.298zm-.12-1.555l.296-.043-.297.043zm-1.816-3.877l.188-.234-.188.234zm-3.635-.934l-.003-.3.003.3zm-1.032-.06l-.3.014.009.195.182.071.11-.28zm.332-.89l.27.13v-.001l-.27-.13zm.154-2.317l.237-.183-.237.183zm-2.539-.48l-.066-.293.066.292zm-1.455.462l-.116-.276.116.276zm-2.869 1.761l-.281.103.146.4.327-.272-.192-.23zm-.66-2.781l-.014-.3-.32.015.036.32.298-.035zm3.107-.327l.038.298-.038-.298zm.031-.004l-.038-.297.038.297zm6.722-2.688l.292.068-.292-.068zm-.503-1.95l.09-.286-.829-.26.492.716.247-.17zm3.935-.075l.187.235-.187-.235zm1.062-2.384l.3.015-.3-.015zm-1.008-2.926l.21-.215h-.001l-.21.215zm-2.332-.694l-.023-.3H28.9l.025.3zm.131 1.752l.023.3-.023-.3zm.973.2l.21-.215-.21.214zm.48 1.58l-.3-.016.3.015zm-.401 1.097l.187.235-.187-.235zm-2.566-.306l.091-.286-.09.286zm-2.685.185l-.253-.16.253.16zm.556 2.042l-.232.19.232-.19zm.646 1.083l-.292-.067.292.067zm-1.39.702l.078.29-.079-.29zm-3.848.64l.038.297-.038-.297zm-.025.003l.038.297-.038-.297zm-2.96.314l-.3-.009-.01.324.324-.016-.015-.3zm1.496 6.209l-.206-.219-.169.159.111.204.264-.144zm2.785-1.81l.115.277-.115-.277zm1.768-.466l.277.115.182-.44-.475.026.016.3zm-.192.42l-.27-.129.27.13zm-.284 2.516l.263-.145-.263.145zm2.59.95l.003.3-.003-.3zm2.52.55l-.186.236.187-.235zm1.173 2.762l.296-.043-.296.043zm.1 1.395l-.004.3.3.004.005-.3-.3-.005zm-5.95-1.672l-.152.259.152-.259zM56.73 55.066l-.233.19.245.299.23-.311-.242-.178zm-.372-.394l.203-.22v-.002l-.203.222zm-11.766 0l.202.22-.202-.22zm-.385.408l-.241.178.23.312.245-.301-.234-.189zm1.224 1.308l-.257-.155-.132.219.194.165.195-.229zm.349-.421l.202.221h.001l-.203-.221zm9.389 0l.203-.221v-.001l-.203.221zm.34.409l.196.228.195-.167-.135-.218-.255.157zM38.485 27.864l.245-.173-.245.173zm-.56 6.475l-.195-.228.195.228zm-10.38-9.668l-.09.286.09-.286zm3.886 15.844l.297-.043-.297.043zm-7.737-6.52l.27.129-.27-.13zM38.7 38.51l-.224-.2v.001l.224.199zM25.28 22.186l-.007-.3.007.3zm3.683-.085l.009-.3h-.016l.007.3zm21.499 18.524a9.79 9.79 0 00-6.215 2.22l.38.464a9.193 9.193 0 015.835-2.084v-.6zm-5.81 2.243l-3.88-3.992-.43.418 3.88 3.992.43-.418zm-3.868-3.588a14.37 14.37 0 001.486-2.08l-.518-.304c-.42.715-.895 1.38-1.422 1.995l.455.39zm1.486-2.08a14.222 14.222 0 00-1.587-16.593l-.45.396a13.622 13.622 0 011.52 15.893l.517.304zm-1.602-16.181l3.964-3.895-.42-.428-3.965 3.895.42.428zm3.563-3.877a9.794 9.794 0 006.232 2.232v-.6a9.193 9.193 0 01-5.85-2.096l-.382.464zm6.232 2.232a9.78 9.78 0 004.687-1.19l-.287-.527a9.18 9.18 0 01-4.4 1.117v.6zm4.64-1.17a1.11 1.11 0 00.147-.061l-.271-.535a.503.503 0 01-.069.028l.192.568zm.145-.06c.092-.046.173-.103.243-.164l-.392-.454a.577.577 0 01-.119.08l.269.537zm.2-.132a9.886 9.886 0 001.853-1.414l-.417-.431a9.285 9.285 0 01-1.741 1.328l.305.517zm1.83-1.393c.068-.053.13-.114.186-.181l-.462-.383a.601.601 0 01-.094.09l.37.474zm.168-.161A9.806 9.806 0 0060.3 9.537h-.6a9.206 9.206 0 01-2.68 6.498l.426.423zM60.3 9.537C60.3 4.113 55.887-.3 50.463-.3v.6C55.556.3 59.7 4.444 59.7 9.537h.6zM50.463-.3c-5.424 0-9.837 4.413-9.837 9.837h.6C41.226 4.444 45.37.3 50.463.3v-.6zm-9.837 9.837a9.79 9.79 0 002.316 6.33l.46-.386a9.192 9.192 0 01-2.176-5.944h-.6zm2.335 5.923l-3.954 3.886.42.428 3.955-3.886-.42-.428zm-3.546 3.875a14.33 14.33 0 00-2.216-1.603l-.304.517c.759.446 1.47.96 2.124 1.536l.396-.45zM37.2 17.732a14.137 14.137 0 00-8.38-1.909l.05.598a13.538 13.538 0 018.026 1.828l.304-.517zm-8.38-1.909a14.19 14.19 0 00-7.785 3.13l.378.466a13.59 13.59 0 017.458-2.998l-.05-.598zm-7.762 3.113l-.002.001.333.5.002-.002-.333-.499zm-.022.016a.501.501 0 00-.013.011l-.007.006c-.001.001 0 0 0 0l.006-.005.375.468a.498.498 0 00.013-.01l.006-.006c.002-.001.001 0 0 0l-.006.005-.374-.469zm-.015.013c-.148.12-.292.243-.433.367l.397.45c.136-.12.274-.237.414-.351l-.378-.466zm-.024.38l-3.943-3.9-.422.427 3.943 3.899.422-.427zm-3.924-3.494a9.79 9.79 0 002.302-6.314h-.6a9.191 9.191 0 01-2.162 5.928l.46.386zm2.302-6.314a9.78 9.78 0 00-1.19-4.688l-.528.287a9.18 9.18 0 011.118 4.401h.6zm-1.17-4.643a1.112 1.112 0 00-.062-.145l-.534.274c.01.017.018.04.028.067l.567-.196zm-.06-.142a1.15 1.15 0 00-.164-.245l-.453.395a.546.546 0 01.08.117l.537-.267zm-.132-.2C16.3 1.652 13.143-.3 9.537-.3v.6a9.24 9.24 0 017.958 4.557l.517-.305zM9.537-.3A9.828 9.828 0 004.48 1.098l.308.515A9.228 9.228 0 019.537.3v-.6zM5.693 3.12c1.339-.803 2.481-1.062 3.844-1.062v-.6c-1.462 0-2.713.284-4.153 1.147l.309.515zm3.844-1.062c4.124 0 7.479 3.355 7.479 7.479h.6c0-4.455-3.624-8.08-8.079-8.08v.6zm7.479 7.479c0 1.654-.54 3.184-1.455 4.424l.483.356a8.032 8.032 0 001.572-4.78h-.6zm-.98 4.412a4.163 4.163 0 00-.401-.424l-.407.44c.125.116.24.237.343.364l.464-.38zm-.402-.425c-.772-.708-1.8-1.094-2.89-1.094v.6c.948 0 1.83.335 2.484.936l.406-.442zm-2.89-1.094H6.351v.6h6.393v-.6zm-6.393 0c-1.091 0-2.12.386-2.89 1.094l.407.441c.653-.6 1.533-.935 2.483-.935v-.6zm-2.89 1.093c-.15.14-.288.287-.414.441l.466.378a3.59 3.59 0 01.355-.377l-.406-.442zm.06.452a7.437 7.437 0 01-1.463-4.438h-.6c0 1.794.589 3.453 1.581 4.795l.482-.357zM2.058 9.537c0-1.615.505-3.15 1.461-4.442l-.482-.357a8.013 8.013 0 00-1.58 4.799h.6zm-.434-5.845A9.762 9.762 0 00-.3 9.537h.6a9.16 9.16 0 011.806-5.488l-.482-.357zM-.3 9.537a9.808 9.808 0 002.887 6.955l.424-.425A9.208 9.208 0 01.3 9.537h-.6zm2.871 6.938c.051.06.11.115.174.165l.366-.476a.56.56 0 01-.084-.08l-.456.39zm.149.143a9.881 9.881 0 001.833 1.395l.305-.517a9.283 9.283 0 01-1.722-1.31l-.416.432zm1.79 1.364c.064.054.135.105.216.149l.283-.53a.594.594 0 01-.108-.074l-.39.455zm.217.15c.057.03.114.053.168.071l.195-.567a.59.59 0 01-.083-.035l-.28.53zm.122.051a9.779 9.779 0 004.688 1.19v-.6a9.178 9.178 0 01-4.4-1.117l-.288.527zm4.688 1.19c2.37 0 4.549-.843 6.249-2.245l-.382-.462a9.193 9.193 0 01-5.867 2.108v.6zm5.847-2.263l3.95 3.906.422-.427-3.95-3.905-.422.426zm3.935 3.495a14.284 14.284 0 00-1.588 2.195l.518.304a13.68 13.68 0 011.521-2.103l-.45-.396zM17.731 22.8a14.187 14.187 0 00-1.947 7.769l.6-.025a13.586 13.586 0 011.865-7.44l-.518-.303zm-1.947 7.757v.024l.001.006v.003a.161.161 0 010-.026h.6l-.002-.025v-.009a.215.215 0 01.001.027h-.6zm0 .007v.001h.6v-.002h-.6zm0 .014a14.18 14.18 0 001.407 5.61l.54-.262a13.581 13.581 0 01-1.347-5.373l-.6.025zm1.396 5.584a.337.337 0 00.008.019l.004.008-.002-.003c0-.003-.003-.007-.005-.014l.562-.21a.438.438 0 00-.005-.01l-.562.21zm.026.054l.001.003.521-.297-.002-.004-.52.298zm-.008-.015a14.135 14.135 0 002.22 3.306l.445-.401a13.533 13.533 0 01-2.125-3.166l-.54.26zm2.236 2.887l-4.03 3.809.411.436 4.031-3.809-.412-.436zm-3.633 3.796a9.794 9.794 0 00-6.264-2.258v.6c2.232 0 4.282.796 5.881 2.12l.383-.462zm-6.264-2.258C4.113 40.626-.3 45.04-.3 50.463h.6c0-5.093 4.144-9.237 9.237-9.237v-.6zM-.3 50.463a9.807 9.807 0 002.887 6.955l.424-.424A9.207 9.207 0 01.3 50.464h-.6zM2.57 57.4c.052.061.11.117.175.167l.366-.476a.54.54 0 01-.083-.08l-.458.389zm.15.145A9.8 9.8 0 009.537 60.3v-.6a9.2 9.2 0 01-6.401-2.587l-.416.432zM9.537 60.3a9.856 9.856 0 006.891-2.82l-.42-.429a9.256 9.256 0 01-6.47 2.649v.6zm6.883-2.813a.987.987 0 00.065-.064l-.444-.404a.384.384 0 01-.025.025l.404.443zm.054-.053c.604-.6 1.093-1.3 1.553-2.004l-.502-.328c-.457.698-.917 1.353-1.473 1.906l.422.426zm-.432-3.278c-.145.255-.306.5-.478.735l.483.355c.186-.252.359-.517.517-.793l-.522-.297zm-.004.723a4.145 4.145 0 00-.403-.428l-.407.441c.126.116.24.239.345.366l.465-.379zm-.404-.428c-.772-.709-1.8-1.095-2.89-1.095v.6c.948 0 1.83.336 2.484.937l.406-.443zm-2.89-1.095H6.351v.6h6.393v-.6zm-6.393 0c-1.091 0-2.12.387-2.89 1.094l.407.442c.653-.6 1.533-.936 2.483-.936v-.6zM3.46 54.45c-.15.139-.288.286-.414.44l.466.379a3.59 3.59 0 01.355-.377l-.406-.442zm.06.452a7.44 7.44 0 01-1.463-4.439h-.6a8.04 8.04 0 001.581 4.795l.483-.356zm-1.463-4.439c0-4.123 3.355-7.479 7.48-7.479v-.6c-4.456 0-8.08 3.624-8.08 8.08h.6zm7.48-7.479c4.123 0 7.478 3.356 7.478 7.48h.6c0-4.456-3.624-8.08-8.079-8.08v.6zm7.478 7.48c0 .29-.017.582-.05.868l.596.069c.036-.31.054-.625.054-.938h-.6zm2.293 1.138c.043-.375.065-.759.065-1.139h-.6c0 .357-.021.718-.062 1.07l.596.07zm.065-1.139a9.79 9.79 0 00-2.289-6.299l-.46.385a9.191 9.191 0 012.149 5.914h.6zm-2.313-5.889l4.04-3.817-.412-.436-4.04 3.817.412.436zm3.639-3.808c.649.56 1.351 1.063 2.1 1.503l.305-.517a13.685 13.685 0 01-2.014-1.44l-.391.454zm2.1 1.503a14.165 14.165 0 007.183 1.958v-.6c-2.413 0-4.778-.643-6.878-1.875l-.304.517zm7.183 1.958c.227 0 .454-.006.682-.017l-.03-.6c-.217.012-.434.017-.652.017v.6zm.681-.017a14.24 14.24 0 007.213-2.361l-.332-.5a13.642 13.642 0 01-6.909 2.262l.028.6zm7.212-2.361a14.21 14.21 0 001.654-1.281l-.401-.446c-.494.444-1.023.854-1.584 1.227l.331.5zm1.238-1.295l3.855 3.966.43-.419-3.855-3.966-.43.419zm3.842 3.563a9.793 9.793 0 00-2.33 6.346h.6c0-2.269.824-4.348 2.188-5.959l-.459-.387zm-2.33 6.346a9.81 9.81 0 002.887 6.954l.424-.424a9.209 9.209 0 01-2.71-6.53h-.6zm2.871 6.938c.052.06.11.116.175.166l.366-.476a.578.578 0 01-.086-.081l-.455.39zm.15.144a9.8 9.8 0 006.816 2.755v-.6a9.2 9.2 0 01-6.4-2.587l-.416.432zm6.816 2.755a9.802 9.802 0 006.839-2.776l-.417-.43a9.202 9.202 0 01-6.422 2.606v.6zm6.816-2.755c.066-.053.13-.113.185-.182l-.464-.38a.587.587 0 01-.092.09l.37.472zm.166-.16a9.804 9.804 0 002.855-6.922h-.6a9.204 9.204 0 01-2.68 6.5l.425.422zm2.855-6.922c0-5.424-4.413-9.837-9.837-9.837v.6c5.093 0 9.237 4.144 9.237 9.237h.6zM5.056 56.188c.327-.3.784-.473 1.295-.473v-.6c-.646 0-1.252.218-1.7.63l.405.443zm1.295-.473h6.393v-.6H6.351v.6zm6.393 0c.511 0 .969.173 1.295.472l.406-.442c-.449-.411-1.056-.63-1.7-.63v.6zm1.295.472c.12.11.216.227.29.349l.511-.314a2.24 2.24 0 00-.395-.477l-.406.442zm.351-.037a7.491 7.491 0 01-4.853 1.792v.6a8.09 8.09 0 005.242-1.935l-.389-.457zm-4.853 1.792A7.443 7.443 0 014.7 56.16l-.389.457a8.044 8.044 0 005.227 1.925v-.6zm-4.776-1.399c.075-.124.173-.244.295-.355l-.405-.443a2.219 2.219 0 00-.403.488l.513.31zm35.475-20.537a11.885 11.885 0 01-1.703 2.247l.432.417a12.486 12.486 0 001.788-2.36l-.517-.304zm-1.757 2.303c-.39.398-.808.768-1.253 1.108l.365.477c.467-.358.907-.746 1.317-1.165l-.429-.42zm-.819 1.183c-.678-1.043-.974-2.307-.767-3.256l-.587-.127c-.249 1.145.11 2.571.85 3.71l.504-.327zm-.767-3.255c.164-.753.586-1.123 1.225-1.67l-.39-.456c-.63.54-1.21 1.027-1.422 1.998l.587.127zm1.835-8.547c-.608-.86-1.056-1.511-1.017-2.422l-.6-.026c-.048 1.146.537 1.96 1.127 2.794l.49-.346zm-1.017-2.422c.042-.988.678-2.186 1.639-3.072l-.407-.441c-1.04.959-1.78 2.297-1.831 3.487l.599.026zm1.21-3.095a11.864 11.864 0 011.315 13.833l.517.304a12.464 12.464 0 00-1.381-14.533l-.45.396zm6.767-6.556a1.61 1.61 0 01.294-.355l-.404-.443a2.21 2.21 0 00-.404.488l.514.31zm.295-.356c.326-.3.783-.473 1.294-.473v-.6c-.645 0-1.252.22-1.7.631l.406.442zm1.294-.473h6.393v-.6h-6.393v.6zm6.393 0c.512 0 .97.173 1.295.473l.406-.442c-.448-.412-1.055-.63-1.7-.63v.6zm1.295.473c.12.11.215.226.29.346l.51-.315a2.244 2.244 0 00-.394-.473l-.406.442zm.35-.04a7.443 7.443 0 01-4.852 1.795v.6c2 0 3.83-.732 5.242-1.938l-.39-.457zm-4.852 1.795a7.443 7.443 0 01-4.838-1.783l-.389.457a8.043 8.043 0 005.227 1.926v-.6zm0-14.958c4.124 0 7.48 3.355 7.48 7.479h.6c0-4.455-3.625-8.08-8.08-8.08v.6zm7.48 7.479a7.432 7.432 0 01-1.455 4.424l.483.356a8.036 8.036 0 001.571-4.78h-.6zm-.981 4.412a4.15 4.15 0 00-.401-.424l-.407.44c.125.116.24.238.343.364l.465-.38zm-.402-.425c-.772-.708-1.8-1.094-2.89-1.094v.6c.95 0 1.83.335 2.485.936l.405-.442zm-2.89-1.094h-6.393v.6h6.393v-.6zm-6.393 0c-1.09 0-2.118.386-2.888 1.094l.406.442c.652-.6 1.533-.936 2.482-.936v-.6zm-2.888 1.094a3.91 3.91 0 00-.415.441l.467.377a3.45 3.45 0 01.353-.376l-.405-.442zm.06.451a7.438 7.438 0 01-1.465-4.438h-.6c0 1.794.589 3.453 1.582 4.795l.482-.357zm-1.465-4.438c0-4.124 3.356-7.48 7.479-7.48v-.6c-4.455 0-8.079 3.625-8.079 8.08h.6zm-38.223 6.08a1.62 1.62 0 01.295-.356l-.405-.442a2.22 2.22 0 00-.403.488l.513.31zm.295-.356c.327-.3.784-.473 1.295-.473v-.6c-.646 0-1.252.22-1.7.631l.405.442zm1.295-.473h6.393v-.6H6.351v.6zm6.393 0c.511 0 .969.173 1.295.473l.406-.442c-.449-.412-1.056-.63-1.7-.63v.6zm1.294.472c.12.11.216.227.29.347l.51-.315a2.257 2.257 0 00-.393-.473l-.407.441zm.35-.038a7.441 7.441 0 01-4.851 1.794v.6c2 0 3.83-.732 5.24-1.938l-.389-.457zm-4.851 1.794a7.443 7.443 0 01-4.838-1.783l-.389.457a8.043 8.043 0 005.227 1.926v-.6zm10.228 6.978a11.82 11.82 0 012.284-2.806l-.402-.445a12.42 12.42 0 00-2.4 2.947l.518.304zm5.647-3.852c-.863-.127-1.442-.343-1.922-.596l-.28.53c.542.286 1.185.523 2.114.66l.088-.594zm-1.898-.08c3.727-2.425 8.603-2.579 12.492-.297l.304-.517c-4.088-2.399-9.208-2.237-13.124.312l.328.503zm12.492-.297c.601.354 1.168.758 1.695 1.206l.388-.457a12.602 12.602 0 00-1.78-1.266l-.303.517zm1.682.76c-1.192 1.133-2.255 2.826-2.333 4.643l.6.025c.068-1.609 1.023-3.165 2.147-4.233l-.414-.435zm-2.333 4.642c-.074 1.74.764 2.916 1.446 3.883l.49-.346c-.687-.973-1.4-1.996-1.336-3.511l-.6-.026zm1.446 3.883c.68.963 1 1.492.88 2.227l.593.096c.164-1.01-.323-1.734-.983-2.669l-.49.346zm.88 2.226c-.098.606-.406.91-1.096 1.5l.39.456c.682-.583 1.161-1.014 1.299-1.859l-.592-.097zm-1.096 1.5c-.708.605-1.66 1.413-1.996 2.959l.586.127c.29-1.333 1.097-2.028 1.8-2.63l-.39-.456zm-1.996 2.959c-.39 1.793.219 3.681 1.1 5.047l.504-.325c-.826-1.28-1.364-3.007-1.018-4.595l-.586-.127zm1.206 4.622a11.89 11.89 0 01-4.282 1.413l.076.595a12.491 12.491 0 004.499-1.484l-.293-.524zm-4.068.112c-.139-.95-.409-2.86-1.925-4.068l-.373.469c1.307 1.042 1.562 2.712 1.704 3.686l.594-.087zM29.802 36.4c-1.298-1.035-2.807-1.01-3.825-1l.006.6c1.035-.011 2.334-.017 3.445.869l.374-.47zm-3.826-1a12.62 12.62 0 01-.566-.003 3.127 3.127 0 01-.24-.016 1.01 1.01 0 01-.105-.018l-.008-.002-.218.559c.081.032.178.047.26.057.09.01.19.016.29.02.201.007.423.005.595.003l-.008-.6zm-.728.227c0 .008 0-.014.02-.08.017-.06.043-.131.076-.21.065-.16.146-.33.207-.458l-.542-.259a9.34 9.34 0 00-.221.49c-.036.089-.07.18-.096.267a.884.884 0 00-.044.276l.6-.026zm.303-.748c.153-.322.358-.746.439-1.194.083-.46.04-.969-.319-1.435l-.475.367c.228.296.265.618.203.96-.064.357-.23.71-.39 1.044l.542.258zm.12-2.629c-.423-.549-1.048-.71-1.583-.733-.535-.023-1.031.091-1.26.143l.133.585c.229-.052.655-.148 1.102-.129.447.02.863.15 1.133.5l.475-.366zm-2.842-.59c-.759.172-1.427.446-1.505.479l.231.553a9.536 9.536 0 011.407-.447l-.133-.585zm-1.505.479a12.62 12.62 0 00-2.944 1.806l.383.462a12.023 12.023 0 012.793-1.715l-.232-.553zm-2.47 1.934a11.77 11.77 0 01-.645-2.713l-.596.07c.113.976.339 1.929.677 2.85l.563-.207zm-.928-2.379c.871-.041 1.887-.17 3.13-.328l-.076-.595c-1.251.159-2.24.284-3.083.324l.029.6zm3.13-.328l.032-.004-.078-.595-.031.004.078.595zm.031-.004c1.677-.214 3.279-.418 4.515-.81 1.228-.39 2.205-1.002 2.461-2.108l-.584-.136c-.181.78-.879 1.297-2.06 1.672-1.172.372-2.712.57-4.408.787l.076.595zm6.976-2.918c.202-.87-.155-1.617-.548-2.188l-.494.34c.36.523.602 1.089.458 1.712l.584.136zm-.884-1.732c.619.194 1.355.407 2.085.453.734.046 1.492-.075 2.126-.58l-.374-.469c-.476.38-1.067.49-1.714.45-.65-.04-1.326-.233-1.944-.426l-.18.573zm4.21-.126c.71-.565 1.121-1.526 1.176-2.604l-.6-.03c-.048.958-.41 1.736-.949 2.164l.374.47zm1.176-2.604c.061-1.226-.335-2.41-1.099-3.156l-.42.43c.617.6.974 1.604.92 2.696l.599.03zm-1.099-3.156c-.824-.804-1.795-.837-2.564-.779l.046.599c.718-.055 1.465-.009 2.1.61l.418-.43zm-2.387 1.572c.295-.021.458-.011.557.012.083.02.128.048.184.103l.419-.43a.942.942 0 00-.466-.257c-.19-.045-.427-.05-.739-.026l.045.599zm.74.115c.24.235.42.756.39 1.35l.6.03c.035-.692-.162-1.41-.57-1.809l-.42.429zm.39 1.35c-.01.22-.05.421-.11.58-.06.166-.129.26-.178.298l.374.47c.17-.136.289-.345.368-.561a2.61 2.61 0 00.146-.757l-.6-.03zm-2.576.52c-.538-.17-1.115-.355-1.63-.375a1.72 1.72 0 00-.773.13c-.249.111-.46.294-.627.557l.508.32a.82.82 0 01.363-.328c.138-.061.304-.087.506-.08.417.017.91.17 1.472.349l.18-.572zm-3.03.312c-.307.487-.262.97-.09 1.382.164.395.454.747.668 1.01l.465-.38c-.225-.276-.455-.56-.58-.86-.117-.283-.132-.552.045-.832l-.508-.32zm.578 2.391c.123.152.289.355.417.546a1.7 1.7 0 01.142.245c.035.081.017.08.027.036l.585.134c.036-.158-.02-.314-.063-.41a2.28 2.28 0 00-.193-.339 8.242 8.242 0 00-.45-.591l-.465.38zm.585.828c.02-.086.054-.055-.09.046-.146.102-.457.263-1.086.433l.157.58c.665-.18 1.049-.365 1.273-.522.227-.16.31-.305.332-.405l-.585-.132zm-1.176.479c-1.013.274-2.352.446-3.806.63l.075.596c1.44-.183 2.826-.36 3.888-.647l-.157-.58zm-3.806.63l-.026.004.076.595.025-.003-.076-.595zm-.026.004c-1.213.155-2.165.275-2.937.312l.029.6c.8-.04 1.78-.163 2.984-.317l-.076-.595zm-2.623.62a11.833 11.833 0 011.63-5.654l-.518-.304a12.435 12.435 0 00-1.712 5.941l.6.017zm1.402 6.42c1.186-1.114 2.635-1.727 2.695-1.752l-.23-.554c-.08.033-1.609.68-2.875 1.868l.41.438zm2.695-1.752c.595-.248 1.299-.424 1.669-.443l-.032-.6c-.462.025-1.235.226-1.867.489l.23.554zm1.376-.857c-.053.128-.125.28-.185.405l.541.259a9.46 9.46 0 00.198-.435l-.554-.23zm-.462 3.195c.318.574.804.856 1.324.988.505.129 1.06.121 1.532.116l-.006-.6c-.49.005-.962.009-1.378-.097-.4-.102-.727-.3-.946-.697l-.526.29zm2.856 1.104c.91-.01 1.713-.007 2.33.486l.375-.469c-.813-.648-1.848-.626-2.712-.617l.007.6zm2.33.486c.374.298.611.723.77 1.193.16.47.232.962.293 1.378l.593-.087c-.06-.41-.139-.954-.318-1.484-.18-.53-.468-1.074-.963-1.469l-.374.47zm1.063 2.57c.03.216.106.738.098 1.347l.6.009a9.138 9.138 0 00-.105-1.442l-.593.086zm.402 1.052a11.815 11.815 0 01-5.803-1.63l-.304.517a12.415 12.415 0 006.098 1.712l.01-.6zm-5.803-1.63a11.8 11.8 0 01-4.399-4.531l-.526.288a12.4 12.4 0 004.621 4.76l.304-.517zm26.469 2.748c4.124 0 7.48 3.355 7.48 7.479h.6c0-4.455-3.625-8.079-8.08-8.079v.6zm7.48 7.479a7.44 7.44 0 01-1.455 4.425l.483.356a8.04 8.04 0 001.571-4.781h-.6zm-.981 4.413a4.15 4.15 0 00-.401-.425l-.407.441c.125.115.24.237.343.364l.465-.38zm-.402-.425c-.772-.709-1.8-1.095-2.89-1.095v.6c.95 0 1.83.336 2.485.937l.405-.443zm-2.89-1.095h-6.393v.6h6.393v-.6zm-6.393 0c-1.09 0-2.118.387-2.888 1.094l.406.442c.652-.6 1.533-.936 2.482-.936v-.6zm-2.888 1.094c-.152.139-.29.287-.415.441l.467.378c.106-.132.224-.258.353-.377l-.405-.442zm.06.451a7.437 7.437 0 01-1.465-4.438h-.6c0 1.794.589 3.453 1.582 4.795l.482-.357zm-1.465-4.438c0-4.123 3.356-7.479 7.479-7.479v-.6c-4.455 0-8.079 3.624-8.079 8.079h.6zm2.704 6.08c.075-.124.172-.244.294-.355l-.404-.443a2.209 2.209 0 00-.404.488l.514.31zm.295-.355c.326-.3.783-.473 1.294-.473v-.6c-.645 0-1.252.218-1.7.63l.406.443zm1.294-.473h6.393v-.6h-6.393v.6zm6.393 0c.511 0 .97.173 1.296.472l.405-.442c-.448-.411-1.055-.63-1.7-.63v.6zm1.295.472c.12.11.215.226.29.346l.51-.314a2.254 2.254 0 00-.393-.473l-.407.44zm.35-.04a7.444 7.444 0 01-4.852 1.795v.6c2 0 3.83-.731 5.242-1.938l-.39-.456zm-4.852 1.795a7.443 7.443 0 01-4.838-1.782l-.389.457a8.043 8.043 0 005.227 1.925v-.6zM3.278 4.916l.228.196.003-.004a6.22 6.22 0 01.05-.056 16.773 16.773 0 01.678-.72c.434-.434.977-.926 1.456-1.212l-.309-.515c-.545.327-1.131.862-1.571 1.302a17.358 17.358 0 00-.747.796l-.011.013-.003.004H3.05l.227.196zM1.865 3.871l.235.186.003-.003a4.056 4.056 0 01.052-.064 14.321 14.321 0 01.755-.835c.5-.51 1.17-1.118 1.877-1.542l-.308-.515c-.77.463-1.483 1.112-1.998 1.638a14.936 14.936 0 00-.847.943l-.003.004-.001.001.235.187zm36.373 24.165v.002l.49-.347v-.001l-.49.346zm0 .001c.705 1 1.421 2.03 1.179 3.522l.592.096c.286-1.759-.585-2.978-1.28-3.964l-.49.346zm1.179 3.522c-.208 1.278-.992 1.956-1.688 2.552l.39.456c.696-.596 1.644-1.399 1.89-2.912l-.592-.096zm-1.689 2.552v.001l.391.455.001-.001-.392-.455zm-10.277-9.154h.003l.181-.572h-.002l-.181.572zm.003 0c.416.132.962.306 1.462.398.25.046.503.075.732.064.222-.01.461-.06.647-.207l-.374-.47c-.042.034-.132.07-.302.078a2.704 2.704 0 01-.594-.055c-.457-.084-.966-.245-1.39-.38l-.181.572zm3.68 15.598v.003l.593-.086v-.003l-.594.086zm0 .003c.035.249.117.816.117 1.509h.6c0-.737-.087-1.34-.124-1.595l-.593.086zm-7.462-4.194c-.201-.364-.216-.742-.134-1.126.082-.391.26-.766.426-1.114l-.542-.259c-.161.339-.371.777-.471 1.249-.102.48-.095 1.016.196 1.54l.525-.29zm.292-2.24v-.002l-.541-.257h-.001l.542.258zm14.59 4.11l-.007.006.392.455.006-.006-.392-.455zm-.007.006l-.007.006.392.454.006-.005-.391-.455zM16.564 54.453c.03-.055.067-.141.101-.23.038-.094.082-.213.13-.347a42.578 42.578 0 00.613-1.877c.04-.135.075-.257.101-.355a1.96 1.96 0 00.053-.243l-.596-.069-.002.013a11.897 11.897 0 01-.13.483 38.115 38.115 0 01-.727 2.176 3.313 3.313 0 01-.059.14l-.004.009a.02.02 0 01-.002.003l.521.297zm2.148-2.92a6.394 6.394 0 01-.137.591c-.081.305-.19.686-.312 1.078s-.256.791-.387 1.135c-.133.35-.256.619-.351.764l.502.33c.134-.206.275-.528.41-.88.137-.36.275-.772.399-1.171.124-.4.236-.789.319-1.102a6.3 6.3 0 00.153-.676l-.596-.068zm20.206-12.815l.008-.009-.45-.397-.007.009.45.397zm.008-.008a.577.577 0 01.022-.025l-.424-.424a1.175 1.175 0 00-.047.05l.449.399zM25.324 20.736c.484.071 1.405.046 2.174.007a49.256 49.256 0 001.335-.087l.087-.007.022-.002h.008l-.025-.3-.025-.298h-.007l-.022.002a26.337 26.337 0 01-.397.03c-.262.02-.62.043-1.006.062-.785.04-1.643.06-2.056 0l-.087.593zm3.632 1.666c.04.002.082 0 .123-.003l-.045-.598a.604.604 0 01-.061.002l-.017.6zm-3.682-.515c-.646.015-1.452-.265-2.124-.571a11.44 11.44 0 01-1.122-.592l-.016-.01-.003-.002h-.001l-.16.254-.16.254h.003a1.944 1.944 0 00.092.056 12.025 12.025 0 001.118.584c.684.314 1.596.645 2.387.627l-.014-.6zm.014.6l3.683-.085-.014-.6-3.683.085.014.6z" fill="#C8F5E1" mask="url(#a)"/><path d="M47.969 51.158l.075-.13.98.563a1.963 1.963 0 001.952 0l-3.007-.433zm0 0l.075-.13c-.554-.317-.894-.89-.894-1.493v-2.471c0-1.047.907-1.914 2.041-1.914h1.618c1.134 0 2.041.867 2.041 1.913v2.472c0 .602-.34 1.176-.893 1.493h0l-.981.563-3.007-.433zm1.827-.728h0l.333-.13.075.13h0s0 0 0 0l.98-.562-.073-.13.074.13h0a.385.385 0 00.196-.333v-2.471a.562.562 0 00-.572-.55h-1.617a.562.562 0 00-.572.55v2.471a.385.385 0 00.195.333l.981.562z" fill="#333" stroke="#C8F5E1" stroke-width=".3"/></svg>