<svg width="60" height="60" fill="none" xmlns="http://www.w3.org/2000/svg"><path d="M1.5 12.15h-.15V55.1c0 .94.316 1.678.944 2.306.63.63 1.469.944 2.306.944h50.3c.94 0 1.678-.316 2.306-.944.638-.638.844-1.483.844-2.306V12.15H1.5zm56.5-1.3h.15V4.8c0-.94-.316-1.678-.944-2.306A3.252 3.252 0 0054.9 1.55H4.6c-.84 0-1.574.316-2.196.835h0l-.01.009A3.252 3.252 0 001.45 4.7v6.15H58zM55 .15c1.159 0 2.321.483 3.194 1.356.866.866 1.257 2.025 1.356 3.2V55c0 1.159-.483 2.321-1.356 3.194-.873.873-2.035 1.356-3.194 1.356H4.7c-1.159 0-2.321-.483-3.194-1.356C.633 57.32.15 56.159.15 55V4.7c0-1.167.389-2.327 1.256-3.194C2.28.633 3.441.15 4.6.15H55z" fill="#333" stroke="#FEEEEE" stroke-width=".3"/><path d="M4.706 3.906h0l.01-.01c.46-.553 1.108-.746 1.884-.746H26c.659 0 1.32.283 1.794.756.47.47.756 1.23.756 1.894A2.582 2.582 0 0126 8.35H6.6c-.76 0-1.416-.284-1.885-.846h0l-.009-.01A2.582 2.582 0 013.95 5.7c0-.659.283-1.32.756-1.794zm22.536 1.841l.008-.023V5.7c0-.33-.11-.672-.344-.906-.234-.235-.576-.344-.906-.344H6.6c-.33 0-.672.11-.906.344-.235.234-.344.576-.344.906 0 .33.11.672.344.906.234.235.576.344.906.344h19.3c.33 0 .672-.11.906-.344.225-.225.335-.554.43-.84l.006-.019zM55.65 5.7a1.65 1.65 0 11-3.3 0 1.65 1.65 0 013.3 0zm-5.8 0a1.65 1.65 0 11-3.3 0 1.65 1.65 0 013.3 0zM18.894 21.394l-.044.044V28.9a.993.993 0 01-.144.479c-.196.098-.355.171-.506.171H6.6c-.19 0-.33-.003-.477-.14-.099-.198-.173-.358-.173-.51V17.3c0-.19.003-.33.14-.477.198-.099.358-.173.51-.173h11.264l.044-.046-.108-.104.108.104h0l.002-.002.005-.006.021-.021.08-.083.286-.296c.237-.245.555-.573.88-.904.325-.33.655-.664.917-.92a10.95 10.95 0 01.434-.41l.033-.027c.003-.002.003-.002.001 0l.087-.045c.163-.084.272-.14.446-.14.128 0 .207 0 .28.02.063.017.13.051.214.136l1.883 1.883c.099.198.173.359.173.511 0 .198-.003.34-.156.494l-4.6 4.6zM17.3 28.35h.15v-5.412l-.256.256-3.383 3.383c-.198.099-.359.173-.511.173-.198 0-.34-.003-.494-.156L8.923 22.71c-.099-.198-.173-.359-.173-.511 0-.198.003-.34.156-.494l1.883-1.883c.198-.099.359-.173.511-.173.152 0 .313.074.511.173l1.383 1.383.106.106.106-.106 2.9-2.9.256-.256H7.25v10.3H17.3zm-4-3.45l-.106.106.105.105.106-.104 8.7-8.5.108-.106-.107-.107-.8-.8-.106-.106-.106.106-7.196 7.196-.01.008a1.614 1.614 0 01-.17.126c-.115.073-.234.126-.318.126-.084 0-.203-.053-.317-.126a1.709 1.709 0 01-.171-.126l-.01-.008-1.396-1.396-.106-.106-.106.106-.8.8-.106.106.106.106 1.745 1.745.681.681.201.201.054.054.014.014.004.004h0v.001h0l.107-.106zm5.594 13.894l-.044.044V46.4a.625.625 0 01-.141.378c-.198.098-.357.172-.509.172H6.6c-.198 0-.34-.003-.494-.156l-.017-.017-.022-.011c-.055-.027-.08-.063-.096-.127a1.542 1.542 0 01-.021-.339V34.7c0-.19.003-.33.14-.477.198-.099.358-.173.51-.173h11.262l.044-.044 2.683-2.683c.198-.099.359-.173.511-.173.198 0 .34.003.494.156l1.883 1.883c.099.198.173.359.173.511 0 .198-.003.34-.156.494l-4.6 4.6zM17.55 45.4v-.15h-.1v-4.912l-.256.256-3.383 3.383c-.198.099-.359.173-.511.173-.198 0-.34-.003-.494-.156L8.923 40.11c-.099-.198-.173-.359-.173-.511 0-.198.003-.34.156-.494l1.883-1.883c.198-.099.359-.173.511-.173.152 0 .313.074.511.173l1.383 1.383.106.106.106-.106 2.9-2.9.256-.256H7.25v10.3h10.3v-.35zm-4.256-2.994l.106.106.106-.106.099-.099h.001l8.599-8.4.108-.106-.107-.107-.8-.8-.106-.106-.106.106-7.2 7.2a1.366 1.366 0 01-.134.123.242.242 0 01-.045.028c-.01.005-.015.005-.015.005h-.062l-.044.044a.165.165 0 01-.08.048.474.474 0 01-.114.008.267.267 0 01-.083-.034l-.008-.004a.578.578 0 00-.144-.055c-.053-.044-.105-.07-.144-.09l-.004-.001a.376.376 0 01-.11-.072l-1.4-1.4-.107-.106-.106.106-.8.8-.106.106.106.106 2.7 2.7zM25.25 26.35h28.4v1.3h-28.4v-1.3zm0-3.9h28.4v1.3h-28.4v-1.3zm0 21.3h28.4v1.3h-28.4v-1.3zm0-3.9h28.4v1.3h-28.4v-1.3zm27.95 14.6h.15v-4.5h-20v4.5H53.2zm.8-5.8c.19 0 .33.003.477.14.099.198.173.358.173.51v5.8c0 .103 0 .211-.021.305s-.055.14-.096.16c-.209.105-.375.185-.533.185H32.7c-.103 0-.211 0-.305-.021s-.14-.055-.16-.096c-.105-.209-.185-.375-.185-.533v-5.8c0-.19.003-.33.14-.477.198-.099.358-.173.51-.173H54z" fill="#333" stroke="#FEEEEE" stroke-width=".3"/></svg>