<svg width="61" height="60" fill="none" xmlns="http://www.w3.org/2000/svg"><mask id="a" fill="#fff"><path d="M58.412 18.615c.28 0 .554-.08.789-.233 1.25-.787.762-2.877.361-4.053a11.846 11.846 0 00-4.924-6.286c.555-.044 1.11-.06 1.667-.046 2.072.057 2.456-.9 2.5-1.474.133-1.786-3.25-3.59-6.25-3.953a7.651 7.651 0 00-7.29 2.9A7.64 7.64 0 0039.38.278c-2.949-.674-6.74-.117-7.218 1.61-.154.557-.118 1.588 1.856 2.231.526.173 1.044.373 1.549.6a11.86 11.86 0 00-6.755 4.258c-.775.972-1.94 2.774-1.031 3.937.305.389.779.607 1.272.584a4.164 4.164 0 001.684-.447 18.29 18.29 0 011.78-.7c-1.132 2.312-1.541 4.914-1.055 6.2.17.556.641.967 1.215 1.06.064.009.13.013.194.013.961 0 1.682-.978 1.928-1.312a19.386 19.386 0 015.928-5.153l-4.451 21.365A37.691 37.691 0 0032 34.055v-9.058a2 2 0 00-2-2H5a2 2 0 00-2 2v15.878L.03 52.755c-.008.033 0 .067 0 .1a.95.95 0 00-.03.142v4a3 3 0 003 3h29a3 3 0 003-3v-4a.95.95 0 00-.028-.14c-.005-.035.006-.069 0-.1l-.762-3.047c.447-.3.864-.623 1.252-.943a5.863 5.863 0 018.393 0 7.83 7.83 0 0010.944 0A5.833 5.833 0 0159 46.997a1 1 0 000-2 7.484 7.484 0 00-5.206 2.01c-.872-4.159-4.474-7.888-10.006-10.3l3.144-22.455a19.365 19.365 0 013.838 6.845c.126.425.513 1.72 1.558 1.94.092.019.185.028.279.028.48-.008.93-.235 1.223-.616.894-1.05 1.388-3.644 1.1-6.205.503.397.984.82 1.443 1.268a3.132 3.132 0 002.039 1.103zm-2.356-6.639a9.78 9.78 0 011.929 4.305 5.26 5.26 0 01-.209-.194 21.592 21.592 0 00-3.876-3.006 29.144 29.144 0 00-6.738-3A24.89 24.89 0 0150.1 8.934a6.844 6.844 0 015.956 3.042zm-14.515 26.35l-3.875-.675.367-1.762a.12.12 0 00.007-.017v-.015l4.97-23.846c.5-.218.905-.375 1.2-.483.24.2.57.485.965.858l-3.634 25.94zm8.9-33.768c.305-.041.612-.061.919-.06a9.218 9.218 0 014.891 1.5 23.4 23.4 0 00-10.31 2.433 5.409 5.409 0 014.5-3.873zM40.7 2.861a5.411 5.411 0 012.928 5.165 23.216 23.216 0 00-8.881-5.774 8.973 8.973 0 015.953.61zm-10.8 8.374c-.1.044-.184.081-.262.112a9.755 9.755 0 013.27-3.4 6.831 6.831 0 016.625-.85 24.94 24.94 0 012.388 2.072 29.093 29.093 0 00-7.353.551 21.59 21.59 0 00-4.668 1.515zm3.353 5.814a10.287 10.287 0 012.077-5.44 26.609 26.609 0 014.956-.479 21.665 21.665 0 00-7.033 5.92zM5 24.997h25v15H5v-15zm-.219 17h25.438l2.5 10h-8.8l-.266-3.168a1.988 1.988 0 00-1.993-1.832h-8.32a1.988 1.988 0 00-1.993 1.833l-.266 3.167h-8.8l2.5-10zm17.131 10h-8.824l.252-3h8.32l.252 3zm11.088 5a1 1 0 01-1 1H3a1 1 0 01-1-1v-3h31v3zm18.965-8.64a5.164 5.164 0 01-2.635.64 5.835 5.835 0 01-4.2-1.772 7.833 7.833 0 00-10.94 0c-.169.14-.334.268-.5.4L32 40.875v-4.819c1.296.072 2.587.215 3.867.427l-.158.76a2 2 0 001.614 2.38l3.877.674a1.98 1.98 0 002.287-1.545c5.066 2.345 8.165 5.845 8.478 9.604zm.69-27.93a21.659 21.659 0 00-4.62-7.949 26.627 26.627 0 014.5 2.125 10.26 10.26 0 01.12 5.824z"/></mask><path d="M58.412 18.615c.28 0 .554-.08.789-.233 1.25-.787.762-2.877.361-4.053a11.846 11.846 0 00-4.924-6.286c.555-.044 1.11-.06 1.667-.046 2.072.057 2.456-.9 2.5-1.474.133-1.786-3.25-3.59-6.25-3.953a7.651 7.651 0 00-7.29 2.9A7.64 7.64 0 0039.38.278c-2.949-.674-6.74-.117-7.218 1.61-.154.557-.118 1.588 1.856 2.231.526.173 1.044.373 1.549.6a11.86 11.86 0 00-6.755 4.258c-.775.972-1.94 2.774-1.031 3.937.305.389.779.607 1.272.584a4.164 4.164 0 001.684-.447 18.29 18.29 0 011.78-.7c-1.132 2.312-1.541 4.914-1.055 6.2.17.556.641.967 1.215 1.06.064.009.13.013.194.013.961 0 1.682-.978 1.928-1.312a19.386 19.386 0 015.928-5.153l-4.451 21.365A37.691 37.691 0 0032 34.055v-9.058a2 2 0 00-2-2H5a2 2 0 00-2 2v15.878L.03 52.755c-.008.033 0 .067 0 .1a.95.95 0 00-.03.142v4a3 3 0 003 3h29a3 3 0 003-3v-4a.95.95 0 00-.028-.14c-.005-.035.006-.069 0-.1l-.762-3.047c.447-.3.864-.623 1.252-.943a5.863 5.863 0 018.393 0 7.83 7.83 0 0010.944 0A5.833 5.833 0 0159 46.997a1 1 0 000-2 7.484 7.484 0 00-5.206 2.01c-.872-4.159-4.474-7.888-10.006-10.3l3.144-22.455a19.365 19.365 0 013.838 6.845c.126.425.513 1.72 1.558 1.94.092.019.185.028.279.028.48-.008.93-.235 1.223-.616.894-1.05 1.388-3.644 1.1-6.205.503.397.984.82 1.443 1.268a3.132 3.132 0 002.039 1.103zm-2.356-6.639a9.78 9.78 0 011.929 4.305 5.26 5.26 0 01-.209-.194 21.592 21.592 0 00-3.876-3.006 29.144 29.144 0 00-6.738-3A24.89 24.89 0 0150.1 8.934a6.844 6.844 0 015.956 3.042zm-14.515 26.35l-3.875-.675.367-1.762a.12.12 0 00.007-.017v-.015l4.97-23.846c.5-.218.905-.375 1.2-.483.24.2.57.485.965.858l-3.634 25.94zm8.9-33.768c.305-.041.612-.061.919-.06a9.218 9.218 0 014.891 1.5 23.4 23.4 0 00-10.31 2.433 5.409 5.409 0 014.5-3.873zM40.7 2.861a5.411 5.411 0 012.928 5.165 23.216 23.216 0 00-8.881-5.774 8.973 8.973 0 015.953.61zm-10.8 8.374c-.1.044-.184.081-.262.112a9.755 9.755 0 013.27-3.4 6.831 6.831 0 016.625-.85 24.94 24.94 0 012.388 2.072 29.093 29.093 0 00-7.353.551 21.59 21.59 0 00-4.668 1.515zm3.353 5.814a10.287 10.287 0 012.077-5.44 26.609 26.609 0 014.956-.479 21.665 21.665 0 00-7.033 5.92zM5 24.997h25v15H5v-15zm-.219 17h25.438l2.5 10h-8.8l-.266-3.168a1.988 1.988 0 00-1.993-1.832h-8.32a1.988 1.988 0 00-1.993 1.833l-.266 3.167h-8.8l2.5-10zm17.131 10h-8.824l.252-3h8.32l.252 3zm11.088 5a1 1 0 01-1 1H3a1 1 0 01-1-1v-3h31v3zm18.965-8.64a5.164 5.164 0 01-2.635.64 5.835 5.835 0 01-4.2-1.772 7.833 7.833 0 00-10.94 0c-.169.14-.334.268-.5.4L32 40.875v-4.819c1.296.072 2.587.215 3.867.427l-.158.76a2 2 0 001.614 2.38l3.877.674a1.98 1.98 0 002.287-1.545c5.066 2.345 8.165 5.845 8.478 9.604zm.69-27.93a21.659 21.659 0 00-4.62-7.949 26.627 26.627 0 014.5 2.125 10.26 10.26 0 01.12 5.824z" fill="#333" stroke="#C8F5E1" stroke-width=".8" mask="url(#a)"/><path d="M8.565 30.563h0l2-2a.8.8 0 00-1.132-1.13L7.434 29.43s0 0 0 0A.8.8 0 008 30.797l.565-.235zm0 0a.8.8 0 01-.565.234l.565-.235zm-1.133 3.871h0l.002-.003 7-6.998a.8.8 0 011.13 1.13l-6.998 7h0l-.003.002a.8.8 0 11-1.131-1.131z" fill="#333" stroke="#C8F5E1" stroke-width=".4"/></svg>