<svg width="72" height="60" fill="none" xmlns="http://www.w3.org/2000/svg"><path d="M11.943 51.337a.445.445 0 00-.17-.169L4.665 47.17a.444.444 0 00-.664.387v7.999a.445.445 0 00.664.387l7.11-4a.444.444 0 00.169-.605zm-7.054 3.458v-6.479l5.759 3.24-5.76 3.239z" fill="#333"/><path d="M23.7 50.4v.3h43.2v1.8H23.7v2.4h-1.8v-2.4h-7.6v-1.8h7.6v-2.4h1.8v2.1zM36 9.3h0c-9.44.01-17.09 7.66-17.1 17.1v0c0 9.444 7.657 17.1 17.1 17.1 9.445 0 17.1-7.656 17.1-17.1 0-9.444-7.655-17.1-17.1-17.1zM17.1 26.4c0-10.438 8.463-18.9 18.9-18.9 10.439 0 18.9 8.462 18.9 18.9 0 10.438-8.46 18.9-18.899 18.9-10.433-.012-18.888-8.467-18.9-18.9z" fill="#333" stroke="#E6E7FD" stroke-width=".6"/><path d="M34.158 34H23.444v-1.494l5.66-6.289c.838-.95 1.415-1.722 1.73-2.313a3.867 3.867 0 00.482-1.853c0-.854-.258-1.554-.774-2.1-.517-.547-1.206-.82-2.067-.82-1.033 0-1.838.296-2.415.887-.569.584-.853 1.4-.853 2.448h-2.078c0-1.505.483-2.721 1.45-3.65.972-.928 2.271-1.392 3.896-1.392 1.52 0 2.722.4 3.605 1.201.884.794 1.325 1.854 1.325 3.179 0 1.61-1.025 3.526-3.077 5.75l-4.38 4.75h8.21V34zm10.163-7.188a5.063 5.063 0 01-1.56 1.247 4.188 4.188 0 01-1.977.472c-.944 0-1.767-.232-2.471-.697-.696-.464-1.235-1.115-1.617-1.954-.382-.846-.573-1.778-.573-2.796 0-1.093.206-2.078.618-2.954.419-.876 1.01-1.546 1.774-2.01.764-.464 1.655-.696 2.673-.696 1.617 0 2.89.606 3.818 1.82.936 1.205 1.404 2.852 1.404 4.94v.607c0 3.182-.629 5.507-1.887 6.974-1.257 1.46-3.155 2.209-5.693 2.246h-.405V32.26h.438c1.715-.03 3.032-.475 3.953-1.336.921-.869 1.423-2.239 1.505-4.11zm-3.2 0c.696 0 1.336-.213 1.92-.64a3.759 3.759 0 001.292-1.583v-.831c0-1.363-.296-2.47-.888-3.324-.591-.854-1.34-1.28-2.246-1.28-.913 0-1.647.351-2.201 1.055-.554.696-.831 1.617-.831 2.763 0 1.115.266 2.036.797 2.762.54.72 1.258 1.078 2.157 1.078z" fill="#333"/><path d="M34.158 34v.4h.4V34h-.4zm-10.714 0h-.4v.4h.4V34zm0-1.494l-.297-.267-.103.114v.153h.4zm5.66-6.289l.297.268.003-.003-.3-.265zm1.73-2.313l-.353-.19v.002l.352.188zm-4.773-3.886l-.287-.28.287.28zm-.854 2.448v.4h.4v-.4h-.4zm-2.078 0h-.4v.4h.4v-.4zm1.45-3.65l-.277-.289-.001.001.277.288zm7.501-.19l-.269.296.002.001.267-.297zm-1.752 8.928l-.294-.271.294.27zm-4.38 4.75l-.294-.27-.619.67h.913v-.4zm8.21 0h.4v-.4h-.4v.4zm0 1.296H23.444v.8h10.714v-.8zm-10.314.4v-1.494h-.8V34h.8zm-.103-1.226l5.66-6.29-.594-.534-5.66 6.289.594.535zm5.663-6.292c.844-.958 1.446-1.757 1.783-2.39l-.707-.376c-.292.55-.843 1.292-1.676 2.237l.6.529zm1.782-2.389c.35-.653.53-1.335.53-2.042h-.8a3.46 3.46 0 01-.435 1.663l.705.38zm.53-2.042c0-.941-.287-1.744-.884-2.375l-.581.55c.437.462.665 1.059.665 1.825h.8zm-.884-2.375c-.603-.638-1.403-.945-2.357-.945v.8c.769 0 1.346.24 1.776.694l.581-.55zm-2.357-.945c-1.112 0-2.031.32-2.7 1.008l.572.558c.483-.496 1.174-.766 2.128-.766v-.8zm-2.7 1.008c-.662.678-.968 1.606-.968 2.727h.8c0-.975.263-1.68.74-2.169l-.573-.558zm-.568 2.327h-2.078v.8h2.078v-.8zm-1.678.4c0-1.41.449-2.518 1.326-3.361l-.554-.577c-1.054 1.014-1.572 2.34-1.572 3.938h.8zm1.325-3.36c.884-.843 2.077-1.282 3.621-1.282v-.8c-1.705 0-3.11.49-4.173 1.503l.552.579zm3.621-1.282c1.449 0 2.545.38 3.336 1.098l.538-.593c-.976-.884-2.283-1.305-3.874-1.305v.8zm3.338 1.1c.789.707 1.192 1.653 1.192 2.88h.8c0-1.424-.48-2.597-1.458-3.476l-.534.595zm1.192 2.88c0 1.451-.935 3.271-2.97 5.479l.587.542c2.067-2.24 3.183-4.253 3.183-6.021h-.8zm-2.971 5.479l-4.38 4.75.588.542 4.38-4.75-.588-.542zm-4.086 5.421h8.21v-.8h-8.21v.8zm7.81-.4V34h.8v-1.696h-.8zm10.563-5.492l.4.018.052-1.176-.758.901.306.258zm-1.56 1.247l-.185-.355h-.002l.186.355zm-4.448-.225l-.222.333.002.001.22-.334zm-1.617-1.954l-.365.165v.001l.365-.166zm.045-5.75l-.361-.172-.001.002.362.17zm8.265-.887l-.317.243.001.002.316-.245zm-.483 12.522l.303.261h.001l-.304-.26zm-5.693 2.246v.4h.006l-.006-.4zm-.405 0h-.4v.4h.4v-.4zm0-1.752v-.4h-.4v.4h.4zm.438 0v.4h.007l-.007-.4zm3.953-1.336l.274.292v-.001l-.274-.291zm.225-4.75l-.234-.325-.002.001.236.323zm1.292-1.584l.367.157.032-.075v-.082h-.4zm-5.335-4.38l.313.249.001-.002-.314-.247zm-.034 5.525l-.322.237.002.003.32-.24zm5.051.821a4.67 4.67 0 01-1.439 1.149l.368.71a5.461 5.461 0 001.683-1.344l-.612-.515zm-1.44 1.15a3.787 3.787 0 01-1.791.426v.8c.78 0 1.502-.171 2.162-.518l-.372-.708zm-1.791.426c-.875 0-1.62-.214-2.25-.63l-.441.667c.776.513 1.679.763 2.69.763v-.8zm-2.25-.63c-.627-.418-1.12-1.009-1.474-1.786l-.728.331c.41.9.995 1.612 1.76 2.121l.443-.665zm-1.474-1.785c-.356-.79-.537-1.665-.537-2.632h-.8c0 1.07.2 2.058.608 2.96l.73-.328zm-.537-2.632c0-1.042.196-1.967.58-2.784l-.724-.34c-.44.936-.656 1.98-.656 3.124h.8zm.578-2.78c.39-.813.93-1.422 1.622-1.842l-.416-.684c-.835.508-1.477 1.24-1.927 2.18l.721.345zm1.622-1.842c.693-.421 1.51-.638 2.465-.638v-.8c-1.081 0-2.046.247-2.88.754l.415.684zm2.465-.638c1.501 0 2.653.555 3.5 1.662l.636-.486c-1.01-1.318-2.403-1.976-4.136-1.976v.8zm3.502 1.664c.865 1.114 1.32 2.664 1.32 4.697h.8c0-2.146-.48-3.89-1.488-5.187l-.632.49zm1.32 4.697v.606h.8v-.606h-.8zm0 .606c0 3.144-.624 5.353-1.79 6.714l.607.52c1.35-1.574 1.983-4.014 1.983-7.234h-.8zm-1.79 6.713c-1.16 1.348-2.934 2.071-5.396 2.107l.012.8c2.614-.038 4.636-.813 5.99-2.385l-.606-.522zm-5.39 2.107h-.405v.8h.405v-.8zm-.005.4V32.26h-.8v1.752h.8zm-.4-1.352h.438v-.8h-.438v.8zm.445 0c1.778-.03 3.204-.494 4.22-1.444l-.547-.584c-.826.772-2.035 1.2-3.687 1.228l.014.8zm4.22-1.445c1.027-.968 1.546-2.458 1.63-4.384l-.798-.035c-.08 1.817-.564 3.068-1.38 3.837l.549.582zm-1.97-4.002c.785 0 1.507-.242 2.157-.717l-.472-.646a2.784 2.784 0 01-1.684.564v.8zm2.155-.715a4.159 4.159 0 001.425-1.75l-.735-.316a3.36 3.36 0 01-1.158 1.417l.468.649zm1.458-1.908v-.831h-.8v.83h.8zm0-.831c0-1.42-.308-2.614-.959-3.552l-.657.455c.532.769.816 1.79.816 3.097h.8zm-.959-3.552c-.654-.943-1.517-1.453-2.575-1.453v.8c.754 0 1.388.345 1.918 1.108l.657-.455zM41.2 18.753c-1.033 0-1.884.406-2.515 1.209l.628.494c.477-.605 1.094-.903 1.887-.903v-.8zm-2.514 1.207c-.625.785-.918 1.802-.918 3.012h.8c0-1.082.26-1.907.744-2.514l-.626-.498zm-.918 3.012c0 1.18.282 2.189.875 2.999l.645-.473c-.47-.643-.72-1.475-.72-2.526h-.8zm.877 3.002c.615.82 1.452 1.238 2.477 1.238v-.8c-.773 0-1.373-.3-1.837-.918l-.64.48z" fill="#E6E7FD"/><path d="M3.6.3h64.8a3.3 3.3 0 013.3 3.3v52.8a3.3 3.3 0 01-3.3 3.3H3.6a3.3 3.3 0 01-3.3-3.3V3.6A3.3 3.3 0 013.6.3zm64.8 57.6a1.5 1.5 0 001.5-1.5V3.6a1.5 1.5 0 00-1.5-1.5H3.6a1.5 1.5 0 00-1.5 1.5v52.8a1.5 1.5 0 001.5 1.5h64.8z" fill="#333" stroke="#E6E7FD" stroke-width=".6"/><path d="M5.1 5.1h1.8v1.8H5.1V5.1zm4.8 0h1.8v1.8H9.9V5.1zm4.8 0h1.8v1.8h-1.8V5.1z" fill="#333" stroke="#E6E7FD" stroke-width=".6"/></svg>