<svg width="59" height="60" fill="none" xmlns="http://www.w3.org/2000/svg"><rect x="4.606" y="31.247" width="10.317" height="28.253" rx="1.5" stroke="#333"/><rect x="23.824" y="20.571" width="10.317" height="38.929" rx="1.5" stroke="#333"/><rect x="43.041" y=".5" width="10.317" height="59" rx="1.5" stroke="#333"/><mask id="a" maskUnits="userSpaceOnUse" x="0" y="19.425" width="59" height="40" fill="#000"><path fill="#fff" d="M0 19.425h59v40H0z"/><path fill-rule="evenodd" clip-rule="evenodd" d="M53.198 38.513l3.48-17.088-16.538 5.53 3.97 3.515-10.313 10.313c-.333.333-1.384 1.26-1.384 1.26s-.858-.865-1.253-1.26l-4.403-4.403-2.305-2.465a1.865 1.865 0 00-2.636-.088L1.591 52.742a1.864 1.864 0 00-.088 2.635l1.874 2.004a1.865 1.865 0 002.635.088l15.57-14.562 1.322-1.236s.92.929 1.27 1.28l7.132 7.13a1.608 1.608 0 002.273 0l1.119-1.118c.01-.01.026-.01.036 0 .01.01.026.01.036 0l14.196-14.196 4.232 3.746z"/></mask><path fill-rule="evenodd" clip-rule="evenodd" d="M53.198 38.513l3.48-17.088-16.538 5.53 3.97 3.515-10.313 10.313c-.333.333-1.384 1.26-1.384 1.26s-.858-.865-1.253-1.26l-4.403-4.403-2.305-2.465a1.865 1.865 0 00-2.636-.088L1.591 52.742a1.864 1.864 0 00-.088 2.635l1.874 2.004a1.865 1.865 0 002.635.088l15.57-14.562 1.322-1.236s.92.929 1.27 1.28l7.132 7.13a1.608 1.608 0 002.273 0l1.119-1.118c.01-.01.026-.01.036 0 .01.01.026.01.036 0l14.196-14.196 4.232 3.746z" fill="#C8F5E1"/><path d="M56.679 21.425l.98.2.345-1.698-1.642.55.317.948zm-3.48 17.088l-.664.75 1.297 1.147.346-1.697-.98-.2zm-13.06-11.558l-.317-.948-1.642.549 1.297 1.148.663-.75zm3.971 3.515l.707.707.752-.752-.796-.704-.663.748zM33.797 40.782l.707.707-.707-.707zm-1.384 1.26l-.71.705.665.67.707-.625-.662-.75zm-1.253-1.26l-.707.707.707-.707zm-4.403-4.403l-.73.683.011.012.012.012.707-.707zm-2.305-2.465l.73-.683-.73.683zm-2.636-.088l.684.73-.683-.73zM1.591 52.742l.683.73-.683-.73zm-.088 2.635l.73-.683-.73.683zm1.874 2.004l-.73.683.73-.683zm2.635.088l-.683-.73.683.73zm15.57-14.562l-.683-.73.684.73zm1.322-1.236l.71-.703-.683-.692-.71.665.683.73zm1.27 1.28l-.706.707.707-.707zm7.132 7.13l.707-.706-.707.707zm3.464-1.118l.707.707-.707-.707zm14.196-14.196l.663-.748-.705-.624-.665.665.707.707zm6.733-13.542l-3.48 17.089 1.959.399 3.48-17.088-1.96-.4zm-15.242 6.678l16.539-5.53-.634-1.896-16.54 5.53.635 1.896zm4.316 1.818l-3.97-3.515-1.326 1.498 3.97 3.514 1.326-1.497zm-1.37.041L33.09 40.076l1.414 1.414 10.313-10.313-1.414-1.415zM33.09 40.076c-.144.144-.469.44-.779.719a93.216 93.216 0 01-.515.46l-.033.03-.009.007-.002.002.661.75.662.75.001-.001.003-.002.009-.009.034-.03.125-.111a41.4 41.4 0 00.402-.36c.299-.268.666-.602.855-.791l-1.414-1.414zm-.677 1.968l.71-.704-.002-.003-.007-.007-.028-.028-.103-.104-.338-.341-.778-.781-1.414 1.414.772.776.338.34.103.104.027.028.008.007.001.002h.001l.71-.703zm-.546-1.968l-4.403-4.403-1.414 1.414 4.403 4.403 1.414-1.414zm-4.38-4.38l-2.305-2.464-1.46 1.366 2.305 2.465 1.46-1.366zm-2.305-2.464a2.864 2.864 0 00-4.048-.136l1.366 1.461a.865.865 0 011.221.041l1.461-1.366zm-4.048-.136L.908 52.013l1.366 1.46L22.5 34.557l-1.366-1.46zM.908 52.013a2.865 2.865 0 00-.136 4.048l1.461-1.366a.865.865 0 01.041-1.222l-1.366-1.46zM.772 56.06l1.874 2.004 1.461-1.366-1.874-2.004-1.46 1.366zm1.874 2.004a2.865 2.865 0 004.049.136l-1.366-1.461a.865.865 0 01-1.222-.04l-1.46 1.365zm4.049.136l15.57-14.562-1.366-1.46L5.33 56.738l1.366 1.46zm15.57-14.562l.8-.749.368-.343.113-.106.03-.029.009-.007.002-.002-.683-.731-.683-.73-.003.002-.008.008a7.726 7.726 0 00-.03.029l-.113.105c-.095.089-.226.21-.367.344l-.8.748 1.366 1.46zm.64-1.967l-.712.703.001.001.002.002a.717.717 0 01.008.008l.03.03.109.11.355.358c.273.276.592.598.77.775l1.414-1.414a347.212 347.212 0 01-1.118-1.126l-.109-.11-.03-.03-.008-.008-.002-.002-.71.703zm.563 1.987l7.13 7.131 1.415-1.414-7.131-7.131-1.415 1.414zm7.13 7.131a2.608 2.608 0 003.688 0l-1.414-1.414a.608.608 0 01-.86 0L30.6 50.789zm3.688 0l1.119-1.119-1.414-1.414-1.119 1.119 1.414 1.414zm1.119-1.119a.974.974 0 01-1.378 0l1.414-1.414c-.4-.4-1.05-.4-1.45 0l1.414 1.414zm-1.378 0c.4.4 1.05.4 1.45 0l-1.414-1.414a.974.974 0 011.378 0l-1.414 1.414zm1.45 0l14.196-14.196-1.414-1.414-14.196 14.196 1.414 1.414zm18.384-11.906l-4.232-3.745-1.326 1.497 4.232 3.746 1.326-1.498z" fill="#333" mask="url(#a)"/></svg>