<svg width="61" height="60" fill="none" xmlns="http://www.w3.org/2000/svg"><mask id="a" fill="#fff"><path d="M58.033 24.59a2.954 2.954 0 002.95-2.95V5.901a2.954 2.954 0 00-2.95-2.951H40.328a2.954 2.954 0 00-2.951 2.95v4.919h-8.636a2.943 2.943 0 00-1.2-.803v-.18C27.541 4.411 23.128 0 17.705 0 12.28 0 7.869 4.412 7.869 9.836v.181a2.95 2.95 0 00-1.2.803H4.918A4.924 4.924 0 000 15.738v27.54a4.924 4.924 0 004.918 4.919h13.363l.577.576a6.098 6.098 0 011.798 4.342 6.1 6.1 0 01-1.798 4.341l-.577.577H8.852V60h39.345v-1.967h-9.43l-.576-.577a6.099 6.099 0 01-1.798-4.341c0-1.64.639-3.182 1.798-4.342l.577-.576H52.13a4.927 4.927 0 004.819-3.935h1.083a2.954 2.954 0 002.95-2.95V29.508a2.954 2.954 0 00-2.95-2.95h-.984V24.59h.984zM39.344 13.77V5.902c0-.542.44-.984.984-.984h17.705c.543 0 .983.442.983.984v15.737c0 .542-.44.984-.983.984H40.328a.985.985 0 01-.984-.984v-3.934a.983.983 0 00-.983-.984H36.8l2.255-2.255a.981.981 0 00.288-.695zm-21.64 13.3l-1.672-5.576c.49.096.993.146 1.504.146h.338c.51 0 1.013-.05 1.504-.146l-1.673 5.576zm3.683-5.43h2.1c1.085 0 2.102.422 2.867 1.188a4.085 4.085 0 011.187 2.866v3.815h-8.514l2.36-7.869zm-5.004 7.87H7.869v-3.816c0-1.066.433-2.111 1.187-2.866a4.027 4.027 0 012.866-1.188h2.1l2.361 7.87zm1.491-9.837h-.338a5.692 5.692 0 01-4.054-1.679 5.696 5.696 0 01-1.679-4.054v-.168a4.915 4.915 0 003.935-1.97 4.915 4.915 0 003.934 1.97h3.935v.168a5.696 5.696 0 01-1.68 4.054 5.693 5.693 0 01-4.053 1.68zm5.733-7.869h-3.935a2.954 2.954 0 01-2.95-2.95.983.983 0 10-1.968 0 2.954 2.954 0 01-2.95 2.95v-.168c0-1.531.595-2.971 1.678-4.054a5.694 5.694 0 014.054-1.68h.338a5.69 5.69 0 014.053 1.68 5.696 5.696 0 011.68 4.054v.168zm1.967 2.136v-2.136h.983c.543 0 .984.442.984.984v1.967c0 .542-.44.984-.984.984h-1.203c.14-.584.22-1.185.22-1.8zm-7.87-11.972c4.34 0 7.87 3.53 7.87 7.87h-.22a7.652 7.652 0 00-2.036-3.647 7.644 7.644 0 00-5.444-2.256h-.338a7.644 7.644 0 00-5.445 2.256 7.645 7.645 0 00-2.036 3.646h-.219c0-4.339 3.53-7.869 7.869-7.869zM7.87 12.787c0-.542.44-.984.983-.984h.984v2.136c0 .614.08 1.215.22 1.799H8.851a.985.985 0 01-.983-.984v-1.967zm28.228 45.246H20.952a8.041 8.041 0 001.671-4.918 8.041 8.041 0 00-1.671-4.918h15.145a8.041 8.041 0 00-1.67 4.918 8.04 8.04 0 001.67 4.918zM52.131 46.23H4.918a2.954 2.954 0 01-2.95-2.951v-2.951h35.409v.983a2.954 2.954 0 002.95 2.951h14.574a2.947 2.947 0 01-2.77 1.968zm6.885-16.722v11.804c0 .541-.44.983-.983.983H40.327a.985.985 0 01-.983-.983v-3.935a.981.981 0 00-.288-.695l-2.255-2.256h1.56c.544 0 .983-.44.983-.983v-3.935c0-.542.44-.983.984-.983h17.705c.543 0 .983.441.983.983zm-3.934-2.95H40.328a2.954 2.954 0 00-2.951 2.95v2.951h-2.95a.984.984 0 00-.696 1.679l3.646 3.646v.577H1.967V15.738a2.954 2.954 0 012.951-2.951h.984v1.967a2.954 2.954 0 002.95 2.95h1.972a7.712 7.712 0 001.268 1.68c.1.102.211.193.317.288h-.487a5.98 5.98 0 00-4.257 1.764 5.985 5.985 0 00-1.763 4.257v4.799c0 .543.44.983.983.983h21.64c.544 0 .983-.44.983-.983v-4.8a5.985 5.985 0 00-1.763-4.256 5.978 5.978 0 00-4.258-1.764h-.486c.106-.095.215-.186.317-.288a7.715 7.715 0 001.268-1.68h1.971a2.954 2.954 0 002.951-2.95v-1.967h7.869v.576l-3.646 3.646a.983.983 0 00.695 1.68h2.951v2.95a2.955 2.955 0 002.95 2.951h14.755v1.967z"/></mask><path d="M58.033 24.59a2.954 2.954 0 002.95-2.95V5.901a2.954 2.954 0 00-2.95-2.951H40.328a2.954 2.954 0 00-2.951 2.95v4.919h-8.636a2.943 2.943 0 00-1.2-.803v-.18C27.541 4.411 23.128 0 17.705 0 12.28 0 7.869 4.412 7.869 9.836v.181a2.95 2.95 0 00-1.2.803H4.918A4.924 4.924 0 000 15.738v27.54a4.924 4.924 0 004.918 4.919h13.363l.577.576a6.098 6.098 0 011.798 4.342 6.1 6.1 0 01-1.798 4.341l-.577.577H8.852V60h39.345v-1.967h-9.43l-.576-.577a6.099 6.099 0 01-1.798-4.341c0-1.64.639-3.182 1.798-4.342l.577-.576H52.13a4.927 4.927 0 004.819-3.935h1.083a2.954 2.954 0 002.95-2.95V29.508a2.954 2.954 0 00-2.95-2.95h-.984V24.59h.984zM39.344 13.77V5.902c0-.542.44-.984.984-.984h17.705c.543 0 .983.442.983.984v15.737c0 .542-.44.984-.983.984H40.328a.985.985 0 01-.984-.984v-3.934a.983.983 0 00-.983-.984H36.8l2.255-2.255a.981.981 0 00.288-.695zm-21.64 13.3l-1.672-5.576c.49.096.993.146 1.504.146h.338c.51 0 1.013-.05 1.504-.146l-1.673 5.576zm3.683-5.43h2.1c1.085 0 2.102.422 2.867 1.188a4.085 4.085 0 011.187 2.866v3.815h-8.514l2.36-7.869zm-5.004 7.87H7.869v-3.816c0-1.066.433-2.111 1.187-2.866a4.027 4.027 0 012.866-1.188h2.1l2.361 7.87zm1.491-9.837h-.338a5.692 5.692 0 01-4.054-1.679 5.696 5.696 0 01-1.679-4.054v-.168a4.915 4.915 0 003.935-1.97 4.915 4.915 0 003.934 1.97h3.935v.168a5.696 5.696 0 01-1.68 4.054 5.693 5.693 0 01-4.053 1.68v0zm5.733-7.869h-3.935a2.954 2.954 0 01-2.95-2.95.983.983 0 10-1.968 0 2.954 2.954 0 01-2.95 2.95v-.168c0-1.531.595-2.971 1.678-4.054a5.694 5.694 0 014.054-1.68h.338a5.69 5.69 0 014.053 1.68 5.696 5.696 0 011.68 4.054v.168zm1.967 2.136v-2.136h.983c.543 0 .984.442.984.984v1.967c0 .542-.44.984-.984.984h-1.203c.14-.584.22-1.185.22-1.8zm-7.87-11.972c4.34 0 7.87 3.53 7.87 7.87h-.22a7.652 7.652 0 00-2.036-3.647 7.644 7.644 0 00-5.444-2.256h-.338a7.644 7.644 0 00-5.445 2.256 7.645 7.645 0 00-2.036 3.646h-.219c0-4.339 3.53-7.869 7.869-7.869v0zM7.87 12.787c0-.542.44-.984.983-.984h.984v2.136c0 .614.08 1.215.22 1.799H8.851a.985.985 0 01-.983-.984v-1.967zm28.228 45.246H20.952a8.041 8.041 0 001.671-4.918 8.041 8.041 0 00-1.671-4.918h15.145a8.041 8.041 0 00-1.67 4.918 8.04 8.04 0 001.67 4.918zM52.131 46.23H4.918a2.954 2.954 0 01-2.95-2.951v-2.951h35.409v.983a2.954 2.954 0 002.95 2.951h14.574a2.947 2.947 0 01-2.77 1.968zm6.885-16.722v11.804c0 .541-.44.983-.983.983H40.327a.985.985 0 01-.983-.983v-3.935a.981.981 0 00-.288-.695l-2.255-2.256h1.56c.544 0 .983-.44.983-.983v-3.935c0-.542.44-.983.984-.983h17.705c.543 0 .983.441.983.983zm-3.934-2.95H40.328a2.954 2.954 0 00-2.951 2.95v2.951h-2.95a.984.984 0 00-.696 1.679l3.646 3.646v.577H1.967V15.738a2.954 2.954 0 012.951-2.951h.984v1.967a2.954 2.954 0 002.95 2.95h1.972a7.712 7.712 0 001.268 1.68c.1.102.211.193.317.288h-.487a5.98 5.98 0 00-4.257 1.764 5.985 5.985 0 00-1.763 4.257v4.799c0 .543.44.983.983.983h21.64c.544 0 .983-.44.983-.983v-4.8a5.985 5.985 0 00-1.763-4.256 5.978 5.978 0 00-4.258-1.764h-.486c.106-.095.215-.186.317-.288a7.715 7.715 0 001.268-1.68h1.971a2.954 2.954 0 002.951-2.95v-1.967h7.869v.576l-3.646 3.646a.983.983 0 00.695 1.68h2.951v2.95a2.955 2.955 0 002.95 2.951h14.755v1.967z" fill="#333" stroke="#FEEEEE" stroke-width=".6" mask="url(#a)"/><path d="M41.462 7.035h15.437v1.667H41.461V7.035zm1.967 3.935h11.503v1.667H43.429V10.97zm-1.967 3.934h15.437v1.667H41.461v-1.667zm1.967 3.934h11.503v1.668H43.429v-1.668zm-1.967 11.804h15.437v1.667H41.461v-1.667zm0 7.868h15.437v1.668H41.461V38.51zm1.967-3.934h11.503v1.667H43.429v-1.667z" fill="#333" stroke="#FEEEEE" stroke-width=".3"/></svg>