<svg width="54" height="60" fill="none" xmlns="http://www.w3.org/2000/svg"><path d="M53.8 17v0a.8.8 0 01-1.6 0 24.9 24.9 0 00-5.35-15.506.8.8 0 011.258-.987h0A26.48 26.48 0 0153.8 17zM.2 17h0A26.5 26.5 0 015.892.507L5.735.383l.158.124a.8.8 0 011.26.987A24.914 24.914 0 001.8 17a.8.8 0 01-1.6 0zm49.6 0v0a.8.8 0 01-1.6 0 20.968 20.968 0 00-4.34-12.843h0l-.008-.01a.8.8 0 111.269-.97h0l.007.01A22.547 22.547 0 0149.8 17zM4 17A22.735 22.735 0 018.563 3.273h.152L4 17zm0 0a1 1 0 102 0H4zM8.874 3.195l.044-.057a.8.8 0 011.223 1.029A20.951 20.951 0 005.801 17a.8.8 0 01-1.6 0v0A22.535 22.535 0 018.873 3.195zM45.8 17v0a.8.8 0 01-1.6 0 16.977 16.977 0 00-3.526-10.414.8.8 0 01.148-1.12.8.8 0 011.12.148h0A18.55 18.55 0 0145.8 17zM8.2 17h0a.8.8 0 001.6 0s0 0 0 0h.2a16.842 16.842 0 013.485-10.293L8.2 17zm0 0a18.626 18.626 0 013.86-11.384l-.159-.121L8.2 17zm22 33.2h-6.4v-2.542l.223.026c.657.075 1.317.114 1.977.117h.001m4.2 2.4l-.4-2.297c-.599.062-1.2.094-1.8.096h-2v-.2m4.2 2.4v-2.542l-.223.026c-.657.075-1.317.114-1.978.117m2.2 2.4L28 47.8m-2 0h2m-2 0h2m0 0v.2-.2m0 0s0 0 0 0m0 0h0M11.931 27.372l.27.1V17C12.21 8.83 18.83 2.21 27 2.2c8.173 0 14.8 6.626 14.8 14.8v10.471l.269-.1c.298-.11.613-.168.931-.171a2.8 2.8 0 012.8 2.8 17.82 17.82 0 01-13.845 17.34l-.156.036V50a1.8 1.8 0 01-1.8 1.8h-.2v2.4H35a2.8 2.8 0 012.8 2.8v2a.8.8 0 01-.8.8H17a.8.8 0 01-.8-.8v-2a2.8 2.8 0 012.8-2.8h5.2v-2.4H24a1.8 1.8 0 01-1.8-1.8v-2.623l-.155-.035A17.82 17.82 0 018.2 30a2.8 2.8 0 012.8-2.8c.318.004.633.062.931.172zm15.07-23.571h0a13.218 13.218 0 00-12.185 8.122l-.116.277H19a.8.8 0 010 1.6h-4.795l-.036.154a13.125 13.125 0 00-.317 2.031l-.017.216h5.166a.8.8 0 010 1.6h-5.2V20.2H19a.8.8 0 010 1.6h-5.2v2.4H19a.8.8 0 010 1.6h-5.2v2.4h26.4v-2.4H30a.8.8 0 110-1.6h10.2v-2.4H30a.8.8 0 110-1.6h10.2v-2.4H30a.8.8 0 110-1.6h10.167l-.017-.216a13.28 13.28 0 00-.318-2.03l-.036-.155H30a.8.8 0 110-1.6h9.3l-.115-.276A13.21 13.21 0 0027 3.8zM40.2 30v-.2H13.8v.2c.007 6.735 5.464 12.192 12.2 12.2h2c6.734-.008 12.192-5.465 12.2-12.2zM36 58.2h.2V57a1.2 1.2 0 00-1.2-1.2H19a1.2 1.2 0 00-1.2 1.2v1.2H36zm-8-4h.2v-2.4h-2.4v2.4H28zM44.2 30v0a1.2 1.2 0 00-2.4 0c-.009 7.618-6.183 13.791-13.8 13.8h-2c-7.619-.009-13.793-6.182-13.8-13.8a1.2 1.2 0 00-2.4 0h0c.01 8.942 7.257 16.189 16.2 16.2h2c8.942-.011 16.189-7.258 16.2-16.2z" fill="#333" stroke="#C8F5E1" stroke-width=".4"/><path d="M24 17.8h-1a.8.8 0 010-1.6h1a.8.8 0 110 1.6zm0 4h-1a.8.8 0 110-1.6h1a.8.8 0 110 1.6zm0-8h-1a.8.8 0 110-1.6h1a.8.8 0 110 1.6zm0 12h-1a.8.8 0 010-1.6h1a.8.8 0 110 1.6z" fill="#333" stroke="#C8F5E1" stroke-width=".4"/></svg>