<svg width="72" height="60" fill="none" xmlns="http://www.w3.org/2000/svg"><path d="M11.943 51.337a.444.444 0 00-.17-.169L4.665 47.17a.444.444 0 00-.664.387v7.999a.444.444 0 00.664.387l7.11-4a.444.444 0 00.169-.605zm-7.054 3.458v-6.479l5.759 3.24-5.76 3.239z" fill="#333"/><path d="M23.7 50.4v.3h43.2v1.8H23.7v2.4h-1.8v-2.4h-7.6v-1.8h7.6v-2.4h1.8v2.1zM36 9.3h0c-9.44.01-17.09 7.66-17.1 17.1v0c0 9.444 7.657 17.1 17.1 17.1 9.445 0 17.1-7.656 17.1-17.1 0-9.444-7.655-17.1-17.1-17.1zM17.1 26.4c0-10.438 8.463-18.9 18.9-18.9 10.439 0 18.9 8.462 18.9 18.9 0 10.438-8.46 18.9-18.899 18.9-10.433-.012-18.888-8.467-18.9-18.9z" fill="#333" stroke="#E6E7FD" stroke-width=".6"/><path d="M30.272 34h-2.089V20.153l-4.189 1.538v-1.886l5.952-2.235h.326V34zm16.34-6.974c0 2.433-.415 4.241-1.246 5.424-.831 1.183-2.13 1.775-3.897 1.775-1.745 0-3.036-.577-3.875-1.73-.838-1.16-1.273-2.89-1.303-5.188v-2.774c0-2.404.416-4.19 1.247-5.357.831-1.168 2.134-1.752 3.908-1.752 1.76 0 3.055.565 3.886 1.696.831 1.123 1.258 2.86 1.28 5.21v2.696zm-2.077-2.841c0-1.76-.247-3.04-.741-3.841-.495-.809-1.277-1.213-2.348-1.213-1.063 0-1.838.4-2.324 1.201-.487.802-.738 2.033-.753 3.695v3.325c0 1.767.255 3.073.764 3.919.516.838 1.295 1.258 2.336 1.258 1.026 0 1.785-.397 2.28-1.19.501-.794.763-2.045.786-3.752v-3.402z" fill="#333"/><path d="M30.272 34v.4h.4V34h-.4zm-2.089 0h-.4v.4h.4V34zm0-13.847h.4v-.573l-.538.197.138.376zm-4.189 1.538h-.4v.574l.538-.198-.138-.376zm0-1.886l-.14-.375-.26.098v.277h.4zm5.952-2.235v-.4h-.072l-.068.025.14.375zm.326 0h.4v-.4h-.4v.4zm0 16.03h-2.089v.8h2.089v-.8zm-1.689.4V20.153h-.8V34h.8zm-.538-14.223l-4.189 1.539.276.75 4.189-1.538-.276-.75zm-3.65 1.914v-1.886h-.8v1.886h.8zm-.26-1.512l5.952-2.235-.281-.749-5.953 2.235.282.75zm5.811-2.21h.326v-.8h-.326v.8zm-.074-.4V34h.8V17.57h-.8zm7.722 14.926l-.324.234v.001l.324-.235zm-1.303-5.188h-.4v.005l.4-.005zm9.041-8.187l-.322.236v.002l.322-.238zm1.28 5.21h.4v-.003l-.4.004zm-2.819-3.986l-.34.208v.002l.34-.21zm-5.424 3.683l-.4-.003v.003h.4zm.764 7.244l-.343.206.002.004.34-.21zm4.615.067l-.338-.213-.001.002.34.211zm.787-3.75l.4.005v-.006h-.4zm1.677-.562c0 2.401-.412 4.11-1.174 5.194l.655.46c.9-1.282 1.32-3.19 1.32-5.654h-.8zm-1.174 5.194c-.739 1.052-1.9 1.605-3.57 1.605v.8c1.865 0 3.302-.631 4.225-1.945l-.655-.46zm-3.57 1.605c-1.648 0-2.804-.54-3.55-1.565l-.647.47c.93 1.28 2.358 1.895 4.198 1.895v-.8zm-3.55-1.564c-.769-1.065-1.197-2.698-1.227-4.96l-.8.01c.031 2.336.471 4.162 1.379 5.418l.648-.468zm-1.227-4.954v-2.774h-.8v2.774h.8zm0-2.774c0-2.371.413-4.057 1.173-5.125l-.652-.464c-.902 1.268-1.32 3.153-1.32 5.589h.8zm1.173-5.125c.738-1.038 1.903-1.584 3.582-1.584v-.8c-1.869 0-3.31.621-4.234 1.92l.652.464zm3.582-1.584c1.668 0 2.827.53 3.564 1.532l.644-.473c-.925-1.26-2.357-1.86-4.208-1.86v.8zm3.565 1.534c.756 1.022 1.18 2.658 1.201 4.976l.8-.007c-.023-2.384-.453-4.222-1.358-5.445l-.644.476zm1.201 4.973v2.695h.8V24.33h-.8zm-1.277-.146c0-1.78-.247-3.153-.801-4.051l-.681.42c.434.703.682 1.89.682 3.63h.8zm-.8-4.05c-.578-.945-1.5-1.404-2.689-1.404v.8c.953 0 1.595.349 2.006 1.021l.683-.417zm-2.689-1.404c-1.18 0-2.096.455-2.666 1.394l.683.415c.404-.664 1.038-1.01 1.983-1.01v-.8zm-2.666 1.394c-.543.894-.796 2.213-.81 3.899l.8.007c.014-1.638.263-2.782.693-3.49l-.683-.416zm-.81 3.902v3.325h.8v-3.325h-.8zm0 3.325c0 1.79.254 3.185.82 4.125l.685-.412c-.452-.752-.706-1.97-.706-3.713h-.8zm.822 4.129c.594.964 1.507 1.448 2.677 1.448v-.8c-.912 0-1.557-.355-1.996-1.068l-.68.42zm2.677 1.448c1.148 0 2.044-.455 2.62-1.38l-.68-.422c-.413.663-1.037 1.002-1.94 1.002v.8zm2.618-1.377c.561-.889.825-2.23.848-3.96l-.8-.01c-.023 1.685-.283 2.844-.725 3.543l.677.427zm.848-3.965v-3.402h-.8v3.402h.8z" fill="#E6E7FD"/><path d="M3.6.3h64.8a3.3 3.3 0 013.3 3.3v52.8a3.3 3.3 0 01-3.3 3.3H3.6a3.3 3.3 0 01-3.3-3.3V3.6A3.3 3.3 0 013.6.3zm64.8 57.6a1.5 1.5 0 001.5-1.5V3.6a1.5 1.5 0 00-1.5-1.5H3.6a1.5 1.5 0 00-1.5 1.5v52.8a1.5 1.5 0 001.5 1.5h64.8z" fill="#333" stroke="#E6E7FD" stroke-width=".6"/><path d="M5.1 5.1h1.8v1.8H5.1V5.1zm4.8 0h1.8v1.8H9.9V5.1zm4.8 0h1.8v1.8h-1.8V5.1z" fill="#333" stroke="#E6E7FD" stroke-width=".6"/></svg>