<svg width="60" height="60" fill="none" xmlns="http://www.w3.org/2000/svg"><path d="M50.036 33.89v.55h4.44a4.98 4.98 0 014.974 4.974 4.982 4.982 0 01-3.391 4.714l-.375.126v13.988c0 .667-.54 1.208-1.208 1.208H5.523c-.667 0-1.207-.54-1.207-1.208V44.254l-.375-.126A4.982 4.982 0 01.55 39.414a4.98 4.98 0 014.973-4.973h4.44V14.938a5.922 5.922 0 015.916-5.915h4.505l.079-.456C21.253 4.019 25.23.55 30 .55c4.77 0 8.746 3.469 9.537 8.017l.08.456h4.504a5.922 5.922 0 015.915 5.915V33.89zm-2.966.55h.55V14.938a3.502 3.502 0 00-3.499-3.499h-4.505l-.08.456a9.694 9.694 0 01-3.782 6.116l-.701.52.772.408c3.97 2.1 6.68 6.271 6.68 11.062v4.44h4.565zm-27.16-.55v.55h8.883v-5.822l-.16-.162-5.28-5.278-.406-.407-.388.424A10.052 10.052 0 0019.911 30v3.89zm14.675-12.065l.543-.544-.69-.339A10.03 10.03 0 0030 19.911a10.03 10.03 0 00-4.438 1.031l-.69.34.544.543 4.195 4.195.39.39.388-.39 4.196-4.195zm-3.216 6.631l-.161.161v5.824h8.88V30c0-2.62-1.004-5.01-2.646-6.804l-.388-.425-.407.407-5.278 5.278zM22.735 10.23v.013c.008 4 3.263 7.252 7.265 7.252 4.006 0 7.265-3.258 7.265-7.265 0-4.006-3.259-7.264-7.265-7.264-4.002 0-7.258 3.251-7.265 7.251v.001a.46.46 0 000 .012zm-2.272 1.664l-.08-.456H15.88c-1.93 0-3.5 1.57-3.5 3.5V34.44h5.116V30c0-4.79 2.71-8.963 6.68-11.062l.772-.408-.701-.52a9.695 9.695 0 01-3.783-6.116zm32.256 45.14h.55V44.387H6.73v12.648h45.99zM5.523 41.972h48.953a2.56 2.56 0 002.559-2.558 2.56 2.56 0 00-2.558-2.558H5.523a2.56 2.56 0 00-2.557 2.558 2.56 2.56 0 002.557 2.558z" fill="#333" stroke="#C8F5E1" stroke-width="1.1"/></svg>