<svg width="110" height="21" fill="none" xmlns="http://www.w3.org/2000/svg"><path fill-rule="evenodd" clip-rule="evenodd" d="M32.87.367l-3.848 2.349v1.282h4.998V.367h-1.15zm70.579 4.882c-1.149 0-2.531.124-3.322.195-.317.028-.54.048-.615.048v15.196h3.19v-5.186c.465.081.936.122 1.407.121 2.93 0 5.171-2.043 5.171-5.156 0-3.54-2.469-5.218-5.831-5.218zm.288 7.538a2.732 2.732 0 01-1.034-.176V8.303c.166-.03.718-.03 1.034-.03 1.408 0 2.356.732 2.356 2.257 0 1.466-.977 2.257-2.356 2.257zm-7.782 2.57h-3.074v2.282h3.962v3.05h-7.095V5.433h6.868V8.48H92.88v3.942h3.074v2.936zm-14.68-2.448V5.432h-3.13V20.69h3.13v-4.938h.575l3.677 4.938h1.328v-3.54c-.251-.363-.534-.765-.82-1.172l-.001-.001-.001-.002-.001-.001c-.433-.615-.872-1.24-1.217-1.753a108.63 108.63 0 001.205-3.998l1.35-4.79h-3.28l-2.125 7.475-.69.001zm-40.27.152c0 2.443 1.868 3.572 3.017 3.572V9.492c-1.152 0-3.017 1.127-3.017 3.57zm-8.508 7.63V16.39l-.51-.002-3.39 4.303h-1.695V5.432h3.154v2.32c0 1.582-.086 4.264-.146 6.122l-.02.622h.517l2.09-2.892V5.432h3.154v15.26h-3.154zm-29.93-9.429c0 3.05-.38 6.072-2.04 6.712v3.266c3.878-.427 5.085-4.028 5.085-9.4V8.127H7.68v12.572h3.155V5.432H2.568v5.83zm47.54 1.808c0-2.443-1.868-3.571-3.017-3.571v7.133c1.149 0 3.016-1.12 3.016-3.562zm-3.016 6.226c3.446 0 6.205-2.564 6.205-6.225 0-3.661-2.757-6.225-6.205-6.225V4.763H44.02v2.074c-3.446 0-6.205 2.564-6.205 6.225 0 3.66 2.757 6.225 6.205 6.225v1.83h3.07v-1.821zm9.213-13.864c.64 1.222 1.494 2.87 2.075 4.098l.605-.009c.52-1.105 1.276-2.561 1.883-3.733l.185-.356h1.378v4.181l-1.81 3.174 2.064 3.693v4.212h-1.38l-2.324-4.639h-.602l-2.324 4.639h-1.38V16.48l2.06-3.693-1.81-3.174V5.432h1.38zm16.27 0H67.66L63.81 20.69h3.218l.632-2.688h4.914l.632 2.686h3.218l-3.85-15.256zm-4.225 9.765h3.532L70.39 8.758h-.574l-1.466 6.439zM21.324 5.432h-4.912l-3.85 15.258h3.218l.632-2.688h4.912l.633 2.686h3.217l-3.85-15.256zM17.1 15.197h3.534L19.14 8.758h-.574L17.1 15.197z" fill="url(#paint0_linear)"/><defs><linearGradient id="paint0_linear" x1="-50.784" y1="13.835" x2="217.307" y2="-230.921" gradientUnits="userSpaceOnUse"><stop stop-color="#ED5E42"/></linearGradient></defs></svg>