<svg width="98" height="33" fill="none" xmlns="http://www.w3.org/2000/svg"><g style="mix-blend-mode:luminosity"><path d="M23.068 0l-5.62 31.125 30.307 1.434V6.552L23.068 0z" fill="#FFE043"/><path d="M14.163 10.954L15.88 23.89h-2.64l-.98-7.381-2.72 7.384H7.179L4.5 16.51l-1.045 7.38H.673l1.694-12.936h2.677l3.242 8.42 3.242-8.42h2.635zM29.308 22.13a4.213 4.213 0 01-1.82 1.587 6.658 6.658 0 01-3.013.62 6.461 6.461 0 01-2.49-.513 6.62 6.62 0 01-2.113-1.389 6.91 6.91 0 01-1.465-2.134 6.668 6.668 0 01-.564-2.756 6.667 6.667 0 01.564-2.755 7.073 7.073 0 011.485-2.16 6.632 6.632 0 012.113-1.39 6.449 6.449 0 012.49-.507c.534 0 1.066.06 1.589.177.469.098.925.254 1.36.465a5.4 5.4 0 011.066.704c.293.242.548.532.752.86l-.836 2.423a4.363 4.363 0 00-1.443-1.143 4.653 4.653 0 00-2.259-.53 4.92 4.92 0 00-1.652.266 3.983 3.983 0 00-1.318.774c-.377.329-.68.743-.887 1.21-.206.47-.31.98-.305 1.496-.006.517.098 1.03.304 1.498.206.47.51.884.888 1.213.39.343.837.606 1.318.775a4.918 4.918 0 001.652.265 4.65 4.65 0 002.301-.53 4.28 4.28 0 001.422-1.19l.861 2.51v.154zm2.971-1.235a1.79 1.79 0 01.603-.419 1.7 1.7 0 01.711-.131 1.69 1.69 0 01.711.132c.226.095.432.237.604.418.172.182.307.398.397.637.09.238.132.493.125.749.007.256-.036.511-.125.75-.09.238-.225.454-.397.636a1.781 1.781 0 01-.604.418c-.226.095-.468.14-.711.133a1.708 1.708 0 01-.711-.133 1.785 1.785 0 01-.603-.419 1.9 1.9 0 01-.397-.636 1.976 1.976 0 01-.126-.749 1.965 1.965 0 01.125-.75c.09-.238.225-.455.398-.636zm11.831 2.007a2.851 2.851 0 01-1.066.93 3.427 3.427 0 01-1.61.373A3.227 3.227 0 0140 24.002a3.369 3.369 0 01-1.222-.814 4.26 4.26 0 01-.882-2.866V15.52h-1.837v-.907l3.702-4.938h.815v2.866h3.41v2.976h-3.431v4.189c-.024.213 0 .43.069.633.069.202.181.386.328.535.27.22.602.336.942.33.317.01.632-.058.92-.198a2.44 2.44 0 00.735-.639l.564 2.513-.002.022zm7.427 1.322a5.338 5.338 0 01-2.196-.464 5.977 5.977 0 01-1.82-1.257 6.133 6.133 0 01-1.257-1.893 5.988 5.988 0 01-.46-2.382 5.98 5.98 0 01.46-2.38c.3-.71.727-1.354 1.255-1.896a5.98 5.98 0 011.82-1.255 5.456 5.456 0 012.196-.463c.754 0 1.5.157 2.196.463a5.97 5.97 0 011.82 1.255 6.116 6.116 0 011.255 1.896 5.98 5.98 0 01.463 2.38v.023a5.906 5.906 0 01-1.715 4.254 5.964 5.964 0 01-1.82 1.256 5.338 5.338 0 01-2.197.463zm.04-8.971a3.086 3.086 0 00-1.193.22c-.355.14-.681.35-.962.62a2.632 2.632 0 00-.627.942 3.272 3.272 0 00-.23 1.216v.044c0 .416.078.829.23 1.213.14.36.354.684.627.947.28.27.607.48.962.62.38.152.785.227 1.192.22a2.956 2.956 0 002.113-.837c.273-.268.493-.59.648-.948a2.9 2.9 0 00.252-1.213 3.009 3.009 0 00-.252-1.235 3.066 3.066 0 00-.648-.97 2.937 2.937 0 00-2.113-.84zm12.924 8.971c-.717 0-1.428-.15-2.091-.44a5.28 5.28 0 01-1.757-1.235 5.96 5.96 0 01-1.19-1.896 6.463 6.463 0 01-.441-2.425l.02.067a6.484 6.484 0 01.441-2.425 5.974 5.974 0 011.191-1.897 5.4 5.4 0 011.736-1.234 5.046 5.046 0 012.05-.44 4.526 4.526 0 012.051.419c.48.207.877.58 1.128 1.059V7.889h2.657v16.049h-2.572v-1.19a2.26 2.26 0 01-1.151 1.058 4.64 4.64 0 01-2.072.418zm.314-8.927a3.253 3.253 0 00-1.254.22 3.03 3.03 0 00-.983.62 2.63 2.63 0 00-.627.948c-.153.384-.23.796-.23 1.212v.023c-.001.416.077.828.23 1.212.14.361.354.685.627.948.288.27.621.48.983.62.401.155.827.23 1.254.22a3.608 3.608 0 001.778-.441 2.122 2.122 0 001.028-1.06v-3.021a2.124 2.124 0 00-1.03-1.06 3.609 3.609 0 00-1.776-.44zm13.407 8.93c-.718 0-1.429-.15-2.092-.44a5.298 5.298 0 01-1.756-1.236 5.972 5.972 0 01-1.191-1.898 6.441 6.441 0 01-.44-2.39 6.44 6.44 0 01.44-2.393 5.973 5.973 0 011.19-1.897 5.285 5.285 0 011.757-1.234 5.225 5.225 0 012.092-.441 4.63 4.63 0 012.07.419c.491.198.898.573 1.15 1.058v-1.19h2.573v11.352h-2.572v-1.19a2.26 2.26 0 01-1.15 1.058 4.64 4.64 0 01-2.071.422zm.294-8.928a3.245 3.245 0 00-1.254.22 3.03 3.03 0 00-.983.62 2.63 2.63 0 00-.628.948 3.27 3.27 0 00-.23 1.212v.022c0 .417.078.83.23 1.213.14.361.354.685.628.948.288.27.621.48.983.62.4.155.826.23 1.254.22a3.6 3.6 0 001.777-.441 2.127 2.127 0 001.025-1.07v-3.02a2.127 2.127 0 00-1.025-1.054 3.608 3.608 0 00-1.779-.441l.002.003zm10.289-2.758l2.823 7.055 2.822-7.055h2.954L90.958 28.59h-2.907l2.196-5.402-4.308-10.647h2.866z" fill="#000"/></g></svg>