<svg width="114" height="32" fill="none" xmlns="http://www.w3.org/2000/svg"><g style="mix-blend-mode:luminosity" fill-rule="evenodd" clip-rule="evenodd"><path d="M33.812 0c-.47.98-.87 1.843-1.293 2.696-1.95 3.914-3.883 7.836-5.874 11.73-.49.955-.505 1.756-.01 2.726 2.25 4.412 4.436 8.856 6.64 13.29.169.338.313.69.524 1.157H0V0h33.811zm-5.58 3.441H3.435v24.67h24.751c-.239-.522-.417-.94-.62-1.347-1.596-3.227-3.169-6.466-4.812-9.668-.476-.928-.472-1.71.007-2.62 1.028-1.952 1.982-3.942 2.96-5.92.818-1.657 1.626-3.315 2.51-5.115z" fill="#AE485C"/><path d="M16.232 24.131l-3.968-5.443h-.774v5.443H7.112V7.005h6.846c1.887 0 3.408.459 4.561 1.378 1.154.92 1.754 2.34 1.802 4.258 0 3.033-1.121 4.902-3.363 5.612l4.67 5.879h-5.395l-.001-.001zm-4.742-9.169h2.54c.853 0 1.458-.325 1.813-.979.354-.652.354-1.306 0-1.959s-.96-.979-1.814-.979h-2.54v3.919-.002z" fill="#AE485C"/><path d="M47.804 22.151l-2.894-3.97-.564-.001v3.97l-3.193.001V9.661h4.994c1.376 0 2.484.335 3.326 1.005.841.67 1.278 1.706 1.313 3.106 0 2.21-.818 3.575-2.453 4.093l3.406 4.287h-3.935zm-3.46-6.687h1.854c.623 0 1.064-.239 1.322-.714.26-.476.26-.953 0-1.43-.26-.476-.7-.713-1.322-.713h-1.853v2.857zM55.39 9.66v8.31c0 .378.124.696.372.962.246.264.542.425.89.485.347.059.698.059 1.05 0 .354-.06.653-.22.9-.485.247-.266.372-.585.372-.962V9.66h3.193v8.31a4.27 4.27 0 01-.344 1.738 3.613 3.613 0 01-.926 1.297 5.817 5.817 0 01-1.333.873c-.5.242-1.023.385-1.57.433a9.608 9.608 0 01-1.65 0 4.495 4.495 0 01-1.58-.433c-.5-.24-.94-.532-1.322-.873a3.586 3.586 0 01-.91-1.297 4.367 4.367 0 01-.334-1.738V9.66h3.193-.001zm7.854 10.41l1.993-1.872c.236.295.532.543.891.742.36.198.716.33 1.068.387.354.059.689.073 1.005.043.318-.029.582-.125.794-.29a.825.825 0 00.335-.636c.012-.33-.195-.599-.618-.811-.422-.213-.928-.36-1.518-.441-1.093-.178-2.008-.603-2.743-1.28-.734-.676-1.102-1.573-1.102-2.69 0-1.165.444-2.08 1.331-2.745.889-.665 1.95-.996 3.185-.996 1.754 0 3.177.665 4.271 1.993l-2.064 1.588a3.215 3.215 0 00-1.483-.909c-.564-.158-1.056-.147-1.474.036-.417.182-.632.51-.645.98.036.539.59.927 1.66 1.163.506.093.947.194 1.322.3.377.106.77.267 1.182.485.411.218.744.47.998.758.252.289.457.665.608 1.13.153.464.217.991.195 1.578a3.236 3.236 0 01-.821 2.029 4.568 4.568 0 01-1.852 1.297 6.297 6.297 0 01-2.267.417c-.765 0-1.526-.196-2.277-.584-.752-.389-1.408-.946-1.973-1.675v.003h-.001zm19.425-6.6c-.012.342-.125.713-.344 1.113-.218.4-.532.705-.944.917.765.388 1.276.906 1.534 1.553.259.648.335 1.271.23 1.87-.342 2.153-1.823 3.23-4.447 3.23l-5.099-.001V9.66h5.011c1.223 0 2.215.344 2.973 1.031.76.687 1.122 1.614 1.086 2.78v-.002zm-5.893 1.077h1.835c.483 0 .827-.186 1.034-.556.205-.371.208-.74.008-1.112-.199-.371-.546-.556-1.04-.556h-1.836v2.224h-.001zm0 4.834h1.835c.6 0 1.02-.213 1.263-.644.24-.428.239-.856-.007-1.279-.25-.425-.667-.635-1.255-.635h-1.834v2.559h-.002zm13.533-9.72l4.464 12.49h-3.387l-.812-2.505H87.24l-.777 2.506h-3.39l4.36-12.49h2.876V9.66zm-2.364 7.178h1.872l-.865-3.65h-.09l-.916 3.651h-.001zm6.67 3.23l1.993-1.871c.236.295.532.543.89.742.361.198.717.33 1.07.387a3.89 3.89 0 001.005.043c.317-.029.581-.125.794-.29a.828.828 0 00.335-.636c.012-.33-.195-.599-.619-.811-.422-.213-.927-.36-1.517-.441-1.093-.178-2.008-.603-2.743-1.28-.735-.676-1.103-1.573-1.103-2.69 0-1.165.443-2.08 1.331-2.745.889-.665 1.95-.996 3.185-.996 1.753 0 3.176.665 4.271 1.993l-2.065 1.588a3.222 3.222 0 00-1.483-.909c-.564-.158-1.056-.147-1.474.036-.417.182-.632.51-.645.98.036.539.59.927 1.66 1.163.506.093.947.194 1.322.3.377.106.77.267 1.182.485.411.218.743.47.998.758.252.289.456.665.608 1.13.152.464.216.991.194 1.578a3.233 3.233 0 01-.821 2.029 4.573 4.573 0 01-1.852 1.297 6.3 6.3 0 01-2.267.417c-.765 0-1.526-.196-2.277-.584-.751-.389-1.407-.946-1.972-1.675v.003zm13.551-7.446v1.942h5.064V17.3h-5.064v1.87h5.507v2.983h-8.701V9.66h8.7v2.964h-5.507l.001-.002z" fill="#000"/></g></svg>