<svg width="170" height="32" viewBox="0 0 170 32" fill="none" xmlns="http://www.w3.org/2000/svg">
<path fill-rule="evenodd" clip-rule="evenodd" d="M50.5571 0L44.542 3.60118V5.5667H52.3554V0H50.5571ZM160.885 7.48424C159.089 7.48424 156.929 7.67425 155.692 7.78308C155.196 7.82674 154.847 7.85732 154.731 7.85732V31.1542H159.717V23.2029C160.444 23.3276 161.18 23.3899 161.917 23.3895C166.496 23.3895 170 20.2561 170 15.4842C170 10.0581 166.139 7.48424 160.885 7.48424ZM161.335 19.0417C160.784 19.0549 160.236 18.9634 159.718 18.7714V12.1665C159.978 12.1205 160.842 12.1205 161.335 12.1205C163.535 12.1205 165.017 13.2425 165.017 15.5811C165.017 17.8279 163.491 19.0417 161.335 19.0417ZM149.171 22.9813H144.365V26.4796H150.559V31.1569H139.468V7.7654H150.203V12.4372H144.365V18.4797H149.171V22.9813ZM126.224 19.2287V7.7654H121.33V31.1569H126.224V23.5868H127.122L132.87 31.1569H134.946V25.7308C134.553 25.1733 134.11 24.5564 133.664 23.9334L133.663 23.9328L133.663 23.9323L133.662 23.9312L133.661 23.9304L133.66 23.929L133.658 23.9264C132.982 22.9835 132.296 22.0269 131.756 21.2401C132.343 19.4666 133.14 16.89 133.64 15.111L135.75 7.7654H130.622L127.301 19.2259L126.224 19.2287ZM63.2743 19.4616C63.2743 23.2062 66.1937 24.9365 67.9893 24.9365V13.9896C66.1884 13.9896 63.2743 15.7172 63.2743 19.4616ZM49.9738 31.1596V24.5628L49.1771 24.5601L43.8784 31.1569H41.2289V7.7654H46.1593V11.3233C46.1593 13.748 46.0244 17.8586 45.9309 20.7079V20.7084V20.7087L45.8998 21.6618H46.7067L49.9738 17.2279V7.7654H54.9041V31.1596H49.9738ZM3.18917 16.7031C3.18917 21.3804 2.59493 26.0116 0 26.9929V32C6.06175 31.3458 7.94827 25.825 7.94827 17.59V11.8961H11.1815V31.17H16.112V7.76502H3.18917V16.7031ZM77.5005 19.4744C77.5005 15.73 74.5813 13.9997 72.7855 13.9997V24.9357C74.5813 24.9357 77.5005 23.219 77.5005 19.4744ZM72.787 29.0197C78.1742 29.0197 82.4869 25.0888 82.4869 19.476C82.4869 13.8634 78.1768 9.93238 72.787 9.93238V6.73943H67.9866V9.91886C62.5994 9.91886 58.2867 13.8499 58.2867 19.4626C58.2867 25.0752 62.5968 29.0063 67.9866 29.0063V31.8125H72.787V29.0197ZM87.1894 7.76502C88.1886 9.63862 89.5249 12.1665 90.4332 14.0482L91.3776 14.0347C92.1907 12.3405 93.3719 10.1077 94.3219 8.31175L94.611 7.76502H96.7648V14.1752L93.9363 19.0417L97.1618 24.7031V31.1593H95.0054L91.3725 24.0487H90.4306L86.7977 31.1593H84.6413V24.7031L87.8616 19.0417L85.0331 14.1752V7.76502H87.1894ZM112.622 7.7654H104.941L98.923 31.1569H103.952L104.941 27.0366H112.622L113.61 31.1542H118.639L112.622 7.7654ZM106.017 22.7353H111.539L109.206 12.8646H108.308L106.017 22.7353ZM32.5093 7.76502H24.8308L18.8131 31.1566H23.8422L24.8308 27.0362H32.5093L33.4979 31.1538H38.5268L32.5093 7.76502ZM25.9057 22.7353H31.4302L29.0949 12.8646H28.197L25.9057 22.7353Z" fill="white"/>
</svg>
