<svg width="27" height="27" viewBox="0 0 27 27" fill="none" xmlns="http://www.w3.org/2000/svg">
<path d="M22.7248 0.897949H4.23757C2.35542 0.897949 0.826172 2.41823 0.826172 4.28936V22.6682C0.826172 24.5393 2.35542 26.0597 4.23757 26.0597H13.3574L13.3759 17.0671H11.0232C10.7199 17.0671 10.4722 16.821 10.466 16.5194L10.4536 13.6203C10.4536 13.3127 10.7013 13.0664 11.0109 13.0664H13.3574V10.2659C13.3574 7.01603 15.3509 5.24339 18.267 5.24339H20.6569C20.9602 5.24339 21.2141 5.48958 21.2141 5.79733V8.24088C21.2141 8.54247 20.9664 8.79483 20.6569 8.79483H19.1895C17.6046 8.79483 17.295 9.54574 17.295 10.6413V13.0664H20.7807C21.1151 13.0664 21.3689 13.3557 21.3317 13.6818L20.9851 16.5809C20.9541 16.8579 20.7126 17.0671 20.434 17.0671H17.3075L17.2888 26.0597H22.7124C24.5946 26.0597 26.1238 24.5393 26.1238 22.6682V4.28936C26.1362 2.41823 24.607 0.897949 22.7248 0.897949Z" fill="white"/>
</svg>
