<svg width="28" height="27" viewBox="0 0 28 27" fill="none" xmlns="http://www.w3.org/2000/svg">
<g clip-path="url(#clip0)">
<path d="M19.4964 0.897949H9.26665C5.10496 0.897949 1.72417 4.25892 1.72417 8.39623V18.566C1.72417 22.6987 5.10496 26.0597 9.26665 26.0597H19.4964C23.6534 26.0597 27.0388 22.6987 27.0388 18.5614V8.39623C27.0342 4.25892 23.6534 0.897949 19.4964 0.897949ZM24.4895 18.566C24.4895 21.3058 22.2524 23.5298 19.4964 23.5298H9.26665C6.51056 23.5298 4.27354 21.3058 4.27354 18.566V8.39623C4.27354 5.65629 6.51056 3.43239 9.26665 3.43239H19.4964C22.2524 3.43239 24.4895 5.65629 24.4895 8.39623V18.566Z" fill="white"/>
<path d="M14.3789 6.97168C10.7684 6.97168 7.83321 9.8897 7.83321 13.4791C7.83321 17.0684 10.7684 19.9863 14.3789 19.9863C17.9894 19.9863 20.9246 17.0684 20.9246 13.4791C20.9246 9.8897 17.9894 6.97168 14.3789 6.97168ZM14.3789 17.4564C12.1694 17.4564 10.378 15.6756 10.378 13.4791C10.378 11.2825 12.1694 9.50155 14.3789 9.50155C16.5884 9.50155 18.3798 11.2825 18.3798 13.4791C18.3798 15.6756 16.5884 17.4564 14.3789 17.4564Z" fill="white"/>
<path d="M20.9392 8.57874C21.8043 8.57874 22.5055 7.88157 22.5055 7.02155C22.5055 6.16154 21.8043 5.46436 20.9392 5.46436C20.0741 5.46436 19.3728 6.16154 19.3728 7.02155C19.3728 7.88157 20.0741 8.57874 20.9392 8.57874Z" fill="white"/>
</g>
<defs>
<clipPath id="clip0">
<rect width="26.3054" height="26.3054" fill="white" transform="translate(0.897999)"/>
</clipPath>
</defs>
</svg>
