<svg width="27" height="27" viewBox="0 0 27 27" fill="none" xmlns="http://www.w3.org/2000/svg">
<g clip-path="url(#clip0)">
<path d="M13.5901 0.897949C6.64218 0.897949 1.0096 6.5307 1.0096 13.4786C1.0096 20.4264 6.64218 26.0597 13.5901 26.0597C20.5382 26.0597 26.1711 20.4264 26.1711 13.4786C26.1711 6.5307 20.5382 0.897949 13.5901 0.897949ZM13.5904 5.31688L21.0352 9.95927H6.14556L13.5904 5.31688ZM21.128 17.3726H21.1273C21.1273 18.1172 20.5237 18.7206 19.7792 18.7206H7.40157C6.65694 18.7206 6.05355 18.1171 6.05355 17.3726V10.2547C6.05355 10.1759 6.06162 10.0993 6.07469 10.0241L13.1879 14.4596C13.1966 14.4651 13.2058 14.4687 13.2149 14.4738C13.2242 14.4789 13.2337 14.4839 13.2433 14.4887C13.2935 14.5147 13.3453 14.5355 13.3982 14.5492C13.4037 14.5507 13.4092 14.5514 13.4145 14.5527C13.4726 14.5663 13.5314 14.5749 13.5901 14.5749H13.5906C13.591 14.5749 13.5914 14.5749 13.5914 14.5749C13.6501 14.5749 13.7089 14.5666 13.7669 14.5527C13.7724 14.5513 13.7779 14.5507 13.7833 14.5492C13.8361 14.5355 13.8877 14.5147 13.9383 14.4887C13.9477 14.4839 13.9573 14.4789 13.9667 14.4738C13.9756 14.4687 13.985 14.4651 13.9937 14.4596L21.1068 10.0241C21.12 10.0993 21.128 10.1757 21.128 10.2547V17.3726Z" fill="white"/>
</g>
<defs>
<clipPath id="clip0">
<rect width="26.3054" height="26.3054" fill="white" transform="translate(0.694687)"/>
</clipPath>
</defs>
</svg>
