<svg width="28" height="27" viewBox="0 0 28 27" fill="none" xmlns="http://www.w3.org/2000/svg">
<g clip-path="url(#clip0)">
<path d="M14.2035 26.0606C21.1517 26.0606 26.7842 20.428 26.7842 13.4799C26.7842 6.53173 21.1517 0.89917 14.2035 0.89917C7.25543 0.89917 1.62286 6.53173 1.62286 13.4799C1.62286 20.428 7.25543 26.0606 14.2035 26.0606Z" fill="white"/>
<path d="M12.9819 15.3122L18.6674 19.6047L21.5373 7.35376L6.86993 13.1232L11.333 14.6015L19.4783 9.13788L12.9819 15.3122Z" fill="#0B0B0B"/>
<path d="M11.3333 14.6011L12.5557 18.9996L12.9821 15.3117L19.4786 9.13745L11.3333 14.6011Z" fill="#0B0B0B"/>
<path d="M14.8297 16.7074L12.5554 19.0002L12.9818 15.3123L14.8297 16.7074Z" fill="#0B0B0B"/>
</g>
<defs>
<clipPath id="clip0">
<rect width="26.3054" height="26.3054" fill="white" transform="translate(0.796692)"/>
</clipPath>
</defs>
</svg>
