<svg width="60" height="60" viewBox="0 0 60 60" fill="none" xmlns="http://www.w3.org/2000/svg">
<path d="M0.0999999 59.4H59.6V54.4C59.6 52.6 58.9 51 57.7 49.7C56.9 48.9 55.8 48.3 54.6 48L52.7 47.5L52.3 45.9L52.5 45.8C53.5 45.1 54.3 44 54.6 42.7V42.6L54.7 42.5L55.2 42C56.2 41.1 56.9 39.9 57.3 38.7C57.6 37.9 57.7 37 57.7 36.1V35.4C57.7 34 57.2 32.6 56.4 31.5C55.2 29.9 53.2 28.9 51.2 28.9H47.3C45.5 28.9 43.8 29.6 42.6 30.9L42.1 31.4L42 30.7C41.8 28.4 40.9 26.4 39.5 24.8L39.4 24.7L41.9 22.2L40.1 20.4C39.8 20.1 39.6 19.6 39.6 19.2C39.6 18.9 39.7 18.6 39.8 18.4C40.1 17.7 40.7 17.2 41.5 17.2H44V11.3H41.5C40.8 11.3 40.1 10.8 39.8 10.1C39.7 9.8 39.6 9.6 39.6 9.3C39.6 8.8 39.8 8.4 40.1 8L41.9 6.2L37.8 2.1L36 3.9C35.7 4.2 35.2 4.4 34.8 4.4C34.5 4.4 34.2 4.3 34 4.2C33.3 3.9 32.8 3.3 32.8 2.5V0H26.9V2.5C26.9 3.2 26.4 3.9 25.7 4.2C25.4 4.3 25.2 4.4 24.9 4.4C24.4 4.4 24 4.2 23.6 3.9L21.8 2.1L17.7 6.2L19.5 8C19.8 8.3 20 8.8 20 9.2C20 9.5 19.9 9.8 19.8 10C19.5 10.7 18.9 11.2 18.1 11.2H15.6V13.5H7.6C6.6 13.5 5.7 13.9 5.1 14.5C4.5 15.1 4.1 16 4.1 17V22.4C4.1 23.4 4.3 24.3 4.6 25.2L4.8 26.5L4.7 26.6C4.2 27.2 4 27.9 4 28.7C4 29.7 4.4 30.6 5 31.2C5.6 31.8 6.5 32.2 7.5 32.2H8.4L8.5 32.4C9 33.4 9.6 34.2 10.5 34.8L10.7 34.9L10.3 36.8C10.1 37.7 9.4 38.3 8.6 38.5L6.8 38.9C2.9 39.7 0 43.2 0 47.2V59.4H0.0999999ZM14.3 51.6L14.1 51.5C13.5 51 12.9 50.5 12.4 49.9L12.3 49.7L12.9 47.5L13 47.3H15.8L16.4 49.7L16.3 49.8C15.8 50.4 15.2 50.9 14.6 51.4L14.3 51.6ZM14.1 43.6L14.3 43.5L16.2 44.6L15.8 46H12.8L12.4 44.7L14.1 43.6ZM13.9 42.7L14 42.5L14.2 42.2L14.4 42.4L14.6 42.6L14.5 42.8L14.3 43.2L14 42.8L13.9 42.7ZM21.1 32.3H21.4V38C21.4 38.2 21.4 38.3 21.4 38.5V38.9L21 38.8L20.1 38.6C19.2 38.4 18.5 37.8 18.4 36.9L18 35L18.2 34.9C19 34.3 19.7 33.4 20.2 32.5L20.3 32.3H20.5H21.1V32.3ZM20.7 31V30.7C20.7 30.4 20.8 30.1 20.8 29.8V26.6H21.1C22.3 26.6 23.3 27.6 23.3 28.8C23.3 30 22.3 31 21.1 31H20.7ZM19.1 39.8L19.2 39.7L19.4 39.8C19.6 39.9 19.8 39.9 19.9 40L20.4 40.1V40.4C20.3 41.9 20 43.4 19.5 44.8L19.4 45.1L15.5 42.7L19.1 39.8ZM18.8 46.2L18.7 46.5C18.4 47 18.1 47.5 17.8 48L17.4 48.6L16.9 46.7L17.3 45.4L18.8 46.2ZM27.2 58.1H15V52.9V52.8L15.1 52.7C18.9 49.8 21.3 45.4 21.7 40.7V40.3L22.1 40.4C25.1 41.3 27.2 44 27.2 47.2V58.1ZM28.5 46.9C28.5 46.3 28.4 45.7 28.2 45.1V45L28.3 44.9C28.6 44.5 28.8 44 28.9 43.5L29.2 41.9L29.3 41.6L29.6 41.7C30.3 41.9 31 42.1 31.7 42.1C32.4 42.1 33.2 42 33.8 41.7L34.1 41.6L34.5 43.5C34.6 44.2 35 44.9 35.5 45.3L35.7 45.5L34.2 48.5H29.2L28.5 46.9ZM26.6 35.5V31.7C26.6 30.3 27.5 29.1 28.8 28.7L29.1 28.6L29.2 28.9C29.4 30.3 30.6 31.4 32 31.6L35 32C36.1 32.1 37 33.1 37 34.2V35.5C37 38.3 34.7 40.6 31.9 40.6C28.9 40.7 26.6 38.3 26.6 35.5ZM31.1 58.1H28.6V51.2V49.9L31.1 55V58.1ZM31.7 53.4L29.9 49.7H33.5L31.9 52.8L31.7 53.4ZM44.6 58.1H32.4V55.1V55L36.9 46.1L37.1 46.2C37.2 46.2 37.3 46.3 37.4 46.3L39.7 46.8C42.5 47.4 44.6 49.9 44.6 52.8V58.1ZM48.5 58.1H46V52.7C46 51.5 45.7 50.4 45.2 49.4L45 49.1L45.4 49L45.9 48.9L48.5 53.2V58.1ZM47 48L47.4 46.5L47.7 46.6C48.2 46.7 48.7 46.8 49.2 46.8C49.7 46.8 50.2 46.7 50.7 46.6L51 46.5L51.1 46.8L51.4 47.8V47.9L49.2 51.7L47 48ZM52.4 48.9L54.2 49.3C55.1 49.5 56 50 56.7 50.7C57.7 51.7 58.2 53 58.2 54.4V57.7V58H49.8V53L52.4 48.9ZM53.3 41.3C53.3 43.6 51.4 45.5 49.1 45.5C46.8 45.5 44.9 43.6 44.9 41.3V38.9L45.1 38.8C46.5 38.3 47.8 37.6 48.9 36.6L49.1 36.4L49.3 36.6C50.4 37.6 51.7 38.3 53.1 38.8L53.3 38.9V41.3ZM42.1 35.5C42.1 34.4 42.5 33.3 43.1 32.4C44.1 31.1 45.6 30.3 47.2 30.3H51.1C52.7 30.3 54.2 31.1 55.2 32.4C55.9 33.3 56.2 34.4 56.2 35.5V36.2C56.2 36.9 56.1 37.7 55.9 38.3C55.7 38.8 55.5 39.3 55.2 39.7L54.7 40.7V39.6V39.1C54.7 38.4 54.3 37.8 53.6 37.5C52.2 37 51 36.3 49.9 35.2L49.2 34.5L48.5 35.2C47.5 36.2 46.2 37 44.8 37.5C44.1 37.7 43.7 38.3 43.7 39.1V40.7L43.1 39.8C42.8 39.4 42.6 38.9 42.4 38.4C42.2 37.7 42.1 37 42.1 36.3V35.5V35.5ZM41.9 40.5L42.3 41.1C42.6 41.5 42.9 41.8 43.2 42.2L43.8 42.7V42.8C44.1 44.1 44.9 45.1 45.9 45.9L46.1 46L45.7 47.6L44.2 48L44.1 47.9C43.2 46.9 42.1 46.2 40.8 45.7L40.5 45.6L40.6 45.3C41.1 44 41.5 42.6 41.8 41.3L41.9 40.5ZM40.8 31.6V35.5V36.2V37.9C40.8 40.3 40.3 42.7 39.3 45L39.2 45.2L37.7 44.9C36.8 44.7 36.1 44 35.9 43.1L35.4 40.8L35.6 40.7C37.2 39.5 38.2 37.6 38.2 35.5V34.2C38.2 32.4 36.9 30.9 35.1 30.7L32.1 30.3C31.1 30.2 30.4 29.4 30.4 28.4C30.4 27.3 31.3 26.5 32.3 26.5V25.2C31 25.2 29.9 26 29.4 27.1L29.3 27.2H29.2L28.7 27.3C26.7 27.8 25.3 29.6 25.3 31.7V35.5C25.3 37.6 26.3 39.5 27.9 40.7L28.1 40.8L27.6 43.2L27.2 42.6C26.2 41.1 24.7 39.9 23 39.2H22.8V39C22.8 38.7 22.8 38.3 22.8 38V31.9L22.9 31.8C24 31.2 24.7 30 24.7 28.7C24.7 28.1 24.5 27.5 24.2 27L24.1 26.8L24.2 26.6C25.9 24.1 28.7 22.5 31.7 22.5C36.7 22.6 40.8 26.7 40.8 31.6ZM16.9 13.4V12.6H17.2H18.1C19.4 12.6 20.5 11.8 21 10.5C21.2 10.1 21.3 9.6 21.3 9.2C21.3 8.4 21 7.6 20.4 7L19.6 6.2L21.8 4L22 4.2L22.6 4.8C23.2 5.4 24 5.7 24.8 5.7C25.2 5.7 25.7 5.6 26.2 5.4C27.4 4.9 28.2 3.7 28.2 2.5V1.3H31.4V1.6V2.5C31.4 3.8 32.2 4.9 33.5 5.4C33.9 5.6 34.3 5.7 34.8 5.7C35.6 5.7 36.4 5.4 37 4.8L37.8 4L40.1 6.3L39.8 6.4L39.2 7C38.6 7.6 38.3 8.4 38.3 9.2C38.3 9.6 38.4 10.1 38.6 10.6C39.1 11.8 40.3 12.6 41.5 12.6H42.7V15.8H42.4H41.5C40.2 15.8 39.1 16.6 38.6 17.9C38.4 18.3 38.3 18.8 38.3 19.2C38.3 20 38.6 20.8 39.2 21.4L40 22.2L38.4 23.8L38.2 23.6C36.4 22.2 34.2 21.3 31.7 21.3C29.2 21.3 26.9 22.2 25.1 23.7L24.5 24.2L24.6 23.5C24.6 23.2 24.7 22.9 24.7 22.6C24.7 18.1 21.4 14.5 17.2 13.7H17V13.4H16.9ZM7.6 31C6.3 31 5.3 30 5.3 28.8C5.3 27.6 6.3 26.6 7.5 26.6H7.8V29.7C7.8 30 7.8 30.3 7.9 30.6V30.9H7.6V31ZM7.8 24.9V25.2H7.5C7 25.2 6.6 25.3 6.1 25.5L5.8 25.6V25.2L5.7 24.9C5.4 24.1 5.3 23.3 5.3 22.5V17.1C5.3 15.9 6.3 14.9 7.5 14.9H15.6C19.8 14.9 23.3 18.3 23.3 22.6C23.3 23.4 23.2 24.2 22.9 25L22.7 25.6L22.4 25.5C22 25.3 21.5 25.2 21 25.2H20.6L20.5 25C20.1 24 19.2 23.3 18.1 23.3H16.2C14.4 23.3 13 21.9 13 20.1V17.5H11.7V20.1C11.7 20.3 11.7 20.5 11.7 20.7V20.9L10 21.6C8.7 22.1 7.8 23.4 7.8 24.9ZM9.2 29.7V24.9C9.2 24 9.8 23.2 10.6 22.8L12.3 22.1L12.4 22.3C13.2 23.6 14.6 24.5 16.3 24.5H18.2C18.9 24.5 19.5 25.1 19.5 25.8V29.7C19.5 32.5 17.2 34.8 14.4 34.8C11.5 34.8 9.2 32.5 9.2 29.7ZM10.8 38.7C11.2 38.3 11.4 37.8 11.5 37.2L11.8 35.7L12.1 35.8C12.8 36 13.5 36.2 14.3 36.2C15.1 36.2 15.8 36.1 16.5 35.8L16.8 35.7L17.1 37.2C17.2 37.8 17.5 38.3 17.8 38.7L18 38.9L14.3 41.9L10.6 38.9L10.8 38.7ZM8.5 40H8.7C8.9 40 9.1 39.9 9.2 39.8L9.4 39.7L13.1 42.7L9.3 45L9.2 44.7C8.7 43.3 8.4 41.8 8.3 40.3V40H8.5ZM11.7 46.7L11.2 48.5L10.8 47.9C10.5 47.4 10.2 46.9 9.9 46.4L9.8 46.2L10.9 45.5L11.2 45.3L11.3 45.7L11.7 46.7ZM1.4 47.2C1.4 44 3.5 41.3 6.5 40.4L6.9 40.3V40.7C7.3 45.4 9.7 49.8 13.5 52.7L13.6 52.8V58.1H1.4V47.2Z" fill="#333333"/>
<path fill-rule="evenodd" clip-rule="evenodd" d="M58.2 1.90002H59.5V3.20002H58.2V1.90002Z" fill="#333333"/>
<path fill-rule="evenodd" clip-rule="evenodd" d="M54.3 1.90002H55.6V3.20002H54.3V1.90002Z" fill="#333333"/>
<path fill-rule="evenodd" clip-rule="evenodd" d="M50.4 1.90002H51.8V3.20002H50.5V1.90002H50.4Z" fill="#333333"/>
<path fill-rule="evenodd" clip-rule="evenodd" d="M58.2 5.79999H59.5V7.09999H58.2V5.79999Z" fill="#333333"/>
<path fill-rule="evenodd" clip-rule="evenodd" d="M54.3 5.79999H55.6V7.09999H54.3V5.79999Z" fill="#333333"/>
<path fill-rule="evenodd" clip-rule="evenodd" d="M50.4 5.79999H51.8V7.09999H50.5V5.79999H50.4Z" fill="#333333"/>
<path fill-rule="evenodd" clip-rule="evenodd" d="M46.6 1.90002H47.9V3.20002H46.6V1.90002Z" fill="#333333"/>
<path fill-rule="evenodd" clip-rule="evenodd" d="M0.0999756 1.90002H1.39998V3.20002H0.0999756V1.90002Z" fill="#333333"/>
<path fill-rule="evenodd" clip-rule="evenodd" d="M3.90002 1.90002H5.20002V3.20002H3.90002V1.90002Z" fill="#333333"/>
<path fill-rule="evenodd" clip-rule="evenodd" d="M7.79999 1.90002H9.09999V3.20002H7.79999V1.90002Z" fill="#333333"/>
<path fill-rule="evenodd" clip-rule="evenodd" d="M0.0999756 5.79999H1.39998V7.09999H0.0999756V5.79999Z" fill="#333333"/>
<path fill-rule="evenodd" clip-rule="evenodd" d="M3.90002 5.79999H5.20002V7.09999H3.90002V5.79999Z" fill="#333333"/>
<path fill-rule="evenodd" clip-rule="evenodd" d="M7.79999 5.79999H9.09999V7.09999H7.79999V5.79999Z" fill="#333333"/>
<path fill-rule="evenodd" clip-rule="evenodd" d="M11.7 1.90002H13V3.20002H11.7V1.90002Z" fill="#333333"/>
<path fill-rule="evenodd" clip-rule="evenodd" d="M36.1 14.2C36.1 17.7 33.3 20.5 29.8 20.5C26.3 20.5 23.5 17.7 23.5 14.2C23.5 10.7 26.3 7.90002 29.8 7.90002C33.3 7.90002 36.1 10.7 36.1 14.2ZM34.8 14.2C34.8 11.5 32.6 9.20002 29.8 9.20002C27.1 9.20002 24.8 11.4 24.8 14.2C24.8 17 27 19.2 29.8 19.2C32.5 19.2 34.8 16.9 34.8 14.2Z" fill="#333333"/>
</svg>
