<svg width="60" height="60" viewBox="0 0 60 60" fill="none" xmlns="http://www.w3.org/2000/svg">
<mask id="path-1-inside-1" fill="white">
<path d="M46.4517 25.1613C44.0904 25.1613 41.8355 25.7603 39.8594 26.8597L38.1939 24.3126C41.4407 21.8352 43.5484 17.9381 43.5484 13.5484C43.5484 6.07743 37.471 0 30 0C22.5291 0 16.4516 6.07743 16.4516 13.5484C16.4516 17.88 18.4713 21.8149 21.7945 24.331L20.1368 26.8665C18.1645 25.771 15.9107 25.1613 13.5484 25.1613C6.07743 25.1613 0 31.2387 0 38.7097C0 46.1807 6.07743 52.2581 13.5484 52.2581C16.0858 52.2581 18.5168 51.5652 20.6478 50.2491C21.1684 51.1578 21.8652 51.963 22.7149 52.5997L24.1936 53.7097L25.5 53.5V52.5C25.5426 52.4787 25.5871 52.4613 25.6297 52.44L23.8762 51.0523C22.7671 50.221 21.992 49.0181 21.692 47.6671L20.3952 41.8297C20.3468 41.6159 20.3226 41.3962 20.3226 41.1755C20.3226 40.0239 20.9623 38.9875 21.9929 38.4726L24.1936 37.3723V39.4491C24.1936 40.4149 23.6565 41.2839 22.7932 41.7155L23.6594 43.4468C25.1826 42.6833 26.1291 41.1513 26.1291 39.4491V26.1291C26.1291 25.5949 26.5636 25.1613 27.0968 25.1613C27.63 25.1613 28.0645 25.5949 28.0645 26.1291V41.6129H30V31.9355C30 31.4013 30.4345 30.9678 30.9678 30.9678C31.501 30.9678 31.9355 31.4013 31.9355 31.9355V41.6129H33.871V33.871C33.871 33.3368 34.3055 32.9033 34.8387 32.9033C35.372 32.9033 35.8065 33.3368 35.8065 33.871V41.6129H37.742V35.8065C37.742 35.2723 38.1765 34.8387 38.7097 34.8387C39.2429 34.8387 39.6775 35.2723 39.6775 35.8065V53.0752C40.0123 53.2155 40.1748 53.3374 40.5 53.5L41.6129 53.6543V51.362C43.1507 51.9484 44.7968 52.2581 46.4517 52.2581C53.9226 52.2581 60.0001 46.1807 60.0001 38.7097C60.0001 31.2387 53.9226 25.1613 46.4517 25.1613ZM30 1.93549C36.4036 1.93549 41.6129 7.14485 41.6129 13.5484C41.6129 15.8226 40.9462 17.9391 39.812 19.7323C38.5626 17.1339 36.3252 15.149 33.6484 14.189C34.9636 13.1236 35.8065 11.4978 35.8065 9.67743C35.8065 6.47517 33.2023 3.87097 30 3.87097C26.7978 3.87097 24.1936 6.47517 24.1936 9.67743C24.1936 11.4978 25.0365 13.1236 26.3516 14.1881C23.6671 15.151 21.4239 17.1436 20.1765 19.7526C19.0336 17.941 18.3871 15.809 18.3871 13.5484C18.3871 7.14485 23.5965 1.93549 30 1.93549ZM26.1291 9.67743H33.871C33.871 11.8123 32.1349 13.5484 30 13.5484C27.8652 13.5484 26.1291 11.8123 26.1291 9.67743ZM26.6671 7.74194C27.3387 6.59033 28.5736 5.80646 30 5.80646C31.4265 5.80646 32.6613 6.59033 33.3329 7.74194H26.6671ZM30 15.4839C30.6533 15.4839 31.2929 15.5623 31.9133 15.6997C31.8049 16.6645 30.9939 17.4194 30 17.4194C29.0062 17.4194 28.1952 16.6645 28.0868 15.6997C28.7071 15.5623 29.3468 15.4839 30 15.4839ZM23.4155 25.3858C23.6807 25.532 23.9497 25.6723 24.2265 25.8029C24.2139 25.9113 24.1936 26.0178 24.1936 26.1291V30.332C23.4803 29.4242 22.6626 28.6152 21.7558 27.9252L23.4155 25.3858ZM13.5484 50.3226C10.2203 50.3226 7.22227 48.9068 5.10291 46.6559C5.90904 44.3391 7.62581 42.4984 9.77711 41.492C10.1652 43.2194 11.7058 44.5162 13.5484 44.5162C15.3939 44.5162 16.9365 43.2165 17.3216 41.4852C17.7232 41.6729 18.1123 41.8917 18.4868 42.1404C18.4945 42.1771 18.4974 42.2139 18.5052 42.2507L19.802 48.0871C19.8281 48.2023 19.8629 48.3146 19.8939 48.4288C18.0068 49.6655 15.8294 50.3226 13.5484 50.3226ZM9.67743 34.8387H17.4194C17.4194 36.9736 15.6832 38.7097 13.5484 38.7097C11.4136 38.7097 9.67743 36.9736 9.67743 34.8387ZM10.2155 32.9033C10.8871 31.7516 12.1219 30.9678 13.5484 30.9678C14.9749 30.9678 16.2097 31.7516 16.8813 32.9033H10.2155ZM13.5484 40.6452C14.1997 40.6452 14.8394 40.7197 15.4626 40.8552C15.3561 41.8229 14.5442 42.5807 13.5484 42.5807C12.5545 42.5807 11.7436 41.8259 11.6352 40.861C12.2555 40.7236 12.8952 40.6452 13.5484 40.6452ZM21.1278 36.7413C19.8213 37.3946 18.9039 38.5607 18.5516 39.9291C18.1152 39.7026 17.6632 39.511 17.2026 39.3465C18.5139 38.28 19.3549 36.6571 19.3549 34.8387C19.3549 31.6365 16.7507 29.0323 13.5484 29.0323C10.3461 29.0323 7.74194 31.6365 7.74194 34.8387C7.74194 36.6591 8.58485 38.2849 9.90001 39.3494C7.22323 40.3094 4.98484 42.2942 3.73646 44.8926C2.60226 43.1004 1.93549 40.9839 1.93549 38.7097C1.93549 32.3062 7.14485 27.0968 13.5484 27.0968C18.1887 27.0968 22.3442 29.8307 24.1936 34.0733V35.2084L21.1278 36.7413ZM27.0968 23.2258C26.3062 23.2258 25.59 23.5452 25.0665 24.0591C23.7174 23.4271 22.53 22.5629 21.5458 21.5216C22.3481 19.1923 24.0687 17.34 26.2287 16.3297C26.6168 18.0581 28.1574 19.3549 30 19.3549C31.8426 19.3549 33.3833 18.0581 33.7713 16.3307C35.9226 17.3371 37.6394 19.1778 38.4455 21.4945C36.3262 23.7455 33.3281 25.1613 30 25.1613C29.9391 25.1613 29.88 25.1555 29.82 25.1545C29.4165 24.0339 28.3539 23.2258 27.0968 23.2258ZM33.7587 31.1807C33.4249 29.9468 32.3062 29.0323 30.9678 29.0323C30.6271 29.0323 30.3039 29.102 30 29.2104V27.0968C32.3884 27.0968 34.6307 26.4707 36.5807 25.381L38.2423 27.9233C37.1246 28.7778 36.1326 29.8123 35.3071 31.0075C35.1552 30.9823 34.9984 30.9678 34.8387 30.9678C34.4565 30.9678 34.0936 31.0462 33.7587 31.1807ZM38.7097 32.9033C38.3275 32.9033 37.9646 32.9816 37.6297 33.1162C37.5136 32.6884 37.2978 32.3023 37.0171 31.9762C39.1984 28.9162 42.6562 27.0968 46.4517 27.0968C52.8552 27.0968 58.0646 32.3062 58.0646 38.7097C58.0646 40.9839 57.3978 43.1004 56.2636 44.8936C55.0143 42.2952 52.7768 40.3104 50.1001 39.3504C51.4152 38.2849 52.2581 36.6591 52.2581 34.8387C52.2581 31.6365 49.6539 29.0323 46.4517 29.0323C43.6239 29.0323 41.2646 31.0655 40.7517 33.7462C40.2271 33.2255 39.5052 32.9033 38.7097 32.9033ZM41.6129 38.042C41.94 38.5346 42.3397 38.9749 42.7984 39.3465C42.3949 39.4907 41.9981 39.6542 41.6129 39.8458V38.042ZM46.4517 38.7097C44.3168 38.7097 42.5807 36.9736 42.5807 34.8387H50.3226C50.3226 36.9736 48.5865 38.7097 46.4517 38.7097ZM43.1188 32.9033C43.7904 31.7516 45.0252 30.9678 46.4517 30.9678C47.8781 30.9678 49.113 31.7516 49.7846 32.9033H43.1188ZM46.4517 40.6452C47.1049 40.6452 47.7446 40.7236 48.3649 40.861C48.2565 41.8259 47.4455 42.5807 46.4517 42.5807C45.4636 42.5807 44.6555 41.8336 44.5394 40.8755C45.1646 40.7391 45.7994 40.6452 46.4517 40.6452ZM46.4517 50.3226C44.7784 50.3226 43.1236 49.9394 41.6129 49.2465V42.0949C41.9584 41.8713 42.3126 41.6681 42.6813 41.4959C43.0713 43.2213 44.61 44.5162 46.4517 44.5162C48.2942 44.5162 49.8349 43.2194 50.223 41.492C52.3742 42.4984 54.091 44.3391 54.8972 46.6559C52.7778 48.9068 49.7797 50.3226 46.4517 50.3226Z"/>
</mask>
<path d="M46.4517 25.1613C44.0904 25.1613 41.8355 25.7603 39.8594 26.8597L38.1939 24.3126C41.4407 21.8352 43.5484 17.9381 43.5484 13.5484C43.5484 6.07743 37.471 0 30 0C22.5291 0 16.4516 6.07743 16.4516 13.5484C16.4516 17.88 18.4713 21.8149 21.7945 24.331L20.1368 26.8665C18.1645 25.771 15.9107 25.1613 13.5484 25.1613C6.07743 25.1613 0 31.2387 0 38.7097C0 46.1807 6.07743 52.2581 13.5484 52.2581C16.0858 52.2581 18.5168 51.5652 20.6478 50.2491C21.1684 51.1578 21.8652 51.963 22.7149 52.5997L24.1936 53.7097L25.5 53.5V52.5C25.5426 52.4787 25.5871 52.4613 25.6297 52.44L23.8762 51.0523C22.7671 50.221 21.992 49.0181 21.692 47.6671L20.3952 41.8297C20.3468 41.6159 20.3226 41.3962 20.3226 41.1755C20.3226 40.0239 20.9623 38.9875 21.9929 38.4726L24.1936 37.3723V39.4491C24.1936 40.4149 23.6565 41.2839 22.7932 41.7155L23.6594 43.4468C25.1826 42.6833 26.1291 41.1513 26.1291 39.4491V26.1291C26.1291 25.5949 26.5636 25.1613 27.0968 25.1613C27.63 25.1613 28.0645 25.5949 28.0645 26.1291V41.6129H30V31.9355C30 31.4013 30.4345 30.9678 30.9678 30.9678C31.501 30.9678 31.9355 31.4013 31.9355 31.9355V41.6129H33.871V33.871C33.871 33.3368 34.3055 32.9033 34.8387 32.9033C35.372 32.9033 35.8065 33.3368 35.8065 33.871V41.6129H37.742V35.8065C37.742 35.2723 38.1765 34.8387 38.7097 34.8387C39.2429 34.8387 39.6775 35.2723 39.6775 35.8065V53.0752C40.0123 53.2155 40.1748 53.3374 40.5 53.5L41.6129 53.6543V51.362C43.1507 51.9484 44.7968 52.2581 46.4517 52.2581C53.9226 52.2581 60.0001 46.1807 60.0001 38.7097C60.0001 31.2387 53.9226 25.1613 46.4517 25.1613ZM30 1.93549C36.4036 1.93549 41.6129 7.14485 41.6129 13.5484C41.6129 15.8226 40.9462 17.9391 39.812 19.7323C38.5626 17.1339 36.3252 15.149 33.6484 14.189C34.9636 13.1236 35.8065 11.4978 35.8065 9.67743C35.8065 6.47517 33.2023 3.87097 30 3.87097C26.7978 3.87097 24.1936 6.47517 24.1936 9.67743C24.1936 11.4978 25.0365 13.1236 26.3516 14.1881C23.6671 15.151 21.4239 17.1436 20.1765 19.7526C19.0336 17.941 18.3871 15.809 18.3871 13.5484C18.3871 7.14485 23.5965 1.93549 30 1.93549ZM26.1291 9.67743H33.871C33.871 11.8123 32.1349 13.5484 30 13.5484C27.8652 13.5484 26.1291 11.8123 26.1291 9.67743ZM26.6671 7.74194C27.3387 6.59033 28.5736 5.80646 30 5.80646C31.4265 5.80646 32.6613 6.59033 33.3329 7.74194H26.6671ZM30 15.4839C30.6533 15.4839 31.2929 15.5623 31.9133 15.6997C31.8049 16.6645 30.9939 17.4194 30 17.4194C29.0062 17.4194 28.1952 16.6645 28.0868 15.6997C28.7071 15.5623 29.3468 15.4839 30 15.4839ZM23.4155 25.3858C23.6807 25.532 23.9497 25.6723 24.2265 25.8029C24.2139 25.9113 24.1936 26.0178 24.1936 26.1291V30.332C23.4803 29.4242 22.6626 28.6152 21.7558 27.9252L23.4155 25.3858ZM13.5484 50.3226C10.2203 50.3226 7.22227 48.9068 5.10291 46.6559C5.90904 44.3391 7.62581 42.4984 9.77711 41.492C10.1652 43.2194 11.7058 44.5162 13.5484 44.5162C15.3939 44.5162 16.9365 43.2165 17.3216 41.4852C17.7232 41.6729 18.1123 41.8917 18.4868 42.1404C18.4945 42.1771 18.4974 42.2139 18.5052 42.2507L19.802 48.0871C19.8281 48.2023 19.8629 48.3146 19.8939 48.4288C18.0068 49.6655 15.8294 50.3226 13.5484 50.3226ZM9.67743 34.8387H17.4194C17.4194 36.9736 15.6832 38.7097 13.5484 38.7097C11.4136 38.7097 9.67743 36.9736 9.67743 34.8387ZM10.2155 32.9033C10.8871 31.7516 12.1219 30.9678 13.5484 30.9678C14.9749 30.9678 16.2097 31.7516 16.8813 32.9033H10.2155ZM13.5484 40.6452C14.1997 40.6452 14.8394 40.7197 15.4626 40.8552C15.3561 41.8229 14.5442 42.5807 13.5484 42.5807C12.5545 42.5807 11.7436 41.8259 11.6352 40.861C12.2555 40.7236 12.8952 40.6452 13.5484 40.6452ZM21.1278 36.7413C19.8213 37.3946 18.9039 38.5607 18.5516 39.9291C18.1152 39.7026 17.6632 39.511 17.2026 39.3465C18.5139 38.28 19.3549 36.6571 19.3549 34.8387C19.3549 31.6365 16.7507 29.0323 13.5484 29.0323C10.3461 29.0323 7.74194 31.6365 7.74194 34.8387C7.74194 36.6591 8.58485 38.2849 9.90001 39.3494C7.22323 40.3094 4.98484 42.2942 3.73646 44.8926C2.60226 43.1004 1.93549 40.9839 1.93549 38.7097C1.93549 32.3062 7.14485 27.0968 13.5484 27.0968C18.1887 27.0968 22.3442 29.8307 24.1936 34.0733V35.2084L21.1278 36.7413ZM27.0968 23.2258C26.3062 23.2258 25.59 23.5452 25.0665 24.0591C23.7174 23.4271 22.53 22.5629 21.5458 21.5216C22.3481 19.1923 24.0687 17.34 26.2287 16.3297C26.6168 18.0581 28.1574 19.3549 30 19.3549C31.8426 19.3549 33.3833 18.0581 33.7713 16.3307C35.9226 17.3371 37.6394 19.1778 38.4455 21.4945C36.3262 23.7455 33.3281 25.1613 30 25.1613C29.9391 25.1613 29.88 25.1555 29.82 25.1545C29.4165 24.0339 28.3539 23.2258 27.0968 23.2258ZM33.7587 31.1807C33.4249 29.9468 32.3062 29.0323 30.9678 29.0323C30.6271 29.0323 30.3039 29.102 30 29.2104V27.0968C32.3884 27.0968 34.6307 26.4707 36.5807 25.381L38.2423 27.9233C37.1246 28.7778 36.1326 29.8123 35.3071 31.0075C35.1552 30.9823 34.9984 30.9678 34.8387 30.9678C34.4565 30.9678 34.0936 31.0462 33.7587 31.1807ZM38.7097 32.9033C38.3275 32.9033 37.9646 32.9816 37.6297 33.1162C37.5136 32.6884 37.2978 32.3023 37.0171 31.9762C39.1984 28.9162 42.6562 27.0968 46.4517 27.0968C52.8552 27.0968 58.0646 32.3062 58.0646 38.7097C58.0646 40.9839 57.3978 43.1004 56.2636 44.8936C55.0143 42.2952 52.7768 40.3104 50.1001 39.3504C51.4152 38.2849 52.2581 36.6591 52.2581 34.8387C52.2581 31.6365 49.6539 29.0323 46.4517 29.0323C43.6239 29.0323 41.2646 31.0655 40.7517 33.7462C40.2271 33.2255 39.5052 32.9033 38.7097 32.9033ZM41.6129 38.042C41.94 38.5346 42.3397 38.9749 42.7984 39.3465C42.3949 39.4907 41.9981 39.6542 41.6129 39.8458V38.042ZM46.4517 38.7097C44.3168 38.7097 42.5807 36.9736 42.5807 34.8387H50.3226C50.3226 36.9736 48.5865 38.7097 46.4517 38.7097ZM43.1188 32.9033C43.7904 31.7516 45.0252 30.9678 46.4517 30.9678C47.8781 30.9678 49.113 31.7516 49.7846 32.9033H43.1188ZM46.4517 40.6452C47.1049 40.6452 47.7446 40.7236 48.3649 40.861C48.2565 41.8259 47.4455 42.5807 46.4517 42.5807C45.4636 42.5807 44.6555 41.8336 44.5394 40.8755C45.1646 40.7391 45.7994 40.6452 46.4517 40.6452ZM46.4517 50.3226C44.7784 50.3226 43.1236 49.9394 41.6129 49.2465V42.0949C41.9584 41.8713 42.3126 41.6681 42.6813 41.4959C43.0713 43.2213 44.61 44.5162 46.4517 44.5162C48.2942 44.5162 49.8349 43.2194 50.223 41.492C52.3742 42.4984 54.091 44.3391 54.8972 46.6559C52.7778 48.9068 49.7797 50.3226 46.4517 50.3226Z" fill="#333333" stroke="#C8F5E1" stroke-width="0.8" mask="url(#path-1-inside-1)"/>
<path d="M25.3611 52.6039L25.3616 52.6036C30.0159 50.275 35.7902 50.275 40.4455 52.6036L40.4458 52.6038L41.1127 52.9369V59.5H24.6934V52.937L25.3611 52.6039Z" stroke="#333333"/>
</svg>
