<svg width="90" height="60" viewBox="0 0 90 60" fill="none" xmlns="http://www.w3.org/2000/svg">
<mask id="path-1-inside-1" fill="white">
<path fill-rule="evenodd" clip-rule="evenodd" d="M85.5 57H88.5C88.8978 57 89.2794 57.158 89.5607 57.4393C89.842 57.7206 90 58.1022 90 58.5C90 58.8978 89.842 59.2794 89.5607 59.5607C89.2794 59.842 88.8978 60 88.5 60H1.5C1.10218 60 0.720644 59.842 0.43934 59.5607C0.158035 59.2794 0 58.8978 0 58.5C0 58.1022 0.158035 57.7206 0.43934 57.4393C0.720644 57.158 1.10218 57 1.5 57H21.225L22.485 49.5H9C7.80762 49.4964 6.6651 49.0212 5.82195 48.178C4.97881 47.3349 4.50356 46.1924 4.5 45V21C4.50356 19.8076 4.97881 18.6651 5.82195 17.822C6.6651 16.9788 7.80762 16.5036 9 16.5H51C52.1108 16.5029 53.1805 16.9201 54 17.67V12C54.0044 8.81874 55.27 5.76903 57.5195 3.51954C59.769 1.27005 62.8187 0.00436523 66 0H69C72.1813 0.00436523 75.231 1.27005 77.4805 3.51954C79.73 5.76903 80.9956 8.81874 81 12V15V18L80.61 21C80.1366 22.8119 79.2476 24.4887 78.0135 25.8973C76.7793 27.3059 75.234 28.4076 73.5 29.115V33H78C79.9891 33 81.8968 33.7902 83.3033 35.1967C84.7098 36.6032 85.5 38.5109 85.5 40.5V57ZM59.636 5.63604C57.9482 7.32387 57 9.61305 57 12V13.005C58.8541 12.1346 60.5281 10.9236 61.935 9.435C62.1459 9.22686 62.4138 9.08587 62.7048 9.02981C62.9958 8.97375 63.2968 9.00513 63.57 9.12C63.8455 9.23033 64.0814 9.4209 64.2472 9.66697C64.4131 9.91304 64.5011 10.2033 64.5 10.5V13.23C67.6247 12.6382 70.3928 10.8449 72.21 8.235C72.3847 7.93876 72.6558 7.71153 72.9781 7.59137C73.3003 7.47122 73.654 7.46544 73.98 7.575C75.3294 8.08746 76.586 8.81708 77.7 9.735C77.1953 7.81027 76.0686 6.10632 74.4951 4.88827C72.9217 3.67022 70.9898 3.00637 69 3H66C63.6131 3 61.3239 3.94821 59.636 5.63604ZM61.5 13.8C60.1542 14.8605 58.6304 15.6732 57 16.2V18C57 20.3869 57.9482 22.6761 59.636 24.364C61.3239 26.0518 63.6131 27 66 27H69C71.3869 27 73.6761 26.0518 75.364 24.364C77.0518 22.6761 78 20.3869 78 18V15.24C77.2991 13.3198 75.8714 11.7521 74.025 10.875C70.2564 15.8111 63.6194 16.4518 63.1375 16.4983C63.1303 16.499 63.1244 16.4996 63.12 16.5H63C62.6204 16.5022 62.2547 16.357 61.98 16.095C61.8297 15.9548 61.7096 15.7853 61.6271 15.597C61.5445 15.4087 61.5013 15.2056 61.5 15V13.8ZM70.1118 38.1592C70.8732 37.6133 71.4444 36.8424 71.745 35.955C71.4004 35.8956 71.0874 35.7177 70.8601 35.452C70.6328 35.1864 70.5054 34.8496 70.5 34.5V29.895C70.0026 29.9603 69.5017 29.9954 69 30H66C65.4983 29.9954 64.9974 29.9603 64.5 29.895V34.5C64.4946 34.8496 64.3672 35.1864 64.1399 35.452C63.9126 35.7177 63.5996 35.8956 63.255 35.955C63.5556 36.8424 64.1268 37.6133 64.8882 38.1592C65.6497 38.7052 66.5631 38.9988 67.5 38.9988C68.4369 38.9988 69.3503 38.7052 70.1118 38.1592ZM61.5 29.115C58.9492 28.0795 55.5 23.79 55.5 23.79V33H61.5V29.115ZM9 46.5H22.98L24.015 40.26C24.0721 39.9076 24.253 39.5872 24.5252 39.3562C24.7974 39.1253 25.143 38.999 25.5 39H34.5C34.7176 38.9994 34.9328 39.0461 35.1306 39.137C35.3284 39.2279 35.504 39.3607 35.6453 39.5262C35.7866 39.6918 35.8902 39.8861 35.9488 40.0957C36.0075 40.3053 36.0198 40.5252 35.985 40.74L35.025 46.5H51C51.3978 46.5 51.7794 46.342 52.0607 46.0607C52.342 45.7794 52.5 45.3978 52.5 45V21C52.5 20.6022 52.342 20.2206 52.0607 19.9393C51.7794 19.658 51.3978 19.5 51 19.5H9C8.60218 19.5 8.22064 19.658 7.93934 19.9393C7.65804 20.2206 7.5 20.6022 7.5 21V45C7.5 45.3978 7.65804 45.7794 7.93934 46.0607C8.22064 46.342 8.60218 46.5 9 46.5ZM24.27 57H30.225L32.73 42H26.775L24.27 57ZM33.27 57H48V49.5H34.515L33.27 57ZM60.615 57H82.5V56.805L63.525 54.09L60.615 57ZM76.5 52.92L82.5 53.775V49.5H76.5V52.92ZM76.5 46.5H82.5V40.5C82.4964 39.3076 82.0212 38.1651 81.178 37.322C80.3349 36.4788 79.1924 36.0036 78 36H74.85C74.5057 37.6954 73.5859 39.2197 72.2464 40.3146C70.9069 41.4094 69.23 42.0075 67.5 42.0075C65.77 42.0075 64.0931 41.4094 62.7536 40.3146C61.4141 39.2197 60.4943 37.6954 60.15 36H55.5V45C55.4964 46.1924 55.0212 47.3349 54.178 48.178C53.3349 49.0212 52.1924 49.4964 51 49.5V57H56.385L61.935 51.435C62.1024 51.2739 62.304 51.1525 62.5247 51.0798C62.7454 51.0071 62.9796 50.9849 63.21 51.015L73.5 52.485V46.5C73.5 46.1022 73.658 45.7206 73.9393 45.4393C74.2206 45.158 74.6022 45 75 45C75.3978 45 75.7794 45.158 76.0607 45.4393C76.342 45.7206 76.5 46.1022 76.5 46.5Z"/>
</mask>
<path fill-rule="evenodd" clip-rule="evenodd" d="M85.5 57H88.5C88.8978 57 89.2794 57.158 89.5607 57.4393C89.842 57.7206 90 58.1022 90 58.5C90 58.8978 89.842 59.2794 89.5607 59.5607C89.2794 59.842 88.8978 60 88.5 60H1.5C1.10218 60 0.720644 59.842 0.43934 59.5607C0.158035 59.2794 0 58.8978 0 58.5C0 58.1022 0.158035 57.7206 0.43934 57.4393C0.720644 57.158 1.10218 57 1.5 57H21.225L22.485 49.5H9C7.80762 49.4964 6.6651 49.0212 5.82195 48.178C4.97881 47.3349 4.50356 46.1924 4.5 45V21C4.50356 19.8076 4.97881 18.6651 5.82195 17.822C6.6651 16.9788 7.80762 16.5036 9 16.5H51C52.1108 16.5029 53.1805 16.9201 54 17.67V12C54.0044 8.81874 55.27 5.76903 57.5195 3.51954C59.769 1.27005 62.8187 0.00436523 66 0H69C72.1813 0.00436523 75.231 1.27005 77.4805 3.51954C79.73 5.76903 80.9956 8.81874 81 12V15V18L80.61 21C80.1366 22.8119 79.2476 24.4887 78.0135 25.8973C76.7793 27.3059 75.234 28.4076 73.5 29.115V33H78C79.9891 33 81.8968 33.7902 83.3033 35.1967C84.7098 36.6032 85.5 38.5109 85.5 40.5V57ZM59.636 5.63604C57.9482 7.32387 57 9.61305 57 12V13.005C58.8541 12.1346 60.5281 10.9236 61.935 9.435C62.1459 9.22686 62.4138 9.08587 62.7048 9.02981C62.9958 8.97375 63.2968 9.00513 63.57 9.12C63.8455 9.23033 64.0814 9.4209 64.2472 9.66697C64.4131 9.91304 64.5011 10.2033 64.5 10.5V13.23C67.6247 12.6382 70.3928 10.8449 72.21 8.235C72.3847 7.93876 72.6558 7.71153 72.9781 7.59137C73.3003 7.47122 73.654 7.46544 73.98 7.575C75.3294 8.08746 76.586 8.81708 77.7 9.735C77.1953 7.81027 76.0686 6.10632 74.4951 4.88827C72.9217 3.67022 70.9898 3.00637 69 3H66C63.6131 3 61.3239 3.94821 59.636 5.63604ZM61.5 13.8C60.1542 14.8605 58.6304 15.6732 57 16.2V18C57 20.3869 57.9482 22.6761 59.636 24.364C61.3239 26.0518 63.6131 27 66 27H69C71.3869 27 73.6761 26.0518 75.364 24.364C77.0518 22.6761 78 20.3869 78 18V15.24C77.2991 13.3198 75.8714 11.7521 74.025 10.875C70.2564 15.8111 63.6194 16.4518 63.1375 16.4983C63.1303 16.499 63.1244 16.4996 63.12 16.5H63C62.6204 16.5022 62.2547 16.357 61.98 16.095C61.8297 15.9548 61.7096 15.7853 61.6271 15.597C61.5445 15.4087 61.5013 15.2056 61.5 15V13.8ZM70.1118 38.1592C70.8732 37.6133 71.4444 36.8424 71.745 35.955C71.4004 35.8956 71.0874 35.7177 70.8601 35.452C70.6328 35.1864 70.5054 34.8496 70.5 34.5V29.895C70.0026 29.9603 69.5017 29.9954 69 30H66C65.4983 29.9954 64.9974 29.9603 64.5 29.895V34.5C64.4946 34.8496 64.3672 35.1864 64.1399 35.452C63.9126 35.7177 63.5996 35.8956 63.255 35.955C63.5556 36.8424 64.1268 37.6133 64.8882 38.1592C65.6497 38.7052 66.5631 38.9988 67.5 38.9988C68.4369 38.9988 69.3503 38.7052 70.1118 38.1592ZM61.5 29.115C58.9492 28.0795 55.5 23.79 55.5 23.79V33H61.5V29.115ZM9 46.5H22.98L24.015 40.26C24.0721 39.9076 24.253 39.5872 24.5252 39.3562C24.7974 39.1253 25.143 38.999 25.5 39H34.5C34.7176 38.9994 34.9328 39.0461 35.1306 39.137C35.3284 39.2279 35.504 39.3607 35.6453 39.5262C35.7866 39.6918 35.8902 39.8861 35.9488 40.0957C36.0075 40.3053 36.0198 40.5252 35.985 40.74L35.025 46.5H51C51.3978 46.5 51.7794 46.342 52.0607 46.0607C52.342 45.7794 52.5 45.3978 52.5 45V21C52.5 20.6022 52.342 20.2206 52.0607 19.9393C51.7794 19.658 51.3978 19.5 51 19.5H9C8.60218 19.5 8.22064 19.658 7.93934 19.9393C7.65804 20.2206 7.5 20.6022 7.5 21V45C7.5 45.3978 7.65804 45.7794 7.93934 46.0607C8.22064 46.342 8.60218 46.5 9 46.5ZM24.27 57H30.225L32.73 42H26.775L24.27 57ZM33.27 57H48V49.5H34.515L33.27 57ZM60.615 57H82.5V56.805L63.525 54.09L60.615 57ZM76.5 52.92L82.5 53.775V49.5H76.5V52.92ZM76.5 46.5H82.5V40.5C82.4964 39.3076 82.0212 38.1651 81.178 37.322C80.3349 36.4788 79.1924 36.0036 78 36H74.85C74.5057 37.6954 73.5859 39.2197 72.2464 40.3146C70.9069 41.4094 69.23 42.0075 67.5 42.0075C65.77 42.0075 64.0931 41.4094 62.7536 40.3146C61.4141 39.2197 60.4943 37.6954 60.15 36H55.5V45C55.4964 46.1924 55.0212 47.3349 54.178 48.178C53.3349 49.0212 52.1924 49.4964 51 49.5V57H56.385L61.935 51.435C62.1024 51.2739 62.304 51.1525 62.5247 51.0798C62.7454 51.0071 62.9796 50.9849 63.21 51.015L73.5 52.485V46.5C73.5 46.1022 73.658 45.7206 73.9393 45.4393C74.2206 45.158 74.6022 45 75 45C75.3978 45 75.7794 45.158 76.0607 45.4393C76.342 45.7206 76.5 46.1022 76.5 46.5Z" fill="#333333" stroke="#C8F5E1" stroke-width="1.4" mask="url(#path-1-inside-1)"/>
</svg>
