<svg width="60" height="60" viewBox="0 0 60 60" fill="none" xmlns="http://www.w3.org/2000/svg">
<path d="M10.9569 10.0282L10.957 10.0282C11.5105 9.71104 11.85 9.13732 11.85 8.5352V6.06303C11.85 5.01699 10.9426 4.15 9.8088 4.15H8.19166C7.05736 4.15 6.15 5.01701 6.15 6.06303V8.5352C6.15 9.13726 6.48994 9.711 7.04347 10.0282L7.04355 10.0282L8.02479 10.5912C8.3255 10.7634 8.66277 10.85 9.00023 10.85C9.33766 10.85 9.67489 10.7634 9.97557 10.5912L10.9569 10.0282ZM10.9569 10.0282L9.97567 10.5912L10.9569 10.0282ZM9.20361 9.43043L9.20388 9.43028L10.1851 8.86734L10.1106 8.73717L10.1852 8.86728L10.1851 8.86732C10.3035 8.79951 10.3808 8.67406 10.3808 8.5352V6.06303C10.3808 5.75267 10.1168 5.51429 9.8088 5.51429H8.19166C7.88391 5.51429 7.61918 5.75246 7.61918 6.06303V8.5352C7.61918 8.67392 7.69716 8.79951 7.81454 8.86714L7.81481 8.86729L8.79653 9.43024C8.79656 9.43026 8.79658 9.43028 8.79661 9.43029C8.92223 9.50239 9.07797 9.50216 9.20361 9.43043Z" fill="#333333" stroke="#C8F5E1" stroke-width="0.3"/>
<path d="M48.8851 10.5108L49.0248 10.5912C49.3255 10.7634 49.6628 10.85 50.0002 10.85C50.3377 10.85 50.6749 10.7634 50.9756 10.5912L48.8851 10.5108ZM48.8851 10.5108C48.8817 10.5089 48.8788 10.5073 48.8765 10.5061L48.0436 10.0282L47.9689 10.1583L48.0435 10.0282C47.49 9.71104 47.1504 9.1373 47.15 8.53509L47.15 6.06303C47.15 5.01699 48.0574 4.15 49.1912 4.15H50.8088C51.9431 4.15 52.85 5.01697 52.85 6.06303V8.5352C52.85 9.13732 52.5105 9.71104 51.957 10.0282L51.9569 10.0282L50.9757 10.5912L48.8851 10.5108ZM48.8154 8.86734C48.6968 8.79945 48.6196 8.67349 48.6196 8.5352V6.06303C48.6196 5.75256 48.8843 5.51429 49.1917 5.51429H50.8088C51.1165 5.51429 51.3813 5.75246 51.3813 6.06303V8.5352C51.3813 8.67408 51.304 8.79953 51.1856 8.86734L51.1509 8.88717H51.1506L50.2044 9.43026L50.2041 9.43043C50.0784 9.50218 49.9222 9.50239 49.7965 9.43024M48.8154 8.86734L48.8152 8.86728L48.8899 8.73717L48.8154 8.86734ZM48.8154 8.86734L49.7965 9.43024M49.7965 9.43024L49.7966 9.43028L49.8711 9.30038L49.7965 9.43024Z" fill="#333333" stroke="#C8F5E1" stroke-width="0.3"/>
<path d="M7.04347 51.0282L7.04355 51.0282L8.02479 51.5912C8.3255 51.7634 8.66277 51.85 9.00023 51.85C9.33766 51.85 9.67489 51.7634 9.97557 51.5912L7.04347 51.0282ZM7.04347 51.0282C6.48994 50.711 6.15 50.1373 6.15 49.5352V47.0635C6.15 46.017 7.05738 45.15 8.19166 45.15H9.8088C10.9426 45.15 11.85 46.017 11.85 47.0635V49.5352C11.85 50.1373 11.5105 50.711 10.957 51.0282L10.9569 51.0282L9.97567 51.5912L7.04347 51.0282ZM10.3808 49.5352V47.0635L9.12923 50.3002L9.20383 50.4303L9.20392 50.4303C9.20399 50.4302 9.20407 50.4302 9.20414 50.4301L10.1851 49.8678C10.3038 49.7998 10.3808 49.6738 10.3808 49.5352ZM7.81535 49.8678L8.79632 50.4301L7.81529 49.8677L7.81535 49.8678Z" fill="#333333" stroke="#C8F5E1" stroke-width="0.3"/>
<mask id="path-4-inside-1" fill="white">
<path fill-rule="evenodd" clip-rule="evenodd" d="M50.463 40.9264C48.1796 40.9264 46.0812 41.7343 44.4374 43.0779L40.5574 39.0862C41.0962 38.4576 41.5823 37.7779 42.0108 37.0477C45.0691 31.8356 44.404 25.2837 40.4576 20.8049L44.4218 16.9102C46.068 18.2611 48.1723 19.0736 50.463 19.0736C52.1068 19.0736 53.6549 18.6552 55.0063 17.9201C55.0429 17.9077 55.079 17.8931 55.1143 17.8752C55.1811 17.8418 55.2411 17.8001 55.2951 17.7534C55.9483 17.368 56.5512 16.907 57.0927 16.3824C57.1445 16.3422 57.1912 16.2968 57.2328 16.2465C58.9421 14.5221 60 12.1509 60 9.53659C60 4.27826 55.7217 0 50.463 0C45.2046 0 40.9264 4.27826 40.9264 9.53659C40.9264 11.873 41.7723 14.0144 43.1717 15.6743L39.2171 19.5598C38.5492 18.9716 37.8223 18.4456 37.0473 17.9906C34.5534 16.5271 31.7171 15.8812 28.8446 16.1224C26.0367 16.3586 23.4013 17.4179 21.2233 19.1858L21.2219 19.1867C21.2173 19.1904 21.2132 19.1945 21.2086 19.1982C21.0649 19.3149 20.9239 19.4353 20.7852 19.5575L16.842 15.6583C18.2336 14.0007 19.0736 11.8652 19.0736 9.53705C19.0736 7.89276 18.6552 6.34415 17.9196 4.99237C17.9073 4.95667 17.8931 4.9205 17.8752 4.88571C17.8418 4.81842 17.8006 4.75845 17.7534 4.70444C16.0931 1.89194 13.0325 0 9.53705 0C7.80579 0 6.11023 0.46875 4.63303 1.35544C3.15582 2.24213 1.86493 3.87085 1.86493 3.87085C0.644989 5.52063 0 7.4794 0 9.53659C0 12.1674 1.07071 14.5523 2.79877 16.2794C2.83722 16.3243 2.88025 16.3655 2.92786 16.4021C3.46436 16.9189 4.06036 17.3735 4.70581 17.7544C4.75479 17.7965 4.80835 17.8345 4.8674 17.8661C4.90814 17.8876 4.95026 17.905 4.99283 17.9196C6.3446 18.6552 7.89276 19.0736 9.53705 19.0736C11.8355 19.0736 13.9467 18.2561 15.5951 16.897L19.5447 20.8026C18.9633 21.4645 18.4424 22.1819 17.9901 22.9523C16.6347 25.2631 15.9755 27.8925 16.084 30.5566C16.084 30.5589 16.0844 30.5612 16.0844 30.5635V30.5653C16.1646 32.4838 16.6278 34.3314 17.4614 36.0567C17.4628 36.0603 17.4646 36.0635 17.466 36.0672L17.4678 36.0704C18.04 37.2556 18.7729 38.3414 19.6404 39.3063L15.6093 43.1149C13.9586 41.7485 11.8419 40.9264 9.53705 40.9264C4.27826 40.9264 0 45.2046 0 50.4634C0 53.0937 1.07071 55.4791 2.79877 57.2058C2.83722 57.2511 2.88025 57.2923 2.92786 57.3289C4.6431 58.981 6.97266 60 9.53705 60C12.0653 60 14.4571 58.9911 16.2181 57.2653C16.2337 57.2511 16.2488 57.2365 16.263 57.2209C16.8434 56.6446 17.3172 55.9666 17.7759 55.2658C18.2346 54.565 18.9688 51.9324 19.0105 51.568C19.0521 51.2036 19.0736 50.8319 19.0736 50.4634C19.0736 48.1416 18.2391 46.0121 16.8549 44.3564L20.8955 40.5386C21.5309 41.0866 22.2185 41.5796 22.9527 42.0103C25.0987 43.2697 27.5162 43.9265 29.9831 43.9265C30.2051 43.9265 30.4276 43.9215 30.65 43.9105C33.1709 43.7924 35.6126 42.9927 37.7106 41.5988C38.2846 41.218 38.8243 40.7991 39.3292 40.3445L43.1845 44.3106C41.7773 45.9727 40.9264 48.1201 40.9264 50.463C40.9264 53.0933 41.9971 55.4782 43.7247 57.2054C43.7636 57.2507 43.8071 57.2923 43.8547 57.3289C45.5699 58.981 47.899 60 50.463 60C53.0379 60 55.3757 58.9728 57.0932 57.3088C57.1445 57.2685 57.1912 57.2237 57.2324 57.1733C58.9421 55.4489 60 53.0777 60 50.4634C60 45.2046 55.7217 40.9264 50.463 40.9264ZM9.53705 1.75781C8.12439 1.75781 6.9282 2.02983 5.53848 2.8624C4.51529 3.47538 3.27805 4.91638 3.27805 4.91638C2.28333 6.26083 1.75781 7.85843 1.75781 9.53659C1.75781 11.2642 2.32452 12.8613 3.28033 14.1531C3.39661 14.0099 3.52478 13.873 3.66486 13.7444C4.37622 13.0907 5.33066 12.7299 6.35056 12.7299H12.7441C13.7631 12.7299 14.7176 13.0907 15.4312 13.7453C15.5663 13.8698 15.6903 14.0012 15.8029 14.1389C16.7532 12.8494 17.3158 11.2578 17.3158 9.53659C17.3158 5.24734 13.8263 1.75781 9.53705 1.75781ZM15.8052 55.0685C15.9846 54.825 16.1513 54.57 16.3028 54.304C16.4543 54.0381 17.2298 51.6646 17.2641 51.3666C17.2984 51.0686 17.3158 50.7646 17.3158 50.4634C17.3158 46.1742 13.8263 42.6842 9.53705 42.6842C5.24734 42.6842 1.75781 46.1742 1.75781 50.4634C1.75781 52.1906 2.32452 53.7877 3.28033 55.08C3.39661 54.9367 3.52478 54.7998 3.66486 54.6712C4.37622 54.0175 5.33066 53.6563 6.35056 53.6563H12.7441C13.7631 53.6563 14.7176 54.017 15.4312 54.6716C15.5672 54.7971 15.6921 54.9298 15.8052 55.0685ZM6.35056 55.4146C5.7724 55.4146 5.24094 55.6105 4.85321 55.9666C4.71176 56.0962 4.59503 56.2381 4.50439 56.3882C5.86212 57.5432 7.61902 58.2422 9.53705 58.2422C11.4125 58.2422 13.1964 57.561 14.5848 56.3786C14.4951 56.2326 14.3806 56.0934 14.2419 55.9662C13.8547 55.611 13.3223 55.4146 12.7441 55.4146H6.35056ZM38.7492 38.4618C39.4144 37.7733 39.998 37.0038 40.4947 36.1578C43.1648 31.6072 42.5871 25.8884 39.1466 21.9754C38.1454 22.8978 37.4579 24.1658 37.4112 25.2553C37.3672 26.2834 37.8841 27.0158 38.4828 27.8632L38.4836 27.8643C39.1838 28.8569 39.9773 29.9818 39.7128 31.6072C39.4859 33.0023 38.6201 33.7433 37.9244 34.3387L37.9234 34.3396C37.2885 34.882 36.7877 35.311 36.5996 36.1725C36.3716 37.2198 36.6994 38.5643 37.4084 39.6556C37.8648 39.3068 38.2938 38.9273 38.6934 38.5194L38.7011 38.5107C38.7123 38.4981 38.7237 38.4855 38.736 38.4732L38.7426 38.4675L38.7492 38.4618ZM45.78 15.0403C45.6381 15.1698 45.5214 15.3117 45.4308 15.4619C46.7885 16.6168 48.5454 17.3158 50.463 17.3158C52.3878 17.3158 54.1498 16.6118 55.5098 15.4495C55.4205 15.3044 55.3061 15.1666 55.1683 15.0398C54.781 14.6841 54.2487 14.4882 53.6705 14.4882H47.2769C46.6988 14.4882 46.1673 14.6841 45.78 15.0403ZM58.2422 9.53659C58.2422 5.24734 54.7527 1.75781 50.463 1.75781C46.1742 1.75781 42.6842 5.24734 42.6842 9.53659C42.6842 11.2642 43.2509 12.8609 44.2072 14.1536C44.323 14.0103 44.4511 13.8734 44.5917 13.7448C45.303 13.0911 46.257 12.7299 47.2769 12.7299H53.6705C54.6899 12.7299 55.6439 13.0907 56.3576 13.7453C56.4926 13.8698 56.6171 14.0012 56.7297 14.1389C57.6796 12.8494 58.2422 11.2578 58.2422 9.53659ZM4.85321 15.0403C4.71176 15.1698 4.59503 15.3117 4.50439 15.4619C5.86212 16.6168 7.61902 17.3158 9.53659 17.3158C11.4615 17.3158 13.2234 16.6118 14.583 15.4495C14.4937 15.3044 14.3793 15.1666 14.2419 15.0398C13.8547 14.6841 13.3223 14.4882 12.7441 14.4882H6.35056C5.7724 14.4882 5.24094 14.6841 4.85321 15.0403ZM22.1169 34.0388C22.0473 34.0677 20.5582 34.698 19.3318 35.8488C20.3842 37.7751 21.9324 39.3736 23.8422 40.4942C25.6618 41.5617 27.7039 42.1326 29.7926 42.1655C29.8013 41.5315 29.7231 40.9895 29.6915 40.7712C29.5706 39.9449 29.3884 38.7025 28.5196 38.0099C27.8041 37.4391 26.8854 37.4487 25.9987 37.4583C25.0365 37.4684 23.9456 37.4799 23.4091 36.5089C22.9177 35.6208 23.3657 34.681 23.6929 33.9945L23.6934 33.9935C23.7524 33.8699 23.8284 33.7106 23.8852 33.5733C23.4691 33.5953 22.7303 33.7834 22.1169 34.0388ZM58.2422 50.463C58.2422 46.1737 54.7527 42.6842 50.463 42.6842C46.1742 42.6842 42.6842 46.1742 42.6842 50.463C42.6842 52.1906 43.2509 53.7877 44.2072 55.08C44.323 54.9367 44.4511 54.7998 44.5917 54.6712C45.303 54.0175 46.257 53.6563 47.2769 53.6563H53.6705C54.6899 53.6563 55.6439 54.017 56.3576 54.6716C56.4926 54.7961 56.6171 54.928 56.7297 55.0658C57.6791 53.7758 58.2422 52.1841 58.2422 50.463ZM45.78 55.9666C45.6381 56.0962 45.5214 56.2381 45.4308 56.3882C46.7885 57.5432 48.5454 58.2422 50.463 58.2422C52.3878 58.2422 54.1498 57.5381 55.5098 56.3759C55.4205 56.2308 55.3061 56.093 55.1688 55.9662C54.781 55.611 54.2487 55.4146 53.6705 55.4146H47.2769C46.6988 55.4146 46.1673 55.6105 45.78 55.9666ZM25.3683 20.4391C24.472 20.3069 23.8609 20.0803 23.3501 19.8111C27.1719 17.3241 32.1693 17.1661 36.1578 19.5067C36.7744 19.8688 37.3553 20.2835 37.8951 20.7422C36.7369 21.8431 35.728 23.4677 35.6552 25.1802C35.5856 26.8076 36.3615 27.9071 37.0464 28.8771C37.7165 29.826 38.1198 30.4523 37.9779 31.3248C37.8598 32.0499 37.4661 32.4175 36.7804 33.0038C36.0745 33.6076 35.1956 34.3593 34.882 35.7985C34.514 37.489 35.0876 39.2963 35.9413 40.6192C34.5845 41.3773 33.0945 41.8684 31.5509 42.0671C31.5514 41.352 31.4668 40.7668 31.4305 40.5149L31.4301 40.5121C31.2895 39.5508 31.0272 37.7609 29.6155 36.6353C28.4106 35.6754 27.0062 35.69 25.9799 35.7005C25.6343 35.7047 25.123 35.7097 24.9481 35.6415C24.9403 35.463 25.1591 35.0034 25.28 34.7507C25.5927 34.0947 26.0211 33.1966 25.4338 32.4344C24.7398 31.5344 23.3514 31.8498 22.8951 31.9533C22.1617 32.1199 21.5121 32.3863 21.4398 32.4165C21.254 32.4944 19.8848 33.0858 18.5715 34.1771C18.2419 33.279 18.0212 32.3488 17.9114 31.3957C18.7688 31.355 19.7708 31.2277 21.0178 31.0693L21.0493 31.0652C24.4217 30.6349 27.3335 30.2628 27.7711 28.3772C27.9442 27.6302 27.6439 26.9742 27.2681 26.4272C28.5054 26.8144 30.0925 27.236 31.203 26.3521C31.8265 25.8554 32.2137 24.9861 32.265 23.9676C32.3232 22.809 31.9464 21.7154 31.2566 21.0416C30.5273 20.3307 29.6686 20.2913 28.9252 20.3476C28.9252 20.3476 26.2646 20.5714 25.3683 20.4391ZM19.5062 23.8422C20.1411 22.7596 20.9285 21.795 21.8481 20.9656C21.8481 20.9656 23.8429 22.2198 25.2812 22.1869L28.9642 22.1025C28.9947 22.1034 29.0255 22.1027 29.0565 22.1004C29.664 22.0551 29.854 22.1288 30.0293 22.2995C30.3534 22.6163 30.542 23.2361 30.5095 23.8792C30.4848 24.3718 30.3268 24.8026 30.108 24.977C29.6525 25.3396 28.385 24.9378 27.5445 24.6714L27.5423 24.6707C26.4423 24.3219 25.4031 23.9923 24.857 24.8561C24.3736 25.6229 24.9747 26.3599 25.4132 26.8977C25.6572 27.1967 26.1113 27.7538 26.0591 27.9808C26.0559 27.995 25.9634 28.3333 24.6684 28.6835C23.6307 28.9641 22.2688 29.138 20.8214 29.3225L20.7962 29.3257C19.5872 29.4795 18.6214 29.6017 17.8354 29.6397C17.8944 27.6045 18.4653 25.616 19.5062 23.8422Z"/>
</mask>
<path fill-rule="evenodd" clip-rule="evenodd" d="M50.463 40.9264C48.1796 40.9264 46.0812 41.7343 44.4374 43.0779L40.5574 39.0862C41.0962 38.4576 41.5823 37.7779 42.0108 37.0477C45.0691 31.8356 44.404 25.2837 40.4576 20.8049L44.4218 16.9102C46.068 18.2611 48.1723 19.0736 50.463 19.0736C52.1068 19.0736 53.6549 18.6552 55.0063 17.9201C55.0429 17.9077 55.079 17.8931 55.1143 17.8752C55.1811 17.8418 55.2411 17.8001 55.2951 17.7534C55.9483 17.368 56.5512 16.907 57.0927 16.3824C57.1445 16.3422 57.1912 16.2968 57.2328 16.2465C58.9421 14.5221 60 12.1509 60 9.53659C60 4.27826 55.7217 0 50.463 0C45.2046 0 40.9264 4.27826 40.9264 9.53659C40.9264 11.873 41.7723 14.0144 43.1717 15.6743L39.2171 19.5598C38.5492 18.9716 37.8223 18.4456 37.0473 17.9906C34.5534 16.5271 31.7171 15.8812 28.8446 16.1224C26.0367 16.3586 23.4013 17.4179 21.2233 19.1858L21.2219 19.1867C21.2173 19.1904 21.2132 19.1945 21.2086 19.1982C21.0649 19.3149 20.9239 19.4353 20.7852 19.5575L16.842 15.6583C18.2336 14.0007 19.0736 11.8652 19.0736 9.53705C19.0736 7.89276 18.6552 6.34415 17.9196 4.99237C17.9073 4.95667 17.8931 4.9205 17.8752 4.88571C17.8418 4.81842 17.8006 4.75845 17.7534 4.70444C16.0931 1.89194 13.0325 0 9.53705 0C7.80579 0 6.11023 0.46875 4.63303 1.35544C3.15582 2.24213 1.86493 3.87085 1.86493 3.87085C0.644989 5.52063 0 7.4794 0 9.53659C0 12.1674 1.07071 14.5523 2.79877 16.2794C2.83722 16.3243 2.88025 16.3655 2.92786 16.4021C3.46436 16.9189 4.06036 17.3735 4.70581 17.7544C4.75479 17.7965 4.80835 17.8345 4.8674 17.8661C4.90814 17.8876 4.95026 17.905 4.99283 17.9196C6.3446 18.6552 7.89276 19.0736 9.53705 19.0736C11.8355 19.0736 13.9467 18.2561 15.5951 16.897L19.5447 20.8026C18.9633 21.4645 18.4424 22.1819 17.9901 22.9523C16.6347 25.2631 15.9755 27.8925 16.084 30.5566C16.084 30.5589 16.0844 30.5612 16.0844 30.5635V30.5653C16.1646 32.4838 16.6278 34.3314 17.4614 36.0567C17.4628 36.0603 17.4646 36.0635 17.466 36.0672L17.4678 36.0704C18.04 37.2556 18.7729 38.3414 19.6404 39.3063L15.6093 43.1149C13.9586 41.7485 11.8419 40.9264 9.53705 40.9264C4.27826 40.9264 0 45.2046 0 50.4634C0 53.0937 1.07071 55.4791 2.79877 57.2058C2.83722 57.2511 2.88025 57.2923 2.92786 57.3289C4.6431 58.981 6.97266 60 9.53705 60C12.0653 60 14.4571 58.9911 16.2181 57.2653C16.2337 57.2511 16.2488 57.2365 16.263 57.2209C16.8434 56.6446 17.3172 55.9666 17.7759 55.2658C18.2346 54.565 18.9688 51.9324 19.0105 51.568C19.0521 51.2036 19.0736 50.8319 19.0736 50.4634C19.0736 48.1416 18.2391 46.0121 16.8549 44.3564L20.8955 40.5386C21.5309 41.0866 22.2185 41.5796 22.9527 42.0103C25.0987 43.2697 27.5162 43.9265 29.9831 43.9265C30.2051 43.9265 30.4276 43.9215 30.65 43.9105C33.1709 43.7924 35.6126 42.9927 37.7106 41.5988C38.2846 41.218 38.8243 40.7991 39.3292 40.3445L43.1845 44.3106C41.7773 45.9727 40.9264 48.1201 40.9264 50.463C40.9264 53.0933 41.9971 55.4782 43.7247 57.2054C43.7636 57.2507 43.8071 57.2923 43.8547 57.3289C45.5699 58.981 47.899 60 50.463 60C53.0379 60 55.3757 58.9728 57.0932 57.3088C57.1445 57.2685 57.1912 57.2237 57.2324 57.1733C58.9421 55.4489 60 53.0777 60 50.4634C60 45.2046 55.7217 40.9264 50.463 40.9264ZM9.53705 1.75781C8.12439 1.75781 6.9282 2.02983 5.53848 2.8624C4.51529 3.47538 3.27805 4.91638 3.27805 4.91638C2.28333 6.26083 1.75781 7.85843 1.75781 9.53659C1.75781 11.2642 2.32452 12.8613 3.28033 14.1531C3.39661 14.0099 3.52478 13.873 3.66486 13.7444C4.37622 13.0907 5.33066 12.7299 6.35056 12.7299H12.7441C13.7631 12.7299 14.7176 13.0907 15.4312 13.7453C15.5663 13.8698 15.6903 14.0012 15.8029 14.1389C16.7532 12.8494 17.3158 11.2578 17.3158 9.53659C17.3158 5.24734 13.8263 1.75781 9.53705 1.75781ZM15.8052 55.0685C15.9846 54.825 16.1513 54.57 16.3028 54.304C16.4543 54.0381 17.2298 51.6646 17.2641 51.3666C17.2984 51.0686 17.3158 50.7646 17.3158 50.4634C17.3158 46.1742 13.8263 42.6842 9.53705 42.6842C5.24734 42.6842 1.75781 46.1742 1.75781 50.4634C1.75781 52.1906 2.32452 53.7877 3.28033 55.08C3.39661 54.9367 3.52478 54.7998 3.66486 54.6712C4.37622 54.0175 5.33066 53.6563 6.35056 53.6563H12.7441C13.7631 53.6563 14.7176 54.017 15.4312 54.6716C15.5672 54.7971 15.6921 54.9298 15.8052 55.0685ZM6.35056 55.4146C5.7724 55.4146 5.24094 55.6105 4.85321 55.9666C4.71176 56.0962 4.59503 56.2381 4.50439 56.3882C5.86212 57.5432 7.61902 58.2422 9.53705 58.2422C11.4125 58.2422 13.1964 57.561 14.5848 56.3786C14.4951 56.2326 14.3806 56.0934 14.2419 55.9662C13.8547 55.611 13.3223 55.4146 12.7441 55.4146H6.35056ZM38.7492 38.4618C39.4144 37.7733 39.998 37.0038 40.4947 36.1578C43.1648 31.6072 42.5871 25.8884 39.1466 21.9754C38.1454 22.8978 37.4579 24.1658 37.4112 25.2553C37.3672 26.2834 37.8841 27.0158 38.4828 27.8632L38.4836 27.8643C39.1838 28.8569 39.9773 29.9818 39.7128 31.6072C39.4859 33.0023 38.6201 33.7433 37.9244 34.3387L37.9234 34.3396C37.2885 34.882 36.7877 35.311 36.5996 36.1725C36.3716 37.2198 36.6994 38.5643 37.4084 39.6556C37.8648 39.3068 38.2938 38.9273 38.6934 38.5194L38.7011 38.5107C38.7123 38.4981 38.7237 38.4855 38.736 38.4732L38.7426 38.4675L38.7492 38.4618ZM45.78 15.0403C45.6381 15.1698 45.5214 15.3117 45.4308 15.4619C46.7885 16.6168 48.5454 17.3158 50.463 17.3158C52.3878 17.3158 54.1498 16.6118 55.5098 15.4495C55.4205 15.3044 55.3061 15.1666 55.1683 15.0398C54.781 14.6841 54.2487 14.4882 53.6705 14.4882H47.2769C46.6988 14.4882 46.1673 14.6841 45.78 15.0403ZM58.2422 9.53659C58.2422 5.24734 54.7527 1.75781 50.463 1.75781C46.1742 1.75781 42.6842 5.24734 42.6842 9.53659C42.6842 11.2642 43.2509 12.8609 44.2072 14.1536C44.323 14.0103 44.4511 13.8734 44.5917 13.7448C45.303 13.0911 46.257 12.7299 47.2769 12.7299H53.6705C54.6899 12.7299 55.6439 13.0907 56.3576 13.7453C56.4926 13.8698 56.6171 14.0012 56.7297 14.1389C57.6796 12.8494 58.2422 11.2578 58.2422 9.53659ZM4.85321 15.0403C4.71176 15.1698 4.59503 15.3117 4.50439 15.4619C5.86212 16.6168 7.61902 17.3158 9.53659 17.3158C11.4615 17.3158 13.2234 16.6118 14.583 15.4495C14.4937 15.3044 14.3793 15.1666 14.2419 15.0398C13.8547 14.6841 13.3223 14.4882 12.7441 14.4882H6.35056C5.7724 14.4882 5.24094 14.6841 4.85321 15.0403ZM22.1169 34.0388C22.0473 34.0677 20.5582 34.698 19.3318 35.8488C20.3842 37.7751 21.9324 39.3736 23.8422 40.4942C25.6618 41.5617 27.7039 42.1326 29.7926 42.1655C29.8013 41.5315 29.7231 40.9895 29.6915 40.7712C29.5706 39.9449 29.3884 38.7025 28.5196 38.0099C27.8041 37.4391 26.8854 37.4487 25.9987 37.4583C25.0365 37.4684 23.9456 37.4799 23.4091 36.5089C22.9177 35.6208 23.3657 34.681 23.6929 33.9945L23.6934 33.9935C23.7524 33.8699 23.8284 33.7106 23.8852 33.5733C23.4691 33.5953 22.7303 33.7834 22.1169 34.0388ZM58.2422 50.463C58.2422 46.1737 54.7527 42.6842 50.463 42.6842C46.1742 42.6842 42.6842 46.1742 42.6842 50.463C42.6842 52.1906 43.2509 53.7877 44.2072 55.08C44.323 54.9367 44.4511 54.7998 44.5917 54.6712C45.303 54.0175 46.257 53.6563 47.2769 53.6563H53.6705C54.6899 53.6563 55.6439 54.017 56.3576 54.6716C56.4926 54.7961 56.6171 54.928 56.7297 55.0658C57.6791 53.7758 58.2422 52.1841 58.2422 50.463ZM45.78 55.9666C45.6381 56.0962 45.5214 56.2381 45.4308 56.3882C46.7885 57.5432 48.5454 58.2422 50.463 58.2422C52.3878 58.2422 54.1498 57.5381 55.5098 56.3759C55.4205 56.2308 55.3061 56.093 55.1688 55.9662C54.781 55.611 54.2487 55.4146 53.6705 55.4146H47.2769C46.6988 55.4146 46.1673 55.6105 45.78 55.9666ZM25.3683 20.4391C24.472 20.3069 23.8609 20.0803 23.3501 19.8111C27.1719 17.3241 32.1693 17.1661 36.1578 19.5067C36.7744 19.8688 37.3553 20.2835 37.8951 20.7422C36.7369 21.8431 35.728 23.4677 35.6552 25.1802C35.5856 26.8076 36.3615 27.9071 37.0464 28.8771C37.7165 29.826 38.1198 30.4523 37.9779 31.3248C37.8598 32.0499 37.4661 32.4175 36.7804 33.0038C36.0745 33.6076 35.1956 34.3593 34.882 35.7985C34.514 37.489 35.0876 39.2963 35.9413 40.6192C34.5845 41.3773 33.0945 41.8684 31.5509 42.0671C31.5514 41.352 31.4668 40.7668 31.4305 40.5149L31.4301 40.5121C31.2895 39.5508 31.0272 37.7609 29.6155 36.6353C28.4106 35.6754 27.0062 35.69 25.9799 35.7005C25.6343 35.7047 25.123 35.7097 24.9481 35.6415C24.9403 35.463 25.1591 35.0034 25.28 34.7507C25.5927 34.0947 26.0211 33.1966 25.4338 32.4344C24.7398 31.5344 23.3514 31.8498 22.8951 31.9533C22.1617 32.1199 21.5121 32.3863 21.4398 32.4165C21.254 32.4944 19.8848 33.0858 18.5715 34.1771C18.2419 33.279 18.0212 32.3488 17.9114 31.3957C18.7688 31.355 19.7708 31.2277 21.0178 31.0693L21.0493 31.0652C24.4217 30.6349 27.3335 30.2628 27.7711 28.3772C27.9442 27.6302 27.6439 26.9742 27.2681 26.4272C28.5054 26.8144 30.0925 27.236 31.203 26.3521C31.8265 25.8554 32.2137 24.9861 32.265 23.9676C32.3232 22.809 31.9464 21.7154 31.2566 21.0416C30.5273 20.3307 29.6686 20.2913 28.9252 20.3476C28.9252 20.3476 26.2646 20.5714 25.3683 20.4391ZM19.5062 23.8422C20.1411 22.7596 20.9285 21.795 21.8481 20.9656C21.8481 20.9656 23.8429 22.2198 25.2812 22.1869L28.9642 22.1025C28.9947 22.1034 29.0255 22.1027 29.0565 22.1004C29.664 22.0551 29.854 22.1288 30.0293 22.2995C30.3534 22.6163 30.542 23.2361 30.5095 23.8792C30.4848 24.3718 30.3268 24.8026 30.108 24.977C29.6525 25.3396 28.385 24.9378 27.5445 24.6714L27.5423 24.6707C26.4423 24.3219 25.4031 23.9923 24.857 24.8561C24.3736 25.6229 24.9747 26.3599 25.4132 26.8977C25.6572 27.1967 26.1113 27.7538 26.0591 27.9808C26.0559 27.995 25.9634 28.3333 24.6684 28.6835C23.6307 28.9641 22.2688 29.138 20.8214 29.3225L20.7962 29.3257C19.5872 29.4795 18.6214 29.6017 17.8354 29.6397C17.8944 27.6045 18.4653 25.616 19.5062 23.8422Z" fill="#333333"/>
<path d="M28.9642 22.1025L28.9608 21.9525L28.9608 21.9525L28.9642 22.1025ZM38.8363 38.5847C38.8365 38.5845 38.8368 38.5842 38.8392 38.5822L38.646 38.3527C38.644 38.3544 38.64 38.3578 38.6356 38.3617L38.8363 38.5847ZM38.8392 38.5822C38.8412 38.5806 38.8452 38.5772 38.8496 38.5733L38.6489 38.3503C38.6487 38.3504 38.6484 38.3507 38.646 38.3527L38.8392 38.5822ZM38.5889 38.4112C38.5862 38.4143 38.5835 38.4173 38.5809 38.4202L38.8059 38.6187C38.8085 38.6157 38.8109 38.6129 38.8134 38.6102L38.5889 38.4112ZM25.2847 22.3368C26.0038 22.3204 26.9246 22.2993 27.6655 22.2823C28.036 22.2738 28.3615 22.2663 28.5945 22.261C28.7109 22.2583 28.8042 22.2562 28.8684 22.2547C28.9005 22.254 28.9254 22.2534 28.9421 22.253C28.9506 22.2528 28.9568 22.2527 28.9612 22.2526C28.963 22.2526 28.9652 22.2525 28.966 22.2525C28.9664 22.2525 28.9665 22.2525 28.9667 22.2525C28.9668 22.2525 28.9669 22.2525 28.967 22.2525C28.9671 22.2525 28.9672 22.2525 28.9673 22.2525C28.9673 22.2525 28.9674 22.2525 28.9674 22.2525C28.9675 22.2525 28.9675 22.2525 28.9676 22.2525C28.9676 22.2524 28.9676 22.2524 28.9676 22.2524C28.9677 22.2524 28.9677 22.2524 28.9642 22.1025C28.9608 21.9525 28.9608 21.9525 28.9608 21.9525C28.9607 21.9525 28.9607 21.9525 28.9607 21.9525C28.9607 21.9525 28.9605 21.9525 28.9604 21.9525C28.9588 21.9526 28.9616 21.9525 28.9599 21.9525C28.9595 21.9526 28.9596 21.9526 28.9592 21.9526C28.9584 21.9526 28.9561 21.9526 28.9543 21.9527C28.9501 21.9528 28.9436 21.9529 28.9352 21.9531C28.9184 21.9535 28.8937 21.9541 28.8615 21.9548C28.7973 21.9563 28.704 21.9584 28.5876 21.9611C28.3547 21.9664 28.0291 21.9739 27.6587 21.9824C26.9177 21.9993 25.9969 22.0204 25.2778 22.0369L25.2847 22.3368ZM29.0531 21.9504L28.9608 21.9525L28.9677 22.2524L29.06 22.2503L29.0531 21.9504ZM44.4374 43.0779L44.2223 43.287L44.4141 43.4843L44.6273 43.3101L44.4374 43.0779ZM40.5574 39.0862L40.3296 38.8909L40.1514 39.0988L40.3423 39.2953L40.5574 39.0862ZM42.0108 37.0477L42.2695 37.1996L42.2695 37.1996L42.0108 37.0477ZM40.4576 20.8049L40.2474 20.5909L40.0447 20.79L40.2325 21.0032L40.4576 20.8049ZM44.4218 16.9102L44.6122 16.6783L44.4038 16.5074L44.2116 16.6962L44.4218 16.9102ZM55.0063 17.9201L54.9103 17.6358L54.8857 17.6441L54.8629 17.6565L55.0063 17.9201ZM55.1143 17.8752L54.9801 17.6069L54.9787 17.6076L55.1143 17.8752ZM55.2951 17.7534L55.1427 17.4951L55.1194 17.5088L55.0989 17.5265L55.2951 17.7534ZM57.0927 16.3824L56.9084 16.1458L56.8956 16.1557L56.884 16.167L57.0927 16.3824ZM57.2328 16.2465L57.0198 16.0353L57.0103 16.0449L57.0017 16.0553L57.2328 16.2465ZM43.1717 15.6743L43.3819 15.8883L43.5802 15.6935L43.4011 15.4809L43.1717 15.6743ZM39.2171 19.5598L39.0188 19.7849L39.2282 19.9694L39.4273 19.7738L39.2171 19.5598ZM37.0473 17.9906L37.1992 17.7319L37.1991 17.7318L37.0473 17.9906ZM28.8446 16.1224L28.8195 15.8235L28.8195 15.8235L28.8446 16.1224ZM21.2233 19.1858L21.3897 19.4354L21.4014 19.4276L21.4124 19.4187L21.2233 19.1858ZM21.2219 19.1867L21.0555 18.9371L21.0447 18.9443L21.0345 18.9524L21.2219 19.1867ZM21.2086 19.1982L21.0212 18.9639L21.0195 18.9653L21.2086 19.1982ZM20.7852 19.5575L20.5743 19.7708L20.7734 19.9677L20.9836 19.7826L20.7852 19.5575ZM16.842 15.6583L16.6123 15.4654L16.4345 15.6771L16.6311 15.8716L16.842 15.6583ZM17.9196 4.99237L17.6361 5.0905L17.6442 5.11396L17.6561 5.13577L17.9196 4.99237ZM17.8752 4.88571L17.6065 5.01916L17.6083 5.02268L17.8752 4.88571ZM17.7534 4.70444L17.4951 4.85695L17.5092 4.88083L17.5274 4.90172L17.7534 4.70444ZM4.63303 1.35544L4.47863 1.09822L4.47863 1.09822L4.63303 1.35544ZM5.53848 2.8624L5.38431 2.60505L5.38431 2.60505L5.53848 2.8624ZM15.8029 14.1389L15.5706 14.3288L15.8152 14.628L16.0444 14.3169L15.8029 14.1389ZM15.4312 13.7453L15.6346 13.5247L15.634 13.5242L15.4312 13.7453ZM3.66486 13.7444L3.86777 13.9653L3.86784 13.9653L3.66486 13.7444ZM3.28033 14.1531L3.03917 14.3316L3.26939 14.6427L3.51328 14.3422L3.28033 14.1531ZM3.27805 4.91638L3.05043 4.72095L3.04335 4.72921L3.03688 4.73795L3.27805 4.91638ZM1.86493 3.87085L1.62969 3.6844L1.62371 3.69248L1.86493 3.87085ZM2.79877 16.2794L3.02654 16.0842L3.01902 16.0754L3.01084 16.0673L2.79877 16.2794ZM2.92786 16.4021L3.13599 16.1861L3.12398 16.1745L3.11077 16.1643L2.92786 16.4021ZM4.70581 17.7544L4.9014 17.5269L4.8812 17.5095L4.85827 17.496L4.70581 17.7544ZM4.8674 17.8661L4.7259 18.1306L4.72731 18.1313L4.8674 17.8661ZM4.99283 17.9196L5.13623 17.6561L5.11418 17.6441L5.09044 17.6359L4.99283 17.9196ZM15.5951 16.897L15.806 16.6837L15.6133 16.4931L15.4042 16.6655L15.5951 16.897ZM19.5447 20.8026L19.7701 21.0006L19.9567 20.7881L19.7556 20.5893L19.5447 20.8026ZM17.9901 22.9523L17.7314 22.8004L17.7313 22.8005L17.9901 22.9523ZM16.084 30.5566H16.3842L16.3837 30.5444L16.084 30.5566ZM16.0844 30.5653H15.7842L15.7847 30.5779L16.0844 30.5653ZM17.4614 36.0567L17.7423 35.9513L17.7375 35.9385L17.7315 35.9262L17.4614 36.0567ZM17.466 36.0672L17.1851 36.1725L17.1935 36.1951L17.2055 36.216L17.466 36.0672ZM17.4678 36.0704L17.738 35.94L17.7334 35.9306L17.7283 35.9216L17.4678 36.0704ZM19.6404 39.3063L19.8464 39.5244L20.0591 39.3234L19.8635 39.1058L19.6404 39.3063ZM15.6093 43.1149L15.418 43.346L15.6224 43.5152L15.8153 43.333L15.6093 43.1149ZM2.79877 57.2058L3.02752 57.0117L3.01954 57.0023L3.01081 56.9936L2.79877 57.2058ZM2.92786 57.3289L3.13597 57.1129L3.12397 57.1013L3.11077 57.0912L2.92786 57.3289ZM16.2181 57.2653L16.0159 57.0435L16.0081 57.0511L16.2181 57.2653ZM16.263 57.2209L16.0516 57.008L16.0463 57.0133L16.0413 57.0188L16.263 57.2209ZM15.8052 55.0685L15.5727 55.2581L15.8172 55.558L16.0467 55.2465L15.8052 55.0685ZM15.4312 54.6716L15.6346 54.4511L15.634 54.4505L15.4312 54.6716ZM3.66486 54.6712L3.86777 54.8921L3.86784 54.8921L3.66486 54.6712ZM3.28033 55.08L3.03914 55.2584L3.26935 55.5696L3.51328 55.269L3.28033 55.08ZM16.8549 44.3564L16.6488 44.1383L16.4436 44.3322L16.6247 44.5488L16.8549 44.3564ZM20.8955 40.5386L21.0915 40.3114L20.8864 40.1346L20.6895 40.3206L20.8955 40.5386ZM22.9527 42.0103L23.1046 41.7516L23.1045 41.7516L22.9527 42.0103ZM30.65 43.9105L30.636 43.6109L30.6352 43.6109L30.65 43.9105ZM37.7106 41.5988L37.5447 41.3488L37.5446 41.3489L37.7106 41.5988ZM39.3292 40.3445L39.5443 40.1354L39.3431 39.9284L39.1285 40.1216L39.3292 40.3445ZM43.1845 44.3106L43.4135 44.5044L43.5894 44.2967L43.3996 44.1015L43.1845 44.3106ZM43.7247 57.2054L43.9523 57.0099L43.9448 57.0013L43.9368 56.9932L43.7247 57.2054ZM43.8547 57.3289L44.0628 57.1129L44.0508 57.1013L44.0376 57.0912L43.8547 57.3289ZM57.0932 57.3088L56.9079 57.0729L56.8956 57.0825L56.8845 57.0933L57.0932 57.3088ZM57.2324 57.1733L57.0193 56.9621L57.0092 56.9723L57.0002 56.9833L57.2324 57.1733ZM4.85321 55.9666L5.05583 56.1879L5.05615 56.1876L4.85321 55.9666ZM14.2419 55.9662L14.4448 55.7451L14.4447 55.7451L14.2419 55.9662ZM14.5848 56.3786L14.7793 56.607L14.9749 56.4405L14.8404 56.2216L14.5848 56.3786ZM4.50439 56.3882L4.24756 56.2332L4.11577 56.4515L4.31002 56.6168L4.50439 56.3882ZM40.4947 36.1578L40.7534 36.3097L40.7534 36.3097L40.4947 36.1578ZM38.7492 38.4618L38.9451 38.689L38.9555 38.68L38.965 38.6702L38.7492 38.4618ZM38.736 38.4732L38.5401 38.246L38.5317 38.2532L38.5238 38.2611L38.736 38.4732ZM38.6934 38.5194L38.9077 38.7294L38.9131 38.7239L38.9182 38.7181L38.6934 38.5194ZM37.4084 39.6556L37.1569 39.8191L37.3333 40.0906L37.5906 39.894L37.4084 39.6556ZM36.5996 36.1725L36.3065 36.1085L36.3064 36.1087L36.5996 36.1725ZM37.9234 34.3396L38.1183 34.5677L38.1193 34.5668L37.9234 34.3396ZM39.7128 31.6072L39.4167 31.559L39.4167 31.559L39.7128 31.6072ZM38.4828 27.8632L38.2378 28.0363L38.2379 28.0364L38.4828 27.8632ZM37.4112 25.2553L37.1115 25.2424L37.1115 25.2425L37.4112 25.2553ZM39.1466 21.9754L39.3719 21.7773L39.1691 21.5467L38.9433 21.7548L39.1466 21.9754ZM45.4308 15.4619L45.1739 15.3068L45.0421 15.5252L45.2364 15.6904L45.4308 15.4619ZM45.78 15.0403L45.9823 15.2618L45.9831 15.2611L45.78 15.0403ZM55.1683 15.0398L55.3715 14.8191L55.3712 14.8189L55.1683 15.0398ZM55.5098 15.4495L55.7047 15.6776L55.8998 15.5109L55.7653 15.2923L55.5098 15.4495ZM56.7297 14.1389L56.4974 14.3288L56.742 14.6281L56.9713 14.3169L56.7297 14.1389ZM56.3576 13.7453L56.5609 13.5247L56.5604 13.5242L56.3576 13.7453ZM44.5917 13.7448L44.7942 13.9661L44.7947 13.9657L44.5917 13.7448ZM44.2072 14.1536L43.966 14.332L44.1966 14.6438L44.4405 14.3422L44.2072 14.1536ZM4.50439 15.4619L4.24756 15.3068L4.11577 15.5252L4.31002 15.6904L4.50439 15.4619ZM4.85321 15.0403L5.05583 15.2615L5.05615 15.2612L4.85321 15.0403ZM14.2419 15.0398L14.4455 14.8194L14.4449 14.8189L14.2419 15.0398ZM14.583 15.4495L14.7779 15.6776L14.9729 15.5109L14.8385 15.2923L14.583 15.4495ZM19.5062 23.8422L19.765 23.994L19.765 23.9939L19.5062 23.8422ZM21.8481 20.9656L22.0078 20.7116L21.8157 20.5908L21.6472 20.7428L21.8481 20.9656ZM23.3501 19.8111L23.1864 19.5596L22.7582 19.8383L23.2102 20.0765L23.3501 19.8111ZM36.1578 19.5067L36.3097 19.248L36.3097 19.2479L36.1578 19.5067ZM37.8951 20.7422L38.1017 20.9596L38.3436 20.7297L38.0893 20.5136L37.8951 20.7422ZM35.6552 25.1802L35.9549 25.193L35.9549 25.1929L35.6552 25.1802ZM37.0464 28.8771L36.8013 29.0501L36.8013 29.0502L37.0464 28.8771ZM37.9779 31.3248L38.274 31.373L38.274 31.3729L37.9779 31.3248ZM36.7804 33.0038L36.5854 32.7758L36.5854 32.7759L36.7804 33.0038ZM34.882 35.7985L34.5889 35.7346L34.5889 35.7347L34.882 35.7985ZM35.9413 40.6192L36.0876 40.8811L36.3667 40.7252L36.1934 40.4565L35.9413 40.6192ZM31.5509 42.0671L31.2509 42.0669L31.2507 42.4082L31.5892 42.3647L31.5509 42.0671ZM31.4301 40.5121L31.727 40.4691L31.7269 40.4687L31.4301 40.5121ZM29.6155 36.6353L29.8025 36.4007L29.8024 36.4007L29.6155 36.6353ZM25.9799 35.7005L25.9768 35.4005L25.9763 35.4006L25.9799 35.7005ZM24.9481 35.6415L24.6484 35.6545L24.6569 35.8499L24.8391 35.921L24.9481 35.6415ZM25.28 34.7507L25.5506 34.8801L25.5508 34.8797L25.28 34.7507ZM25.4338 32.4344L25.6714 32.2513L25.6714 32.2512L25.4338 32.4344ZM22.8951 31.9533L22.8287 31.6607L22.8286 31.6607L22.8951 31.9533ZM21.4398 32.4165L21.3242 32.1397L21.324 32.1398L21.4398 32.4165ZM18.5715 34.1771L18.2898 34.2804L18.4363 34.6795L18.7632 34.4078L18.5715 34.1771ZM17.9114 31.3957L17.8971 31.0961L17.5766 31.1113L17.6134 31.4301L17.9114 31.3957ZM21.0178 31.0693L21.0556 31.3669L21.0566 31.3668L21.0178 31.0693ZM21.0493 31.0652L21.0114 30.7676L21.0105 30.7677L21.0493 31.0652ZM27.7711 28.3772L28.0634 28.4451L28.0634 28.4449L27.7711 28.3772ZM27.2681 26.4272L27.3577 26.1409L26.5293 25.8816L27.0208 26.597L27.2681 26.4272ZM31.203 26.3521L31.3898 26.5868L31.3899 26.5867L31.203 26.3521ZM32.265 23.9676L32.5646 23.9827L32.5646 23.9826L32.265 23.9676ZM31.2566 21.0416L31.4662 20.827L31.466 20.8268L31.2566 21.0416ZM28.9252 20.3476L28.9025 20.0484L28.9 20.0487L28.9252 20.3476ZM29.0565 22.1004L29.0788 22.3995L29.0789 22.3995L29.0565 22.1004ZM30.0293 22.2995L30.239 22.085L30.2386 22.0846L30.0293 22.2995ZM30.5095 23.8792L30.2099 23.8641L30.2099 23.8642L30.5095 23.8792ZM30.108 24.977L30.2949 25.2117L30.295 25.2116L30.108 24.977ZM27.5423 24.6707L27.633 24.3848L27.6329 24.3847L27.5423 24.6707ZM24.857 24.8561L24.6035 24.6958L24.6032 24.6961L24.857 24.8561ZM25.4132 26.8977L25.1807 27.0873L25.1808 27.0874L25.4132 26.8977ZM26.0591 27.9808L25.7667 27.9136L25.7665 27.9147L26.0591 27.9808ZM24.6684 28.6835L24.7467 28.9731L24.7467 28.9731L24.6684 28.6835ZM20.8214 29.3225L20.8593 29.6201L20.8593 29.6201L20.8214 29.3225ZM20.7962 29.3257L20.8341 29.6233L20.8341 29.6233L20.7962 29.3257ZM17.8354 29.6397L17.5355 29.631L17.5261 29.955L17.8499 29.9394L17.8354 29.6397ZM19.3318 35.8488L19.1265 35.6301L18.9572 35.7889L19.0685 35.9927L19.3318 35.8488ZM22.1169 34.0388L22.2317 34.316L22.2322 34.3158L22.1169 34.0388ZM23.8852 33.5733L24.1624 33.6879L24.344 33.2487L23.8694 33.2737L23.8852 33.5733ZM23.6934 33.9935L23.4227 33.8642L23.4225 33.8646L23.6934 33.9935ZM23.4091 36.5089L23.6717 36.3638L23.6716 36.3637L23.4091 36.5089ZM25.9987 37.4583L26.0018 37.7583L26.0019 37.7583L25.9987 37.4583ZM28.5196 38.0099L28.3325 38.2445L28.3326 38.2445L28.5196 38.0099ZM29.6915 40.7712L29.9884 40.7282L29.9883 40.7278L29.6915 40.7712ZM29.7926 42.1655L29.7879 42.4655L30.0885 42.4702L30.0926 42.1696L29.7926 42.1655ZM23.8422 40.4942L23.6903 40.753L23.6904 40.753L23.8422 40.4942ZM56.7297 55.0658L56.4974 55.2556L56.7421 55.555L56.9714 55.2436L56.7297 55.0658ZM56.3576 54.6716L56.5609 54.4511L56.5604 54.4505L56.3576 54.6716ZM44.5917 54.6712L44.7942 54.8925L44.7947 54.8921L44.5917 54.6712ZM44.2072 55.08L43.966 55.2584L44.1967 55.5701L44.4405 55.2685L44.2072 55.08ZM45.4308 56.3882L45.1739 56.2332L45.0421 56.4515L45.2364 56.6168L45.4308 56.3882ZM45.78 55.9666L45.9823 56.1882L45.9831 56.1875L45.78 55.9666ZM55.1688 55.9662L55.3723 55.7458L55.3714 55.745L55.1688 55.9662ZM55.5098 56.3759L55.7047 56.6039L55.8998 56.4373L55.7653 56.2187L55.5098 56.3759ZM38.4836 27.8643L38.7287 27.6913L38.7285 27.6911L38.4836 27.8643ZM37.9244 34.3387L37.7294 34.1108L37.7285 34.1115L37.9244 34.3387ZM27.5445 24.6714L27.4538 24.9574L27.4538 24.9574L27.5445 24.6714ZM31.4305 40.5149L31.7274 40.472L31.7274 40.4719L31.4305 40.5149ZM23.6929 33.9945L23.9637 34.1236L23.9638 34.1234L23.6929 33.9945ZM38.7011 38.5107L38.4766 38.3117L38.4763 38.312L38.7011 38.5107ZM25.2812 22.1869L25.2744 21.887L25.2812 22.1869ZM28.9642 22.1025L28.9729 21.8026L28.9651 21.8024L28.9574 21.8026L28.9642 22.1025ZM50.463 40.6264C48.1076 40.6264 45.9427 41.4601 44.2476 42.8456L44.6273 43.3101C46.2197 42.0086 48.2517 41.2264 50.463 41.2264V40.6264ZM44.6525 42.8687L40.7725 38.8771L40.3423 39.2953L44.2223 43.287L44.6525 42.8687ZM40.7852 39.2814C41.3355 38.6394 41.832 37.9451 42.2695 37.1996L41.7521 36.8959C41.3326 37.6106 40.8569 38.2759 40.3296 38.8909L40.7852 39.2814ZM42.2695 37.1996C45.3937 31.8752 44.7143 25.1821 40.6827 20.6066L40.2325 21.0032C44.0936 25.3852 44.7445 31.7961 41.7521 36.8959L42.2695 37.1996ZM40.6679 21.0189L44.6321 17.1242L44.2116 16.6962L40.2474 20.5909L40.6679 21.0189ZM44.2315 17.1422C45.9291 18.5352 48.1001 19.3736 50.463 19.3736V18.7736C48.2445 18.7736 46.2068 17.987 44.6122 16.6783L44.2315 17.1422ZM50.463 19.3736C52.1583 19.3736 53.7556 18.942 55.1496 18.1836L54.8629 17.6565C53.5543 18.3685 52.0553 18.7736 50.463 18.7736V19.3736ZM55.1022 18.2043C55.1501 18.1881 55.1998 18.1682 55.2498 18.1428L54.9787 17.6076C54.9583 17.618 54.9356 17.6273 54.9103 17.6358L55.1022 18.2043ZM55.2485 18.1435C55.3404 18.0976 55.4209 18.0412 55.4913 17.9804L55.0989 17.5265C55.0612 17.5591 55.0218 17.586 54.9801 17.6069L55.2485 18.1435ZM55.4476 18.0118C56.1214 17.6142 56.7431 17.1388 57.3015 16.5979L56.884 16.167C56.3593 16.6753 55.7753 17.1218 55.1427 17.4951L55.4476 18.0118ZM57.2771 16.6191C57.346 16.5655 57.4084 16.5049 57.464 16.4377L57.0017 16.0553C56.974 16.0887 56.943 16.1188 56.9084 16.1458L57.2771 16.6191ZM57.4459 16.4577C59.2084 14.6796 60.3 12.2335 60.3 9.53659H59.7C59.7 12.0683 58.6759 14.3646 57.0198 16.0353L57.4459 16.4577ZM60.3 9.53659C60.3 4.11256 55.8874 -0.3 50.463 -0.3V0.3C55.5561 0.3 59.7 4.44395 59.7 9.53659H60.3ZM50.463 -0.3C45.0389 -0.3 40.6264 4.11257 40.6264 9.53659H41.2264C41.2264 4.44394 45.3703 0.3 50.463 0.3V-0.3ZM40.6264 9.53659C40.6264 11.9468 41.4993 14.156 42.9423 15.8677L43.4011 15.4809C42.0453 13.8728 41.2264 11.7992 41.2264 9.53659H40.6264ZM42.9614 15.4603L39.0068 19.3458L39.4273 19.7738L43.3819 15.8883L42.9614 15.4603ZM39.4154 19.3347C38.733 18.7337 37.9906 18.1965 37.1992 17.7319L36.8954 18.2493C37.654 18.6947 38.3654 19.2094 39.0188 19.7849L39.4154 19.3347ZM37.1991 17.7318C34.652 16.2371 31.7539 15.577 28.8195 15.8235L28.8697 16.4214C31.6803 16.1853 34.4548 16.8171 36.8954 18.2493L37.1991 17.7318ZM28.8195 15.8235C25.9518 16.0647 23.2593 17.1468 21.0342 18.9529L21.4124 19.4187C23.5434 17.689 26.1216 16.6526 28.8698 16.4214L28.8195 15.8235ZM21.0569 18.9362L21.0555 18.9371L21.3883 19.4363L21.3897 19.4354L21.0569 18.9362ZM21.0345 18.9524C21.0292 18.9567 21.0247 18.9605 21.0216 18.9632C21.0187 18.9658 21.0161 18.9681 21.0152 18.9689C21.0139 18.9701 21.0144 18.9696 21.0151 18.969C21.016 18.9682 21.0182 18.9663 21.0212 18.9639L21.3961 19.4324C21.4014 19.4281 21.4058 19.4244 21.4089 19.4217C21.4119 19.4191 21.4145 19.4167 21.4153 19.416C21.4167 19.4148 21.4162 19.4152 21.4155 19.4158C21.4146 19.4166 21.4124 19.4185 21.4093 19.421L21.0345 18.9524ZM21.0195 18.9653C20.872 19.0851 20.7279 19.2082 20.5869 19.3324L20.9836 19.7826C21.12 19.6624 21.2578 19.5447 21.3978 19.431L21.0195 18.9653ZM20.9962 19.3442L17.053 15.4449L16.6311 15.8716L20.5743 19.7708L20.9962 19.3442ZM17.0718 15.8512C18.5069 14.1418 19.3736 11.9387 19.3736 9.53705H18.7736C18.7736 11.7917 17.9604 13.8596 16.6123 15.4654L17.0718 15.8512ZM19.3736 9.53705C19.3736 7.84129 18.942 6.24352 18.1831 4.84897L17.6561 5.13577C18.3685 6.44477 18.7736 7.94424 18.7736 9.53705H19.3736ZM18.2031 4.89424C18.1882 4.85121 18.1688 4.80068 18.1421 4.74875L17.6083 5.02268C17.6174 5.04033 17.6263 5.06212 17.6361 5.0905L18.2031 4.89424ZM18.1439 4.75228C18.0982 4.66025 18.0422 4.57904 17.9795 4.50716L17.5274 4.90172C17.559 4.93786 17.5854 4.97659 17.6065 5.01914L18.1439 4.75228ZM18.0118 4.55193C16.3 1.65223 13.1435 -0.3 9.53705 -0.3V0.3C12.9216 0.3 15.8863 2.13164 17.4951 4.85695L18.0118 4.55193ZM9.53705 -0.3C7.75165 -0.3 6.00269 0.183404 4.47863 1.09822L4.78742 1.61266C6.21777 0.754096 7.85992 0.3 9.53705 0.3V-0.3ZM5.69266 3.11975C7.03201 2.31736 8.17411 2.05781 9.53705 2.05781V1.45781C8.07467 1.45781 6.82439 1.74231 5.38431 2.60505L5.69266 3.11975ZM9.53705 2.05781C13.6606 2.05781 17.0158 5.41303 17.0158 9.53659H17.6158C17.6158 5.08166 13.992 1.45781 9.53705 1.45781V2.05781ZM17.0158 9.53659C17.0158 11.1913 16.4752 12.721 15.5614 13.961L16.0444 14.3169C17.0313 12.9778 17.6158 11.3242 17.6158 9.53659H17.0158ZM16.0352 13.9491C15.9134 13.8001 15.7796 13.6585 15.6346 13.5247L15.2279 13.9658C15.3529 14.0811 15.4672 14.2023 15.5706 14.3288L16.0352 13.9491ZM15.634 13.5242C14.8619 12.816 13.8339 12.4299 12.7441 12.4299V13.0299C13.6923 13.0299 14.5732 13.3653 15.2284 13.9664L15.634 13.5242ZM12.7441 12.4299H6.35056V13.0299H12.7441V12.4299ZM6.35056 12.4299C5.25999 12.4299 4.23183 12.8159 3.46187 13.5235L3.86784 13.9653C4.52061 13.3654 5.40132 13.0299 6.35056 13.0299V12.4299ZM3.46194 13.5234C3.31092 13.6621 3.17273 13.8096 3.04739 13.9641L3.51328 14.3422C3.62048 14.2101 3.73864 14.0839 3.86777 13.9653L3.46194 13.5234ZM3.5215 13.9747C2.60242 12.7325 2.05781 11.1975 2.05781 9.53659H1.45781C1.45781 11.3309 2.04663 12.9901 3.03917 14.3316L3.5215 13.9747ZM2.05781 9.53659C2.05781 7.9224 2.56286 6.38741 3.51921 5.09481L3.03688 4.73795C2.00379 6.13426 1.45781 7.79445 1.45781 9.53659H2.05781ZM1.62371 3.69248C0.365508 5.39401 -0.3 7.41533 -0.3 9.53659H0.3C0.3 7.54347 0.92447 5.64725 2.10614 4.04922L1.62371 3.69248ZM-0.3 9.53659C-0.3 12.2504 0.804851 14.7107 2.58669 16.4916L3.01084 16.0673C1.33657 14.3939 0.3 12.0843 0.3 9.53659H-0.3ZM2.57099 16.4747C2.62238 16.5346 2.68034 16.5902 2.74494 16.6399L3.11077 16.1643C3.08016 16.1408 3.05206 16.114 3.02654 16.0842L2.57099 16.4747ZM2.71972 16.6182C3.27288 17.151 3.88753 17.6199 4.55335 18.0127L4.85827 17.496C4.23319 17.1272 3.65583 16.6868 3.13599 16.1861L2.71972 16.6182ZM4.51022 17.9818C4.57356 18.0363 4.64505 18.0873 4.72591 18.1306L5.0089 17.6015C4.97165 17.5816 4.93603 17.5567 4.9014 17.5269L4.51022 17.9818ZM4.72731 18.1313C4.78442 18.1615 4.84124 18.1847 4.89522 18.2033L5.09044 17.6359C5.05927 17.6252 5.03187 17.6136 5.00749 17.6008L4.72731 18.1313ZM4.84943 18.1831C6.24397 18.942 7.84127 19.3736 9.53705 19.3736V18.7736C7.94425 18.7736 6.44524 18.3685 5.13623 17.6561L4.84943 18.1831ZM9.53705 19.3736C11.9079 19.3736 14.086 18.5301 15.7859 17.1284L15.4042 16.6655C13.8074 17.9821 11.7631 18.7736 9.53705 18.7736V19.3736ZM15.3842 17.1103L19.3337 21.0159L19.7556 20.5893L15.806 16.6837L15.3842 17.1103ZM19.3193 20.6046C18.7256 21.2806 18.1935 22.0133 17.7314 22.8004L18.2488 23.1041C18.6913 22.3504 19.201 21.6485 19.7701 21.0006L19.3193 20.6046ZM17.7313 22.8005C16.347 25.1606 15.6734 27.8469 15.7842 30.5688L16.3837 30.5444C16.2776 27.938 16.9224 25.3655 18.2489 23.1041L17.7313 22.8005ZM15.784 30.5566C15.784 30.567 15.7845 30.5755 15.7849 30.5808C15.7851 30.5835 15.7853 30.5858 15.7854 30.5872C15.7856 30.5886 15.7857 30.5898 15.7857 30.5899C15.7858 30.5911 15.7855 30.588 15.7852 30.5842C15.7849 30.5801 15.7844 30.5727 15.7844 30.5635H16.3844C16.3844 30.5531 16.3839 30.5447 16.3835 30.5394C16.3833 30.5366 16.3831 30.5344 16.383 30.5329C16.3829 30.5316 16.3827 30.5304 16.3827 30.5302C16.3826 30.529 16.3829 30.5322 16.3832 30.5359C16.3835 30.5401 16.384 30.5474 16.384 30.5566H15.784ZM15.7844 30.5635V30.5653H16.3844V30.5635H15.7844ZM15.7847 30.5779C15.8665 32.5372 16.3398 34.4249 17.1913 36.1872L17.7315 35.9262C16.9158 34.2378 16.4626 32.4305 16.3842 30.5528L15.7847 30.5779ZM17.1805 36.162C17.1835 36.1699 17.1862 36.1764 17.1882 36.1808C17.19 36.1848 17.1916 36.1884 17.1918 36.1888C17.1924 36.1901 17.1916 36.1883 17.1905 36.1859C17.1894 36.1833 17.1873 36.1786 17.1851 36.1725L17.7469 35.9619C17.7439 35.954 17.7411 35.9475 17.7392 35.9431C17.7374 35.939 17.7357 35.9355 17.7355 35.9351C17.7349 35.9338 17.7358 35.9356 17.7368 35.9379C17.738 35.9406 17.74 35.9453 17.7423 35.9513L17.1805 36.162ZM17.2055 36.216L17.2073 36.2192L17.7283 35.9216L17.7264 35.9184L17.2055 36.216ZM17.1976 36.2008C17.7823 37.4118 18.5311 38.5212 19.4172 39.5069L19.8635 39.1058C19.0147 38.1616 18.2977 37.0993 17.738 35.94L17.1976 36.2008ZM19.4343 39.0883L15.4033 42.8969L15.8153 43.333L19.8464 39.5244L19.4343 39.0883ZM15.8006 42.8838C14.0983 41.4747 11.9145 40.6264 9.53705 40.6264V41.2264C11.7693 41.2264 13.8189 42.0223 15.418 43.346L15.8006 42.8838ZM9.53705 40.6264C4.11257 40.6264 -0.3 45.0389 -0.3 50.4634H0.3C0.3 45.3703 4.44394 41.2264 9.53705 41.2264V40.6264ZM-0.3 50.4634C-0.3 53.1768 0.804842 55.6376 2.58672 57.418L3.01081 56.9936C1.33658 55.3207 0.3 53.0107 0.3 50.4634H-0.3ZM2.57001 57.3999C2.62194 57.4611 2.68029 57.517 2.74494 57.5667L3.11077 57.0912C3.08021 57.0677 3.05249 57.0412 3.02752 57.0117L2.57001 57.3999ZM2.71974 57.545C4.48832 59.2485 6.89155 60.3 9.53705 60.3V59.7C7.05377 59.7 4.79788 58.7136 3.13597 57.1129L2.71974 57.545ZM9.53705 60.3C12.1454 60.3 14.6121 59.2592 16.4281 57.4796L16.0081 57.0511C14.302 58.723 11.9852 59.7 9.53705 59.7V60.3ZM16.4202 57.487C16.4402 57.4688 16.4623 57.4475 16.4847 57.423L16.0413 57.0188C16.0352 57.0255 16.0272 57.0334 16.016 57.0436L16.4202 57.487ZM16.4743 57.4338C17.0785 56.8339 17.5666 56.1334 18.0269 55.4301L17.5249 55.1015C17.0678 55.7998 16.6083 56.4553 16.0516 57.008L16.4743 57.4338ZM16.0421 54.1555C15.8966 54.411 15.7364 54.6561 15.5637 54.8906L16.0467 55.2465C16.2329 54.9938 16.4059 54.729 16.5635 54.4526L16.0421 54.1555ZM16.0377 54.879C15.9155 54.729 15.7808 54.586 15.6346 54.4511L15.2278 54.8921C15.3536 55.0082 15.4688 55.1306 15.5727 55.2581L16.0377 54.879ZM15.634 54.4505C14.8619 53.7424 13.8339 53.3563 12.7441 53.3563V53.9563C13.6923 53.9563 14.5732 54.2917 15.2284 54.8927L15.634 54.4505ZM12.7441 53.3563H6.35056V53.9563H12.7441V53.3563ZM6.35056 53.3563C5.2599 53.3563 4.23177 53.7428 3.46187 54.4503L3.86784 54.8921C4.52068 54.2922 5.40142 53.9563 6.35056 53.9563V53.3563ZM3.46194 54.4502C3.31092 54.5889 3.17273 54.7365 3.04739 54.8909L3.51328 55.269C3.62048 55.1369 3.73864 55.0107 3.86777 54.8921L3.46194 54.4502ZM3.52153 54.9016C2.60241 53.6589 2.05781 52.1238 2.05781 50.4634H1.45781C1.45781 52.2573 2.04664 53.9165 3.03914 55.2584L3.52153 54.9016ZM2.05781 50.4634C2.05781 46.3398 5.41304 42.9842 9.53705 42.9842V42.3842C5.08165 42.3842 1.45781 46.0085 1.45781 50.4634H2.05781ZM9.53705 42.9842C13.6606 42.9842 17.0158 46.3398 17.0158 50.4634H17.6158C17.6158 46.0085 13.992 42.3842 9.53705 42.3842V42.9842ZM17.0158 50.4634C17.0158 50.7532 16.9991 51.0457 16.9661 51.3322L17.5621 51.4009C17.5978 51.0915 17.6158 50.776 17.6158 50.4634H17.0158ZM19.3085 51.6021C19.3515 51.2265 19.3736 50.8434 19.3736 50.4634H18.7736C18.7736 50.8204 18.7528 51.1807 18.7124 51.5339L19.3085 51.6021ZM19.3736 50.4634C19.3736 48.0684 18.5125 45.8714 17.085 44.164L16.6247 44.5488C17.9657 46.1528 18.7736 48.2149 18.7736 50.4634H19.3736ZM17.0609 44.5744L21.1016 40.7567L20.6895 40.3206L16.6488 44.1383L17.0609 44.5744ZM20.6996 40.7658C21.3487 41.3256 22.051 41.8291 22.8009 42.2691L23.1045 41.7516C22.386 41.33 21.7132 40.8476 21.0915 40.3114L20.6996 40.7658ZM22.8009 42.2691C24.9927 43.5553 27.4626 44.2265 29.9831 44.2265V43.6265C27.5698 43.6265 25.2047 42.984 23.1046 41.7516L22.8009 42.2691ZM29.9831 44.2265C30.2096 44.2265 30.437 44.2214 30.6648 44.2102L30.6352 43.6109C30.4181 43.6216 30.2006 43.6265 29.9831 43.6265V44.2265ZM30.6641 44.2102C33.2391 44.0896 35.7334 43.2727 37.8766 41.8487L37.5446 41.3489C35.4919 42.7127 33.1027 43.4953 30.636 43.6109L30.6641 44.2102ZM37.8764 41.8488C38.4627 41.4598 39.0141 41.0319 39.5299 40.5675L39.1285 40.1216C38.6345 40.5663 38.1065 40.9761 37.5447 41.3488L37.8764 41.8488ZM39.1141 40.5536L42.9694 44.5197L43.3996 44.1015L39.5443 40.1354L39.1141 40.5536ZM42.9555 44.1168C41.5045 45.8307 40.6264 48.0461 40.6264 50.463H41.2264C41.2264 48.1941 42.0502 46.1148 43.4135 44.5044L42.9555 44.1168ZM40.6264 50.463C40.6264 53.1763 41.7312 55.6366 43.5126 57.4175L43.9368 56.9932C42.2629 55.3198 41.2264 53.0102 41.2264 50.463H40.6264ZM43.4971 57.4008C43.5487 57.4609 43.607 57.5169 43.6718 57.5667L44.0376 57.0912C44.0071 57.0677 43.9785 57.0404 43.9523 57.0099L43.4971 57.4008ZM43.6466 57.545C45.4151 59.2484 47.8179 60.3 50.463 60.3V59.7C47.9802 59.7 45.7247 58.7136 44.0628 57.1129L43.6466 57.545ZM50.463 60.3C53.1193 60.3 55.531 59.24 57.3019 57.5243L56.8845 57.0933C55.2203 58.7056 52.9564 59.7 50.463 59.7V60.3ZM57.2785 57.5447C57.3454 57.4922 57.4082 57.4322 57.4645 57.3633L57.0002 56.9833C56.9741 57.0152 56.9435 57.0449 56.9079 57.0729L57.2785 57.5447ZM57.4454 57.3845C59.2083 55.6065 60.3 53.1603 60.3 50.4634H59.7C59.7 52.9951 58.6759 55.2914 57.0193 56.9621L57.4454 57.3845ZM60.3 50.4634C60.3 45.0389 55.8874 40.6264 50.463 40.6264V41.2264C55.5561 41.2264 59.7 45.3703 59.7 50.4634H60.3ZM5.05615 56.1876C5.38289 55.8875 5.83954 55.7146 6.35056 55.7146V55.1146C5.70526 55.1146 5.09899 55.3335 4.65027 55.7457L5.05615 56.1876ZM6.35056 55.7146H12.7441V55.1146H6.35056V55.7146ZM12.7441 55.7146C13.2552 55.7146 13.7128 55.8879 14.0392 56.1873L14.4447 55.7451C13.9965 55.334 13.3894 55.1146 12.7441 55.1146V55.7146ZM14.0391 56.1872C14.1581 56.2964 14.2546 56.4142 14.3292 56.5357L14.8404 56.2216C14.7356 56.051 14.6032 55.8905 14.4448 55.7451L14.0391 56.1872ZM14.3903 56.1502C13.0549 57.2875 11.3396 57.9422 9.53705 57.9422V58.5422C11.4854 58.5422 13.3379 57.8346 14.7793 56.607L14.3903 56.1502ZM9.53705 57.9422C7.69329 57.9422 6.00462 57.2705 4.69877 56.1597L4.31002 56.6168C5.71963 57.8158 7.54474 58.5422 9.53705 58.5422V57.9422ZM4.76123 56.5433C4.83617 56.4191 4.93422 56.2993 5.05583 56.1879L4.65059 55.7454C4.4893 55.8931 4.3539 56.0571 4.24756 56.2332L4.76123 56.5433ZM40.236 36.0059C39.7511 36.8318 39.1818 37.5822 38.5335 38.2533L38.965 38.6702C39.6469 37.9643 40.2449 37.1758 40.7534 36.3097L40.236 36.0059ZM38.4791 38.3095C38.0895 38.7071 37.6713 39.0771 37.2263 39.4173L37.5906 39.894C38.0584 39.5365 38.498 39.1475 38.9077 38.7294L38.4791 38.3095ZM37.66 39.4922C36.982 38.4486 36.6861 37.1854 36.8927 36.2363L36.3064 36.1087C36.0571 37.2543 36.4168 38.68 37.1569 39.8191L37.66 39.4922ZM36.8927 36.2365C37.0569 35.4843 37.4793 35.1136 38.1183 34.5677L37.7286 34.1115C37.0977 34.6505 36.5185 35.1376 36.3065 36.1085L36.8927 36.2365ZM38.7278 27.69C38.1202 26.8302 37.672 26.1789 37.7109 25.2681L37.1115 25.2425C37.0625 26.3879 37.6479 27.2015 38.2378 28.0363L38.7278 27.69ZM37.7109 25.2681C37.7533 24.2801 38.3885 23.0818 39.3499 22.196L38.9433 21.7548C37.9024 22.7138 37.1625 24.0515 37.1115 25.2424L37.7109 25.2681ZM38.9213 22.1735C42.2767 25.9897 42.8403 31.5675 40.2359 36.006L40.7534 36.3097C43.4894 31.6469 42.8975 25.787 39.3719 21.7773L38.9213 22.1735ZM45.6876 15.6169C45.7625 15.4928 45.8605 15.3731 45.9823 15.2618L45.5778 14.8187C45.4158 14.9666 45.2803 15.1307 45.1739 15.3068L45.6876 15.6169ZM45.9831 15.2611C46.3093 14.9611 46.7659 14.7882 47.2769 14.7882V14.1882C46.6317 14.1882 46.0253 14.4072 45.577 14.8195L45.9831 15.2611ZM47.2769 14.7882H53.6705V14.1882H47.2769V14.7882ZM53.6705 14.7882C54.1817 14.7882 54.6392 14.9612 54.9654 15.2608L55.3712 14.8189C54.9229 14.4071 54.3156 14.1882 53.6705 14.1882V14.7882ZM54.9652 15.2606C55.0842 15.3702 55.1805 15.4869 55.2543 15.6067L55.7653 15.2923C55.6605 15.122 55.528 14.9631 55.3715 14.8191L54.9652 15.2606ZM55.3149 15.2215C54.0068 16.3394 52.3133 17.0158 50.463 17.0158V17.6158C52.4624 17.6158 54.2928 16.8842 55.7047 15.6776L55.3149 15.2215ZM50.463 17.0158C48.6197 17.0158 46.931 16.3442 45.6251 15.2334L45.2364 15.6904C46.646 16.8895 48.4711 17.6158 50.463 17.6158V17.0158ZM50.463 2.05781C54.587 2.05781 57.9422 5.41304 57.9422 9.53659H58.5422C58.5422 5.08165 54.9183 1.45781 50.463 1.45781V2.05781ZM57.9422 9.53659C57.9422 11.1913 57.4015 12.7211 56.4882 13.961L56.9713 14.3169C57.9576 12.9778 58.5422 11.3242 58.5422 9.53659H57.9422ZM56.962 13.9491C56.84 13.7998 56.7057 13.6582 56.5609 13.5247L56.1542 13.9658C56.2795 14.0814 56.3943 14.2025 56.4974 14.3288L56.962 13.9491ZM56.5604 13.5242C55.7883 12.816 54.7608 12.4299 53.6705 12.4299V13.0299C54.6191 13.0299 55.4995 13.3653 56.1548 13.9664L56.5604 13.5242ZM53.6705 12.4299H47.2769V13.0299H53.6705V12.4299ZM47.2769 12.4299C46.1862 12.4299 45.1586 12.8165 44.3887 13.5239L44.7947 13.9657C45.4475 13.3658 46.3278 13.0299 47.2769 13.0299V12.4299ZM44.3891 13.5235C44.2374 13.6624 44.099 13.8102 43.9738 13.965L44.4405 14.3422C44.547 14.2104 44.6649 14.0845 44.7942 13.9661L44.3891 13.5235ZM44.4483 13.9752C43.5288 12.7321 42.9842 11.1975 42.9842 9.53659H42.3842C42.3842 11.3309 42.973 12.9897 43.966 14.332L44.4483 13.9752ZM42.9842 9.53659C42.9842 5.41304 46.3398 2.05781 50.463 2.05781V1.45781C46.0085 1.45781 42.3842 5.08165 42.3842 9.53659H42.9842ZM4.76123 15.6169C4.83617 15.4928 4.93422 15.3729 5.05583 15.2615L4.65059 14.819C4.4893 14.9668 4.3539 15.1307 4.24756 15.3068L4.76123 15.6169ZM5.05615 15.2612C5.38289 14.9611 5.83954 14.7882 6.35056 14.7882V14.1882C5.70526 14.1882 5.09899 14.4072 4.65027 14.8193L5.05615 15.2612ZM6.35056 14.7882H12.7441V14.1882H6.35056V14.7882ZM12.7441 14.7882C13.2553 14.7882 13.7129 14.9612 14.039 15.2608L14.4449 14.8189C13.9965 14.4071 13.3893 14.1882 12.7441 14.1882V14.7882ZM14.0384 15.2602C14.1573 15.37 14.2537 15.4868 14.3275 15.6067L14.8385 15.2923C14.7337 15.122 14.6013 14.9633 14.4455 14.8194L14.0384 15.2602ZM14.388 15.2215C13.0804 16.3394 11.3869 17.0158 9.53659 17.0158V17.6158C11.5361 17.6158 13.3664 16.8842 14.7779 15.6776L14.388 15.2215ZM9.53659 17.0158C7.6933 17.0158 6.00462 16.3442 4.69877 15.2334L4.31002 15.6904C5.71962 16.8895 7.54474 17.6158 9.53659 17.6158V17.0158ZM19.765 23.9939C20.3844 22.9378 21.1522 21.9972 22.0491 21.1883L21.6472 20.7428C20.7048 21.5928 19.8979 22.5813 19.2474 23.6904L19.765 23.9939ZM25.4122 20.1424C24.5488 20.0149 23.9702 19.7988 23.4899 19.5457L23.2102 20.0765C23.7516 20.3618 24.3953 20.5988 25.3245 20.7359L25.4122 20.1424ZM23.5137 20.0625C27.2414 17.6368 32.1167 17.4831 36.006 19.7654L36.3097 19.2479C32.222 16.8492 27.1025 17.0113 23.1864 19.5596L23.5137 20.0625ZM36.0059 19.7654C36.6072 20.1185 37.174 20.5231 37.7008 20.9708L38.0893 20.5136C37.5367 20.0439 36.9417 19.6191 36.3097 19.248L36.0059 19.7654ZM37.6884 20.5248C36.4959 21.6583 35.4327 23.3514 35.3555 25.1675L35.9549 25.1929C36.0233 23.584 36.9779 22.0279 38.1017 20.9596L37.6884 20.5248ZM35.3555 25.1674C35.2811 26.9074 36.1186 28.0832 36.8013 29.0501L37.2914 28.7041C36.6044 27.731 35.8902 26.7077 35.9549 25.193L35.3555 25.1674ZM36.8013 29.0502C37.4816 30.0135 37.8013 30.5419 37.6818 31.2766L38.274 31.3729C38.4383 30.3627 37.9514 29.6386 37.2914 28.704L36.8013 29.0502ZM37.6818 31.2765C37.5832 31.8821 37.2749 32.1863 36.5854 32.7758L36.9754 33.2318C37.6574 32.6486 38.1364 32.2176 38.274 31.373L37.6818 31.2765ZM36.5854 32.7759C35.8774 33.3814 34.9256 34.1895 34.5889 35.7346L35.1752 35.8624C35.4657 34.5291 36.2716 33.8338 36.9754 33.2318L36.5854 32.7759ZM34.5889 35.7347C34.1986 37.5275 34.8079 39.4162 35.6892 40.7819L36.1934 40.4565C35.3672 39.1763 34.8294 37.4505 35.1752 35.8623L34.5889 35.7347ZM35.795 40.3573C34.4717 41.0967 33.0183 41.5758 31.5126 41.7696L31.5892 42.3647C33.1706 42.1611 34.6973 41.6579 36.0876 40.8811L35.795 40.3573ZM31.7269 40.4687C31.5882 39.5196 31.3184 37.6094 29.8025 36.4007L29.4285 36.8698C30.736 37.9124 30.9909 39.5819 31.1332 40.5555L31.7269 40.4687ZM29.8024 36.4007C28.5044 35.3665 26.9949 35.3901 25.9768 35.4005L25.983 36.0005C27.0176 35.9899 28.3169 35.9842 29.4285 36.8699L29.8024 36.4007ZM25.9763 35.4006C25.8026 35.4026 25.5952 35.4048 25.4105 35.3983C25.3181 35.3951 25.2359 35.3898 25.1691 35.3821C25.1359 35.3782 25.109 35.374 25.0883 35.3698C25.078 35.3677 25.0702 35.3658 25.0646 35.3642C25.0588 35.3626 25.0566 35.3618 25.0571 35.362L24.8391 35.921C24.9202 35.9526 25.0167 35.9684 25.0999 35.9781C25.189 35.9884 25.289 35.9944 25.3895 35.9979C25.5905 36.005 25.8117 36.0026 25.9835 36.0005L25.9763 35.4006ZM25.2478 35.6284C25.2482 35.6363 25.2477 35.6142 25.2674 35.5475C25.2847 35.4888 25.3111 35.417 25.3436 35.3372C25.4086 35.1777 25.4898 35.0073 25.5506 34.8801L25.0094 34.6212C24.9493 34.7467 24.8607 34.9324 24.788 35.1106C24.7517 35.1996 24.7173 35.2919 24.692 35.3775C24.6691 35.4551 24.6442 35.5574 24.6484 35.6545L25.2478 35.6284ZM25.5508 34.8797C25.7041 34.5581 25.9085 34.1337 25.9896 33.6858C26.073 33.2255 26.0305 32.7173 25.6714 32.2513L25.1962 32.6175C25.4244 32.9137 25.4614 33.2356 25.3992 33.5789C25.3347 33.9346 25.1685 34.2872 25.0092 34.6216L25.5508 34.8797ZM25.6714 32.2512C25.2479 31.702 24.6227 31.5404 24.088 31.5178C23.553 31.4952 23.0567 31.609 22.8287 31.6607L22.9614 32.2459C23.1898 32.1941 23.6159 32.0984 24.0627 32.1173C24.5098 32.1361 24.9257 32.2668 25.1962 32.6176L25.6714 32.2512ZM22.8286 31.6607C22.0703 31.833 21.4022 32.1071 21.3242 32.1397L21.5555 32.6934C21.6221 32.6655 22.2531 32.4068 22.9615 32.2458L22.8286 31.6607ZM21.324 32.1398C21.1268 32.2224 19.7263 32.8274 18.3797 33.9464L18.7632 34.4078C20.0433 33.3441 21.3812 32.7663 21.5557 32.6933L21.324 32.1398ZM18.8531 34.0737C18.5317 33.198 18.3166 32.291 18.2094 31.3614L17.6134 31.4301C17.7259 32.4066 17.952 33.3599 18.2898 34.2804L18.8531 34.0737ZM17.9256 31.6954C18.7974 31.654 19.8126 31.5248 21.0556 31.3669L20.98 30.7717C19.729 30.9306 18.7401 31.056 17.8971 31.0961L17.9256 31.6954ZM21.0566 31.3668L21.0881 31.3627L21.0105 30.7677L20.979 30.7719L21.0566 31.3668ZM21.0873 31.3628C22.7641 31.1489 24.3658 30.9454 25.6016 30.5529C26.8297 30.1628 27.8067 29.5508 28.0634 28.4451L27.4789 28.3094C27.2979 29.0892 26.6003 29.6061 25.4199 29.981C24.2473 30.3535 22.707 30.5513 21.0114 30.7676L21.0873 31.3628ZM28.0634 28.4449C28.265 27.5744 27.9077 26.8284 27.5153 26.2573L27.0208 26.597C27.3801 27.12 27.6233 27.6859 27.4789 28.3095L28.0634 28.4449ZM27.1785 26.7135C27.7977 26.9073 28.5344 27.1199 29.2643 27.1657C29.9978 27.2118 30.756 27.0913 31.3898 26.5868L31.0162 26.1174C30.5395 26.4968 29.9489 26.6075 29.3019 26.5669C28.6513 26.5261 27.9757 26.3343 27.3577 26.1409L27.1785 26.7135ZM31.3899 26.5867C32.0985 26.0223 32.5103 25.0615 32.5646 23.9827L31.9654 23.9525C31.9172 24.9107 31.5545 25.6885 31.0161 26.1174L31.3899 26.5867ZM32.5646 23.9826C32.6261 22.7572 32.23 21.5731 31.4662 20.827L31.0469 21.2562C31.6628 21.8577 32.0202 22.8608 31.9654 23.9526L32.5646 23.9826ZM31.466 20.8268C30.6419 20.0234 29.671 19.9902 28.9025 20.0485L28.9478 20.6467C29.6662 20.5923 30.4128 20.638 31.0471 21.2564L31.466 20.8268ZM29.0789 22.3995C29.3744 22.3775 29.5367 22.3876 29.6364 22.411C29.7189 22.4303 29.7635 22.4594 29.82 22.5144L30.2386 22.0846C30.1198 21.9689 29.9817 21.8757 29.7735 21.8268C29.5825 21.782 29.3462 21.7779 29.0342 21.8012L29.0789 22.3995ZM29.8196 22.514C30.0598 22.7489 30.2399 23.2698 30.2099 23.8641L30.8091 23.8944C30.8441 23.2024 30.6469 22.4837 30.239 22.085L29.8196 22.514ZM30.2099 23.8642C30.1988 24.0844 30.1581 24.2851 30.0998 24.4443C30.0393 24.6096 29.97 24.7033 29.921 24.7424L30.295 25.2116C30.4649 25.0762 30.5839 24.8674 30.6633 24.6505C30.7449 24.4276 30.7954 24.1666 30.8091 23.8943L30.2099 23.8642ZM27.6329 24.3847C27.0952 24.2142 26.5181 24.0288 26.0035 24.0089C25.7401 23.9987 25.4758 24.0304 25.2304 24.1396C24.9812 24.2504 24.7695 24.4331 24.6035 24.6958L25.1106 25.0164C25.2176 24.8472 25.3405 24.7472 25.4742 24.6878C25.6116 24.6267 25.7782 24.6006 25.9803 24.6085C26.3969 24.6246 26.8893 24.7784 27.4516 24.9567L27.6329 24.3847ZM24.6032 24.6961C24.2963 25.183 24.3409 25.6662 24.5124 26.0781C24.6769 26.4729 24.9671 26.8253 25.1807 27.0873L25.6457 26.7082C25.4208 26.4323 25.1912 26.1473 25.0663 25.8474C24.9486 25.5646 24.9343 25.296 25.1108 25.0161L24.6032 24.6961ZM25.1808 27.0874C25.3042 27.2387 25.4697 27.4419 25.5981 27.6333C25.6626 27.7295 25.7111 27.813 25.7399 27.8785C25.7754 27.9593 25.7565 27.9582 25.7667 27.9136L26.3515 28.048C26.3878 27.8899 26.3317 27.734 26.2892 27.6371C26.2399 27.525 26.1694 27.408 26.0964 27.2991C25.9497 27.0805 25.7662 26.8557 25.6456 26.708L25.1808 27.0874ZM25.7665 27.9147C25.7859 27.8287 25.8199 27.8595 25.6759 27.9606C25.5297 28.0632 25.2194 28.2237 24.5901 28.3939L24.7467 28.9731C25.4124 28.7931 25.7959 28.6094 26.0205 28.4517C26.2473 28.2926 26.3291 28.1471 26.3517 28.0469L25.7665 27.9147ZM24.5901 28.3939C23.5767 28.6679 22.2382 28.8395 20.7835 29.0249L20.8593 29.6201C22.2995 29.4366 23.6847 29.2603 24.7467 28.9731L24.5901 28.3939ZM20.7835 29.0249L20.7583 29.0281L20.8341 29.6233L20.8593 29.6201L20.7835 29.0249ZM20.7583 29.0281C19.5452 29.1825 18.5925 29.3028 17.8209 29.3401L17.8499 29.9394C18.6502 29.9007 19.6293 29.7766 20.8341 29.6233L20.7583 29.0281ZM18.1353 29.6484C18.1928 27.6638 18.7494 25.7245 19.765 23.994L19.2475 23.6903C18.1811 25.5075 17.596 27.5452 17.5355 29.631L18.1353 29.6484ZM19.5371 36.0676C20.7233 34.9544 22.172 34.3407 22.2317 34.316L22.002 33.7617C21.9225 33.7947 20.393 34.4416 19.1265 35.6301L19.5371 36.0676ZM22.2322 34.3158C22.8268 34.0682 23.5307 33.8924 23.901 33.8729L23.8694 33.2737C23.4075 33.2981 22.6337 33.4986 22.0015 33.7619L22.2322 34.3158ZM23.6079 33.4587C23.5548 33.5872 23.4825 33.7391 23.4227 33.8642L23.9641 34.1229C24.0224 34.0008 24.102 33.834 24.1624 33.6879L23.6079 33.4587ZM23.1465 36.654C23.464 37.2285 23.9502 37.5097 24.4702 37.6422C24.9751 37.7709 25.5292 37.7633 26.0018 37.7583L25.9955 37.1584C25.5059 37.1635 25.0335 37.1666 24.6183 37.0608C24.2182 36.9588 23.8908 36.7603 23.6717 36.3638L23.1465 36.654ZM26.0019 37.7583C26.9117 37.7485 27.7146 37.7515 28.3325 38.2445L28.7067 37.7754C27.8936 37.1268 26.8591 37.149 25.9954 37.1584L26.0019 37.7583ZM28.3326 38.2445C28.7057 38.542 28.943 38.9668 29.1018 39.4366C29.2611 39.9075 29.3338 40.3986 29.3946 40.8146L29.9883 40.7278C29.9283 40.3175 29.8494 39.7743 29.6702 39.2443C29.4906 38.7132 29.2023 38.1705 28.7066 37.7754L28.3326 38.2445ZM29.3946 40.8141C29.4257 41.0297 29.501 41.5522 29.4927 42.1614L30.0926 42.1696C30.1016 41.5108 30.0204 40.9494 29.9884 40.7282L29.3946 40.8141ZM29.7974 41.8656C27.7605 41.8334 25.769 41.2769 23.994 40.2355L23.6904 40.753C25.5545 41.8466 27.6472 42.4317 29.7879 42.4655L29.7974 41.8656ZM23.994 40.2355C22.131 39.1423 20.6214 37.5835 19.5951 35.705L19.0685 35.9927C20.147 37.9667 21.7338 39.6049 23.6903 40.753L23.994 40.2355ZM50.463 42.9842C54.587 42.9842 57.9422 46.3394 57.9422 50.463H58.5422C58.5422 46.008 54.9183 42.3842 50.463 42.3842V42.9842ZM57.9422 50.463C57.9422 52.1176 57.4011 53.6474 56.4881 54.8879L56.9714 55.2436C57.9572 53.9042 58.5422 52.2507 58.5422 50.463H57.9422ZM56.962 54.8759C56.8402 54.7269 56.706 54.5848 56.5609 54.4511L56.1542 54.8922C56.2793 55.0075 56.394 55.1291 56.4974 55.2556L56.962 54.8759ZM56.5604 54.4505C55.7883 53.7424 54.7608 53.3563 53.6705 53.3563V53.9563C54.6191 53.9563 55.4995 54.2917 56.1548 54.8927L56.5604 54.4505ZM53.6705 53.3563H47.2769V53.9563H53.6705V53.3563ZM47.2769 53.3563C46.1862 53.3563 45.1586 53.7428 44.3887 54.4503L44.7947 54.8921C45.4475 54.2921 46.3278 53.9563 47.2769 53.9563V53.3563ZM44.3891 54.4499C44.2374 54.5887 44.099 54.7366 43.9738 54.8914L44.4405 55.2685C44.547 55.1368 44.6649 55.0109 44.7942 54.8925L44.3891 54.4499ZM44.4483 54.9015C43.5288 53.6589 42.9842 52.1239 42.9842 50.463H42.3842C42.3842 52.2573 42.973 53.9165 43.966 55.2584L44.4483 54.9015ZM42.9842 50.463C42.9842 46.3398 46.3398 42.9842 50.463 42.9842V42.3842C46.0085 42.3842 42.3842 46.0085 42.3842 50.463H42.9842ZM45.6876 56.5433C45.7625 56.4192 45.8605 56.2994 45.9823 56.1882L45.5778 55.7451C45.4158 55.893 45.2803 56.057 45.1739 56.2332L45.6876 56.5433ZM45.9831 56.1875C46.3093 55.8875 46.7659 55.7146 47.2769 55.7146V55.1146C46.6317 55.1146 46.0253 55.3335 45.577 55.7458L45.9831 56.1875ZM47.2769 55.7146H53.6705V55.1146H47.2769V55.7146ZM53.6705 55.7146C54.1815 55.7146 54.6392 55.8879 54.9661 56.1874L55.3714 55.745C54.9228 55.334 54.3158 55.1146 53.6705 55.1146V55.7146ZM54.9652 56.1866C55.0841 56.2964 55.1805 56.4132 55.2543 56.5331L55.7653 56.2187C55.6605 56.0484 55.5281 55.8896 55.3723 55.7458L54.9652 56.1866ZM55.3149 56.1478C54.0068 57.2657 52.3133 57.9422 50.463 57.9422V58.5422C52.4624 58.5422 54.2928 57.8106 55.7047 56.6039L55.3149 56.1478ZM50.463 57.9422C48.6197 57.9422 46.931 57.2705 45.6251 56.1597L45.2364 56.6168C46.646 57.8158 48.4711 58.5422 50.463 58.5422V57.9422ZM3.27805 4.91638C3.50566 5.11181 3.50564 5.11183 3.50563 5.11184C3.50564 5.11183 3.50563 5.11184 3.50564 5.11183C3.50565 5.11182 3.50568 5.11178 3.50573 5.11173C3.50583 5.11161 3.506 5.11141 3.50625 5.11112C3.50675 5.11055 3.50754 5.10963 3.50862 5.10838C3.51078 5.10588 3.5141 5.10205 3.51853 5.09695C3.5274 5.08676 3.54072 5.07151 3.55814 5.05177C3.59299 5.01228 3.64421 4.95483 3.70898 4.88383C3.83863 4.74173 4.02201 4.54592 4.23662 4.33147C4.67085 3.89757 5.2144 3.40627 5.69266 3.11975L5.38431 2.60505C4.83937 2.93151 4.2527 3.4672 3.81252 3.90704C3.58992 4.12947 3.40004 4.33223 3.26572 4.47946C3.19851 4.55313 3.14508 4.61305 3.10827 4.65476C3.08987 4.67562 3.07561 4.69193 3.06585 4.70315C3.06097 4.70876 3.05722 4.71309 3.05463 4.71608C3.05334 4.71758 3.05234 4.71873 3.05164 4.71955C3.05129 4.71996 3.05101 4.72028 3.05081 4.72051C3.05071 4.72063 3.05063 4.72073 3.05057 4.7208C3.05053 4.72084 3.0505 4.72087 3.05048 4.72089C3.05046 4.72093 3.05043 4.72095 3.27805 4.91638ZM1.86493 3.87085C2.10004 4.05719 2.10002 4.05722 2.1 4.05724C2.1 4.05724 2.09999 4.05725 2.09999 4.05725C2.09999 4.05725 2.10002 4.05722 2.10006 4.05716C2.10015 4.05706 2.10031 4.05685 2.10055 4.05655C2.10103 4.05595 2.10182 4.05495 2.10292 4.05358C2.10511 4.05085 2.10852 4.0466 2.11312 4.04091C2.12231 4.02953 2.13625 4.0124 2.15466 3.99009C2.19149 3.94546 2.24618 3.88016 2.31658 3.7988C2.45746 3.63597 2.66078 3.40935 2.90935 3.15557C3.40923 2.6452 4.08058 2.03694 4.78742 1.61266L4.47863 1.09822C3.70827 1.56063 2.99557 2.21007 2.4807 2.73573C2.2219 2.99997 2.01017 3.23595 1.86285 3.40621C1.78914 3.4914 1.73144 3.56027 1.6919 3.60818C1.67213 3.63214 1.65689 3.65086 1.64646 3.66378C1.64124 3.67023 1.63722 3.67524 1.63444 3.67872C1.63305 3.68046 1.63196 3.68181 1.63119 3.68278C1.63081 3.68327 1.6305 3.68365 1.63027 3.68394C1.63016 3.68408 1.63006 3.6842 1.62999 3.6843C1.62995 3.68435 1.62991 3.6844 1.62989 3.68442C1.62985 3.68447 1.62982 3.68451 1.86493 3.87085ZM38.2379 28.0364L38.2386 28.0375L38.7285 27.6911L38.7278 27.69L38.2379 28.0364ZM38.2384 28.0372C38.9433 29.0365 39.6594 30.0676 39.4167 31.559L40.0089 31.6554C40.2952 29.896 39.4242 28.6773 38.7287 27.6913L38.2384 28.0372ZM39.4167 31.559C39.2089 32.8366 38.4252 33.5153 37.7294 34.1108L38.1195 34.5667C38.8149 33.9714 39.7629 33.168 40.0089 31.6554L39.4167 31.559ZM37.7285 34.1115L37.7275 34.1124L38.1193 34.5668L38.1203 34.566L37.7285 34.1115ZM27.4515 24.9567L27.4538 24.9574L27.6352 24.3855L27.633 24.3848L27.4515 24.9567ZM27.4538 24.9574C27.8703 25.0894 28.4156 25.2627 28.9161 25.3551C29.1666 25.4014 29.4192 25.43 29.6475 25.4194C29.8704 25.4089 30.1094 25.3594 30.2949 25.2117L29.9212 24.7423C29.8789 24.7759 29.7886 24.8121 29.6195 24.82C29.4558 24.8277 29.2536 24.8073 29.0251 24.7651C28.5679 24.6807 28.0591 24.5198 27.6351 24.3854L27.4538 24.9574ZM31.1331 40.5551L31.1335 40.5578L31.7274 40.4719L31.727 40.4691L31.1331 40.5551ZM31.1335 40.5577C31.1695 40.8066 31.2513 41.3743 31.2509 42.0669L31.8509 42.0673C31.8514 41.3297 31.7642 40.727 31.7274 40.472L31.1335 40.5577ZM23.6716 36.3637C23.4706 36.0003 23.4562 35.6219 23.5375 35.2383C23.6204 34.8468 23.7978 34.4716 23.9637 34.1236L23.4221 33.8654C23.2608 34.2039 23.0506 34.6419 22.9505 35.114C22.8489 35.5939 22.8563 36.1295 23.1466 36.6542L23.6716 36.3637ZM23.9638 34.1234L23.9643 34.1224L23.4225 33.8646L23.422 33.8656L23.9638 34.1234ZM38.5534 38.2345L38.5467 38.2403L38.9385 38.6947L38.9451 38.689L38.5534 38.2345ZM38.5467 38.2403L38.5401 38.246L38.9318 38.7004L38.9385 38.6947L38.5467 38.2403ZM16.5635 54.4526C16.5947 54.3978 16.6306 54.3119 16.6654 54.2235C16.7028 54.1285 16.7468 54.0095 16.7946 53.8757C16.8903 53.6079 17.0034 53.2742 17.1125 52.9406C17.2216 52.6069 17.3274 52.2713 17.4083 51.9994C17.4487 51.8636 17.4833 51.7421 17.5092 51.644C17.5332 51.5529 17.555 51.4629 17.5621 51.4009L16.9661 51.3322C16.9661 51.3321 16.9656 51.336 16.9639 51.3453C16.9622 51.354 16.9599 51.3655 16.9566 51.38C16.9501 51.4089 16.9409 51.446 16.9291 51.4909C16.9054 51.5806 16.8727 51.6955 16.8332 51.8283C16.7543 52.0936 16.6502 52.4239 16.5423 52.7541C16.4343 53.0843 16.323 53.4125 16.2296 53.6738C16.1828 53.8046 16.1412 53.917 16.107 54.0039C16.0899 54.0473 16.0753 54.0829 16.0633 54.1104C16.0573 54.1241 16.0523 54.1349 16.0484 54.1431C16.0464 54.1472 16.0449 54.1503 16.0437 54.1525C16.0426 54.1548 16.042 54.1557 16.0421 54.1555L16.5635 54.4526ZM18.7124 51.5339C18.705 51.599 18.6579 51.8092 18.5745 52.1241C18.4938 52.4289 18.3849 52.8099 18.2631 53.2016C18.1412 53.5937 18.0071 53.9934 17.8762 54.3366C17.7426 54.6866 17.6203 54.9558 17.5249 55.1015L18.0269 55.4301C18.1608 55.2254 18.3023 54.9027 18.4367 54.5506C18.5737 54.1916 18.7119 53.7791 18.836 53.3798C18.9603 52.9802 19.0715 52.591 19.1545 52.2778C19.2348 51.9747 19.2951 51.7192 19.3085 51.6021L18.7124 51.5339ZM38.9182 38.7181L38.9259 38.7093L38.4763 38.312L38.4686 38.3208L38.9182 38.7181ZM38.9256 38.7097C38.9359 38.6981 38.9424 38.691 38.9481 38.6853L38.5238 38.2611C38.505 38.2799 38.4888 38.298 38.4766 38.3117L38.9256 38.7097ZM25.3245 20.7359C25.8079 20.8073 26.7289 20.7816 27.4981 20.7426C27.8893 20.7227 28.2521 20.6988 28.5169 20.6797C28.6494 20.6702 28.7575 20.6619 28.8326 20.656C28.8702 20.6531 28.8995 20.6507 28.9195 20.6491C28.9294 20.6483 28.9371 20.6476 28.9423 20.6472C28.9449 20.647 28.9469 20.6468 28.9482 20.6467C28.9489 20.6467 28.9494 20.6466 28.9497 20.6466C28.9499 20.6466 28.9501 20.6466 28.9502 20.6466C28.9502 20.6465 28.9502 20.6465 28.9503 20.6465C28.9503 20.6465 28.9503 20.6465 28.9252 20.3476C28.9 20.0487 28.9 20.0487 28.9 20.0487C28.9 20.0487 28.9 20.0487 28.8999 20.0487C28.8999 20.0487 28.8998 20.0487 28.8996 20.0487C28.8993 20.0487 28.8989 20.0487 28.8983 20.0488C28.8971 20.0489 28.8952 20.0491 28.8927 20.0493C28.8878 20.0497 28.8804 20.0503 28.8707 20.0511C28.8512 20.0527 28.8225 20.055 28.7856 20.0579C28.7117 20.0637 28.6049 20.0719 28.474 20.0813C28.212 20.1001 27.8536 20.1238 27.4677 20.1434C26.6825 20.1832 25.8251 20.2033 25.4122 20.1424L25.3245 20.7359ZM28.9556 22.4024C28.9963 22.4035 29.0375 22.4026 29.0788 22.3995L29.0343 21.8012C29.0135 21.8027 28.993 21.8032 28.9729 21.8026L28.9556 22.4024ZM25.2744 21.887C24.6275 21.9018 23.8221 21.6223 23.1498 21.3156C22.8198 21.1651 22.5329 21.0133 22.3287 20.8992C22.2267 20.8422 22.1456 20.7947 22.0904 20.7618C22.0628 20.7453 22.0418 20.7325 22.0278 20.7239C22.0208 20.7197 22.0156 20.7164 22.0122 20.7143C22.0106 20.7133 22.0093 20.7126 22.0086 20.7121C22.0082 20.7119 22.008 20.7117 22.0079 20.7116C22.0078 20.7116 22.0078 20.7116 22.0078 20.7116C22.0078 20.7116 22.0078 20.7116 22.0078 20.7116C22.0078 20.7116 22.0078 20.7116 21.8481 20.9656C21.6885 21.2195 21.6885 21.2196 21.6886 21.2196C21.6886 21.2196 21.6887 21.2197 21.6887 21.2197C21.6888 21.2198 21.689 21.2199 21.6892 21.22C21.6895 21.2202 21.69 21.2205 21.6906 21.2209C21.6918 21.2216 21.6934 21.2227 21.6956 21.224C21.6999 21.2267 21.706 21.2305 21.714 21.2354C21.73 21.2452 21.7531 21.2592 21.7829 21.277C21.8424 21.3125 21.9285 21.3628 22.036 21.4229C22.2507 21.5429 22.5524 21.7026 22.9008 21.8615C23.5855 22.1738 24.4967 22.5049 25.2881 22.4868L25.2744 21.887ZM25.2881 22.4868L28.9711 22.4024L28.9574 21.8026L25.2744 21.887L25.2881 22.4868Z" fill="#C8F5E1" mask="url(#path-4-inside-1)"/>
<path d="M47.9689 51.1583L48.0435 51.0282L49.0248 51.5912C49.3255 51.7634 49.6628 51.85 50.0002 51.85C50.3377 51.85 50.6749 51.7634 50.9756 51.5912L47.9689 51.1583ZM47.9689 51.1583L48.0435 51.0282C47.49 50.711 47.1504 50.1373 47.15 49.5351L47.15 47.0635C47.15 46.017 48.0574 45.15 49.1912 45.15H50.8088C51.943 45.15 52.85 46.017 52.85 47.0635V49.5352C52.85 50.1373 52.5105 50.711 51.957 51.0282L51.9569 51.0282L50.9757 51.5912L47.9689 51.1583ZM49.7961 50.4303L49.7962 50.4303L50.1292 50.3002L50.2038 50.4303L50.2039 50.4303C50.204 50.4302 50.2041 50.4302 50.2041 50.4301L51.1848 49.868L51.1106 49.7376L51.1852 49.8677L51.1849 49.8679C51.3042 49.7999 51.3813 49.6738 51.3813 49.5352V47.0635C51.3813 46.7526 51.1167 46.5143 50.8088 46.5143H49.1917C48.8842 46.5143 48.6196 46.7527 48.6196 47.0635V49.5352C48.6196 49.6737 48.6966 49.7997 48.8153 49.8677C48.8153 49.8677 48.8153 49.8678 48.8154 49.8678L49.7961 50.4303Z" fill="#333333" stroke="#C8F5E1" stroke-width="0.3"/>
</svg>
