<svg width="60" height="60" viewBox="0 0 60 60" fill="none" xmlns="http://www.w3.org/2000/svg">
<path d="M1.5 12.15H1.35V12.3V55.1C1.35 56.0397 1.66575 56.7779 2.29393 57.4061C2.9239 58.036 3.7629 58.35 4.6 58.35H54.9C55.8397 58.35 56.5779 58.0343 57.2061 57.4061C57.8441 56.768 58.05 55.9231 58.05 55.1V12.3V12.15H57.9H1.5ZM58 10.85H58.15V10.7V4.8C58.15 3.8603 57.8343 3.12212 57.2061 2.49393C56.5761 1.86396 55.7371 1.55 54.9 1.55H4.6C3.75939 1.55 3.02636 1.86611 2.40397 2.38477L2.40358 2.38429L2.39393 2.39393C1.76396 3.0239 1.45 3.8629 1.45 4.7V10.7V10.85H1.6H58ZM55 0.15C56.1588 0.15 57.321 0.633144 58.1939 1.50607C59.0598 2.37196 59.4511 3.53149 59.55 4.70626V55C59.55 56.1588 59.0669 57.321 58.1939 58.1939C57.321 59.0669 56.1588 59.55 55 59.55H4.7C3.54125 59.55 2.37899 59.0669 1.50607 58.1939C0.633145 57.321 0.15 56.1588 0.15 55V4.7C0.15 3.53271 0.538833 2.3733 1.40607 1.50607C2.27899 0.633144 3.44125 0.15 4.6 0.15H55Z" fill="#333333" stroke="#FEEEEE" stroke-width="0.3"/>
<path d="M4.70607 3.90607L4.70651 3.9065L4.71524 3.89603C5.17602 3.34309 5.8245 3.15 6.6 3.15H26C26.6586 3.15 27.3209 3.43303 27.7939 3.90607C28.2631 4.37519 28.55 5.13572 28.55 5.8C28.55 6.4586 28.267 7.1209 27.7939 7.59393C27.3209 8.06697 26.6586 8.35 26 8.35H6.6C5.84005 8.35 5.184 8.06648 4.71524 7.50397L4.71571 7.50358L4.70607 7.49393C4.23303 7.0209 3.95 6.3586 3.95 5.7C3.95 5.0414 4.23303 4.3791 4.70607 3.90607ZM27.2423 5.74743L27.25 5.72434V5.7C27.25 5.37023 27.1406 5.02843 26.9061 4.79393C26.6716 4.55944 26.3298 4.45 26 4.45H6.6C6.27023 4.45 5.92843 4.55944 5.69394 4.79393C5.45944 5.02843 5.35 5.37023 5.35 5.7C5.35 6.02977 5.45944 6.37157 5.69394 6.60607C5.92843 6.84056 6.27023 6.95 6.6 6.95H25.9C26.2298 6.95 26.5716 6.84056 26.8061 6.60607C27.0313 6.38081 27.1409 6.05184 27.2364 5.76516L27.2423 5.74743Z" fill="#333333" stroke="#FEEEEE" stroke-width="0.3"/>
<path d="M55.65 5.70002C55.65 6.61129 54.9113 7.35002 54 7.35002C53.0887 7.35002 52.35 6.61129 52.35 5.70002C52.35 4.78875 53.0887 4.05002 54 4.05002C54.9113 4.05002 55.65 4.78875 55.65 5.70002Z" fill="#333333" stroke="#FEEEEE" stroke-width="0.3"/>
<path d="M49.85 5.70002C49.85 6.61129 49.1113 7.35002 48.2 7.35002C47.2887 7.35002 46.55 6.61129 46.55 5.70002C46.55 4.78876 47.2887 4.05002 48.2 4.05002C49.1113 4.05002 49.85 4.78875 49.85 5.70002Z" fill="#333333" stroke="#FEEEEE" stroke-width="0.3"/>
<path d="M18.8939 21.3939L18.85 21.4378V21.5V28.9C18.85 28.979 18.8294 29.0874 18.7952 29.19C18.765 29.2808 18.731 29.3461 18.7065 29.379C18.5101 29.4768 18.351 29.55 18.2 29.55H6.6C6.40942 29.55 6.26989 29.5475 6.12276 29.4101C6.02406 29.212 5.95 29.0519 5.95 28.9V17.3C5.95 17.1094 5.95251 16.9699 6.08993 16.8227C6.28802 16.724 6.4481 16.65 6.6 16.65H17.8H17.8639L17.9081 16.6039L17.8 16.5L17.9082 16.6039L17.9082 16.6038L17.9086 16.6035L17.9099 16.6021L17.9153 16.5965L17.9362 16.5748L18.0158 16.4922C18.0845 16.421 18.1828 16.3191 18.3015 16.1965C18.5389 15.9513 18.8574 15.6235 19.1821 15.2925C19.5069 14.9615 19.8374 14.6279 20.0989 14.3711C20.2297 14.2425 20.3425 14.1341 20.4282 14.055C20.4712 14.0154 20.5064 13.9841 20.533 13.9618C20.5516 13.9462 20.5621 13.9384 20.5664 13.9352C20.5694 13.933 20.5694 13.933 20.5671 13.9341C20.5981 13.9187 20.627 13.9038 20.6544 13.8897C20.8168 13.8063 20.9263 13.75 21.1 13.75C21.2284 13.75 21.3075 13.7509 21.3791 13.7699C21.4433 13.787 21.5091 13.8212 21.5939 13.906L23.4767 15.7888C23.5757 15.9874 23.65 16.1478 23.65 16.3C23.65 16.4977 23.6473 16.6405 23.4939 16.7939L18.8939 21.3939ZM17.3 28.35H17.45V28.2V28V23.3V22.9378L17.1939 23.1939L13.8112 26.5767C13.6126 26.6756 13.4522 26.75 13.3 26.75C13.1022 26.75 12.9594 26.7473 12.8061 26.5939L8.92331 22.7112C8.82433 22.5126 8.75 22.3522 8.75 22.2C8.75 22.0022 8.7527 21.8594 8.90607 21.706L10.7888 19.8233C10.9874 19.7243 11.1478 19.65 11.3 19.65C11.4522 19.65 11.6126 19.7243 11.8112 19.8233L13.1939 21.206L13.3 21.3121L13.4061 21.206L16.3061 18.306L16.5621 18.05H16.2H7.4H7.25V18.2V28.2V28.35H7.4H17.3ZM13.3 24.9L13.1939 25.006L13.2988 25.1109L13.4048 25.0073L22.1048 16.5073L22.2134 16.4012L22.1061 16.2939L21.3061 15.4939L21.2 15.3878L21.0939 15.4939L13.8976 22.6903L13.8884 22.6981C13.8798 22.7053 13.8668 22.716 13.8504 22.7289C13.8173 22.7549 13.7709 22.7894 13.7174 22.8236C13.6026 22.897 13.4844 22.95 13.4 22.95C13.3156 22.95 13.1974 22.897 13.0826 22.8236C13.0291 22.7894 12.9827 22.7549 12.9496 22.7289C12.9332 22.716 12.9202 22.7053 12.9116 22.6981L12.9024 22.6903L11.5061 21.2939L11.4 21.1878L11.2939 21.2939L10.4939 22.0939L10.3879 22.2L10.4939 22.306L12.2393 24.0514L12.9203 24.7324L13.1212 24.9333L13.1752 24.9873L13.1892 25.0013L13.1927 25.0048L13.1936 25.0057L13.1938 25.0059L13.1939 25.006L13.1939 25.006L13.3 24.9Z" fill="#333333" stroke="#FEEEEE" stroke-width="0.3"/>
<path d="M18.8939 38.7939L18.85 38.8379V38.9V46.4C18.85 46.547 18.7785 46.6982 18.709 46.7778C18.5114 46.8762 18.3516 46.95 18.2 46.95H6.6C6.40223 46.95 6.25943 46.9473 6.10607 46.7939L6.08886 46.7767L6.06708 46.7658C6.01243 46.7385 5.9867 46.7033 5.97052 46.6386C5.951 46.5605 5.95 46.4566 5.95 46.3V34.7C5.95 34.5094 5.95251 34.3699 6.08993 34.2228C6.28802 34.1241 6.4481 34.05 6.6 34.05H17.8H17.8621L17.9061 34.0061L20.5888 31.3233C20.7874 31.2243 20.9478 31.15 21.1 31.15C21.2978 31.15 21.4406 31.1527 21.5939 31.3061L23.4767 33.1888C23.5757 33.3874 23.65 33.5478 23.65 33.7C23.65 33.8978 23.6473 34.0406 23.4939 34.1939L18.8939 38.7939ZM17.55 45.4V45.25H17.45V40.7V40.3379L17.1939 40.5939L13.8112 43.9767C13.6126 44.0757 13.4522 44.15 13.3 44.15C13.1022 44.15 12.9594 44.1473 12.8061 43.9939L8.92331 40.1112C8.82433 39.9126 8.75 39.7522 8.75 39.6C8.75 39.4022 8.7527 39.2594 8.90607 39.1061L10.7888 37.2233C10.9874 37.1243 11.1478 37.05 11.3 37.05C11.4522 37.05 11.6126 37.1243 11.8112 37.2233L13.1939 38.6061L13.3 38.7121L13.4061 38.6061L16.3061 35.7061L16.5621 35.45H16.2H7.4H7.25V35.6V45.6V45.75H7.4H17.4H17.55V45.6V45.4ZM13.2939 42.4061L13.4 42.5121L13.5061 42.4061L13.6048 42.3073L13.6061 42.3061L22.2048 33.9073L22.3134 33.8013L22.2061 33.6939L21.4061 32.8939L21.3 32.7879L21.1939 32.8939L13.9939 40.0939C13.942 40.1459 13.8998 40.1876 13.86 40.2175C13.8409 40.2318 13.826 40.2405 13.8149 40.2454C13.8041 40.2501 13.7997 40.25 13.8 40.25H13.7379L13.6939 40.2939C13.6636 40.3243 13.6378 40.3359 13.6136 40.342C13.5844 40.3493 13.5528 40.35 13.5 40.35C13.4923 40.35 13.4758 40.3452 13.4171 40.3158C13.4146 40.3146 13.4119 40.3132 13.409 40.3118C13.3768 40.2955 13.3252 40.2694 13.2653 40.257C13.2119 40.2132 13.1604 40.1875 13.1206 40.1676L13.1171 40.1658C13.0671 40.1409 13.0371 40.125 13.0061 40.0939L11.6061 38.6939L11.5 38.5879L11.3939 38.6939L10.5939 39.4939L10.4879 39.6L10.5939 39.7061L13.2939 42.4061Z" fill="#333333" stroke="#FEEEEE" stroke-width="0.3"/>
<path d="M25.25 26.35H53.65V27.65H25.25V26.35Z" fill="#333333" stroke="#FEEEEE" stroke-width="0.3"/>
<path d="M25.25 22.45H53.65V23.75H25.25V22.45Z" fill="#333333" stroke="#FEEEEE" stroke-width="0.3"/>
<path d="M25.25 43.75H53.65V45.05H25.25V43.75Z" fill="#333333" stroke="#FEEEEE" stroke-width="0.3"/>
<path d="M25.25 39.85H53.65V41.15H25.25V39.85Z" fill="#333333" stroke="#FEEEEE" stroke-width="0.3"/>
<path d="M53.2 54.45H53.35V54.3V54.1V50.1V49.95H53.2H33.5H33.35V50.1V54.3V54.45H33.5H53.2ZM54 48.65C54.1906 48.65 54.3301 48.6525 54.4772 48.7899C54.5759 48.988 54.65 49.1481 54.65 49.3V55.1C54.65 55.203 54.6494 55.3113 54.6286 55.405C54.6076 55.4992 54.5737 55.5455 54.5329 55.5658C54.3242 55.6702 54.1577 55.75 54 55.75H32.7C32.597 55.75 32.4887 55.7494 32.395 55.7286C32.3008 55.7076 32.2545 55.6737 32.2342 55.6329C32.1298 55.4242 32.05 55.2577 32.05 55.1V49.3C32.05 49.1094 32.0525 48.9699 32.1899 48.8228C32.388 48.7241 32.5481 48.65 32.7 48.65H54Z" fill="#333333" stroke="#FEEEEE" stroke-width="0.3"/>
</svg>
