<svg width="61" height="60" viewBox="0 0 61 60" fill="none" xmlns="http://www.w3.org/2000/svg">
<mask id="path-1-inside-1" fill="white">
<path d="M58.412 18.6151C58.692 18.6151 58.966 18.5342 59.201 18.3821C60.451 17.5951 59.963 15.5051 59.562 14.3291C58.6976 11.727 56.9574 9.5054 54.638 8.04306C55.1925 7.99903 55.7489 7.98368 56.305 7.99706C58.377 8.05406 58.761 7.09706 58.805 6.52306C58.938 4.73706 55.555 2.93206 52.555 2.57006C49.7766 2.12243 46.9767 3.23623 45.265 5.47006C44.41 2.78712 42.1486 0.791965 39.38 0.278058C36.431 -0.395942 32.64 0.161058 32.162 1.88706C32.008 2.44506 32.044 3.47606 34.018 4.11906C34.5445 4.29166 35.0616 4.49194 35.567 4.71906C32.8909 5.31495 30.5038 6.81961 28.812 8.97706C28.037 9.94906 26.872 11.7511 27.781 12.9141C28.0856 13.303 28.5595 13.5206 29.053 13.4981C29.6396 13.4695 30.2135 13.3172 30.737 13.0511C31.3177 12.7869 31.9119 12.5532 32.517 12.3511C31.385 14.6631 30.976 17.2651 31.462 18.5511C31.632 19.107 32.1032 19.518 32.677 19.6111C32.7413 19.6198 32.8061 19.6241 32.871 19.6241C33.832 19.6241 34.553 18.6461 34.799 18.3121C36.4027 16.2079 38.4201 14.4543 40.727 13.1591L36.276 34.5241C34.8608 34.2865 33.4331 34.1299 32 34.0551V24.9971C32 23.8925 31.1046 22.9971 30 22.9971H5C3.89543 22.9971 3 23.8925 3 24.9971V40.8751L0.03 52.7541C0.022 52.7881 0.03 52.8221 0.03 52.8541C0.0163476 52.9009 0.006318 52.9487 0 52.9971V56.9971C0 58.6539 1.34315 59.9971 3 59.9971H32C33.6569 59.9971 35 58.6539 35 56.9971V52.9971C34.9942 52.9494 34.9849 52.9023 34.972 52.8561C34.967 52.8221 34.978 52.7881 34.972 52.7561L34.21 49.7101C34.657 49.4101 35.074 49.0871 35.462 48.7671C36.5654 47.6362 38.0785 46.9985 39.6585 46.9985C41.2385 46.9985 42.7516 47.6362 43.855 48.7671C46.8974 51.7397 51.7566 51.7397 54.799 48.7671C55.9013 47.6316 57.4176 46.9928 59 46.9971C59.5523 46.9971 60 46.5493 60 45.9971C60 45.4448 59.5523 44.9971 59 44.9971C57.0706 44.9705 55.2055 45.6903 53.794 47.0061C52.922 42.8481 49.32 39.1191 43.788 36.7061L46.932 14.2521C48.6651 16.2479 49.9712 18.5774 50.77 21.0971C50.896 21.5221 51.283 22.8171 52.328 23.0371C52.4198 23.0558 52.5133 23.0652 52.607 23.0651C53.0872 23.0567 53.5374 22.8299 53.83 22.4491C54.724 21.3991 55.218 18.8051 54.93 16.2441C55.4329 16.6412 55.9145 17.0644 56.373 17.5121C56.8866 18.127 57.6163 18.5217 58.412 18.6151ZM56.056 11.9761C57.0406 13.2322 57.7029 14.7102 57.985 16.2811C57.922 16.2261 57.853 16.1621 57.776 16.0871C56.6023 14.9411 55.302 13.9326 53.9 13.0811C51.7901 11.7998 49.526 10.7917 47.162 10.0811C48.1161 9.63702 49.0974 9.25392 50.1 8.93406C52.4793 8.84295 54.735 9.99503 56.056 11.9761ZM41.541 38.3251L37.666 37.6511L38.033 35.8891C38.0358 35.8836 38.0381 35.8779 38.04 35.8721C38.04 35.8661 38.04 35.8621 38.04 35.8571L43.01 12.0111C43.51 11.7931 43.915 11.6361 44.21 11.5281C44.45 11.7281 44.78 12.0131 45.175 12.3861L41.541 38.3251ZM50.441 4.55806C50.7456 4.51694 51.0526 4.49656 51.36 4.49706C53.0992 4.52558 54.7949 5.04561 56.251 5.99706C52.6735 6.00959 49.1464 6.84226 45.941 8.43106C46.5351 6.35862 48.3032 4.83689 50.441 4.55806ZM40.7 2.86106C42.6177 3.84574 43.768 5.87484 43.628 8.02606C41.1522 5.44272 38.1127 3.46661 34.747 2.25206C36.7426 1.76791 38.8438 1.98287 40.7 2.86106ZM29.9 11.2351C29.8 11.2791 29.716 11.3161 29.638 11.3471C30.4334 9.96327 31.5563 8.79581 32.908 7.94706C34.8178 6.52978 37.3273 6.20781 39.533 7.09706C40.372 7.73651 41.1696 8.42857 41.921 9.16906C39.4566 9.04012 36.9857 9.22527 34.568 9.72006C32.9595 10.046 31.3934 10.5543 29.9 11.2351ZM33.253 17.0491C33.4068 15.0732 34.128 13.1838 35.33 11.6081C36.9634 11.2942 38.6227 11.1342 40.286 11.1301C37.545 12.5773 35.1473 14.5957 33.253 17.0491ZM5 24.9971H30V39.9971H5V24.9971ZM4.781 41.9971H30.219L32.719 51.9971H23.919L23.653 48.8291C23.5713 47.7905 22.7017 46.9912 21.66 46.9971H13.34C12.2979 46.9913 11.4282 47.7911 11.347 48.8301L11.081 51.9971H2.281L4.781 41.9971ZM21.912 51.9971H13.088L13.34 48.9971H21.66L21.912 51.9971ZM33 56.9971C33 57.5493 32.5523 57.9971 32 57.9971H3C2.44772 57.9971 2 57.5493 2 56.9971V53.9971H33V56.9971ZM51.965 48.3561C51.1595 48.8007 50.2498 49.022 49.33 48.9971C47.7477 49.0003 46.2318 48.3608 45.13 47.2251C42.0874 44.2566 37.2326 44.2566 34.19 47.2251C34.021 47.3641 33.856 47.4931 33.69 47.6251L32 40.8751V36.0561C33.2958 36.128 34.5867 36.2706 35.867 36.4831L35.709 37.2431C35.5982 37.7735 35.7075 38.3262 36.0117 38.7747C36.316 39.2231 36.7892 39.5289 37.323 39.6221L41.2 40.2971C41.3149 40.3169 41.4314 40.327 41.548 40.3271C42.4858 40.3275 43.2952 39.67 43.487 38.7521C48.553 41.0971 51.652 44.5971 51.965 48.3561ZM52.655 20.4271C51.7016 17.4773 50.1261 14.7666 48.035 12.4781C49.598 13.0444 51.1046 13.7558 52.535 14.6031C53.1368 16.492 53.1785 18.5149 52.655 20.4271Z"/>
</mask>
<path d="M58.412 18.6151C58.692 18.6151 58.966 18.5342 59.201 18.3821C60.451 17.5951 59.963 15.5051 59.562 14.3291C58.6976 11.727 56.9574 9.5054 54.638 8.04306C55.1925 7.99903 55.7489 7.98368 56.305 7.99706C58.377 8.05406 58.761 7.09706 58.805 6.52306C58.938 4.73706 55.555 2.93206 52.555 2.57006C49.7766 2.12243 46.9767 3.23623 45.265 5.47006C44.41 2.78712 42.1486 0.791965 39.38 0.278058C36.431 -0.395942 32.64 0.161058 32.162 1.88706C32.008 2.44506 32.044 3.47606 34.018 4.11906C34.5445 4.29166 35.0616 4.49194 35.567 4.71906C32.8909 5.31495 30.5038 6.81961 28.812 8.97706C28.037 9.94906 26.872 11.7511 27.781 12.9141C28.0856 13.303 28.5595 13.5206 29.053 13.4981C29.6396 13.4695 30.2135 13.3172 30.737 13.0511C31.3177 12.7869 31.9119 12.5532 32.517 12.3511C31.385 14.6631 30.976 17.2651 31.462 18.5511C31.632 19.107 32.1032 19.518 32.677 19.6111C32.7413 19.6198 32.8061 19.6241 32.871 19.6241C33.832 19.6241 34.553 18.6461 34.799 18.3121C36.4027 16.2079 38.4201 14.4543 40.727 13.1591L36.276 34.5241C34.8608 34.2865 33.4331 34.1299 32 34.0551V24.9971C32 23.8925 31.1046 22.9971 30 22.9971H5C3.89543 22.9971 3 23.8925 3 24.9971V40.8751L0.03 52.7541C0.022 52.7881 0.03 52.8221 0.03 52.8541C0.0163476 52.9009 0.006318 52.9487 0 52.9971V56.9971C0 58.6539 1.34315 59.9971 3 59.9971H32C33.6569 59.9971 35 58.6539 35 56.9971V52.9971C34.9942 52.9494 34.9849 52.9023 34.972 52.8561C34.967 52.8221 34.978 52.7881 34.972 52.7561L34.21 49.7101C34.657 49.4101 35.074 49.0871 35.462 48.7671C36.5654 47.6362 38.0785 46.9985 39.6585 46.9985C41.2385 46.9985 42.7516 47.6362 43.855 48.7671C46.8974 51.7397 51.7566 51.7397 54.799 48.7671C55.9013 47.6316 57.4176 46.9928 59 46.9971C59.5523 46.9971 60 46.5493 60 45.9971C60 45.4448 59.5523 44.9971 59 44.9971C57.0706 44.9705 55.2055 45.6903 53.794 47.0061C52.922 42.8481 49.32 39.1191 43.788 36.7061L46.932 14.2521C48.6651 16.2479 49.9712 18.5774 50.77 21.0971C50.896 21.5221 51.283 22.8171 52.328 23.0371C52.4198 23.0558 52.5133 23.0652 52.607 23.0651C53.0872 23.0567 53.5374 22.8299 53.83 22.4491C54.724 21.3991 55.218 18.8051 54.93 16.2441C55.4329 16.6412 55.9145 17.0644 56.373 17.5121C56.8866 18.127 57.6163 18.5217 58.412 18.6151ZM56.056 11.9761C57.0406 13.2322 57.7029 14.7102 57.985 16.2811C57.922 16.2261 57.853 16.1621 57.776 16.0871C56.6023 14.9411 55.302 13.9326 53.9 13.0811C51.7901 11.7998 49.526 10.7917 47.162 10.0811C48.1161 9.63702 49.0974 9.25392 50.1 8.93406C52.4793 8.84295 54.735 9.99503 56.056 11.9761ZM41.541 38.3251L37.666 37.6511L38.033 35.8891C38.0358 35.8836 38.0381 35.8779 38.04 35.8721C38.04 35.8661 38.04 35.8621 38.04 35.8571L43.01 12.0111C43.51 11.7931 43.915 11.6361 44.21 11.5281C44.45 11.7281 44.78 12.0131 45.175 12.3861L41.541 38.3251ZM50.441 4.55806C50.7456 4.51694 51.0526 4.49656 51.36 4.49706C53.0992 4.52558 54.7949 5.04561 56.251 5.99706C52.6735 6.00959 49.1464 6.84226 45.941 8.43106C46.5351 6.35862 48.3032 4.83689 50.441 4.55806ZM40.7 2.86106C42.6177 3.84574 43.768 5.87484 43.628 8.02606C41.1522 5.44272 38.1127 3.46661 34.747 2.25206C36.7426 1.76791 38.8438 1.98287 40.7 2.86106ZM29.9 11.2351C29.8 11.2791 29.716 11.3161 29.638 11.3471C30.4334 9.96327 31.5563 8.79581 32.908 7.94706C34.8178 6.52978 37.3273 6.20781 39.533 7.09706C40.372 7.73651 41.1696 8.42857 41.921 9.16906C39.4566 9.04012 36.9857 9.22527 34.568 9.72006C32.9595 10.046 31.3934 10.5543 29.9 11.2351ZM33.253 17.0491C33.4068 15.0732 34.128 13.1838 35.33 11.6081C36.9634 11.2942 38.6227 11.1342 40.286 11.1301C37.545 12.5773 35.1473 14.5957 33.253 17.0491ZM5 24.9971H30V39.9971H5V24.9971ZM4.781 41.9971H30.219L32.719 51.9971H23.919L23.653 48.8291C23.5713 47.7905 22.7017 46.9912 21.66 46.9971H13.34C12.2979 46.9913 11.4282 47.7911 11.347 48.8301L11.081 51.9971H2.281L4.781 41.9971ZM21.912 51.9971H13.088L13.34 48.9971H21.66L21.912 51.9971ZM33 56.9971C33 57.5493 32.5523 57.9971 32 57.9971H3C2.44772 57.9971 2 57.5493 2 56.9971V53.9971H33V56.9971ZM51.965 48.3561C51.1595 48.8007 50.2498 49.022 49.33 48.9971C47.7477 49.0003 46.2318 48.3608 45.13 47.2251C42.0874 44.2566 37.2326 44.2566 34.19 47.2251C34.021 47.3641 33.856 47.4931 33.69 47.6251L32 40.8751V36.0561C33.2958 36.128 34.5867 36.2706 35.867 36.4831L35.709 37.2431C35.5982 37.7735 35.7075 38.3262 36.0117 38.7747C36.316 39.2231 36.7892 39.5289 37.323 39.6221L41.2 40.2971C41.3149 40.3169 41.4314 40.327 41.548 40.3271C42.4858 40.3275 43.2952 39.67 43.487 38.7521C48.553 41.0971 51.652 44.5971 51.965 48.3561ZM52.655 20.4271C51.7016 17.4773 50.1261 14.7666 48.035 12.4781C49.598 13.0444 51.1046 13.7558 52.535 14.6031C53.1368 16.492 53.1785 18.5149 52.655 20.4271Z" fill="#333333" stroke="#C8F5E1" stroke-width="0.8" mask="url(#path-1-inside-1)"/>
<path d="M8.56539 30.5625L8.56541 30.5625L10.5641 28.5638C10.8661 28.2498 10.8614 27.7517 10.5532 27.4435C10.245 27.1353 9.74692 27.1306 9.43295 27.4327L7.43427 29.4313C7.43427 29.4313 7.43426 29.4313 7.43425 29.4314C7.20554 29.6601 7.13714 30.0042 7.26093 30.3031C7.38472 30.6019 7.67631 30.7968 7.99979 30.7969L8.56539 30.5625ZM8.56539 30.5625C8.41541 30.7126 8.212 30.7969 7.99987 30.7969L8.56539 30.5625Z" fill="#333333" stroke="#C8F5E1" stroke-width="0.4"/>
<path d="M7.43191 34.4338L7.43193 34.4338L7.43439 34.4313L14.4331 27.4326C14.7471 27.1306 15.2452 27.1353 15.5534 27.4435C15.8616 27.7517 15.8663 28.2498 15.5642 28.5638L8.56555 35.5625L8.56553 35.5625L8.56311 35.565C8.36225 35.773 8.06481 35.8564 7.78511 35.7831C7.5054 35.7099 7.28697 35.4915 7.21375 35.2118C7.14054 34.9321 7.22395 34.6346 7.43191 34.4338Z" fill="#333333" stroke="#C8F5E1" stroke-width="0.4"/>
</svg>
