<svg width="72" height="60" viewBox="0 0 72 60" fill="none" xmlns="http://www.w3.org/2000/svg">
<path d="M11.9426 51.3372C11.9028 51.2666 11.8445 51.2083 11.7739 51.1684L4.6643 47.1693C4.45107 47.0478 4.17974 47.1222 4.05827 47.3354C4.01994 47.4027 3.99983 47.4789 4 47.5563V55.5546C4.0005 55.7128 4.08509 55.8589 4.22218 55.9381C4.35848 56.0177 4.52678 56.0191 4.6643 55.9416L11.7739 51.9425C11.9876 51.8219 12.0632 51.5509 11.9426 51.3372ZM4.8887 54.7948V48.3162L10.6475 51.5555L4.8887 54.7948Z" fill="#333333"/>
<path d="M23.6998 50.4V50.7H23.9998H66.8998V52.5H23.9998H23.6998V52.8V54.9H21.8998V52.8V52.5H21.5998H14.3V50.7H21.5998H21.8998V50.4V48.3H23.6998V50.4Z" fill="#333333" stroke="#E6E7FD" stroke-width="0.6"/>
<path d="M36.0008 9.29995L36.0005 9.29995C26.5608 9.31003 18.9109 16.96 18.9008 26.3996V26.3999C18.9008 35.844 26.5567 43.4999 36.0008 43.4999C45.4449 43.4999 53.1008 35.844 53.1008 26.3999C53.1008 16.9559 45.4449 9.29995 36.0008 9.29995ZM17.1008 26.3998C17.1009 15.9617 25.5627 7.49995 36.0008 7.49995C46.4389 7.49995 54.9008 15.9618 54.9008 26.3999C54.9008 36.8379 46.4391 45.2998 36.0011 45.2999C25.5679 45.2875 17.1133 36.833 17.1008 26.3998Z" fill="#333333" stroke="#E6E7FD" stroke-width="0.6"/>
<path d="M34.1577 34H23.4438V32.5063L29.104 26.2173C29.9425 25.2664 30.519 24.4953 30.8335 23.9038C31.1554 23.3049 31.3164 22.6872 31.3164 22.0508C31.3164 21.1973 31.0581 20.4972 30.5415 19.9507C30.0249 19.4041 29.3361 19.1309 28.4751 19.1309C27.4419 19.1309 26.637 19.4266 26.0605 20.0181C25.4915 20.6021 25.207 21.4181 25.207 22.4663H23.1294C23.1294 20.9614 23.6123 19.7448 24.5781 18.8164C25.5514 17.888 26.8504 17.4238 28.4751 17.4238C29.995 17.4238 31.1966 17.8244 32.0801 18.6255C32.9635 19.4191 33.4053 20.4785 33.4053 21.8037C33.4053 23.4134 32.3796 25.3301 30.3281 27.5537L25.9482 32.3042H34.1577V34ZM44.3213 26.8125C43.887 27.3291 43.3667 27.7446 42.7603 28.0591C42.1613 28.3735 41.5024 28.5308 40.7837 28.5308C39.8403 28.5308 39.0168 28.2987 38.313 27.8345C37.6167 27.3703 37.0776 26.7189 36.6958 25.8804C36.314 25.0343 36.123 24.1022 36.123 23.084C36.123 21.9909 36.3289 21.0063 36.7407 20.1304C37.16 19.2544 37.7515 18.5843 38.5151 18.1201C39.2788 17.6559 40.1698 17.4238 41.188 17.4238C42.8052 17.4238 44.078 18.0303 45.0063 19.2432C45.9422 20.4486 46.4102 22.0957 46.4102 24.1846V24.791C46.4102 27.973 45.7812 30.2977 44.5234 31.7651C43.2656 33.2251 41.3677 33.9738 38.8296 34.0112H38.4253V32.2593H38.8633C40.5778 32.2293 41.8955 31.7839 42.8164 30.9229C43.7373 30.0544 44.2389 28.6842 44.3213 26.8125ZM41.1206 26.8125C41.8169 26.8125 42.457 26.5991 43.041 26.1724C43.6325 25.7456 44.063 25.2178 44.3325 24.5889V23.7578C44.3325 22.3952 44.0368 21.2871 43.4453 20.4336C42.8538 19.5801 42.1051 19.1533 41.1992 19.1533C40.2858 19.1533 39.5521 19.5052 38.998 20.209C38.444 20.9053 38.167 21.8262 38.167 22.9717C38.167 24.0872 38.4328 25.0081 38.9644 25.7344C39.5034 26.4531 40.2222 26.8125 41.1206 26.8125Z" fill="#333333"/>
<path d="M34.1577 34V34.4H34.5577V34H34.1577ZM23.4438 34H23.0438V34.4H23.4438V34ZM23.4438 32.5063L23.1465 32.2388L23.0438 32.3529V32.5063H23.4438ZM29.104 26.2173L29.4013 26.4849L29.404 26.4819L29.104 26.2173ZM30.8335 23.9038L30.4812 23.7144L30.4803 23.716L30.8335 23.9038ZM26.0605 20.0181L25.7741 19.7389L25.7741 19.7389L26.0605 20.0181ZM25.207 22.4663V22.8663H25.607V22.4663H25.207ZM23.1294 22.4663H22.7294V22.8663H23.1294V22.4663ZM24.5781 18.8164L24.302 18.527L24.3009 18.528L24.5781 18.8164ZM32.0801 18.6255L31.8114 18.9218L31.8128 18.9231L32.0801 18.6255ZM30.3281 27.5537L30.0341 27.2825L30.034 27.2826L30.3281 27.5537ZM25.9482 32.3042L25.6542 32.0331L25.0354 32.7042H25.9482V32.3042ZM34.1577 32.3042H34.5577V31.9042H34.1577V32.3042ZM34.1577 33.6H23.4438V34.4H34.1577V33.6ZM23.8438 34V32.5063H23.0438V34H23.8438ZM23.7412 32.7739L29.4013 26.4849L28.8067 25.9497L23.1465 32.2388L23.7412 32.7739ZM29.404 26.4819C30.2484 25.5244 30.8498 24.7252 31.1867 24.0916L30.4803 23.716C30.1883 24.2654 29.6367 25.0084 28.804 25.9527L29.404 26.4819ZM31.1858 24.0932C31.5369 23.4401 31.7164 22.7578 31.7164 22.0508H30.9164C30.9164 22.6166 30.774 23.1696 30.4812 23.7144L31.1858 24.0932ZM31.7164 22.0508C31.7164 21.11 31.4286 20.3069 30.8322 19.6759L30.2508 20.2254C30.6876 20.6876 30.9164 21.2846 30.9164 22.0508H31.7164ZM30.8322 19.6759C30.2288 19.0376 29.4286 18.7309 28.4751 18.7309V19.5309C29.2436 19.5309 29.821 19.7707 30.2508 20.2254L30.8322 19.6759ZM28.4751 18.7309C27.3627 18.7309 26.4438 19.0518 25.7741 19.7389L26.347 20.2973C26.8303 19.8014 27.5211 19.5309 28.4751 19.5309V18.7309ZM25.7741 19.7389C25.1132 20.4172 24.807 21.3449 24.807 22.4663H25.607C25.607 21.4914 25.8699 20.7869 26.347 20.2972L25.7741 19.7389ZM25.207 22.0663H23.1294V22.8663H25.207V22.0663ZM23.5294 22.4663C23.5294 21.0555 23.978 19.9481 24.8553 19.1048L24.3009 18.528C23.2466 19.5415 22.7294 20.8673 22.7294 22.4663H23.5294ZM24.8542 19.1058C25.7382 18.2627 26.9306 17.8238 28.4751 17.8238V17.0238C26.7703 17.0238 25.3647 17.5134 24.302 18.527L24.8542 19.1058ZM28.4751 17.8238C29.9238 17.8238 31.02 18.2042 31.8114 18.9218L32.3488 18.3292C31.3732 17.4446 30.0661 17.0238 28.4751 17.0238V17.8238ZM31.8128 18.9231C32.6015 19.6315 33.0053 20.5774 33.0053 21.8037H33.8053C33.8053 20.3796 33.3256 19.2067 32.3474 18.3279L31.8128 18.9231ZM33.0053 21.8037C33.0053 23.2554 32.0704 25.0753 30.0341 27.2825L30.6221 27.8249C32.6887 25.5849 33.8053 23.5715 33.8053 21.8037H33.0053ZM30.034 27.2826L25.6542 32.0331L26.2423 32.5753L30.6222 27.8248L30.034 27.2826ZM25.9482 32.7042H34.1577V31.9042H25.9482V32.7042ZM33.7577 32.3042V34H34.5577V32.3042H33.7577ZM44.3213 26.8125L44.7209 26.8301L44.7727 25.6539L44.0151 26.5551L44.3213 26.8125ZM42.7603 28.0591L42.5761 27.704L42.5743 27.7049L42.7603 28.0591ZM38.313 27.8345L38.0911 28.1673L38.0928 28.1684L38.313 27.8345ZM36.6958 25.8804L36.3312 26.0449L36.3318 26.0461L36.6958 25.8804ZM36.7407 20.1304L36.3799 19.9577L36.3787 19.9602L36.7407 20.1304ZM45.0063 19.2432L44.6887 19.4863L44.6904 19.4885L45.0063 19.2432ZM44.5234 31.7651L44.8265 32.0262L44.8271 32.0255L44.5234 31.7651ZM38.8296 34.0112V34.4113L38.8355 34.4112L38.8296 34.0112ZM38.4253 34.0112H38.0253V34.4112H38.4253V34.0112ZM38.4253 32.2593V31.8593H38.0253V32.2593H38.4253ZM38.8633 32.2593V32.6593L38.8703 32.6592L38.8633 32.2593ZM42.8164 30.9229L43.0896 31.215L43.0908 31.2139L42.8164 30.9229ZM43.041 26.1724L42.807 25.848L42.805 25.8494L43.041 26.1724ZM44.3325 24.5889L44.7002 24.7464L44.7325 24.671V24.5889H44.3325ZM38.998 20.209L39.3111 20.458L39.3123 20.4564L38.998 20.209ZM38.9644 25.7344L38.6416 25.9706L38.6444 25.9744L38.9644 25.7344ZM44.0151 26.5551C43.6151 27.0309 43.1364 27.4134 42.5761 27.704L42.9444 28.4142C43.597 28.0758 44.159 27.6273 44.6275 27.0699L44.0151 26.5551ZM42.5743 27.7049C42.0363 27.9874 41.4418 28.1308 40.7837 28.1308V28.9308C41.5631 28.9308 42.2863 28.7597 42.9462 28.4132L42.5743 27.7049ZM40.7837 28.1308C39.909 28.1308 39.164 27.9166 38.5332 27.5006L38.0928 28.1684C38.8695 28.6807 39.7717 28.9308 40.7837 28.9308V28.1308ZM38.5349 27.5017C37.9068 27.0829 37.414 26.4924 37.0598 25.7146L36.3318 26.0461C36.7413 26.9454 37.3266 27.6576 38.0911 28.1673L38.5349 27.5017ZM37.0604 25.7158C36.7041 24.9263 36.523 24.051 36.523 23.084H35.723C35.723 24.1534 35.9239 25.1423 36.3312 26.0449L37.0604 25.7158ZM36.523 23.084C36.523 22.0421 36.719 21.1168 37.1027 20.3005L36.3787 19.9602C35.9389 20.8959 35.723 21.9397 35.723 23.084H36.523ZM37.1015 20.3031C37.4903 19.4908 38.0313 18.8823 38.7229 18.4619L38.3074 17.7783C37.4716 18.2863 36.8297 19.018 36.3799 19.9577L37.1015 20.3031ZM38.7229 18.4619C39.4156 18.0409 40.2326 17.8238 41.188 17.8238V17.0238C40.1069 17.0238 39.142 17.271 38.3074 17.7783L38.7229 18.4619ZM41.188 17.8238C42.6892 17.8238 43.841 18.3788 44.6887 19.4863L45.324 19C44.3149 17.6817 42.9212 17.0238 41.188 17.0238V17.8238ZM44.6904 19.4885C45.5548 20.6018 46.0102 22.1522 46.0102 24.1846H46.8102C46.8102 22.0392 46.3296 20.2953 45.3223 18.9979L44.6904 19.4885ZM46.0102 24.1846V24.791H46.8102V24.1846H46.0102ZM46.0102 24.791C46.0102 27.9349 45.3862 30.144 44.2197 31.5048L44.8271 32.0255C46.1763 30.4514 46.8102 28.0111 46.8102 24.791H46.0102ZM44.2204 31.5041C43.0591 32.852 41.2858 33.575 38.8237 33.6113L38.8355 34.4112C41.4496 34.3726 43.4722 33.5982 44.8265 32.0262L44.2204 31.5041ZM38.8296 33.6112H38.4253V34.4112H38.8296V33.6112ZM38.8253 34.0112V32.2593H38.0253V34.0112H38.8253ZM38.4253 32.6593H38.8633V31.8593H38.4253V32.6593ZM38.8703 32.6592C40.6478 32.6282 42.0738 32.1648 43.0896 31.215L42.5432 30.6307C41.7173 31.4029 40.5078 31.8305 38.8563 31.8593L38.8703 32.6592ZM43.0908 31.2139C44.1171 30.246 44.6361 28.7564 44.7209 26.8301L43.9217 26.7949C43.8417 28.6121 43.3576 29.8627 42.542 30.6318L43.0908 31.2139ZM41.1206 27.2125C41.9052 27.2125 42.6274 26.9701 43.277 26.4953L42.805 25.8494C42.2867 26.2282 41.7286 26.4125 41.1206 26.4125V27.2125ZM43.2751 26.4967C43.9213 26.0304 44.4002 25.4465 44.7002 24.7464L43.9649 24.4313C43.7258 24.9891 43.3436 25.4608 42.807 25.848L43.2751 26.4967ZM44.7325 24.5889V23.7578H43.9325V24.5889H44.7325ZM44.7325 23.7578C44.7325 22.3389 44.4245 21.1443 43.7741 20.2058L43.1165 20.6614C43.6491 21.43 43.9325 22.4514 43.9325 23.7578H44.7325ZM43.7741 20.2058C43.1205 19.2627 42.2571 18.7533 41.1992 18.7533V19.5533C41.9532 19.5533 42.5871 19.8975 43.1165 20.6614L43.7741 20.2058ZM41.1992 18.7533C40.166 18.7533 39.3154 19.1592 38.6838 19.9616L39.3123 20.4564C39.7888 19.8512 40.4056 19.5533 41.1992 19.5533V18.7533ZM38.685 19.9599C38.0602 20.7452 37.767 21.762 37.767 22.9717H38.567C38.567 21.8903 38.8278 21.0654 39.3111 20.458L38.685 19.9599ZM37.767 22.9717C37.767 24.1515 38.0489 25.1609 38.6416 25.9706L39.2871 25.4981C38.8167 24.8554 38.567 24.0229 38.567 22.9717H37.767ZM38.6444 25.9744C39.259 26.7938 40.0963 27.2125 41.1206 27.2125V26.4125C40.3481 26.4125 39.7479 26.1124 39.2844 25.4944L38.6444 25.9744Z" fill="#E6E7FD"/>
<path d="M3.6 0.3H68.4C70.2226 0.3 71.7 1.77744 71.7 3.6V56.4C71.7 58.2226 70.2226 59.7 68.4 59.7H3.6C1.77744 59.7 0.3 58.2226 0.3 56.4V3.6C0.3 1.77744 1.77744 0.3 3.6 0.3ZM68.4 57.9C69.2284 57.9 69.9 57.2284 69.9 56.4V3.6C69.9 2.77161 69.2284 2.1 68.4 2.1H3.6C2.77161 2.1 2.1 2.77161 2.1 3.6V56.4C2.1 57.2284 2.77161 57.9 3.6 57.9H68.4Z" fill="#333333" stroke="#E6E7FD" stroke-width="0.6"/>
<path d="M5.0998 5.10005H6.8998V6.90005H5.0998V5.10005Z" fill="#333333" stroke="#E6E7FD" stroke-width="0.6"/>
<path d="M9.90059 5.10005H11.7006V6.90005H9.90059V5.10005Z" fill="#333333" stroke="#E6E7FD" stroke-width="0.6"/>
<path d="M14.7004 5.10005H16.5004V6.90005H14.7004V5.10005Z" fill="#333333" stroke="#E6E7FD" stroke-width="0.6"/>
</svg>
