<svg width="59" height="60" viewBox="0 0 59 60" fill="none" xmlns="http://www.w3.org/2000/svg">
<rect x="4.60646" y="31.2473" width="10.3167" height="28.2527" rx="1.5" stroke="#333333"/>
<rect x="23.8242" y="20.5711" width="10.3167" height="38.9288" rx="1.5" stroke="#333333"/>
<rect x="43.041" y="0.5" width="10.3167" height="59" rx="1.5" stroke="#333333"/>
<mask id="path-4-outside-1" maskUnits="userSpaceOnUse" x="0" y="19.425" width="59" height="40" fill="black">
<rect fill="white" y="19.425" width="59" height="40"/>
<path fill-rule="evenodd" clip-rule="evenodd" d="M53.1981 38.5133L56.6787 21.425L40.1395 26.9549L44.1102 30.4695L33.7969 40.7829C33.4637 41.1161 32.4133 42.0439 32.4133 42.0439C32.4133 42.0439 31.555 41.1778 31.16 40.7829L26.7571 36.3799L24.4519 33.9151C23.7485 33.163 22.5686 33.1235 21.8165 33.8268L1.59097 52.7421C0.838866 53.4454 0.799365 54.6253 1.50274 55.3774L3.37661 57.3811C4.07999 58.1332 5.25989 58.1727 6.01199 57.4693L21.5826 42.9075C21.9542 42.56 22.9042 41.671 22.9042 41.671C22.9042 41.671 23.8234 42.5996 24.1746 42.9509L31.3056 50.0819C31.9334 50.7097 32.9513 50.7097 33.5791 50.0819L34.6979 48.9631C34.7079 48.9532 34.724 48.9532 34.734 48.9631C34.7439 48.9731 34.7601 48.9731 34.7701 48.9631L48.9659 34.7673L53.1981 38.5133Z"/>
</mask>
<path fill-rule="evenodd" clip-rule="evenodd" d="M53.1981 38.5133L56.6787 21.425L40.1395 26.9549L44.1102 30.4695L33.7969 40.7829C33.4637 41.1161 32.4133 42.0439 32.4133 42.0439C32.4133 42.0439 31.555 41.1778 31.16 40.7829L26.7571 36.3799L24.4519 33.9151C23.7485 33.163 22.5686 33.1235 21.8165 33.8268L1.59097 52.7421C0.838866 53.4454 0.799365 54.6253 1.50274 55.3774L3.37661 57.3811C4.07999 58.1332 5.25989 58.1727 6.01199 57.4693L21.5826 42.9075C21.9542 42.56 22.9042 41.671 22.9042 41.671C22.9042 41.671 23.8234 42.5996 24.1746 42.9509L31.3056 50.0819C31.9334 50.7097 32.9513 50.7097 33.5791 50.0819L34.6979 48.9631C34.7079 48.9532 34.724 48.9532 34.734 48.9631C34.7439 48.9731 34.7601 48.9731 34.7701 48.9631L48.9659 34.7673L53.1981 38.5133Z" fill="#C8F5E1"/>
<path d="M56.6787 21.425L57.6586 21.6245L58.0042 19.9273L56.3616 20.4766L56.6787 21.425ZM53.1981 38.5133L52.5354 39.2621L53.8323 40.4101L54.178 38.7129L53.1981 38.5133ZM40.1395 26.9549L39.8224 26.0065L38.1797 26.5557L39.4767 27.7037L40.1395 26.9549ZM44.1102 30.4695L44.8174 31.1766L45.5689 30.4251L44.773 29.7207L44.1102 30.4695ZM33.7969 40.7829L34.504 41.49L34.504 41.49L33.7969 40.7829ZM32.4133 42.0439L31.7031 42.7479L32.3677 43.4186L33.0754 42.7934L32.4133 42.0439ZM31.16 40.7829L30.4529 41.49L30.4529 41.49L31.16 40.7829ZM26.7571 36.3799L26.0267 37.063L26.0381 37.0752L26.05 37.087L26.7571 36.3799ZM24.4519 33.9151L25.1823 33.232L25.1823 33.232L24.4519 33.9151ZM21.8165 33.8268L22.4996 34.5572L22.4996 34.5572L21.8165 33.8268ZM1.59097 52.7421L2.27402 53.4724L2.27402 53.4724L1.59097 52.7421ZM1.50274 55.3774L2.23311 54.6944L2.23311 54.6944L1.50274 55.3774ZM3.37661 57.3811L2.64624 58.0642L2.64624 58.0642L3.37661 57.3811ZM6.01199 57.4693L5.32894 56.739L5.32894 56.739L6.01199 57.4693ZM21.5826 42.9075L20.8995 42.1771L20.8995 42.1771L21.5826 42.9075ZM22.9042 41.671L23.6149 40.9675L22.9309 40.2765L22.2209 40.9409L22.9042 41.671ZM24.1746 42.9509L23.4675 43.658L23.4675 43.658L24.1746 42.9509ZM31.3056 50.0819L32.0127 49.3748L32.0127 49.3748L31.3056 50.0819ZM34.7701 48.9631L35.4772 49.6702L35.4772 49.6702L34.7701 48.9631ZM48.9659 34.7673L49.6287 34.0185L48.9241 33.3948L48.2588 34.0602L48.9659 34.7673ZM55.6988 21.2254L52.2183 38.3137L54.178 38.7129L57.6586 21.6245L55.6988 21.2254ZM40.4566 27.9033L56.9958 22.3733L56.3616 20.4766L39.8224 26.0065L40.4566 27.9033ZM44.773 29.7207L40.8022 26.2061L39.4767 27.7037L43.4475 31.2183L44.773 29.7207ZM43.4031 29.7624L33.0898 40.0758L34.504 41.49L44.8174 31.1766L43.4031 29.7624ZM33.0898 40.0758C32.9456 40.2199 32.6211 40.5163 32.3114 40.7948C32.1611 40.93 32.0209 41.0551 31.9181 41.1465C31.8668 41.1921 31.8249 41.2293 31.796 41.2549C31.7815 41.2678 31.7702 41.2777 31.7626 41.2845C31.7588 41.2878 31.756 41.2904 31.754 41.2921C31.7531 41.2929 31.7524 41.2935 31.7519 41.2939C31.7517 41.2941 31.7515 41.2943 31.7514 41.2944C31.7513 41.2944 31.7513 41.2945 31.7513 41.2945C31.7513 41.2945 31.7513 41.2945 31.7513 41.2945C31.7513 41.2945 31.7513 41.2945 32.4133 42.0439C33.0754 42.7934 33.0754 42.7934 33.0754 42.7934C33.0754 42.7934 33.0755 42.7933 33.0755 42.7933C33.0755 42.7933 33.0756 42.7932 33.0757 42.7932C33.0758 42.793 33.076 42.7928 33.0763 42.7926C33.0768 42.7921 33.0776 42.7914 33.0787 42.7905C33.0808 42.7887 33.0838 42.786 33.0878 42.7824C33.0958 42.7754 33.1074 42.7651 33.1223 42.7519C33.152 42.7255 33.1948 42.6876 33.2472 42.641C33.3518 42.548 33.495 42.4203 33.6489 42.2819C33.9477 42.0131 34.3149 41.679 34.504 41.49L33.0898 40.0758ZM32.4133 42.0439C33.1236 41.34 33.1236 41.34 33.1236 41.34C33.1236 41.34 33.1236 41.34 33.1236 41.34C33.1235 41.34 33.1235 41.3399 33.1235 41.3399C33.1234 41.3398 33.1232 41.3396 33.123 41.3394C33.1226 41.339 33.1219 41.3383 33.1211 41.3375C33.1195 41.3359 33.117 41.3334 33.1138 41.3302C33.1074 41.3237 33.098 41.3142 33.0859 41.3019C33.0616 41.2774 33.0265 41.242 32.9831 41.1983C32.8964 41.1108 32.7766 40.9901 32.6445 40.857C32.3806 40.5912 32.0661 40.2747 31.8671 40.0758L30.4529 41.49C30.6489 41.686 30.961 42 31.2251 42.266C31.3569 42.3988 31.4764 42.5193 31.563 42.6066C31.6063 42.6502 31.6413 42.6856 31.6655 42.71C31.6776 42.7222 31.687 42.7317 31.6934 42.7381C31.6965 42.7413 31.699 42.7437 31.7006 42.7454C31.7014 42.7462 31.702 42.7468 31.7024 42.7472C31.7026 42.7475 31.7028 42.7476 31.7029 42.7477C31.703 42.7478 31.703 42.7478 31.703 42.7478C31.703 42.7478 31.703 42.7478 31.703 42.7479C31.7031 42.7479 31.7031 42.7479 32.4133 42.0439ZM31.8671 40.0758L27.4642 35.6728L26.05 37.087L30.4529 41.49L31.8671 40.0758ZM27.4874 35.6969L25.1823 33.232L23.7215 34.5981L26.0267 37.063L27.4874 35.6969ZM25.1823 33.232C24.1017 32.0765 22.2889 32.0158 21.1335 33.0965L22.4996 34.5572C22.8483 34.2311 23.3954 34.2494 23.7215 34.5981L25.1823 33.232ZM21.1335 33.0965L0.907917 52.0117L2.27402 53.4724L22.4996 34.5572L21.1335 33.0965ZM0.907918 52.0117C-0.247558 53.0923 -0.308245 54.905 0.772375 56.0605L2.23311 54.6944C1.90697 54.3457 1.92529 53.7986 2.27402 53.4724L0.907918 52.0117ZM0.772374 56.0605L2.64624 58.0642L4.10698 56.6981L2.23311 54.6944L0.772374 56.0605ZM2.64624 58.0642C3.72686 59.2196 5.53957 59.2803 6.69504 58.1997L5.32894 56.739C4.98021 57.0651 4.43312 57.0468 4.10698 56.6981L2.64624 58.0642ZM6.69504 58.1997L22.2656 43.6379L20.8995 42.1771L5.32894 56.739L6.69504 58.1997ZM22.2656 43.6379C22.4515 43.464 22.782 43.1548 23.0659 42.8892C23.2079 42.7563 23.3383 42.6343 23.4332 42.5456C23.4806 42.5012 23.5192 42.4651 23.5459 42.4401C23.5592 42.4276 23.5696 42.4179 23.5767 42.4113C23.5802 42.408 23.5829 42.4055 23.5847 42.4038C23.5856 42.4029 23.5863 42.4023 23.5867 42.4019C23.587 42.4017 23.5871 42.4015 23.5873 42.4014C23.5873 42.4013 23.5874 42.4013 23.5874 42.4013C23.5874 42.4012 23.5874 42.4012 23.5874 42.4012C23.5874 42.4012 23.5874 42.4012 22.9042 41.671C22.2209 40.9409 22.2209 40.9409 22.2209 40.9409C22.2209 40.9409 22.2209 40.9409 22.2209 40.9409C22.2208 40.9409 22.2208 40.941 22.2207 40.941C22.2206 40.9411 22.2205 40.9413 22.2202 40.9415C22.2198 40.9419 22.2191 40.9426 22.2182 40.9434C22.2164 40.9451 22.2137 40.9476 22.2102 40.9509C22.2031 40.9575 22.1927 40.9672 22.1794 40.9797C22.1527 41.0047 22.1141 41.0408 22.0667 41.0852C21.9718 41.1739 21.8415 41.2959 21.6995 41.4287C21.4155 41.6944 21.0852 42.0035 20.8995 42.1771L22.2656 43.6379ZM22.9042 41.671C22.1935 42.3745 22.1935 42.3745 22.1935 42.3745C22.1935 42.3746 22.1935 42.3746 22.1935 42.3746C22.1935 42.3746 22.1936 42.3747 22.1936 42.3747C22.1938 42.3748 22.1939 42.375 22.1942 42.3752C22.1946 42.3757 22.1953 42.3763 22.1961 42.3772C22.1979 42.379 22.2005 42.3816 22.2039 42.3851C22.2108 42.392 22.2208 42.4022 22.2338 42.4152C22.2596 42.4413 22.2969 42.479 22.3428 42.5253C22.4345 42.618 22.5605 42.7451 22.6975 42.8833C22.971 43.1591 23.2901 43.4806 23.4675 43.658L24.8817 42.2438C24.7079 42.0699 24.3918 41.7515 24.1178 41.4752C23.9811 41.3373 23.8554 41.2104 23.7638 41.1179C23.718 41.0717 23.6807 41.0341 23.655 41.008C23.6421 40.995 23.632 40.9849 23.6252 40.978C23.6218 40.9746 23.6192 40.972 23.6175 40.9702C23.6166 40.9693 23.616 40.9686 23.6155 40.9682C23.6153 40.968 23.6151 40.9678 23.615 40.9677C23.615 40.9677 23.6149 40.9676 23.6149 40.9676C23.6149 40.9676 23.6149 40.9676 23.6149 40.9676C23.6149 40.9675 23.6149 40.9675 22.9042 41.671ZM23.4675 43.658L30.5985 50.789L32.0127 49.3748L24.8817 42.2438L23.4675 43.658ZM30.5985 50.789C31.6168 51.8073 33.2679 51.8073 34.2863 50.789L32.872 49.3747C32.6347 49.6121 32.25 49.6121 32.0127 49.3748L30.5985 50.789ZM34.2863 50.789L35.405 49.6702L33.9908 48.256L32.872 49.3747L34.2863 50.789ZM35.405 49.6702C35.0244 50.0508 34.4074 50.0508 34.0269 49.6702L35.4411 48.256C35.0406 47.8555 34.3913 47.8555 33.9908 48.256L35.405 49.6702ZM34.0269 49.6702C34.4274 50.0707 35.0767 50.0707 35.4772 49.6702L34.0629 48.256C34.4435 47.8754 35.0605 47.8754 35.4411 48.256L34.0269 49.6702ZM35.4772 49.6702L49.673 35.4744L48.2588 34.0602L34.0629 48.256L35.4772 49.6702ZM53.8609 37.7645L49.6287 34.0185L48.3031 35.5161L52.5354 39.2621L53.8609 37.7645Z" fill="#333333" mask="url(#path-4-outside-1)"/>
</svg>
