<svg width="61" height="60" viewBox="0 0 61 60" fill="none" xmlns="http://www.w3.org/2000/svg">
<mask id="path-1-inside-1" fill="white">
<path d="M58.0328 24.5902C59.6597 24.5902 60.9836 23.2662 60.9836 21.6393V5.90164C60.9836 4.27475 59.6597 2.95082 58.0328 2.95082H40.3279C38.701 2.95082 37.377 4.27475 37.377 5.90164V10.8197H28.741C28.4164 10.4597 28.0072 10.1833 27.541 10.017V9.83607C27.541 4.41246 23.1285 0 17.7049 0C12.2813 0 7.86885 4.41246 7.86885 9.83607V10.017C7.40262 10.1833 6.99443 10.4597 6.66885 10.8197H4.91803C2.20623 10.8197 0 13.0259 0 15.7377V43.2787C0 45.9905 2.20623 48.1967 4.91803 48.1967H18.2813L18.8577 48.7731C20.0174 49.9328 20.6557 51.4741 20.6557 53.1148C20.6557 54.7554 20.0174 56.2967 18.8577 57.4564L18.2813 58.0328H8.85246V60H48.1967V58.0328H38.7679L38.1915 57.4564C37.0318 56.2967 36.3934 54.7554 36.3934 53.1148C36.3934 51.4741 37.0318 49.9328 38.1915 48.7731L38.7679 48.1967H52.1311C54.5056 48.1967 56.4925 46.5039 56.9498 44.2623H58.0328C59.6597 44.2623 60.9836 42.9384 60.9836 41.3115V29.5082C60.9836 27.8813 59.6597 26.5574 58.0328 26.5574H57.0492V24.5902H58.0328ZM39.3443 13.7705V5.90164C39.3443 5.35967 39.7849 4.91803 40.3279 4.91803H58.0328C58.5757 4.91803 59.0164 5.35967 59.0164 5.90164V21.6393C59.0164 22.1813 58.5757 22.623 58.0328 22.623H40.3279C39.7849 22.623 39.3443 22.1813 39.3443 21.6393V17.7049C39.3443 17.162 38.9046 16.7213 38.3607 16.7213H36.8007L39.0561 14.4659C39.241 14.282 39.3443 14.0311 39.3443 13.7705ZM17.7049 27.0689L16.0318 21.4928C16.5226 21.5892 17.0252 21.6393 17.5357 21.6393H17.8741C18.3846 21.6393 18.8872 21.5892 19.378 21.4928L17.7049 27.0689ZM21.3875 21.6393H23.4875C24.5715 21.6393 25.5885 22.0613 26.3538 22.8266C27.1082 23.582 27.541 24.6266 27.541 25.6928V29.5082H19.0269L21.3875 21.6393ZM16.383 29.5082H7.86885V25.6928C7.86885 24.6266 8.30164 23.582 9.05607 22.8266C9.82131 22.0613 10.8393 21.6393 11.9223 21.6393H14.0223L16.383 29.5082ZM17.8741 19.6721H17.5357C16.0043 19.6721 14.5643 19.0761 13.4823 17.9931C12.3993 16.9102 11.8033 15.4702 11.8033 13.9387V13.7705C13.4105 13.7705 14.8397 12.9954 15.7377 11.8003C16.6357 12.9954 18.0649 13.7705 19.6721 13.7705H23.6066V13.9387C23.6066 15.4702 23.0105 16.9102 21.9275 17.9931C20.8446 19.0761 19.4056 19.6721 17.8741 19.6721V19.6721ZM23.6066 11.8033H19.6721C18.0452 11.8033 16.7213 10.4793 16.7213 8.85246C16.7213 8.30951 16.2816 7.86885 15.7377 7.86885C15.1938 7.86885 14.7541 8.30951 14.7541 8.85246C14.7541 10.4793 13.4302 11.8033 11.8033 11.8033V11.6351C11.8033 10.1036 12.3993 8.66361 13.4823 7.58066C14.5652 6.4977 16.0043 5.90164 17.5357 5.90164H17.8741C19.4056 5.90164 20.8456 6.4977 21.9275 7.58066C23.0105 8.66361 23.6066 10.1036 23.6066 11.6351V11.8033ZM25.5738 13.9387V12.7869V11.8033H26.5574C27.1003 11.8033 27.541 12.2449 27.541 12.7869V14.7541C27.541 15.2961 27.1003 15.7377 26.5574 15.7377H25.3544C25.4941 15.1544 25.5738 14.5534 25.5738 13.9387ZM17.7049 1.96721C22.0436 1.96721 25.5738 5.49738 25.5738 9.83607H25.3544C25.0279 8.46787 24.3374 7.20984 23.3184 6.18984C21.8646 4.73508 19.9318 3.93443 17.8741 3.93443H17.5357C15.478 3.93443 13.5443 4.73508 12.0915 6.18984C11.0715 7.20984 10.382 8.46787 10.0554 9.83607H9.83607C9.83607 5.49738 13.3662 1.96721 17.7049 1.96721V1.96721ZM7.86885 12.7869C7.86885 12.2449 8.30951 11.8033 8.85246 11.8033H9.83607V12.7869V13.9387C9.83607 14.5534 9.91574 15.1544 10.0554 15.7377H8.85246C8.30951 15.7377 7.86885 15.2961 7.86885 14.7541V12.7869ZM36.0974 58.0328H20.9518C22.0308 56.6262 22.623 54.9177 22.623 53.1148C22.623 51.3118 22.0308 49.6033 20.9518 48.1967H36.0974C35.0184 49.6033 34.4262 51.3118 34.4262 53.1148C34.4262 54.9177 35.0184 56.6262 36.0974 58.0328ZM52.1311 46.2295H4.91803C3.29115 46.2295 1.96721 44.9056 1.96721 43.2787V40.3279H37.377V41.3115C37.377 42.9384 38.701 44.2623 40.3279 44.2623H51.1475H53.1148H54.901C54.4938 45.4043 53.4118 46.2295 52.1311 46.2295ZM59.0164 29.5082V41.3115C59.0164 41.8534 58.5757 42.2951 58.0328 42.2951H53.1148H51.1475H40.3279C39.7849 42.2951 39.3443 41.8534 39.3443 41.3115V37.377C39.3443 37.1164 39.241 36.8656 39.0561 36.6816L36.8007 34.4262H38.3607C38.9046 34.4262 39.3443 33.9856 39.3443 33.4426V29.5082C39.3443 28.9662 39.7849 28.5246 40.3279 28.5246H58.0328C58.5757 28.5246 59.0164 28.9662 59.0164 29.5082ZM55.082 26.5574H40.3279C38.701 26.5574 37.377 27.8813 37.377 29.5082V32.459H34.4262C34.0289 32.459 33.6689 32.699 33.5174 33.0659C33.3649 33.4338 33.4495 33.8567 33.7308 34.138L37.377 37.7843V38.3607H1.96721V15.7377C1.96721 14.1108 3.29115 12.7869 4.91803 12.7869H5.90164V14.7541C5.90164 16.381 7.22557 17.7049 8.85246 17.7049H10.8236C11.1649 18.3118 11.5859 18.8784 12.0915 19.3839C12.1928 19.4862 12.303 19.5767 12.4092 19.6721H11.9223C10.3131 19.6721 8.80131 20.2987 7.66525 21.4357C6.5282 22.5738 5.90164 24.0856 5.90164 25.6928V30.4918C5.90164 31.0348 6.34131 31.4754 6.88525 31.4754H28.5246C29.0685 31.4754 29.5082 31.0348 29.5082 30.4918V25.6928C29.5082 24.0856 28.8816 22.5738 27.7446 21.4357C26.6085 20.2987 25.0967 19.6721 23.4875 19.6721H23.0007C23.1069 19.5767 23.2161 19.4862 23.3184 19.3839C23.8239 18.8784 24.2449 18.3118 24.5862 17.7049H26.5574C28.1843 17.7049 29.5082 16.381 29.5082 14.7541V12.7869H37.377V13.3633L33.7308 17.0095C33.4495 17.2908 33.3649 17.7138 33.5174 18.0816C33.6689 18.4485 34.0289 18.6885 34.4262 18.6885H37.377V21.6393C37.377 23.2662 38.701 24.5902 40.3279 24.5902H55.082V26.5574Z"/>
</mask>
<path d="M58.0328 24.5902C59.6597 24.5902 60.9836 23.2662 60.9836 21.6393V5.90164C60.9836 4.27475 59.6597 2.95082 58.0328 2.95082H40.3279C38.701 2.95082 37.377 4.27475 37.377 5.90164V10.8197H28.741C28.4164 10.4597 28.0072 10.1833 27.541 10.017V9.83607C27.541 4.41246 23.1285 0 17.7049 0C12.2813 0 7.86885 4.41246 7.86885 9.83607V10.017C7.40262 10.1833 6.99443 10.4597 6.66885 10.8197H4.91803C2.20623 10.8197 0 13.0259 0 15.7377V43.2787C0 45.9905 2.20623 48.1967 4.91803 48.1967H18.2813L18.8577 48.7731C20.0174 49.9328 20.6557 51.4741 20.6557 53.1148C20.6557 54.7554 20.0174 56.2967 18.8577 57.4564L18.2813 58.0328H8.85246V60H48.1967V58.0328H38.7679L38.1915 57.4564C37.0318 56.2967 36.3934 54.7554 36.3934 53.1148C36.3934 51.4741 37.0318 49.9328 38.1915 48.7731L38.7679 48.1967H52.1311C54.5056 48.1967 56.4925 46.5039 56.9498 44.2623H58.0328C59.6597 44.2623 60.9836 42.9384 60.9836 41.3115V29.5082C60.9836 27.8813 59.6597 26.5574 58.0328 26.5574H57.0492V24.5902H58.0328ZM39.3443 13.7705V5.90164C39.3443 5.35967 39.7849 4.91803 40.3279 4.91803H58.0328C58.5757 4.91803 59.0164 5.35967 59.0164 5.90164V21.6393C59.0164 22.1813 58.5757 22.623 58.0328 22.623H40.3279C39.7849 22.623 39.3443 22.1813 39.3443 21.6393V17.7049C39.3443 17.162 38.9046 16.7213 38.3607 16.7213H36.8007L39.0561 14.4659C39.241 14.282 39.3443 14.0311 39.3443 13.7705ZM17.7049 27.0689L16.0318 21.4928C16.5226 21.5892 17.0252 21.6393 17.5357 21.6393H17.8741C18.3846 21.6393 18.8872 21.5892 19.378 21.4928L17.7049 27.0689ZM21.3875 21.6393H23.4875C24.5715 21.6393 25.5885 22.0613 26.3538 22.8266C27.1082 23.582 27.541 24.6266 27.541 25.6928V29.5082H19.0269L21.3875 21.6393ZM16.383 29.5082H7.86885V25.6928C7.86885 24.6266 8.30164 23.582 9.05607 22.8266C9.82131 22.0613 10.8393 21.6393 11.9223 21.6393H14.0223L16.383 29.5082ZM17.8741 19.6721H17.5357C16.0043 19.6721 14.5643 19.0761 13.4823 17.9931C12.3993 16.9102 11.8033 15.4702 11.8033 13.9387V13.7705C13.4105 13.7705 14.8397 12.9954 15.7377 11.8003C16.6357 12.9954 18.0649 13.7705 19.6721 13.7705H23.6066V13.9387C23.6066 15.4702 23.0105 16.9102 21.9275 17.9931C20.8446 19.0761 19.4056 19.6721 17.8741 19.6721V19.6721ZM23.6066 11.8033H19.6721C18.0452 11.8033 16.7213 10.4793 16.7213 8.85246C16.7213 8.30951 16.2816 7.86885 15.7377 7.86885C15.1938 7.86885 14.7541 8.30951 14.7541 8.85246C14.7541 10.4793 13.4302 11.8033 11.8033 11.8033V11.6351C11.8033 10.1036 12.3993 8.66361 13.4823 7.58066C14.5652 6.4977 16.0043 5.90164 17.5357 5.90164H17.8741C19.4056 5.90164 20.8456 6.4977 21.9275 7.58066C23.0105 8.66361 23.6066 10.1036 23.6066 11.6351V11.8033ZM25.5738 13.9387V12.7869V11.8033H26.5574C27.1003 11.8033 27.541 12.2449 27.541 12.7869V14.7541C27.541 15.2961 27.1003 15.7377 26.5574 15.7377H25.3544C25.4941 15.1544 25.5738 14.5534 25.5738 13.9387ZM17.7049 1.96721C22.0436 1.96721 25.5738 5.49738 25.5738 9.83607H25.3544C25.0279 8.46787 24.3374 7.20984 23.3184 6.18984C21.8646 4.73508 19.9318 3.93443 17.8741 3.93443H17.5357C15.478 3.93443 13.5443 4.73508 12.0915 6.18984C11.0715 7.20984 10.382 8.46787 10.0554 9.83607H9.83607C9.83607 5.49738 13.3662 1.96721 17.7049 1.96721V1.96721ZM7.86885 12.7869C7.86885 12.2449 8.30951 11.8033 8.85246 11.8033H9.83607V12.7869V13.9387C9.83607 14.5534 9.91574 15.1544 10.0554 15.7377H8.85246C8.30951 15.7377 7.86885 15.2961 7.86885 14.7541V12.7869ZM36.0974 58.0328H20.9518C22.0308 56.6262 22.623 54.9177 22.623 53.1148C22.623 51.3118 22.0308 49.6033 20.9518 48.1967H36.0974C35.0184 49.6033 34.4262 51.3118 34.4262 53.1148C34.4262 54.9177 35.0184 56.6262 36.0974 58.0328ZM52.1311 46.2295H4.91803C3.29115 46.2295 1.96721 44.9056 1.96721 43.2787V40.3279H37.377V41.3115C37.377 42.9384 38.701 44.2623 40.3279 44.2623H51.1475H53.1148H54.901C54.4938 45.4043 53.4118 46.2295 52.1311 46.2295ZM59.0164 29.5082V41.3115C59.0164 41.8534 58.5757 42.2951 58.0328 42.2951H53.1148H51.1475H40.3279C39.7849 42.2951 39.3443 41.8534 39.3443 41.3115V37.377C39.3443 37.1164 39.241 36.8656 39.0561 36.6816L36.8007 34.4262H38.3607C38.9046 34.4262 39.3443 33.9856 39.3443 33.4426V29.5082C39.3443 28.9662 39.7849 28.5246 40.3279 28.5246H58.0328C58.5757 28.5246 59.0164 28.9662 59.0164 29.5082ZM55.082 26.5574H40.3279C38.701 26.5574 37.377 27.8813 37.377 29.5082V32.459H34.4262C34.0289 32.459 33.6689 32.699 33.5174 33.0659C33.3649 33.4338 33.4495 33.8567 33.7308 34.138L37.377 37.7843V38.3607H1.96721V15.7377C1.96721 14.1108 3.29115 12.7869 4.91803 12.7869H5.90164V14.7541C5.90164 16.381 7.22557 17.7049 8.85246 17.7049H10.8236C11.1649 18.3118 11.5859 18.8784 12.0915 19.3839C12.1928 19.4862 12.303 19.5767 12.4092 19.6721H11.9223C10.3131 19.6721 8.80131 20.2987 7.66525 21.4357C6.5282 22.5738 5.90164 24.0856 5.90164 25.6928V30.4918C5.90164 31.0348 6.34131 31.4754 6.88525 31.4754H28.5246C29.0685 31.4754 29.5082 31.0348 29.5082 30.4918V25.6928C29.5082 24.0856 28.8816 22.5738 27.7446 21.4357C26.6085 20.2987 25.0967 19.6721 23.4875 19.6721H23.0007C23.1069 19.5767 23.2161 19.4862 23.3184 19.3839C23.8239 18.8784 24.2449 18.3118 24.5862 17.7049H26.5574C28.1843 17.7049 29.5082 16.381 29.5082 14.7541V12.7869H37.377V13.3633L33.7308 17.0095C33.4495 17.2908 33.3649 17.7138 33.5174 18.0816C33.6689 18.4485 34.0289 18.6885 34.4262 18.6885H37.377V21.6393C37.377 23.2662 38.701 24.5902 40.3279 24.5902H55.082V26.5574Z" fill="#333333" stroke="#FEEEEE" stroke-width="0.6" mask="url(#path-1-inside-1)"/>
<path d="M41.4615 7.03522H56.8992V8.70244H41.4615V7.03522Z" fill="#333333" stroke="#FEEEEE" stroke-width="0.3"/>
<path d="M43.4286 10.9697H54.9319V12.6369H43.4286V10.9697Z" fill="#333333" stroke="#FEEEEE" stroke-width="0.3"/>
<path d="M41.4615 14.9041H56.8992V16.5713H41.4615V14.9041Z" fill="#333333" stroke="#FEEEEE" stroke-width="0.3"/>
<path d="M43.4286 18.8385H54.9319V20.5057H43.4286V18.8385Z" fill="#333333" stroke="#FEEEEE" stroke-width="0.3"/>
<path d="M41.4615 30.6418H56.8992V32.309H41.4615V30.6418Z" fill="#333333" stroke="#FEEEEE" stroke-width="0.3"/>
<path d="M41.4615 38.5106H56.8992V40.1778H41.4615V38.5106Z" fill="#333333" stroke="#FEEEEE" stroke-width="0.3"/>
<path d="M43.4286 34.5762H54.9319V36.2434H43.4286V34.5762Z" fill="#333333" stroke="#FEEEEE" stroke-width="0.3"/>
</svg>
