<svg width="54" height="60" viewBox="0 0 54 60" fill="none" xmlns="http://www.w3.org/2000/svg">
<path d="M53.7999 16.9998V17.0004C53.7999 17.4423 53.4417 17.8004 52.9999 17.8004C52.5582 17.8004 52.2001 17.4425 52.1999 17.0008C52.219 11.3758 50.333 5.91004 46.8491 1.49381C46.6729 1.2689 46.63 0.967087 46.7366 0.701992C46.8432 0.436803 47.0832 0.248642 47.3662 0.208389C47.6492 0.168135 47.9321 0.281905 48.1085 0.506841L48.1085 0.506841L48.1088 0.507324C51.8144 5.20408 53.8204 11.0172 53.7999 16.9998Z" fill="#333333" stroke="#C8F5E1" stroke-width="0.4"/>
<path d="M0.200131 17.0005L0.200129 16.9998C0.181471 11.0174 2.1876 5.20473 5.89217 0.507314L5.73513 0.383468L5.89256 0.506814C6.1652 0.158838 6.66831 0.097763 7.01628 0.3704C7.36419 0.642981 7.42531 1.14594 7.15286 1.49391C3.66922 5.91039 1.78266 11.3758 1.80013 17.0008C1.79996 17.4425 1.44185 17.8005 1.00013 17.8005C0.558302 17.8005 0.20013 17.4423 0.200131 17.0005Z" fill="#333333" stroke="#C8F5E1" stroke-width="0.4"/>
<path d="M49.8002 16.9998V17.0004C49.8002 17.4422 49.442 17.8004 49.0002 17.8004C48.5584 17.8004 48.2003 17.4423 48.2002 17.0006C48.2156 12.3563 46.6886 7.83826 43.8588 4.15553L43.859 4.15533L43.8515 4.14661C43.6572 3.92182 43.6035 3.60788 43.712 3.33129C43.8205 3.0547 44.0734 2.86103 44.3687 2.82832C44.664 2.79562 44.9531 2.92926 45.1195 3.17541L45.1192 3.17562L45.1266 3.18531C48.1718 7.14526 49.8157 12.0044 49.8002 16.9998Z" fill="#333333" stroke="#C8F5E1" stroke-width="0.4"/>
<path d="M4.00021 17.0005C3.98612 12.0478 5.58959 7.22844 8.56311 3.27347H8.71122H8.71522L4.00021 17.0005ZM4.00021 17.0005C4.00021 17.5528 4.44793 18.0005 5.00021 18.0005C5.5525 18.0005 6.00021 17.5528 6.00021 17.0005H4.00021ZM8.87374 3.19541L8.91781 3.13812C9.19483 2.8374 9.66054 2.7921 9.99173 3.04534C10.3427 3.31373 10.4097 3.81582 10.1414 4.16686C7.31292 7.84597 5.78597 12.3601 5.80021 17.0008C5.80005 17.4425 5.44194 17.8005 5.00021 17.8005C4.55839 17.8005 4.20021 17.4423 4.20022 17.0005L4.20021 16.9999C4.186 12.0078 5.82985 7.15222 8.87374 3.19541Z" fill="#333333" stroke="#C8F5E1" stroke-width="0.4"/>
<path d="M45.8 16.9998V17.0004C45.8 17.4422 45.4419 17.8004 45 17.8004C44.5583 17.8004 44.2002 17.4424 44.2 17.0007C44.2125 13.234 42.972 9.57004 40.6737 6.58566C40.4063 6.23543 40.4725 5.73486 40.8217 5.46613C41.172 5.19859 41.6728 5.26483 41.9415 5.61431L41.9416 5.61451C44.4559 8.87609 45.8134 12.8816 45.8 16.9998Z" fill="#333333" stroke="#C8F5E1" stroke-width="0.4"/>
<path d="M8.20015 17.0001L8.20015 17.0005C8.20015 17.4423 8.55832 17.8005 9.00015 17.8005C9.44191 17.8005 9.80004 17.4424 9.80015 17.0007C9.80015 17.0006 9.80015 17.0006 9.80015 17.0005H10.0002C9.99261 13.2787 11.2181 9.65919 13.4851 6.7075L8.20015 17.0001ZM8.20015 17.0001C8.19297 12.8834 9.54984 8.88029 12.0587 5.61639L11.9001 5.4945L8.20015 17.0001Z" fill="#333333" stroke="#C8F5E1" stroke-width="0.4"/>
<path d="M30.2004 50.2005H30.0004H24.0004H23.8004V50.0005V47.8825V47.6583L24.0232 47.6838C24.6796 47.7592 25.3397 47.7981 26.0004 47.8005C26.0006 47.8005 26.0008 47.8005 26.0011 47.8005M30.2004 50.2005L29.8004 47.9044C29.2024 47.9663 28.6016 47.9984 28.0004 48.0005H26.0004L26.0011 47.8005M30.2004 50.2005V50.0005V47.8825V47.6583L29.9776 47.6838C29.3212 47.7592 28.6611 47.7981 28.0004 47.8005M30.2004 50.2005L27.9997 47.8005M26.0011 47.8005H27.9997M26.0011 47.8005H27.9997M27.9997 47.8005L28.0004 48.0003V47.8005M27.9997 47.8005C27.9999 47.8005 28.0001 47.8005 28.0004 47.8005M27.9997 47.8005L28.0004 47.8005M11.931 27.3721L12.2004 27.4717V27.1845V17.0008C12.2096 8.83069 18.8304 2.20984 27.0005 2.20053C35.1742 2.20059 41.8004 8.82676 41.8004 17.0005V27.1845V27.4717L42.0697 27.3721C42.3681 27.2618 42.6832 27.2037 43.0013 27.2005C44.5472 27.201 45.8002 28.4543 45.8004 30.0002C45.787 38.2994 40.0459 45.4905 31.9558 47.3416L31.8004 47.3771V47.5365V50.0005C31.8004 50.9946 30.9945 51.8005 30.0004 51.8005H29.8004V52.0005V54.0005V54.2005H30.0004H35.0004C36.5468 54.2005 37.8004 55.4541 37.8004 57.0005V59.0005C37.8004 59.4424 37.4422 59.8005 37.0004 59.8005H17.0004C16.5585 59.8005 16.2004 59.4424 16.2004 59.0005V57.0005C16.2004 55.4541 17.454 54.2005 19.0004 54.2005H24.0004H24.2004V54.0005V52.0005V51.8005H24.0004C23.0063 51.8005 22.2004 50.9946 22.2004 50.0005V47.5365V47.3771L22.045 47.3416C13.9549 45.4905 8.21384 38.2995 8.20037 30.0004C8.20045 28.4544 9.4535 27.2011 10.9994 27.2005C11.3175 27.2037 11.6326 27.2618 11.931 27.3721ZM27.0005 3.80053L27.0002 3.80053C21.6729 3.80544 16.8693 7.00786 14.8158 11.9234L14.7001 12.2005H15.0004H19.0004C19.4422 12.2005 19.8004 12.5587 19.8004 13.0005C19.8004 13.4424 19.4422 13.8005 19.0004 13.8005H14.3634H14.2053L14.1688 13.9543C14.0102 14.622 13.9043 15.3011 13.8519 15.9853L13.8355 16.2005H14.0514H19.0004C19.4422 16.2005 19.8004 16.5587 19.8004 17.0005C19.8004 17.4424 19.4422 17.8005 19.0004 17.8005H14.0004H13.8004V18.0005V20.0005V20.2005H14.0004H19.0004C19.4422 20.2005 19.8004 20.5587 19.8004 21.0005C19.8004 21.4424 19.4422 21.8005 19.0004 21.8005H14.0004H13.8004V22.0005V24.0005V24.2005H14.0004H19.0004C19.4422 24.2005 19.8004 24.5587 19.8004 25.0005C19.8004 25.4424 19.4422 25.8005 19.0004 25.8005H14.0004H13.8004V26.0005V28.0005V28.2005H14.0004H40.0004H40.2004V28.0005V26.0005V25.8005H40.0004H30.0004C29.5585 25.8005 29.2004 25.4424 29.2004 25.0005C29.2004 24.5587 29.5585 24.2005 30.0004 24.2005H40.0004H40.2004V24.0005V22.0005V21.8005H40.0004H30.0004C29.5585 21.8005 29.2004 21.4424 29.2004 21.0005C29.2004 20.5587 29.5585 20.2005 30.0004 20.2005H40.0004H40.2004V20.0005V18.0005V17.8005H40.0004H30.0004C29.5585 17.8005 29.2004 17.4424 29.2004 17.0005C29.2004 16.5587 29.5585 16.2005 30.0004 16.2005H39.9514H40.1676L40.1508 15.985C40.0975 15.3009 39.9912 14.622 39.833 13.9544L39.7965 13.8005H39.6384H30.0004C29.5585 13.8005 29.2004 13.4424 29.2004 13.0005C29.2004 12.5587 29.5585 12.2005 30.0004 12.2005H39.0004H39.3006L39.1849 11.9235C37.133 7.00662 32.3284 3.80354 27.0005 3.80053ZM40.2004 30.0007L40.2006 29.8005H40.0004H14.0004H13.8002L13.8004 30.0007C13.8077 36.7355 19.2654 42.1932 26.0002 42.2005H26.0004H28.0004H28.0006C34.7353 42.1932 40.1931 36.7355 40.2004 30.0007ZM36.0004 58.2005H36.2004V58.0005V57.0005C36.2004 56.3378 35.6631 55.8005 35.0004 55.8005H19.0004C18.3376 55.8005 17.8004 56.3378 17.8004 57.0005V58.0005V58.2005H18.0004H36.0004ZM28.0004 54.2005H28.2004V54.0005V52.0005V51.8005H28.0004H26.0004H25.8004V52.0005V54.0005V54.2005H26.0004H28.0004ZM44.2004 30.0008V30.0005C44.2004 29.3378 43.6631 28.8005 43.0004 28.8005C42.3377 28.8005 41.8005 29.3377 41.8004 30.0003C41.7922 37.6186 35.6184 43.7924 28.0002 43.8005H26.0006C18.3823 43.7924 12.2085 37.6186 12.2004 30.0003C12.2003 29.3377 11.663 28.8005 11.0004 28.8005C10.3376 28.8005 9.80037 29.3378 9.80037 30.0005L9.80037 30.0008C9.81097 38.9433 17.0576 46.1899 26.0001 46.2005H26.0004H28.0004H28.0006C36.9431 46.1899 44.1898 38.9433 44.2004 30.0008Z" fill="#333333" stroke="#C8F5E1" stroke-width="0.4"/>
<path d="M24.0002 17.8005H23.0002C22.5584 17.8005 22.2002 17.4423 22.2002 17.0005C22.2002 16.5587 22.5584 16.2005 23.0002 16.2005H24.0002C24.4421 16.2005 24.8002 16.5587 24.8002 17.0005C24.8002 17.4423 24.4421 17.8005 24.0002 17.8005Z" fill="#333333" stroke="#C8F5E1" stroke-width="0.4"/>
<path d="M24.0002 21.8004H23.0002C22.5584 21.8004 22.2002 21.4423 22.2002 21.0004C22.2002 20.5586 22.5584 20.2004 23.0002 20.2004H24.0002C24.4421 20.2004 24.8002 20.5586 24.8002 21.0004C24.8002 21.4423 24.4421 21.8004 24.0002 21.8004Z" fill="#333333" stroke="#C8F5E1" stroke-width="0.4"/>
<path d="M24.0002 13.8004H23.0002C22.5584 13.8004 22.2002 13.4423 22.2002 13.0004C22.2002 12.5586 22.5584 12.2004 23.0002 12.2004H24.0002C24.4421 12.2004 24.8002 12.5586 24.8002 13.0004C24.8002 13.4423 24.4421 13.8004 24.0002 13.8004Z" fill="#333333" stroke="#C8F5E1" stroke-width="0.4"/>
<path d="M24.0002 25.8005H23.0002C22.5584 25.8005 22.2002 25.4423 22.2002 25.0005C22.2002 24.5587 22.5584 24.2005 23.0002 24.2005H24.0002C24.4421 24.2005 24.8002 24.5587 24.8002 25.0005C24.8002 25.4423 24.4421 25.8005 24.0002 25.8005Z" fill="#333333" stroke="#C8F5E1" stroke-width="0.4"/>
</svg>
