<svg width="72" height="60" viewBox="0 0 72 60" fill="none" xmlns="http://www.w3.org/2000/svg">
<path d="M11.9426 51.3372C11.9028 51.2666 11.8445 51.2083 11.7739 51.1685L4.6643 47.1693C4.45107 47.0478 4.17974 47.1222 4.05827 47.3354C4.01994 47.4028 3.99983 47.4789 4 47.5563V55.5546C4.0005 55.7129 4.08509 55.8589 4.22218 55.9381C4.35848 56.0177 4.52678 56.0191 4.6643 55.9416L11.7739 51.9425C11.9876 51.8219 12.0632 51.5509 11.9426 51.3372ZM4.8887 54.7948V48.3162L10.6475 51.5555L4.8887 54.7948Z" fill="#333333"/>
<path d="M23.6998 50.4V50.7H23.9998H66.8998V52.5H23.9998H23.6998V52.8V54.9H21.8998V52.8V52.5H21.5998H14.3V50.7H21.5998H21.8998V50.4V48.3H23.6998V50.4Z" fill="#333333" stroke="#E6E7FD" stroke-width="0.6"/>
<path d="M36.0008 9.29995L36.0005 9.29995C26.5608 9.31003 18.9109 16.96 18.9008 26.3996V26.3999C18.9008 35.844 26.5567 43.4999 36.0008 43.4999C45.4449 43.4999 53.1008 35.844 53.1008 26.3999C53.1008 16.9559 45.4449 9.29995 36.0008 9.29995ZM17.1008 26.3998C17.1009 15.9617 25.5627 7.49995 36.0008 7.49995C46.4389 7.49995 54.9008 15.9618 54.9008 26.3999C54.9008 36.8379 46.4391 45.2998 36.0011 45.2999C25.5679 45.2875 17.1133 36.833 17.1008 26.3998Z" fill="#333333" stroke="#E6E7FD" stroke-width="0.6"/>
<path d="M30.272 34H28.1831V20.1528L23.9941 21.6914V19.8047L29.9463 17.5698H30.272V34ZM46.6123 27.0259C46.6123 29.4591 46.1968 31.2673 45.3657 32.4502C44.5347 33.6331 43.2357 34.2246 41.4688 34.2246C39.7243 34.2246 38.4328 33.6481 37.5942 32.4951C36.7557 31.3346 36.3215 29.6051 36.2915 27.3066V24.5327C36.2915 22.1294 36.707 20.3438 37.5381 19.1758C38.3691 18.0078 39.6719 17.4238 41.4463 17.4238C43.2057 17.4238 44.501 17.9891 45.332 19.1196C46.1631 20.2427 46.5898 21.9797 46.6123 24.3306V27.0259ZM44.5347 24.1846C44.5347 22.4251 44.2876 21.1449 43.7935 20.3438C43.2993 19.5352 42.5169 19.1309 41.4463 19.1309C40.3831 19.1309 39.6082 19.5314 39.1216 20.3325C38.6349 21.1336 38.3841 22.3652 38.3691 24.0273V27.3516C38.3691 29.1185 38.6237 30.425 39.1328 31.271C39.6494 32.1095 40.4281 32.5288 41.4688 32.5288C42.4945 32.5288 43.2544 32.132 43.7485 31.3384C44.2502 30.5448 44.5122 29.2944 44.5347 27.5874V24.1846Z" fill="#333333"/>
<path d="M30.272 34V34.4H30.672V34H30.272ZM28.1831 34H27.7831V34.4H28.1831V34ZM28.1831 20.1528H28.5831V19.5798L28.0452 19.7774L28.1831 20.1528ZM23.9941 21.6914H23.5941V22.2645L24.132 22.0669L23.9941 21.6914ZM23.9941 19.8047L23.8535 19.4302L23.5941 19.5276V19.8047H23.9941ZM29.9463 17.5698V17.1698H29.8737L29.8057 17.1954L29.9463 17.5698ZM30.272 17.5698H30.672V17.1698H30.272V17.5698ZM30.272 33.6H28.1831V34.4H30.272V33.6ZM28.5831 34V20.1528H27.7831V34H28.5831ZM28.0452 19.7774L23.8562 21.3159L24.132 22.0669L28.321 20.5283L28.0452 19.7774ZM24.3941 21.6914V19.8047H23.5941V21.6914H24.3941ZM24.1347 20.1792L30.0869 17.9443L29.8057 17.1954L23.8535 19.4302L24.1347 20.1792ZM29.9463 17.9698H30.272V17.1698H29.9463V17.9698ZM29.872 17.5698V34H30.672V17.5698H29.872ZM37.5942 32.4951L37.27 32.7294L37.2707 32.7304L37.5942 32.4951ZM36.2915 27.3066L35.8915 27.3066L35.8915 27.3119L36.2915 27.3066ZM45.332 19.1196L45.0097 19.3565L45.0105 19.3576L45.332 19.1196ZM46.6123 24.3306L47.0123 24.3306L47.0123 24.3267L46.6123 24.3306ZM43.7935 20.3438L43.4521 20.5523L43.453 20.5537L43.7935 20.3438ZM38.3691 24.0273L37.9691 24.0237V24.0273H38.3691ZM39.1328 31.271L38.7901 31.4773L38.7923 31.4808L39.1328 31.271ZM43.7485 31.3384L43.4104 31.1247L43.409 31.127L43.7485 31.3384ZM44.5347 27.5874L44.9347 27.5927V27.5874H44.5347ZM46.2123 27.0259C46.2123 29.4274 45.7996 31.1367 45.0384 32.2203L45.693 32.6801C46.5939 31.3978 47.0123 29.4909 47.0123 27.0259H46.2123ZM45.0384 32.2203C44.2993 33.2723 43.1381 33.8246 41.4688 33.8246V34.6246C43.3332 34.6246 44.77 33.9939 45.693 32.6801L45.0384 32.2203ZM41.4688 33.8246C39.8201 33.8246 38.6639 33.2858 37.9177 32.2598L37.2707 32.7304C38.2017 34.0104 39.6285 34.6246 41.4688 34.6246V33.8246ZM37.9185 32.2608C37.1494 31.1965 36.7209 29.5634 36.6915 27.3014L35.8915 27.3119C35.922 29.6469 36.362 31.4728 37.27 32.7294L37.9185 32.2608ZM36.6915 27.3066V24.5327H35.8915V27.3066H36.6915ZM36.6915 24.5327C36.6915 22.1618 37.104 20.4758 37.864 19.4077L37.2122 18.9439C36.3101 20.2117 35.8915 22.097 35.8915 24.5327H36.6915ZM37.864 19.4077C38.602 18.3705 39.7667 17.8238 41.4463 17.8238V17.0238C39.577 17.0238 38.1363 17.6451 37.2122 18.9439L37.864 19.4077ZM41.4463 17.8238C43.1144 17.8238 44.2731 18.3544 45.0097 19.3565L45.6543 18.8827C44.7289 17.6238 43.297 17.0238 41.4463 17.0238V17.8238ZM45.0105 19.3576C45.7674 20.3804 46.1902 22.0158 46.2123 24.3344L47.0123 24.3267C46.9895 21.9435 46.5588 20.1049 45.6536 18.8817L45.0105 19.3576ZM46.2123 24.3306V27.0259H47.0123V24.3306H46.2123ZM44.9347 24.1846C44.9347 22.4056 44.6881 21.0323 44.1339 20.1338L43.453 20.5537C43.8871 21.2574 44.1347 22.4447 44.1347 24.1846H44.9347ZM44.1348 20.1352C43.5574 19.1904 42.6347 18.7309 41.4463 18.7309V19.5309C42.3991 19.5309 43.0412 19.8799 43.4521 20.5523L44.1348 20.1352ZM41.4463 18.7309C40.2657 18.7309 39.3498 19.1864 38.7797 20.1248L39.4634 20.5402C39.8667 19.8764 40.5005 19.5309 41.4463 19.5309V18.7309ZM38.7797 20.1248C38.2368 21.0186 37.9843 22.3378 37.9692 24.0237L38.7691 24.0309C38.7839 22.3927 39.0331 21.2486 39.4634 20.5402L38.7797 20.1248ZM37.9691 24.0273V27.3516H38.7691V24.0273H37.9691ZM37.9691 27.3516C37.9691 29.1417 38.2243 30.537 38.7901 31.4772L39.4755 31.0648C39.0231 30.3129 38.7691 29.0953 38.7691 27.3516H37.9691ZM38.7923 31.4808C39.3865 32.4454 40.2988 32.9288 41.4688 32.9288V32.1288C40.5574 32.1288 39.9123 31.7736 39.4734 31.0612L38.7923 31.4808ZM41.4688 32.9288C42.6166 32.9288 43.5128 32.4737 44.0881 31.5498L43.409 31.127C42.996 31.7903 42.3724 32.1288 41.4688 32.1288V32.9288ZM44.0867 31.5521C44.6484 30.6633 44.9119 29.3217 44.9346 27.5927L44.1347 27.5821C44.1125 29.2672 43.8519 30.4262 43.4104 31.1247L44.0867 31.5521ZM44.9347 27.5874V24.1846H44.1347V27.5874H44.9347Z" fill="#E6E7FD"/>
<path d="M3.6 0.3H68.4C70.2226 0.3 71.7 1.77744 71.7 3.6V56.4C71.7 58.2226 70.2226 59.7 68.4 59.7H3.6C1.77744 59.7 0.3 58.2226 0.3 56.4V3.6C0.3 1.77744 1.77744 0.3 3.6 0.3ZM68.4 57.9C69.2284 57.9 69.9 57.2284 69.9 56.4V3.6C69.9 2.77161 69.2284 2.1 68.4 2.1H3.6C2.77161 2.1 2.1 2.77161 2.1 3.6V56.4C2.1 57.2284 2.77161 57.9 3.6 57.9H68.4Z" fill="#333333" stroke="#E6E7FD" stroke-width="0.6"/>
<path d="M5.0998 5.10005H6.8998V6.90005H5.0998V5.10005Z" fill="#333333" stroke="#E6E7FD" stroke-width="0.6"/>
<path d="M9.90059 5.10005H11.7006V6.90005H9.90059V5.10005Z" fill="#333333" stroke="#E6E7FD" stroke-width="0.6"/>
<path d="M14.7004 5.10005H16.5004V6.90005H14.7004V5.10005Z" fill="#333333" stroke="#E6E7FD" stroke-width="0.6"/>
</svg>
