<svg width="60" height="60" viewBox="0 0 60 60" fill="none" xmlns="http://www.w3.org/2000/svg">
<path d="M50.0359 33.8906V34.4406H50.5859H54.4764C57.2183 34.4406 59.45 36.6722 59.45 39.414C59.45 41.6012 58.0287 43.4646 56.0587 44.1278L55.6842 44.2538V44.649V58.2422C55.6842 58.9092 55.1434 59.45 54.4764 59.45H5.5234C4.85637 59.45 4.31559 58.9092 4.31559 58.2422V44.649V44.2539L3.94109 44.1278C1.97114 43.4645 0.55 41.6012 0.55 39.414C0.55 36.6722 2.78157 34.4406 5.5234 34.4406H9.41391H9.96391V33.8906V14.9375C9.96391 11.6766 12.6178 9.02266 15.8789 9.02266H19.9211H20.3837L20.4629 8.56689C21.2539 4.01895 25.2305 0.55 30 0.55C34.7694 0.55 38.7459 4.01894 39.5368 8.56689L39.6161 9.02266H40.0787H44.1211C47.3819 9.02266 50.0359 11.6766 50.0359 14.9375V33.8906ZM47.0702 34.4406H47.6202V33.8906V14.9375C47.6202 13.0076 46.0511 11.4383 44.1211 11.4383H40.0786H39.616L39.5367 11.894C39.1031 14.3871 37.7117 16.5578 35.754 18.0098L35.053 18.5297L35.8246 18.9377C39.7951 21.0373 42.5045 25.209 42.5045 30V33.8906V34.4406H43.0545H47.0702ZM19.9109 33.8906V34.4406H20.4609H28.2422H28.7922V33.8906V28.8454V28.6175L28.6311 28.4565L23.3526 23.1777L22.9461 22.7712L22.558 23.1953C20.9159 24.9898 19.9109 27.3798 19.9109 30V33.8906ZM34.5846 21.8246L35.1279 21.2813L34.4384 20.9422C33.098 20.2829 31.5914 19.9109 30 19.9109C28.4088 19.9109 26.9021 20.2828 25.5618 20.9421L24.8724 21.2812L25.4157 21.8245L29.6112 26.0202L30.0001 26.4091L30.389 26.0202L34.5846 21.8246ZM31.3689 28.4563L31.2078 28.6174V28.8452V33.8906V34.4406H31.7578H39.5388H40.0888V33.8906V30C40.0888 27.38 39.084 24.99 37.4421 23.1956L37.0539 22.7714L36.6474 23.178L31.3689 28.4563ZM22.7355 10.2304L22.7354 10.2352L22.7354 10.2435C22.7425 14.2438 25.998 17.4953 30 17.4953C34.0063 17.4953 37.2647 14.2368 37.2647 10.2305C37.2647 6.22419 34.0063 2.96563 30 2.96563C25.998 2.96563 22.7425 6.2171 22.7354 10.2174V10.2184C22.7354 10.2226 22.7354 10.2267 22.7355 10.2304ZM20.4629 11.894L20.3837 11.4383H19.9211H15.8789C13.949 11.4383 12.3795 13.0075 12.3795 14.9375V33.8906V34.4406H12.9295H16.9453H17.4953V33.8906V30C17.4953 25.2091 20.2048 21.0374 24.1752 18.9378L24.9467 18.5299L24.2457 18.0099C22.2881 16.5578 20.8965 14.3871 20.4629 11.894ZM52.7186 57.0344H53.2686V56.4844V44.9375V44.3875H52.7186H7.28121H6.73121V44.9375V56.4844V57.0344H7.28121H52.7186ZM5.5234 41.9719H54.4764C55.8874 41.9719 57.0343 40.825 57.0345 39.4141C57.0345 38.0031 55.8874 36.8563 54.4765 36.8563H41.2968H18.7031H5.5234C4.11257 36.8563 2.96563 38.0032 2.96563 39.414C2.96563 40.8249 4.11255 41.9719 5.5234 41.9719Z" fill="#333333" stroke="#C8F5E1" stroke-width="1.1"/>
</svg>
