<svg width="27" height="27" fill="none" xmlns="http://www.w3.org/2000/svg"><path d="M22.725.898H4.238C2.355.898.826 2.418.826 4.289v18.38c0 1.87 1.53 3.39 3.412 3.39h9.12l.018-8.992h-2.353a.56.56 0 01-.557-.548l-.012-2.899c0-.307.247-.554.557-.554h2.346v-2.8c0-3.25 1.994-5.023 4.91-5.023h2.39c.303 0 .557.247.557.554v2.444a.557.557 0 01-.557.554h-1.468c-1.584 0-1.894.75-1.894 1.846v2.425h3.486c.334 0 .588.29.55.616l-.346 2.899a.554.554 0 01-.551.486h-3.127l-.018 8.993h5.423c1.883 0 3.412-1.52 3.412-3.392V4.29c.012-1.87-1.517-3.391-3.4-3.391z" fill="#fff"/></svg>