<svg width="28" height="27" fill="none" xmlns="http://www.w3.org/2000/svg"><g clip-path="url(#clip0)" fill="#fff"><path d="M19.496.898H9.266c-4.161 0-7.542 3.36-7.542 7.498v10.17c0 4.133 3.381 7.494 7.543 7.494h10.23c4.156 0 7.542-3.361 7.542-7.499V8.396C27.034 4.26 23.653.898 19.496.898zm4.994 17.668c0 2.74-2.238 4.964-4.994 4.964H9.266c-2.755 0-4.992-2.224-4.992-4.964V8.396c0-2.74 2.237-4.964 4.993-4.964h10.23c2.755 0 4.992 2.224 4.992 4.964v10.17z"/><path d="M14.379 6.972c-3.61 0-6.546 2.918-6.546 6.507 0 3.59 2.935 6.507 6.546 6.507 3.61 0 6.546-2.918 6.546-6.507 0-3.59-2.936-6.507-6.546-6.507zm0 10.484c-2.21 0-4.001-1.78-4.001-3.977 0-2.196 1.791-3.977 4-3.977 2.21 0 4.002 1.78 4.002 3.977s-1.792 3.977-4.001 3.977zm6.561-8.877c.864 0 1.566-.697 1.566-1.557s-.702-1.558-1.567-1.558-1.566.698-1.566 1.558c0 .86.701 1.557 1.566 1.557z"/></g><defs><clipPath id="clip0"><path fill="#fff" transform="translate(.898)" d="M0 0h26.305v26.305H0z"/></clipPath></defs></svg>