<svg width="27" height="27" fill="none" xmlns="http://www.w3.org/2000/svg"><g clip-path="url(#clip0)"><path d="M13.59.898C6.642.898 1.01 6.53 1.01 13.478S6.642 26.06 13.59 26.06s12.581-5.634 12.581-12.581c0-6.948-5.633-12.581-12.58-12.581zm0 4.419l7.445 4.642H6.145l7.445-4.642zm7.538 12.056c0 .744-.604 1.348-1.349 1.348H7.402a1.348 1.348 0 01-1.348-1.348v-7.118c0-.08.008-.156.02-.23l7.114 4.435.027.014a.847.847 0 00.183.075l.017.004a.772.772 0 00.175.022h.001a.754.754 0 00.176-.022l.016-.004a.755.755 0 00.184-.075l.027-.014 7.113-4.436c.013.075.021.152.021.23v7.119z" fill="#fff"/></g><defs><clipPath id="clip0"><path fill="#fff" transform="translate(.695)" d="M0 0h26.305v26.305H0z"/></clipPath></defs></svg>