<svg width="28" height="27" fill="none" xmlns="http://www.w3.org/2000/svg"><g clip-path="url(#clip0)"><path d="M14.204 26.06c6.948 0 12.58-5.632 12.58-12.58S21.152.9 14.204.9C7.255.9 1.623 6.531 1.623 13.48s5.632 12.58 12.58 12.58z" fill="#fff"/><path d="M12.982 15.312l5.685 4.293 2.87-12.251-14.667 5.77 4.463 1.477 8.145-5.463-6.496 6.174z" fill="#0B0B0B"/><path d="M11.333 14.601L12.556 19l.426-3.688 6.497-6.175-8.146 5.464z" fill="#0B0B0B"/><path d="M14.83 16.707L12.555 19l.427-3.688 1.848 1.395z" fill="#0B0B0B"/></g><defs><clipPath id="clip0"><path fill="#fff" transform="translate(.797)" d="M0 0h26.305v26.305H0z"/></clipPath></defs></svg>